<svg width="49" height="48" viewBox="0 0 49 48" fill="none" xmlns="http://www.w3.org/2000/svg">
<path d="M34.5 7H14.5C8.5 7 4.5 10 4.5 17V31C4.5 38 8.5 41 14.5 41H34.5C40.5 41 44.5 38 44.5 31V17C44.5 10 40.5 7 34.5 7ZM35.44 19.18L29.18 24.18C27.86 25.24 26.18 25.76 24.5 25.76C22.82 25.76 21.12 25.24 19.82 24.18L13.56 19.18C12.92 18.66 12.82 17.7 13.32 17.06C13.84 16.42 14.78 16.3 15.42 16.82L21.68 21.82C23.2 23.04 25.78 23.04 27.3 21.82L33.56 16.82C34.2 16.3 35.16 16.4 35.66 17.06C36.18 17.7 36.08 18.66 35.44 19.18Z" fill="#6E7071"/>
</svg>
