<svg width="18" height="18" viewBox="0 0 18 18" fill="none" xmlns="http://www.w3.org/2000/svg">
<path d="M15.023 7.14797L9.39799 12.773C9.34574 12.8253 9.28371 12.8668 9.21542 12.8951C9.14713 12.9234 9.07394 12.9379 9.00002 12.9379C8.9261 12.9379 8.8529 12.9234 8.78461 12.8951C8.71633 12.8668 8.65429 12.8253 8.60205 12.773L2.97705 7.14797C2.89829 7.0693 2.84465 6.96903 2.82291 6.85986C2.80116 6.75069 2.8123 6.63752 2.85492 6.53468C2.89753 6.43184 2.96969 6.34396 3.06228 6.28216C3.15486 6.22036 3.2637 6.18741 3.37502 6.1875H14.625C14.7363 6.18741 14.8452 6.22036 14.9378 6.28216C15.0303 6.34396 15.1025 6.43184 15.1451 6.53468C15.1877 6.63752 15.1989 6.75069 15.1771 6.85986C15.1554 6.96903 15.1017 7.0693 15.023 7.14797Z" fill="white"/>
</svg>
