<svg width="17" height="18" viewBox="0 0 17 18" fill="none" xmlns="http://www.w3.org/2000/svg">
<g clip-path="url(#clip0_118_7631)">
<path d="M13.8125 5.54688H11.9531V4.21875C11.9531 3.30292 11.5893 2.42461 10.9417 1.77702C10.2941 1.12944 9.41583 0.765625 8.5 0.765625C7.58417 0.765625 6.70586 1.12944 6.05827 1.77702C5.41069 2.42461 5.04688 3.30292 5.04688 4.21875V5.54688H3.1875C2.83526 5.54688 2.49745 5.6868 2.24837 5.93587C1.9993 6.18495 1.85938 6.52276 1.85938 6.875V14.3125C1.85938 14.6647 1.9993 15.0026 2.24837 15.2516C2.49745 15.5007 2.83526 15.6406 3.1875 15.6406H13.8125C14.1647 15.6406 14.5026 15.5007 14.7516 15.2516C15.0007 15.0026 15.1406 14.6647 15.1406 14.3125V6.875C15.1406 6.52276 15.0007 6.18495 14.7516 5.93587C14.5026 5.6868 14.1647 5.54688 13.8125 5.54688ZM6.64062 4.21875C6.64062 3.72561 6.83652 3.25267 7.18522 2.90397C7.53392 2.55527 8.00686 2.35938 8.5 2.35938C8.99314 2.35938 9.46608 2.55527 9.81478 2.90397C10.1635 3.25267 10.3594 3.72561 10.3594 4.21875V5.54688H6.64062V4.21875ZM13.5469 14.0469H3.45312V7.14062H13.5469V14.0469ZM8.5 7.9375C8.007 7.93768 7.52939 8.10928 7.149 8.42289C6.76861 8.73651 6.5091 9.17263 6.41492 9.65656C6.32074 10.1405 6.39775 10.6421 6.63277 11.0755C6.86778 11.5089 7.24617 11.8471 7.70312 12.0321V12.4531C7.70312 12.6645 7.78708 12.8672 7.93652 13.0166C8.08597 13.166 8.28866 13.25 8.5 13.25C8.71134 13.25 8.91403 13.166 9.06348 13.0166C9.21292 12.8672 9.29688 12.6645 9.29688 12.4531V12.0321C9.75383 11.8471 10.1322 11.5089 10.3672 11.0755C10.6022 10.6421 10.6793 10.1405 10.5851 9.65656C10.4909 9.17263 10.2314 8.73651 9.851 8.42289C9.47061 8.10928 8.993 7.93768 8.5 7.9375ZM8.5 9.53125C8.60507 9.53125 8.70778 9.56241 8.79515 9.62078C8.88251 9.67916 8.9506 9.76213 8.99081 9.8592C9.03102 9.95627 9.04154 10.0631 9.02104 10.1661C9.00054 10.2692 8.94995 10.3639 8.87565 10.4382C8.80135 10.5124 8.70669 10.563 8.60364 10.5835C8.50059 10.604 8.39377 10.5935 8.2967 10.5533C8.19963 10.5131 8.11666 10.445 8.05828 10.3576C7.99991 10.2703 7.96875 10.1676 7.96875 10.0625C7.96875 9.9216 8.02472 9.78648 8.12435 9.68685C8.22398 9.58722 8.3591 9.53125 8.5 9.53125Z" fill="#1E8DCC"/>
</g>
<defs>
<clipPath id="clip0_118_7631">
<rect width="17" height="17" fill="white" transform="translate(0 0.5)"/>
</clipPath>
</defs>
</svg>
