<svg width="20" height="20" viewBox="0 0 20 20" fill="none" xmlns="http://www.w3.org/2000/svg">
<path d="M13.75 10C13.75 10.1516 13.7133 10.301 13.643 10.4353C13.5726 10.5696 13.4708 10.6848 13.3461 10.7711L9.2836 13.5836C9.14291 13.681 8.97826 13.738 8.80748 13.7485C8.6367 13.759 8.46631 13.7225 8.31477 13.6431C8.16322 13.5637 8.03631 13.4443 7.94777 13.2979C7.85923 13.1515 7.81246 12.9836 7.8125 12.8125V7.1875C7.81246 7.0164 7.85923 6.84855 7.94777 6.70213C8.03631 6.55572 8.16322 6.43633 8.31477 6.35689C8.46631 6.27746 8.6367 6.24101 8.80748 6.2515C8.97826 6.26199 9.14291 6.31902 9.2836 6.41641L13.3461 9.22891C13.4708 9.3152 13.5726 9.43043 13.643 9.56473C13.7133 9.69903 13.75 9.84839 13.75 10ZM18.4375 10C18.4375 11.6688 17.9427 13.3001 17.0155 14.6876C16.0884 16.0752 14.7706 17.1566 13.2289 17.7952C11.6871 18.4338 9.99064 18.6009 8.35393 18.2754C6.71721 17.9498 5.2138 17.1462 4.03379 15.9662C2.85379 14.7862 2.05019 13.2828 1.72463 11.6461C1.39907 10.0094 1.56616 8.31286 2.20477 6.77111C2.84338 5.22936 3.92484 3.9116 5.31238 2.98448C6.69992 2.05735 8.33122 1.5625 10 1.5625C12.237 1.56498 14.3817 2.45473 15.9635 4.03653C17.5453 5.61833 18.435 7.763 18.4375 10ZM16.5625 10C16.5625 8.70206 16.1776 7.43327 15.4565 6.35407C14.7354 5.27487 13.7105 4.43374 12.5114 3.93704C11.3122 3.44034 9.99272 3.31038 8.71972 3.5636C7.44672 3.81681 6.2774 4.44183 5.35962 5.35961C4.44183 6.27739 3.81682 7.44672 3.5636 8.71972C3.31038 9.99272 3.44034 11.3122 3.93704 12.5114C4.43374 13.7105 5.27488 14.7354 6.35407 15.4565C7.43327 16.1776 8.70206 16.5625 10 16.5625C11.7399 16.5606 13.408 15.8686 14.6383 14.6383C15.8686 13.408 16.5606 11.7399 16.5625 10Z" fill="#1E8DCC"/>
</svg>
