<svg width="28" height="28" viewBox="0 0 28 28" fill="none" xmlns="http://www.w3.org/2000/svg">
<path id="Star 2" d="M12.0248 2.42348C12.3822 0.175527 15.6178 0.175526 15.9752 2.42348L17.0644 9.27443C17.2003 10.1293 17.8707 10.7997 18.7256 10.9356L25.5765 12.0248C27.8245 12.3822 27.8245 15.6178 25.5765 15.9752L18.7256 17.0644C17.8707 17.2003 17.2003 17.8707 17.0644 18.7256L15.9752 25.5765C15.6178 27.8245 12.3822 27.8245 12.0248 25.5765L10.9356 18.7256C10.7997 17.8707 10.1293 17.2003 9.27443 17.0644L2.42348 15.9752C0.175527 15.6178 0.175526 12.3822 2.42348 12.0248L9.27443 10.9356C10.1293 10.7997 10.7997 10.1293 10.9356 9.27443L12.0248 2.42348Z" fill="#1E8DCC"/>
</svg>
