<svg width="35" height="35" viewBox="0 0 35 35" fill="none" xmlns="http://www.w3.org/2000/svg">
<path id="Star 3" d="M15.5248 2.42349C15.8822 0.175534 19.1178 0.175524 19.4752 2.42348L21.0445 12.2943C21.1805 13.1491 21.8509 13.8195 22.7057 13.9555L32.5765 15.5248C34.8245 15.8822 34.8245 19.1178 32.5765 19.4752L22.7057 21.0445C21.8509 21.1805 21.1805 21.8509 21.0445 22.7057L19.4752 32.5765C19.1178 34.8245 15.8822 34.8245 15.5248 32.5765L13.9555 22.7057C13.8195 21.8509 13.1491 21.1805 12.2943 21.0445L2.42349 19.4752C0.175534 19.1178 0.175524 15.8822 2.42348 15.5248L12.2943 13.9555C13.1491 13.8195 13.8195 13.1491 13.9555 12.2943L15.5248 2.42349Z" fill="#272A2B"/>
</svg>
