<svg width="18" height="16" viewBox="0 0 18 16" fill="none" xmlns="http://www.w3.org/2000/svg">
<path id="Star 8" d="M1.23068 2.97369C0.878605 2.24832 1.08787 1.51606 1.60228 1.02873C2.1196 0.538638 2.92415 0.322734 3.72533 0.671739L7.81007 2.45112C8.56601 2.78043 9.4342 2.78043 10.1901 2.45112L14.2749 0.671738C15.0761 0.322733 15.8806 0.538638 16.3979 1.02873C16.9123 1.51606 17.1216 2.24832 16.7695 2.97369L14.8913 6.84344C14.5353 7.57682 14.5353 8.42318 14.8913 9.15656L16.7695 13.0263C17.1216 13.7517 16.9123 14.4839 16.3979 14.9713C15.8806 15.4614 15.0761 15.6773 14.2749 15.3283L10.1901 13.5489C9.4342 13.2196 8.56601 13.2196 7.81007 13.5489L3.72533 15.3283C2.92415 15.6773 2.1196 15.4614 1.60228 14.9713C1.08787 14.4839 0.878605 13.7517 1.23068 13.0263L3.10891 9.15656C3.46487 8.42318 3.46487 7.57682 3.10891 6.84344L1.23068 2.97369Z" fill="#9C9D9D" stroke="url(#paint0_linear_376_11569)"/>
<defs>
<linearGradient id="paint0_linear_376_11569" x1="9.00011" y1="0" x2="9.00011" y2="16" gradientUnits="userSpaceOnUse">
<stop stop-color="white"/>
<stop offset="1" stop-color="#BCBDBD" stop-opacity="0.2"/>
</linearGradient>
</defs>
</svg>
