<svg width="24" height="24" viewBox="0 0 24 24" fill="none" xmlns="http://www.w3.org/2000/svg">
<path d="M22.95 14.0999C22.8712 14.159 22.7815 14.202 22.6861 14.2265C22.5907 14.2509 22.4914 14.2563 22.3939 14.2424C22.2964 14.2285 22.2026 14.1955 22.1179 14.1453C22.0331 14.0951 21.9591 14.0287 21.9 13.9499C21.4479 13.3423 20.8595 12.8493 20.1821 12.5106C19.5048 12.1719 18.7573 11.997 18 11.9999C17.8525 11.9999 17.7083 11.9564 17.5854 11.8749C17.4625 11.7933 17.3664 11.6774 17.309 11.5415C17.2701 11.4492 17.25 11.3501 17.25 11.2499C17.25 11.1498 17.2701 11.0506 17.309 10.9584C17.3664 10.8225 17.4625 10.7065 17.5854 10.625C17.7083 10.5434 17.8525 10.4999 18 10.4999C18.4208 10.4999 18.8332 10.3818 19.1903 10.1592C19.5473 9.93653 19.8348 9.61819 20.0201 9.24034C20.2053 8.86248 20.2809 8.44025 20.2382 8.02161C20.1955 7.60296 20.0362 7.20468 19.7785 6.87201C19.5208 6.53933 19.1749 6.2856 18.7803 6.13963C18.3856 5.99365 17.9579 5.96129 17.5457 6.04622C17.1335 6.13115 16.7535 6.32996 16.4486 6.62007C16.1438 6.91018 15.9264 7.27997 15.8212 7.68742C15.7966 7.78284 15.7534 7.87247 15.6942 7.95119C15.6349 8.02992 15.5607 8.09621 15.4758 8.14626C15.391 8.19632 15.2971 8.22917 15.1995 8.24293C15.1019 8.2567 15.0026 8.25111 14.9072 8.22649C14.8118 8.20186 14.7221 8.15869 14.6434 8.09943C14.5647 8.04016 14.4984 7.96598 14.4483 7.8811C14.3983 7.79622 14.3654 7.70231 14.3517 7.60474C14.3379 7.50717 14.3435 7.40784 14.3681 7.31242C14.5141 6.7474 14.79 6.22426 15.1738 5.78463C15.5576 5.34499 16.0387 5.00099 16.5788 4.78C17.1189 4.55901 17.7031 4.46713 18.285 4.51167C18.8669 4.55621 19.4304 4.73594 19.9305 5.03656C20.4307 5.33718 20.8539 5.75039 21.1663 6.24332C21.4787 6.73624 21.6717 7.29527 21.73 7.87593C21.7884 8.45659 21.7104 9.04285 21.5022 9.58806C21.2941 10.1333 20.9616 10.6224 20.5312 11.0165C21.5511 11.458 22.4376 12.1587 23.1028 13.049C23.1619 13.128 23.2048 13.2179 23.2291 13.3135C23.2534 13.4091 23.2586 13.5085 23.2444 13.6062C23.2302 13.7038 23.1969 13.7976 23.1464 13.8824C23.0959 13.9671 23.0291 14.041 22.95 14.0999ZM17.8987 19.8749C17.953 19.9603 17.9894 20.0557 18.0058 20.1556C18.0223 20.2554 18.0183 20.3575 17.9943 20.4557C17.9702 20.554 17.9265 20.6463 17.8658 20.7272C17.8051 20.8082 17.7287 20.876 17.6411 20.9266C17.5536 20.9772 17.4566 21.0096 17.3562 21.0218C17.2558 21.034 17.154 21.0258 17.0568 20.9976C16.9597 20.9694 16.8692 20.9219 16.7909 20.8578C16.7126 20.7938 16.6481 20.7146 16.6012 20.6249C16.1288 19.8249 15.4559 19.1619 14.649 18.7014C13.8421 18.2408 12.9291 17.9986 12 17.9986C11.0709 17.9986 10.1579 18.2408 9.35096 18.7014C8.54406 19.1619 7.87119 19.8249 7.39873 20.6249C7.35184 20.7146 7.28731 20.7938 7.20901 20.8578C7.13072 20.9219 7.04028 20.9694 6.94313 20.9976C6.84599 21.0258 6.74414 21.034 6.64373 21.0218C6.54331 21.0096 6.44641 20.9772 6.35883 20.9266C6.27126 20.876 6.19483 20.8082 6.13414 20.7272C6.07346 20.6463 6.02977 20.554 6.0057 20.4557C5.98164 20.3575 5.97769 20.2554 5.99411 20.1556C6.01053 20.0557 6.04696 19.9603 6.10123 19.8749C6.82835 18.6256 7.93704 17.6424 9.26435 17.0699C8.51747 16.4981 7.96857 15.7066 7.69479 14.8066C7.42102 13.9067 7.43613 12.9436 7.73802 12.0527C8.03991 11.1618 8.61339 10.3879 9.37786 9.83981C10.1423 9.29169 11.0593 8.99692 12 8.99692C12.9406 8.99692 13.8576 9.29169 14.6221 9.83981C15.3866 10.3879 15.96 11.1618 16.2619 12.0527C16.5638 12.9436 16.5789 13.9067 16.3052 14.8066C16.0314 15.7066 15.4825 16.4981 14.7356 17.0699C16.0629 17.6424 17.1716 18.6256 17.8987 19.8749ZM12 16.4999C12.5933 16.4999 13.1733 16.324 13.6667 15.9943C14.16 15.6647 14.5446 15.1962 14.7716 14.648C14.9987 14.0998 15.0581 13.4966 14.9423 12.9147C14.8266 12.3327 14.5409 11.7982 14.1213 11.3786C13.7017 10.959 13.1672 10.6733 12.5852 10.5576C12.0033 10.4418 11.4001 10.5012 10.8519 10.7283C10.3038 10.9553 9.83521 11.3399 9.50557 11.8332C9.17593 12.3266 8.99998 12.9066 8.99998 13.4999C8.99998 14.2956 9.31605 15.0586 9.87866 15.6212C10.4413 16.1839 11.2043 16.4999 12 16.4999ZM6.74998 11.2499C6.74998 11.051 6.67096 10.8602 6.53031 10.7196C6.38966 10.5789 6.19889 10.4999 5.99998 10.4999C5.57916 10.4999 5.16679 10.3818 4.8097 10.1592C4.45261 9.93653 4.16512 9.61819 3.97988 9.24034C3.79465 8.86248 3.71909 8.44025 3.76179 8.02161C3.80449 7.60296 3.96374 7.20468 4.22145 6.87201C4.47917 6.53933 4.82501 6.2856 5.2197 6.13963C5.61439 5.99365 6.0421 5.96129 6.45426 6.04622C6.86642 6.13115 7.2465 6.32996 7.55133 6.62007C7.85616 6.91018 8.07352 7.27997 8.17873 7.68742C8.22846 7.88012 8.3527 8.04517 8.52412 8.14626C8.69554 8.24736 8.90009 8.27621 9.09279 8.22649C9.28549 8.17676 9.45054 8.05252 9.55163 7.8811C9.65273 7.70968 9.68158 7.50512 9.63185 7.31242C9.48583 6.7474 9.20996 6.22426 8.82618 5.78463C8.4424 5.34499 7.96131 5.00099 7.42119 4.78C6.88106 4.55901 6.29682 4.46713 5.71494 4.51167C5.13306 4.55621 4.56961 4.73594 4.06941 5.03656C3.56921 5.33718 3.14608 5.75039 2.83369 6.24332C2.52129 6.73624 2.32825 7.29527 2.26992 7.87593C2.21159 8.45659 2.28959 9.04285 2.49771 9.58806C2.70583 10.1333 3.03832 10.6224 3.46873 11.0165C2.44993 11.4585 1.5644 12.1591 0.899979 13.049C0.780508 13.2081 0.729143 13.4082 0.757186 13.6052C0.785228 13.8022 0.890381 13.98 1.04951 14.0995C1.20864 14.2189 1.40871 14.2703 1.60571 14.2422C1.80271 14.2142 1.98051 14.1091 2.09998 13.9499C2.55203 13.3423 3.14043 12.8493 3.81781 12.5106C4.4952 12.1719 5.24264 11.997 5.99998 11.9999C6.19889 11.9999 6.38966 11.9209 6.53031 11.7803C6.67096 11.6396 6.74998 11.4488 6.74998 11.2499Z" fill="#101212"/>
</svg>
