<svg width="24" height="24" viewBox="0 0 24 24" fill="none" xmlns="http://www.w3.org/2000/svg">
<path d="M16.7025 16.4999H10.4362C10.3227 17.1716 10.0582 17.8089 9.6625 18.3635C9.26684 18.9181 8.75042 19.3756 8.15218 19.7016C7.55393 20.0275 6.88949 20.2134 6.20895 20.2452C5.52841 20.2769 4.84954 20.1538 4.22354 19.8849C3.59754 19.6161 3.04074 19.2087 2.59515 18.6933C2.14955 18.178 1.82678 17.5682 1.65119 16.9099C1.47559 16.2517 1.45175 15.5621 1.58146 14.8933C1.71117 14.2245 1.99105 13.5938 2.39999 13.0489C2.51946 12.8898 2.69725 12.7847 2.89425 12.7566C3.09125 12.7286 3.29133 12.7799 3.45046 12.8994C3.60959 13.0189 3.71474 13.1967 3.74278 13.3937C3.77082 13.5907 3.71946 13.7908 3.59999 13.9499C3.20862 14.4682 2.99787 15.1004 2.99999 15.7499C2.99999 16.5455 3.31606 17.3086 3.87867 17.8712C4.44128 18.4338 5.20434 18.7499 5.99999 18.7499C6.79564 18.7499 7.5587 18.4338 8.12131 17.8712C8.68392 17.3086 8.99999 16.5455 8.99999 15.7499C8.99999 15.551 9.079 15.3602 9.21966 15.2196C9.36031 15.0789 9.55107 14.9999 9.74999 14.9999H16.7025C16.8676 14.7139 17.1224 14.4904 17.4275 14.3641C17.7326 14.2377 18.0708 14.2155 18.3898 14.301C18.7087 14.3865 18.9905 14.5748 19.1916 14.8367C19.3926 15.0987 19.5015 15.4197 19.5015 15.7499C19.5015 16.0801 19.3926 16.4011 19.1916 16.663C18.9905 16.925 18.7087 17.1133 18.3898 17.1988C18.0708 17.2842 17.7326 17.2621 17.4275 17.1357C17.1224 17.0093 16.8676 16.7858 16.7025 16.4999ZM5.99999 17.2499C6.25979 17.25 6.51515 17.1826 6.74108 17.0543C6.96701 16.9261 7.15575 16.7413 7.28882 16.5182C7.42189 16.295 7.49472 16.0412 7.50018 15.7814C7.50565 15.5217 7.44355 15.265 7.31999 15.0364L10.6734 9.58582C10.7775 9.41647 10.8101 9.21273 10.764 9.01937C10.718 8.826 10.597 8.65883 10.4278 8.55457C10.0269 8.30779 9.68976 7.97013 9.44355 7.5689C9.19735 7.16768 9.04902 6.71414 9.01056 6.24497C8.9721 5.7758 9.04459 5.30416 9.22216 4.8682C9.39974 4.43223 9.67742 4.04417 10.0327 3.7354C10.3881 3.42662 10.8111 3.2058 11.2676 3.09079C11.724 2.97577 12.2012 2.9698 12.6604 3.07334C13.1196 3.17688 13.548 3.38703 13.911 3.68681C14.2739 3.98658 14.5612 4.36757 14.7497 4.79895C14.8292 4.98133 14.978 5.12463 15.1632 5.19733C15.3484 5.27003 15.555 5.26617 15.7373 5.1866C15.9197 5.10704 16.063 4.95828 16.1357 4.77306C16.2084 4.58784 16.2046 4.38133 16.125 4.19895C15.8548 3.58135 15.4494 3.03234 14.9385 2.59247C14.4277 2.1526 13.8246 1.83312 13.1737 1.65762C12.5229 1.48212 11.8409 1.45509 11.1782 1.57853C10.5155 1.70196 9.88898 1.97271 9.34495 2.37077C8.80092 2.76882 8.35328 3.28402 8.03508 3.8783C7.71688 4.47258 7.53626 5.13076 7.50656 5.80421C7.47687 6.47766 7.59885 7.14918 7.86351 7.76916C8.12817 8.38914 8.52873 8.94174 9.03561 9.38614L6.04124 14.2499C6.02717 14.2499 6.01405 14.2499 5.99999 14.2499C5.60216 14.2499 5.22063 14.4079 4.93933 14.6892C4.65802 14.9705 4.49999 15.3521 4.49999 15.7499C4.49999 16.1477 4.65802 16.5292 4.93933 16.8105C5.22063 17.0918 5.60216 17.2499 5.99999 17.2499ZM18 11.2499C17.4217 11.2499 16.8489 11.361 16.3125 11.5771L13.32 6.71239C13.476 6.42343 13.5328 6.09128 13.4818 5.7669C13.4308 5.44253 13.2748 5.14384 13.0376 4.9167C12.8005 4.68955 12.4954 4.54648 12.1692 4.50945C11.8429 4.47242 11.5135 4.54348 11.2315 4.71171C10.9495 4.87995 10.7305 5.13606 10.6081 5.44076C10.4857 5.74546 10.4667 6.0819 10.5539 6.39846C10.6412 6.71502 10.8299 6.9942 11.0911 7.19316C11.3523 7.39213 11.6716 7.49988 12 7.49989H12.0412L15.3956 12.9514C15.5 13.1205 15.6673 13.2413 15.8606 13.2871C16.054 13.333 16.2576 13.3003 16.4269 13.1961C16.8217 12.9527 17.2677 12.8042 17.7296 12.7622C18.1916 12.7202 18.657 12.7859 19.0893 12.9542C19.5215 13.1224 19.9089 13.3886 20.2209 13.7318C20.533 14.0751 20.7612 14.486 20.8876 14.9323C21.014 15.3786 21.0352 15.8481 20.9495 16.304C20.8638 16.7599 20.6736 17.1897 20.3938 17.5597C20.114 17.9296 19.7521 18.2296 19.3368 18.4362C18.9214 18.6427 18.4639 18.7501 18 18.7499C17.8011 18.7499 17.6103 18.8289 17.4697 18.9696C17.329 19.1102 17.25 19.301 17.25 19.4999C17.25 19.6988 17.329 19.8896 17.4697 20.0302C17.6103 20.1709 17.8011 20.2499 18 20.2499C19.1935 20.2499 20.3381 19.7758 21.182 18.9319C22.0259 18.088 22.5 16.9434 22.5 15.7499C22.5 14.5564 22.0259 13.4118 21.182 12.5679C20.3381 11.724 19.1935 11.2499 18 11.2499Z" fill="black"/>
</svg>
