<svg width="180" height="60" viewBox="0 0 180 60" fill="none" xmlns="http://www.w3.org/2000/svg">
<path d="M30.0122 55.0077C16.2047 55.0077 5.01221 43.8152 5.01221 30.0077C5.01221 16.2002 16.2047 5.00769 30.0122 5.00769C43.8197 5.00769 55.0122 16.2002 55.0122 30.0077C55.0122 43.8152 43.8197 55.0077 30.0122 55.0077ZM22.5122 32.5077V37.5077H20.0122V42.5077H40.0122V37.5077H27.5122V32.5077H35.0122V27.5077H27.5122V25.0077C27.5116 24.198 27.7731 23.4098 28.2576 22.761C28.7421 22.1122 29.4236 21.6377 30.2002 21.4084C30.9768 21.1791 31.8067 21.2073 32.5659 21.4888C33.3252 21.7703 33.9729 22.29 34.4122 22.9702L39.3772 21.7277C38.6151 19.8457 37.2223 18.2873 35.4375 17.3193C33.6527 16.3513 31.5869 16.0339 29.5938 16.4215C27.6007 16.8092 25.8044 17.8777 24.5125 19.4441C23.2206 21.0104 22.5135 22.9773 22.5122 25.0077V27.5077H20.0122V32.5077H22.5122Z" fill="#E2CD14"/>
<path d="M70 2.74866C54.9494 2.74866 42.7488 14.9493 42.7488 29.9999C42.7488 45.0505 54.9494 57.2512 70 57.2512C85.0507 57.2512 97.2513 45.0505 97.2513 29.9999C97.2513 14.9493 85.0507 2.74866 70 2.74866ZM72.3532 44.7749V48.613H68.6819V44.818C62.6575 43.993 60.0194 39.043 60.0194 39.043L63.7694 35.9062C63.7694 35.9062 66.1638 40.0743 70.495 40.0743C72.8875 40.0743 74.7025 38.7937 74.7025 36.6055C74.7025 31.4905 60.9213 32.1112 60.9213 22.6218C60.9213 18.4968 64.1838 15.5249 68.68 14.8218V10.9874H72.3513V14.8218C75.4863 15.2343 79.1988 16.8843 79.1988 20.4337V23.1562H74.3313V21.8362C74.3313 20.4749 72.5969 19.5674 70.6563 19.5674C68.1813 19.5674 66.3682 20.8049 66.3682 22.5374C66.3682 27.7762 80.1494 26.4974 80.1494 36.4405C80.1494 40.528 77.0969 44.0718 72.3532 44.7749Z" fill="#14E2BD"/>
<path fill-rule="evenodd" clip-rule="evenodd" d="M110 54C116.365 54 122.47 51.4714 126.971 46.9706C131.471 42.4697 134 36.3652 134 30C134 23.6348 131.471 17.5303 126.971 13.0294C122.47 8.52856 116.365 6 110 6C103.635 6 97.5303 8.52856 93.0294 13.0294C88.5286 17.5303 86 23.6348 86 30C86 36.3652 88.5286 42.4697 93.0294 46.9706C97.5303 51.4714 103.635 54 110 54ZM102.038 15.882C101.675 15.4078 101.139 15.0971 100.547 15.0184C99.9551 14.9396 99.3562 15.0992 98.882 15.462C98.4078 15.8248 98.0971 16.3612 98.0184 16.953C97.9396 17.5449 98.0992 18.1438 98.462 18.618L107.168 30H100.25C99.6533 30 99.081 30.2371 98.659 30.659C98.2371 31.081 98 31.6533 98 32.25C98 32.8467 98.2371 33.419 98.659 33.841C99.081 34.2629 99.6533 34.5 100.25 34.5H107.75V37.5H100.25C99.6533 37.5 99.081 37.7371 98.659 38.159C98.2371 38.581 98 39.1533 98 39.75C98 40.3467 98.2371 40.919 98.659 41.341C99.081 41.7629 99.6533 42 100.25 42H107.75V45.75C107.75 46.3467 107.987 46.919 108.409 47.341C108.831 47.7629 109.403 48 110 48C110.597 48 111.169 47.7629 111.591 47.341C112.013 46.919 112.25 46.3467 112.25 45.75V42H119.75C120.347 42 120.919 41.7629 121.341 41.341C121.763 40.919 122 40.3467 122 39.75C122 39.1533 121.763 38.581 121.341 38.159C120.919 37.7371 120.347 37.5 119.75 37.5H112.25V34.5H119.75C120.347 34.5 120.919 34.2629 121.341 33.841C121.763 33.419 122 32.8467 122 32.25C122 31.6533 121.763 31.081 121.341 30.659C120.919 30.2371 120.347 30 119.75 30H112.832L121.538 18.618C121.718 18.3832 121.849 18.1153 121.925 17.8296C122.002 17.544 122.021 17.2461 121.982 16.953C121.943 16.66 121.846 16.3774 121.698 16.1216C121.55 15.8658 121.353 15.6416 121.118 15.462C120.883 15.2824 120.615 15.1507 120.33 15.0746C120.044 14.9985 119.746 14.9794 119.453 15.0184C119.16 15.0574 118.877 15.1537 118.622 15.3019C118.366 15.4501 118.142 15.6472 117.962 15.882L110 26.295L102.038 15.882Z" fill="#24E214"/>
<path d="M148.125 19.6177C145.785 20.2577 144.375 22.0552 144.375 23.7502C144.375 25.4452 145.785 27.2427 148.125 27.8802V19.6177ZM151.875 32.1202V40.3802C154.215 39.7427 155.625 37.9452 155.625 36.2502C155.625 34.5552 154.215 32.7577 151.875 32.1202Z" fill="#D114E2"/>
<path fill-rule="evenodd" clip-rule="evenodd" d="M175 30C175 43.8075 163.807 55 150 55C136.193 55 125 43.8075 125 30C125 16.1925 136.193 5 150 5C163.807 5 175 16.1925 175 30ZM150 13.125C150.497 13.125 150.974 13.3225 151.326 13.6742C151.677 14.0258 151.875 14.5027 151.875 15V15.7925C155.95 16.5225 159.375 19.585 159.375 23.75C159.375 24.2473 159.177 24.7242 158.826 25.0758C158.474 25.4275 157.997 25.625 157.5 25.625C157.003 25.625 156.526 25.4275 156.174 25.0758C155.823 24.7242 155.625 24.2473 155.625 23.75C155.625 22.055 154.215 20.2575 151.875 19.6175V28.2925C155.95 29.0225 159.375 32.085 159.375 36.25C159.375 40.415 155.95 43.4775 151.875 44.2075V45C151.875 45.4973 151.677 45.9742 151.326 46.3258C150.974 46.6775 150.497 46.875 150 46.875C149.503 46.875 149.026 46.6775 148.674 46.3258C148.323 45.9742 148.125 45.4973 148.125 45V44.2075C144.05 43.4775 140.625 40.415 140.625 36.25C140.625 35.7527 140.823 35.2758 141.174 34.9242C141.526 34.5725 142.003 34.375 142.5 34.375C142.997 34.375 143.474 34.5725 143.826 34.9242C144.177 35.2758 144.375 35.7527 144.375 36.25C144.375 37.945 145.785 39.7425 148.125 40.38V31.7075C144.05 30.9775 140.625 27.915 140.625 23.75C140.625 19.585 144.05 16.5225 148.125 15.7925V15C148.125 14.5027 148.323 14.0258 148.674 13.6742C149.026 13.3225 149.503 13.125 150 13.125Z" fill="#D114E2"/>
</svg>
