<svg width="253" height="153" viewBox="0 0 253 153" fill="none" xmlns="http://www.w3.org/2000/svg">
<path d="M1.04433 94.9445C-0.687707 92.5196 -0.213675 89.165 2.08356 87.2871C23.0686 70.0578 34.4818 53.3391 46.4967 35.727C53.5525 25.3894 60.8088 14.7602 70.0524 3.87569C72.1856 1.37791 75.9961 1.19559 78.348 3.49282L96.817 21.5972C98.9137 23.6574 99.096 26.9939 97.1999 29.2546C89.7247 38.2248 83.5988 47.1949 77.1629 56.6026C64.5099 75.1446 50.3072 95.9655 24.199 117.096C21.6465 119.157 17.8907 118.664 15.9946 115.984L1.04433 94.9445Z" fill="#1E8DCC"/>
<path d="M41.0273 151.865C39.4229 149.33 40.0792 145.994 42.5223 144.244C70.8184 123.951 83.9819 104.662 97.8929 84.2968C115.25 58.8632 134.849 30.1478 184.294 0.794291C187.066 -0.846588 190.675 0.13794 192.207 2.98213L204.404 25.7357C205.826 28.3975 204.915 31.7158 202.326 33.2655C160.684 58.1521 145.077 81.0333 128.577 105.209C113.955 126.632 97.51 150.734 62.9422 175.274C60.2985 177.152 56.5974 176.441 54.8471 173.688L41.0455 151.865H41.0273Z" fill="#1E8DCC"/>
<path d="M138.168 158.264C135.87 156.368 135.433 152.995 137.183 150.588C140.756 145.666 144.148 140.707 147.666 135.547C165.661 109.184 186.045 79.3196 239.574 48.8357C250.258 42.7462 260.413 37.6595 270.404 33.375C273.412 32.0805 276.895 33.5938 277.989 36.675L286.667 61.0147C287.67 63.8042 286.339 66.9036 283.622 68.0887C275.363 71.6986 266.904 75.9831 257.934 81.0881C211.843 107.324 195.562 131.19 178.314 156.459C174.486 162.075 170.548 167.836 166.263 173.67C164.33 176.296 160.593 176.788 158.077 174.709L138.149 158.264H138.168Z" fill="#1E8DCC"/>
</svg>
