<svg width="1440" height="201" viewBox="0 0 1440 201" fill="none" xmlns="http://www.w3.org/2000/svg">
<path d="M1550.07 469.885C1566.05 443.358 1564.35 409.022 1552.68 380.337C1541.01 351.652 1520.55 327.52 1499.73 304.595C1472.21 274.284 1442.57 244.475 1405.48 227.154C1353.78 203.013 1293.74 205.884 1237.29 214.204C1137.06 228.978 1039.68 259.25 944.98 295.255C843.463 333.851 739.949 379.978 631.523 373.808C534.222 368.273 467.845 320.684 397.59 259.354C332.066 202.153 277.866 128.361 196.555 90.9376C89.862 41.831 -41.4638 67.0869 -136.4 136.239C-231.335 205.392 -293.141 312.508 -328.476 424.519" stroke="#EDECCA" stroke-width="0.864782" stroke-miterlimit="10"/>
<path d="M1559.3 458.141C1573.82 435.238 1569.57 404.572 1556.01 377.665C1542.48 350.835 1521.26 327.33 1499.45 305.758C1470.75 277.359 1440.27 248.704 1402.2 232.489C1348.09 209.439 1285.39 211.588 1226.8 218.83C1126.96 231.166 1030.15 259.631 936.233 293.405C836.329 329.332 734.847 373.726 628.284 366.885C531.078 360.646 463.418 314.639 392.449 256.522C326.051 202.399 270.87 133.558 190.272 99.3605C84.8723 54.6383 -43.6992 81.1439 -138.319 149.081C-233.333 217.165 -296.709 319.508 -334.171 428.644" stroke="#EDECCA" stroke-width="0.864782" stroke-miterlimit="10"/>
<path d="M1568.52 446.398C1581.58 427.117 1574.85 400.201 1559.34 374.997C1544.01 350.087 1521.98 327.144 1499.17 306.93C1469.3 280.45 1437.93 252.963 1398.91 237.829C1342.35 215.894 1277.08 217.325 1216.31 223.457C1116.91 233.484 1020.64 260.011 927.486 291.554C829.212 324.831 729.736 367.456 625.045 359.958C527.935 353.001 459.111 308.426 387.304 253.69C320.158 202.503 263.908 138.764 183.989 107.783C79.9257 67.4457 -45.9347 95.2009 -140.239 161.928C-235.335 228.944 -300.28 326.509 -339.87 432.773" stroke="#EDECCA" stroke-width="0.864782" stroke-miterlimit="10"/>
<path d="M1577.75 434.654C1589.34 418.997 1580.2 395.903 1562.66 372.325C1545.6 349.382 1522.71 326.962 1498.89 308.097C1467.88 283.537 1435.57 257.244 1395.63 243.165C1336.59 222.363 1268.8 223.089 1205.82 228.079C1106.91 235.914 1011.16 260.392 918.743 289.699C822.125 320.338 724.629 361.169 621.811 353.031C524.791 345.352 454.74 302.299 382.167 250.853C314.2 202.672 256.99 143.962 177.711 116.202C75.0224 80.2401 -48.1658 109.258 -142.155 174.765C-237.328 240.709 -303.843 333.5 -345.56 436.889" stroke="#EDECCA" stroke-width="0.864782" stroke-miterlimit="10"/>
<path d="M1586.97 422.91C1597.11 410.876 1585.64 391.652 1565.99 369.652C1547.28 348.703 1523.47 326.781 1498.61 309.265C1466.48 286.625 1433.19 261.546 1392.34 248.505C1330.8 228.861 1260.54 228.892 1195.33 232.705C1096.94 238.46 1001.7 260.785 909.996 287.844C815.06 315.858 719.519 354.86 618.573 346.1C521.639 337.69 450.351 296.163 377.026 248.016C308.228 202.84 250.102 149.163 171.428 124.616C70.1624 93.0214 -50.4012 123.306 -144.074 187.598C-239.326 252.483 -307.41 340.496 -351.255 441.014" stroke="#EDECCA" stroke-width="0.864782" stroke-miterlimit="10"/>
<path d="M1596.19 411.166C1604.87 402.761 1591.17 387.428 1569.32 366.984C1549.07 348.033 1524.24 326.599 1498.33 310.432C1465.11 289.703 1430.8 265.87 1389.06 253.841C1325 235.382 1252.3 234.725 1184.85 237.328C1086.99 241.107 992.262 261.178 901.248 285.989C808.016 311.405 714.404 348.534 615.334 339.173C518.483 330.024 445.958 290.036 371.885 245.184C302.248 203.017 243.253 154.36 165.15 133.039C65.3499 105.794 -52.494 137.571 -145.99 200.445C-241.185 264.46 -310.977 347.492 -356.949 445.135" stroke="#EDECCA" stroke-width="0.864782" stroke-miterlimit="10"/>
<path d="M1605.41 399.423C1612.63 394.641 1596.8 383.204 1572.65 364.313C1550.95 347.337 1525.03 326.409 1498.05 311.6C1463.75 292.778 1428.4 270.216 1385.77 259.181C1319.17 241.937 1244.08 240.597 1174.36 241.959C1077.06 243.857 982.853 261.594 892.501 284.143C800.998 306.978 709.293 342.2 612.095 332.255C515.326 322.353 441.552 283.918 366.744 242.357C296.26 203.199 236.447 159.554 158.867 141.467C60.5806 118.55 -54.7078 151.667 -147.91 213.291C-243.161 276.269 -314.545 354.489 -362.644 449.26" stroke="#EDECCA" stroke-width="0.864782" stroke-miterlimit="10"/>
<path d="M1614.64 387.679C1620.39 386.52 1602.52 378.954 1575.98 361.645C1552.92 346.602 1525.84 326.219 1497.77 312.772C1462.42 295.844 1425.98 274.587 1382.49 264.521C1313.33 248.519 1235.88 246.508 1163.86 246.586C1067.15 246.69 973.466 262.018 883.749 282.293C793.998 302.572 704.173 335.844 608.852 325.329C512.165 314.661 437.137 277.796 361.598 239.525C290.262 203.381 229.676 164.73 152.58 149.89C55.8588 131.271 -56.9304 165.759 -149.834 226.138C-245.146 288.082 -318.121 361.494 -368.347 453.39" stroke="#EDECCA" stroke-width="0.864782" stroke-miterlimit="10"/>
<path d="M1623.86 375.935C1628.15 378.4 1608.32 374.651 1579.31 358.972C1554.95 345.811 1526.66 326.007 1497.49 313.935C1461.11 298.883 1423.56 278.967 1379.2 269.852C1307.47 255.116 1227.68 252.449 1153.38 251.203C1057.26 249.595 964.109 262.45 875.011 280.429C787.037 298.183 699.067 329.457 605.627 318.393C509.018 306.952 432.727 271.668 356.47 236.679C284.27 203.554 222.965 169.871 146.315 158.295C51.202 143.936 -59.1355 179.829 -151.736 238.962C-247.122 299.878 -321.679 368.485 -374.033 457.506" stroke="#EDECCA" stroke-width="0.864782" stroke-miterlimit="10"/>
<path d="M1633.08 364.192C1635.92 370.284 1614.17 370.28 1582.64 356.305C1557.04 344.959 1527.49 325.791 1497.2 315.107C1459.81 301.915 1421.13 283.378 1375.92 275.197C1301.61 261.754 1219.49 258.442 1142.88 255.835C1047.37 252.583 954.774 262.913 866.259 278.583C780.088 293.837 693.943 323.067 602.384 311.47C505.853 299.242 428.295 265.563 351.325 233.852C278.255 203.744 216.276 175.003 140.028 166.723C46.5712 156.575 -61.3623 193.916 -153.665 251.813C-249.107 311.678 -325.251 375.482 -379.728 461.631" stroke="#EDECCA" stroke-width="0.864782" stroke-miterlimit="10"/>
<path d="M1642.31 352.448C1643.69 362.164 1620.06 365.83 1585.97 353.633C1559.17 344.038 1528.34 325.557 1496.93 316.274C1458.53 304.924 1418.71 287.797 1372.64 280.533C1295.74 268.408 1211.31 264.469 1132.4 260.457C1037.49 255.631 945.473 263.388 857.516 276.727C773.17 289.522 688.832 316.654 599.15 304.543C502.692 291.52 423.863 259.458 346.184 231.015C272.236 203.939 209.626 180.092 133.745 175.141C41.9877 169.153 -63.5849 207.995 -155.585 264.651C-251.096 323.469 -328.818 382.473 -385.427 465.747" stroke="#EDECCA" stroke-width="0.864782" stroke-miterlimit="10"/>
<path d="M1651.53 340.704C1651.45 354.043 1625.96 361.303 1589.3 350.965C1561.3 343.065 1529.19 325.311 1496.65 317.441C1457.25 307.916 1416.27 292.233 1369.35 285.872C1289.87 275.093 1203.13 270.544 1121.91 265.087C1027.61 258.749 936.19 263.898 848.769 274.881C766.269 285.245 683.717 310.229 595.911 297.625C499.527 283.788 419.417 253.37 341.042 228.191C266.213 204.151 203.014 185.156 127.467 183.573C37.4475 181.688 -65.8075 222.082 -157.5 277.501C-253.08 335.273 -332.381 389.478 -391.117 469.881" stroke="#EDECCA" stroke-width="0.864782" stroke-miterlimit="10"/>
<path d="M1660.76 328.96C1659.21 345.922 1631.87 356.702 1592.63 348.292C1563.43 342.035 1530.04 325.047 1496.37 318.608C1455.98 310.886 1413.83 296.686 1366.07 291.208C1283.99 281.799 1194.95 276.658 1111.42 269.709C1017.73 261.913 926.932 264.43 840.026 273.026C759.389 280.999 678.606 303.777 592.677 290.693C496.366 276.026 414.972 247.277 335.905 225.35C260.185 204.353 196.433 190.154 121.189 191.983C32.9376 194.131 -68.0343 236.147 -159.416 290.334C-255.069 347.06 -335.948 396.469 -396.812 474.001" stroke="#EDECCA" stroke-width="0.864782" stroke-miterlimit="10"/>
<path d="M1669.98 317.216C1666.97 337.803 1637.77 352.033 1595.96 345.625C1565.55 340.963 1530.89 324.77 1496.09 319.781C1454.71 313.844 1411.4 301.153 1362.79 296.552C1278.11 288.536 1186.77 282.824 1100.93 274.341C1007.84 265.144 917.696 265.001 831.279 271.175C752.531 276.805 673.495 297.314 589.438 283.771C493.201 268.261 410.514 241.202 330.764 222.523C254.149 204.579 189.87 195.114 114.906 200.41C28.4494 206.52 -70.2655 250.222 -161.336 303.181C-257.067 358.851 -339.515 403.466 -402.506 478.122" stroke="#EDECCA" stroke-width="0.864782" stroke-miterlimit="10"/>
<path d="M1679.2 305.472C1674.74 329.686 1643.65 347.302 1599.29 342.952C1567.66 339.852 1531.75 324.476 1495.81 320.943C1453.44 316.779 1408.96 305.624 1359.5 301.884C1272.24 295.281 1178.59 289.02 1090.44 278.958C997.952 268.404 908.482 265.597 822.536 269.316C745.691 272.641 668.388 290.823 586.204 276.835C490.044 260.469 406.061 235.127 325.627 219.677C248.113 204.794 183.323 199.995 108.632 208.82C23.9827 218.821 -72.4924 264.279 -163.247 316.014C-259.052 370.625 -343.078 410.457 -408.192 482.238" stroke="#EDECCA" stroke-width="0.864782" stroke-miterlimit="10"/>
<path d="M1734.54 235.01C1721.31 280.969 1678.43 318.146 1619.27 326.932C1579.87 332.786 1536.8 322.487 1494.13 327.957C1445.72 334.157 1394.37 332.691 1339.8 333.919C1237.01 336.224 1129.26 327.187 1027.5 306.718C938.421 288.799 853.365 270.293 770.052 258.208C704.783 248.738 637.766 251.557 566.776 235.287C471.123 213.36 379.3 198.931 294.781 202.689C211.87 206.373 143.811 228.035 70.9449 259.353C-3.10206 291.182 -85.9266 348.621 -174.761 393.07C-271.076 441.269 -364.486 452.442 -442.368 506.984" stroke="#EDECCA" stroke-width="0.864782" stroke-miterlimit="10"/>
<path d="M1743.77 223.266C1729.07 272.849 1684.14 313.221 1622.6 324.264C1581.84 331.58 1537.62 322.132 1493.84 329.124C1444.41 337.024 1391.95 337.227 1336.51 339.255C1231.15 343.103 1120.99 333.703 1017.01 311.344C928.459 292.302 844.16 271.292 761.309 256.357C697.955 244.933 632.681 244.955 563.542 228.364C467.992 205.434 374.855 192.93 289.644 199.857C205.842 206.671 137.105 232.498 64.6666 267.777C-7.73723 303.042 -88.1706 362.665 -176.677 405.917C-273.083 453.03 -368.049 459.443 -448.058 511.113" stroke="#EDECCA" stroke-width="0.864782" stroke-miterlimit="10"/>
<path d="M1752.99 211.523C1736.84 264.728 1689.83 308.287 1625.93 321.592C1583.79 330.37 1538.44 321.765 1493.56 330.292C1443.1 339.882 1389.53 341.772 1333.23 344.591C1225.31 350 1112.7 340.267 1006.52 315.967C918.483 295.822 834.932 272.36 752.562 254.498C691.106 241.172 627.596 238.327 560.303 221.429C464.862 197.466 370.406 186.928 284.503 197.016C199.815 206.961 130.338 236.904 58.3882 276.191C-12.4245 314.855 -90.4149 376.696 -178.592 418.75C-275.093 464.774 -371.616 466.434 -453.749 515.23" stroke="#EDECCA" stroke-width="0.864782" stroke-miterlimit="10"/>
<path d="M1762.21 199.779C1744.6 256.613 1695.5 303.35 1629.26 318.925C1585.72 329.159 1539.25 321.398 1493.28 331.464C1441.77 342.745 1387.11 346.325 1329.94 349.936C1219.45 356.915 1104.39 346.879 996.024 320.598C908.486 299.368 825.666 273.515 743.81 252.652C684.227 237.466 622.516 231.694 557.061 214.511C461.74 189.484 365.961 180.944 279.357 194.188C193.787 207.277 123.506 241.285 52.1013 284.619C-17.1764 326.66 -92.6675 390.736 -180.516 431.601C-277.113 476.536 -375.188 473.44 -459.452 519.364" stroke="#EDECCA" stroke-width="0.864782" stroke-miterlimit="10"/>
<path d="M1771.44 188.035C1752.36 248.492 1701.15 298.412 1632.59 316.252C1587.65 327.948 1540.05 321.022 1493 332.627C1440.44 345.594 1384.7 350.874 1326.66 355.267C1213.62 363.828 1096.07 353.524 985.538 325.216C898.485 302.922 816.365 274.725 735.067 250.793C677.326 233.795 617.448 225.031 553.826 207.575C458.635 181.454 361.529 174.951 274.22 191.347C187.773 207.579 116.627 245.625 45.8229 293.028C-21.9803 338.425 -94.9161 404.754 -182.432 444.43C-279.123 488.266 -378.755 480.422 -465.142 523.471" stroke="#EDECCA" stroke-width="0.864782" stroke-miterlimit="10"/>
<path d="M1780.66 176.292C1760.12 240.372 1706.79 293.47 1635.92 313.585C1589.56 326.738 1540.85 320.65 1492.72 333.799C1439.1 348.448 1382.28 355.432 1323.38 360.612C1207.78 370.768 1087.72 360.227 975.049 329.847C888.467 306.502 807.008 276.027 726.324 248.947C670.395 230.172 612.385 218.368 550.592 200.657C455.544 173.412 357.101 168.985 269.084 188.524C181.767 207.908 109.678 249.958 39.549 301.46C-26.836 350.208 -97.1601 418.79 -184.343 457.286C-281.134 500.019 -382.313 487.432 -470.833 527.61" stroke="#EDECCA" stroke-width="0.864782" stroke-miterlimit="10"/>
<path d="M1789.88 164.548C1767.89 232.252 1712.42 288.527 1639.24 310.912C1591.47 325.527 1541.64 320.269 1492.44 334.966C1437.76 351.298 1379.87 359.993 1320.09 365.947C1201.95 377.712 1079.35 366.963 964.554 334.473C878.426 310.095 797.587 277.402 717.573 247.096C663.407 226.579 607.326 211.683 547.349 193.734C452.457 165.331 352.674 163.013 263.934 185.692C175.752 208.232 102.661 254.273 33.2577 309.883C-31.7652 361.982 -99.4214 432.816 -186.272 470.127C-283.162 511.754 -385.889 494.432 -476.536 531.734" stroke="#EDECCA" stroke-width="0.864782" stroke-miterlimit="10"/>
<path d="M1799.1 152.805C1775.65 224.132 1718.04 283.59 1642.57 308.245C1593.36 324.326 1542.43 319.889 1492.16 336.134C1436.41 354.148 1377.47 364.559 1316.81 371.283C1196.13 384.666 1070.95 373.739 954.069 339.096C868.382 313.697 788.105 278.838 708.83 245.237C656.385 223.008 602.28 204.977 544.115 186.799C449.4 157.198 348.259 157.029 258.797 182.851C169.759 208.548 95.5957 258.572 26.9795 318.298C-36.7376 373.756 -101.674 446.826 -188.187 482.961C-285.177 523.472 -389.456 501.42 -482.226 535.847" stroke="#EDECCA" stroke-width="0.864782" stroke-miterlimit="10"/>
<path d="M1808.33 141.061C1783.41 216.016 1723.65 278.647 1645.91 305.572C1595.25 323.114 1543.22 319.508 1491.88 337.301C1435.07 356.997 1375.07 369.125 1313.53 376.623C1190.31 391.631 1062.53 380.566 943.579 343.722C858.312 317.316 778.54 280.347 700.083 243.386C649.311 219.466 597.238 198.262 540.881 179.876C446.356 149.038 343.853 151.066 253.66 180.019C163.771 208.877 88.4784 262.882 20.7054 326.716C-41.7535 385.547 -103.988 460.675 -190.098 495.803C-287.265 535.016 -393.015 508.416 -487.916 539.972" stroke="#EDECCA" stroke-width="0.864782" stroke-miterlimit="10"/>
<path d="M1817.55 129.317C1791.18 207.895 1729.25 273.71 1649.24 302.905C1597.13 321.917 1544 319.128 1491.6 338.473C1433.7 359.846 1372.67 373.7 1310.24 381.963C1184.5 398.606 1054.09 387.433 933.089 348.349C848.228 320.94 768.885 281.912 691.335 241.535C642.177 215.942 592.21 191.534 537.642 172.949C443.333 140.831 339.503 145.263 248.519 177.187C157.838 209.374 81.3006 267.202 14.4227 335.139C-46.8255 397.356 -106.223 474.733 -192.018 508.645C-289.263 546.791 -396.587 515.412 -493.611 544.097" stroke="#EDECCA" stroke-width="0.864782" stroke-miterlimit="10"/>
<path d="M1826.78 117.573C1798.94 199.775 1734.84 268.776 1652.57 300.232C1599.01 320.71 1544.74 318.656 1491.32 339.636C1432.3 362.592 1370.29 378.382 1306.96 387.298C1178.73 405.813 1045.62 394.333 922.6 352.971C838.132 324.571 759.143 283.52 682.592 239.68C634.995 212.418 587.198 184.788 534.408 166.022C440.337 132.581 335.08 139.214 243.383 174.35C151.837 209.62 74.0841 271.53 8.14446 343.558C-51.9363 409.186 -108.454 488.789 -193.938 521.487C-291.26 558.56 -400.154 522.412 -499.305 548.221" stroke="#EDECCA" stroke-width="0.864782" stroke-miterlimit="10"/>
<path d="M1836 105.829C1806.7 191.654 1740.42 263.842 1655.9 297.564C1600.88 319.512 1545.55 318.367 1491.04 340.808C1430.97 365.54 1367.88 382.853 1303.67 392.638C1172.89 412.576 1037.13 401.278 912.11 357.602C828.014 328.221 749.302 285.181 673.845 237.83C627.744 208.903 582.195 178.034 531.169 159.1C437.366 124.284 330.656 133.169 238.241 171.522C145.826 209.875 66.8243 275.88 1.86615 351.985C-57.0861 421.047 -110.685 502.851 -195.853 534.333C-293.258 570.338 -403.717 529.412 -505 552.346" stroke="#EDECCA" stroke-width="0.864782" stroke-miterlimit="10"/>
<path d="M1445.49 379.481C1435.33 270.315 1385.56 165.266 1307.51 88.2613C1285.31 66.352 1259.83 46.1032 1229.55 38.6055C1142.06 16.947 1058.8 92.5247 991.743 137.463C910.813 191.702 831.076 248.012 745.894 295.515C698.072 322.185 641.182 346.494 590.212 326.491C538.598 306.234 513.886 249.24 488.349 200.026C458.592 142.678 420.157 88.4342 368.002 50.293C315.851 12.1561 248.537 -8.38676 185.369 5.19465C135.903 15.8271 92.9235 45.9043 54.2029 78.4763C-47.5388 164.059 -130.346 272.027 -186.63 392.474" stroke="#EDECCA" stroke-width="0.864782" stroke-miterlimit="10"/>
<path d="M1447.74 374.487C1437.91 268.841 1387.17 169.434 1307.68 92.4466C1285.49 70.9524 1260.3 50.9284 1230.44 43.3183C1144.01 21.2275 1061.84 93.1081 994.956 136.49C923.646 182.743 853.218 231.391 778.371 274.561C769.17 279.888 759.917 285.129 750.599 290.265C703.14 316.438 646.933 340.384 596.477 321.467C545.356 302.321 520.294 247.649 494.459 200.488C464.278 145.566 425.735 93.6314 373.96 57.1851C322.052 20.7907 255.511 1.31152 193.031 14.6465C150.57 23.7007 112.844 46.7601 78.447 73.123C73.12 77.2005 67.9053 81.3904 62.7123 85.5543C-40.3265 168.171 -122.818 267.768 -177.286 384.332" stroke="#EDECCA" stroke-width="0.864782" stroke-miterlimit="10"/>
<path d="M1449.99 369.493C1440.48 267.371 1388.8 173.598 1307.86 96.6366C1285.68 75.5488 1260.77 55.7626 1231.33 48.0358C1145.95 25.5125 1064.88 93.7006 998.169 135.526C927.568 179.785 857.763 227.175 782.864 269.632C773.732 274.851 764.548 279.988 755.303 285.029C708.207 310.705 652.68 334.287 602.738 316.456C552.105 298.425 526.694 246.071 500.56 200.968C469.956 148.476 431.308 98.8417 379.906 64.0948C328.239 29.4387 262.477 11.0274 200.68 24.1202C158.599 33.0232 121.12 55.3432 86.8873 80.7073C81.5819 84.629 76.4062 88.6892 71.2088 92.6542C-33.1833 172.314 -115.299 263.535 -167.955 376.212" stroke="#EDECCA" stroke-width="0.864782" stroke-miterlimit="10"/>
<path d="M1452.24 364.503C1443.06 265.9 1390.45 177.757 1308.04 100.826C1285.88 80.1406 1261.25 60.5922 1232.23 52.7529C1147.89 29.7973 1067.94 94.2971 1001.39 134.557C931.507 176.828 862.203 222.765 787.361 264.702C778.285 269.792 769.183 274.846 760.012 279.789C713.279 304.967 658.435 328.186 609.008 311.444C558.868 294.524 533.193 244.441 506.67 201.448C475.745 151.316 436.981 103.918 385.864 71.0041C334.526 37.9522 269.451 20.743 208.346 33.5937C166.646 42.3453 129.417 63.9302 95.3405 88.2912C90.0523 92.0573 84.9198 95.9877 79.7225 99.7538C-26.0749 176.456 -107.767 259.298 -158.603 368.091" stroke="#EDECCA" stroke-width="0.864782" stroke-miterlimit="10"/>
<path d="M1454.48 359.508C1445.63 264.43 1392.11 181.908 1308.21 105.012C1286.08 84.7239 1261.72 65.4176 1233.12 57.4659C1149.83 34.0735 1071.01 94.8851 1004.6 133.584C935.455 173.87 866.713 218.48 791.853 259.769C782.838 264.741 773.81 269.701 764.712 274.544C718.343 299.229 664.177 322.081 615.265 306.424C565.613 290.615 539.614 242.832 512.767 201.915C481.449 154.187 442.577 109.072 391.81 77.8964C340.74 46.5394 276.417 30.4415 215.995 43.0457C174.676 51.6459 137.693 72.4958 103.781 95.8536C98.5143 99.4641 93.4164 103.26 88.2191 106.836C-19.0399 180.581 -100.252 255.047 -149.272 359.954" stroke="#EDECCA" stroke-width="0.864782" stroke-miterlimit="10"/>
<path d="M1456.73 354.515C1448.21 262.956 1393.78 186.051 1308.39 109.198C1286.28 89.3075 1262.2 70.2477 1234.01 62.1793C1151.78 38.3546 1074.1 95.4821 1007.82 132.616C939.42 170.93 871.236 214.204 796.35 254.836C787.4 259.691 778.445 264.556 769.421 269.299C723.414 293.487 669.932 315.976 621.534 301.408C572.372 286.711 546.048 241.228 518.876 202.391C487.165 157.063 448.176 114.235 397.764 84.802C346.958 55.14 283.387 40.1533 223.653 52.5154C182.714 60.96 145.978 81.0748 112.225 103.434C106.976 106.889 101.913 110.555 96.7198 113.932C-12.0568 184.71 -92.7324 250.806 -139.937 351.825" stroke="#EDECCA" stroke-width="0.864782" stroke-miterlimit="10"/>
<path d="M1458.98 349.521C1450.79 261.481 1395.47 190.185 1308.56 113.388C1286.49 93.8867 1262.67 75.0777 1234.9 66.8969C1153.72 42.6397 1077.19 96.0876 1011.03 131.647C943.394 167.994 875.75 209.927 800.843 249.906C791.957 254.65 783.076 259.41 774.126 264.063C728.482 287.754 675.683 309.879 627.796 296.397C579.126 282.816 552.473 239.628 524.977 202.871C492.868 159.943 453.767 119.406 403.713 91.7118C353.167 63.7447 290.358 49.865 231.306 61.9892C190.752 70.2825 154.263 89.6623 120.67 111.018C115.443 114.317 110.409 117.846 105.225 121.032C-5.1211 188.835 -85.2043 246.573 -130.597 343.705" stroke="#EDECCA" stroke-width="0.864782" stroke-miterlimit="10"/>
<path d="M1461.23 344.526C1453.36 260.011 1397.17 194.305 1308.74 117.573C1286.71 98.461 1263.12 79.9633 1235.8 71.6095C1155.62 47.0886 1080.31 96.6925 1014.25 130.674C947.393 165.067 880.282 205.651 805.344 244.972C796.523 249.599 787.715 254.264 778.838 258.818C733.558 282.015 681.438 303.773 634.069 291.377C585.888 278.906 558.907 238.015 531.096 203.337C498.588 162.809 459.37 124.56 409.676 98.608C359.384 72.3402 297.341 59.5674 238.976 71.4452C198.803 79.5871 162.603 98.301 129.127 118.58C123.921 121.732 118.914 125.118 113.739 128.114C1.76671 192.925 -77.6722 242.317 -121.249 335.567" stroke="#EDECCA" stroke-width="0.864782" stroke-miterlimit="10"/>
<path d="M1463.48 339.532C1455.94 258.536 1398.88 198.417 1308.91 121.758C1286.93 103.027 1263.6 84.7972 1236.69 76.3181C1157.55 51.3821 1083.42 97.302 1017.46 129.701C951.393 162.152 884.805 201.383 809.837 240.034C801.081 244.548 792.347 249.114 783.539 253.568C738.622 276.269 687.185 297.663 640.326 286.356C592.638 274.997 565.32 236.402 537.192 203.809C504.283 165.676 464.953 129.727 415.621 105.504C365.585 80.936 304.302 69.2701 246.626 80.9057C206.833 88.8963 170.884 106.879 137.568 126.151C132.384 129.152 127.398 132.395 122.24 135.201C8.58136 196.994 -70.1528 238.071 -111.913 327.434" stroke="#EDECCA" stroke-width="0.864782" stroke-miterlimit="10"/>
<path d="M1465.73 334.538C1458.51 257.066 1400.61 202.516 1309.09 125.944C1287.15 107.593 1264.07 89.6315 1237.58 81.0312C1159.49 55.6802 1086.56 97.9204 1020.68 128.728C955.414 159.246 889.336 197.111 814.333 235.101C805.642 239.503 796.981 243.969 788.247 248.323C743.698 270.527 692.935 291.558 646.596 281.336C599.396 271.093 571.745 234.79 543.302 204.28C509.986 168.543 470.539 134.89 421.58 112.406C371.79 89.5407 311.281 78.9774 254.287 90.3666C214.875 98.2015 179.177 115.463 146.021 133.722C140.854 136.568 135.894 139.668 130.749 142.288C15.3567 201.033 -62.625 233.821 -102.565 319.3" stroke="#EDECCA" stroke-width="0.864782" stroke-miterlimit="10"/>
<path d="M1467.97 329.548C1461.09 255.597 1402.35 206.611 1309.26 130.138C1287.38 112.164 1264.54 94.4704 1238.47 85.7534C1161.42 59.9829 1089.71 98.5608 1023.89 127.765C959.444 156.367 893.863 192.857 818.826 230.172C810.204 234.461 801.608 238.828 792.952 243.088C748.766 264.798 698.686 285.466 652.857 276.33C606.15 267.198 578.157 233.186 549.403 204.76C515.677 171.419 476.117 140.07 427.525 119.316C377.982 98.1544 318.242 88.6937 261.936 99.8407C222.904 107.524 187.457 124.055 154.457 141.307C149.312 143.996 144.369 146.954 139.241 149.393C22.0588 205.059 -55.11 229.593 -93.2383 311.185" stroke="#EDECCA" stroke-width="0.864782" stroke-miterlimit="10"/>
<path d="M1470.22 324.554C1463.67 254.122 1404.11 210.688 1309.44 134.323C1287.61 116.716 1265.01 99.304 1239.37 90.4659C1163.36 64.2759 1092.87 99.2002 1027.11 126.791C963.491 153.487 898.399 188.597 823.323 225.238C814.766 229.415 806.243 233.682 797.661 237.842C753.838 259.055 704.437 279.36 659.127 271.309C612.909 263.288 584.574 231.572 555.513 205.231C521.371 174.281 481.695 145.241 433.483 126.216C384.182 106.758 325.221 98.3959 269.603 109.305C230.951 116.837 195.755 132.637 162.915 148.882C157.787 151.416 152.866 154.231 147.759 156.483C28.7351 209.023 -47.5733 225.35 -83.8855 303.055" stroke="#EDECCA" stroke-width="0.864782" stroke-miterlimit="10"/>
<path d="M1472.47 319.561C1466.25 252.652 1405.87 214.749 1309.61 138.51C1287.85 121.27 1265.48 104.135 1240.26 95.1799C1165.3 68.5662 1096.04 99.854 1030.32 125.823C967.547 150.634 902.93 184.348 827.815 220.31C819.323 224.374 810.874 228.542 802.361 232.602C758.901 253.318 710.196 273.165 665.383 266.299C619.671 259.294 590.973 229.969 561.614 205.712C527.049 177.157 487.264 150.426 439.429 133.122C390.365 115.377 332.183 108.108 277.252 118.771C238.981 126.152 204.031 141.221 171.351 156.458C166.244 158.841 161.336 161.5 156.252 163.575C35.342 212.942 -40.0627 221.105 -74.5588 294.927" stroke="#EDECCA" stroke-width="0.864782" stroke-miterlimit="10"/>
<path d="M1474.72 314.566C1468.82 251.177 1407.66 218.795 1309.79 142.695C1288.09 125.818 1265.95 108.964 1241.16 99.8922C1167.24 72.8548 1099.22 100.519 1033.54 124.85C971.624 147.788 907.475 180.092 832.317 215.371C823.894 219.323 815.514 223.392 807.074 227.352C763.977 247.575 715.952 267.05 671.658 261.274C626.434 255.376 597.381 228.351 567.728 206.174C532.739 180.014 492.842 155.593 445.392 140.014C396.562 123.981 339.166 117.806 284.918 128.227C247.028 135.452 212.324 149.794 179.808 164.024C174.719 166.251 169.824 168.759 164.765 170.662C41.9231 216.798 -32.5303 216.858 -65.2104 286.793" stroke="#EDECCA" stroke-width="0.864782" stroke-miterlimit="10"/>
<path d="M1476.97 309.571C1471.39 249.707 1409.45 222.825 1309.96 146.884C1288.32 130.371 1266.42 113.798 1242.05 104.609C1169.18 77.1439 1102.42 101.202 1036.76 123.881C975.702 144.964 912.015 175.85 836.809 210.441C828.451 214.285 820.145 218.25 811.778 222.116C769.045 241.842 721.702 260.949 677.918 256.262C633.183 251.475 603.776 226.747 573.829 206.654C538.407 182.889 498.403 160.786 451.337 146.923C402.736 132.607 346.132 127.522 292.567 137.7C255.057 144.774 220.6 158.386 188.244 171.608C183.176 173.679 178.295 176.036 173.262 177.761C48.4477 220.603 -25.0112 212.621 -55.8796 278.673" stroke="#EDECCA" stroke-width="0.864782" stroke-miterlimit="10"/>
<path d="M1479.22 304.577C1473.97 248.232 1411.26 226.842 1310.14 151.07C1288.58 134.911 1266.9 118.623 1242.94 109.322C1171.11 81.4287 1105.63 101.902 1039.97 122.912C979.801 142.162 916.559 171.613 841.306 205.512C833.017 209.244 824.776 213.109 816.487 216.875C774.117 236.104 727.453 254.843 684.188 251.25C639.942 247.571 610.176 225.147 579.939 207.133C544.08 185.769 503.972 165.983 457.295 153.833C408.924 141.241 353.106 137.237 300.234 147.169C263.104 154.092 228.893 166.973 196.702 179.184C191.651 181.099 186.778 183.296 181.776 184.852C54.9553 224.334 -17.4788 208.379 -46.5269 270.544" stroke="#EDECCA" stroke-width="0.864782" stroke-miterlimit="10"/>
<path d="M1481.47 299.583C1476.55 246.762 1413.08 230.837 1310.31 155.256C1288.82 139.447 1267.37 123.453 1243.83 114.036C1173.05 85.7141 1108.85 102.625 1043.19 121.94C983.904 139.378 921.104 167.375 845.799 200.574C837.579 204.198 829.407 207.955 821.187 211.626C779.18 230.362 733.195 248.734 690.445 246.226C646.687 243.658 616.554 223.539 586.035 207.596C549.736 188.636 509.524 171.168 463.241 160.721C415.094 149.855 360.072 146.928 307.882 156.622C271.138 163.389 237.169 175.539 205.138 186.747C200.105 188.506 195.245 190.543 190.268 191.935C61.4109 227.975 -9.9682 204.124 -37.2002 262.406" stroke="#EDECCA" stroke-width="0.864782" stroke-miterlimit="10"/>
<path d="M1483.71 294.589C1479.13 245.288 1414.92 234.82 1310.49 159.441C1289.07 143.983 1267.84 128.279 1244.73 118.745C1175 89.9862 1112.08 103.36 1046.4 120.963C988.02 136.611 925.657 163.138 850.295 195.637C842.145 199.152 834.042 202.806 825.895 206.377C784.252 224.616 738.942 242.625 696.714 241.206C653.445 239.753 622.944 221.939 592.149 208.068C555.4 191.516 515.088 176.365 469.199 167.622C421.273 158.49 367.046 156.635 315.544 166.087C279.18 172.703 245.458 184.118 213.591 194.322C208.575 195.926 203.724 197.799 198.781 199.027C67.862 231.547 -2.43178 199.883 -27.8521 254.278" stroke="#EDECCA" stroke-width="0.864782" stroke-miterlimit="10"/>
<path d="M1485.96 289.6C1481.7 243.818 1416.77 238.781 1310.66 163.636C1289.32 148.524 1268.31 133.113 1245.62 123.467C1176.93 94.2759 1115.32 104.134 1049.61 120.003C992.141 133.883 930.206 158.927 854.788 190.712C846.702 194.119 838.673 197.669 830.6 201.146C789.319 218.887 744.688 236.533 702.975 236.2C660.195 235.858 629.318 220.357 598.25 208.553C561.047 194.418 520.645 181.584 475.149 174.536C427.443 167.147 374.016 166.356 323.202 175.561C287.218 182.025 253.738 192.705 222.04 201.907C217.046 203.355 212.198 205.059 207.286 206.127C74.2873 235.041 5.09178 195.646 -18.5125 246.158" stroke="#EDECCA" stroke-width="0.864782" stroke-miterlimit="10"/>
<path d="M1488.21 284.606C1484.28 242.348 1418.63 242.724 1310.84 167.821C1289.58 153.047 1268.79 137.939 1246.51 128.18C1178.88 98.548 1118.57 104.926 1052.83 119.03C996.271 131.163 934.759 154.707 859.285 185.779C851.268 189.078 843.308 192.524 835.309 195.901C794.392 213.149 750.439 230.427 709.245 231.18C666.949 231.954 635.7 218.766 604.36 209.02C566.703 197.31 526.201 186.79 481.103 181.433C433.617 175.79 380.987 176.058 330.86 185.022C295.257 191.335 262.023 201.275 230.484 209.478C225.508 210.771 220.673 212.306 215.787 213.218C80.6998 238.435 12.6112 191.404 -9.177 238.029" stroke="#EDECCA" stroke-width="0.864782" stroke-miterlimit="10"/>
<path d="M1490.46 279.611C1486.85 240.873 1420.5 246.641 1311.01 172.006C1289.83 157.569 1269.26 142.764 1247.4 132.892C1180.82 102.824 1121.81 105.747 1056.04 118.057C1000.4 128.469 939.316 150.491 863.777 180.844C855.83 184.036 847.935 187.378 840.013 190.655C799.459 207.406 756.185 224.326 715.506 226.163C673.698 228.049 642.073 217.191 610.461 209.495C572.346 200.216 531.753 192.013 487.052 188.333C439.788 184.442 387.957 185.765 338.513 194.486C303.29 200.644 270.299 209.849 238.929 217.053C233.969 218.19 229.144 219.552 224.293 220.309C87.1122 241.729 20.1347 187.157 0.162598 229.899" stroke="#EDECCA" stroke-width="0.864782" stroke-miterlimit="10"/>
<path d="M1492.71 274.617C1489.43 239.403 1422.39 250.541 1311.19 176.192C1290.1 162.091 1269.74 147.589 1248.29 137.605C1182.76 107.091 1125.07 106.598 1059.26 117.084C1004.54 125.801 943.873 146.283 868.274 175.906C860.396 178.994 852.57 182.228 844.717 185.406C804.527 201.66 761.932 218.22 721.771 221.139C680.452 224.144 648.451 215.613 616.566 209.961C577.997 203.125 537.309 197.232 493.006 195.23C445.958 193.103 394.927 195.468 346.171 203.943C311.328 209.949 278.583 218.415 247.374 224.62C242.436 225.601 237.614 226.786 232.793 227.391C93.5244 244.92 27.6583 182.907 9.5022 221.761" stroke="#EDECCA" stroke-width="0.864782" stroke-miterlimit="10"/>
<path d="M1494.96 269.623C1492.01 237.929 1424.29 254.416 1311.36 180.382C1290.36 166.61 1270.21 152.415 1249.18 142.323C1184.7 111.364 1128.32 107.489 1062.47 116.12C1008.68 123.168 948.431 142.094 872.767 170.982C864.958 173.961 857.201 177.091 849.422 180.17C809.594 195.931 767.678 212.128 728.037 216.132C687.206 220.253 654.829 214.056 622.676 210.442C583.648 206.057 542.87 202.477 498.96 202.14C452.132 201.781 401.902 205.179 353.833 213.417C319.371 219.271 286.868 226.994 255.827 232.204C250.906 233.03 246.094 234.037 241.307 234.496C99.9628 248.029 35.1906 178.678 18.8506 213.646" stroke="#EDECCA" stroke-width="0.864782" stroke-miterlimit="10"/>
<path d="M1497.2 264.629C1494.58 236.459 1426.2 258.264 1311.54 184.567C1290.62 171.124 1270.69 157.236 1250.08 147.036C1186.65 115.627 1131.58 108.41 1065.69 115.147C1012.81 120.552 952.997 137.899 877.264 166.048C869.524 168.923 861.836 171.946 854.131 174.929C814.667 190.193 773.429 206.035 734.302 211.116C693.96 216.357 661.207 212.5 628.782 210.917C589.3 208.989 548.426 207.717 504.914 209.045C458.311 210.463 408.876 214.891 361.49 222.886C327.409 228.589 295.149 235.568 264.272 239.784C259.368 240.454 254.569 241.28 249.808 241.591C106.41 251.03 42.7101 174.436 28.186 205.521" stroke="#EDECCA" stroke-width="0.864782" stroke-miterlimit="10"/>
<path d="M1499.45 259.635C1497.16 234.985 1428.12 262.091 1311.71 188.753C1290.88 175.63 1271.16 162.058 1250.97 151.749C1188.6 119.891 1134.83 109.371 1068.9 114.175C1016.94 117.962 957.559 133.71 881.756 161.111C874.086 163.882 866.467 166.797 858.835 169.681C819.738 184.447 779.18 199.931 740.568 206.092C700.714 212.453 667.593 210.944 634.887 211.385C594.96 211.921 553.986 212.963 510.864 215.938C464.486 219.142 415.842 224.59 369.144 232.338C335.443 237.886 303.429 244.126 272.716 247.342C267.83 247.853 263.039 248.497 258.309 248.666C112.878 253.91 50.2292 170.178 37.5212 197.375" stroke="#EDECCA" stroke-width="0.864782" stroke-miterlimit="10"/>
<path d="M1501.7 254.645C1499.73 233.514 1430.06 265.896 1311.89 192.943C1291.15 180.14 1271.64 166.883 1251.87 156.462C1190.55 124.149 1138.07 110.369 1072.12 113.206C1021.07 115.402 962.125 129.537 886.253 156.181C878.651 158.849 871.102 161.651 863.539 164.44C824.806 178.713 784.939 193.911 746.828 201.08C707.481 208.634 673.975 209.404 640.988 211.86C600.615 214.869 559.547 218.216 516.814 222.843C470.665 227.837 422.812 234.301 376.797 241.807C343.477 247.204 311.705 252.695 281.156 254.922C276.292 255.276 271.51 255.735 266.809 255.765C119.386 256.712 57.7527 165.94 46.8564 189.255" stroke="#EDECCA" stroke-width="0.864782" stroke-miterlimit="10"/>
<path d="M1503.95 249.651C1502.31 232.044 1432.01 269.671 1312.06 197.133C1291.42 184.645 1272.11 171.708 1252.76 161.18C1192.51 128.413 1141.3 111.411 1075.33 112.237C1025.18 112.864 966.691 125.369 890.745 151.247C883.218 153.812 875.729 156.505 868.244 159.195C829.873 172.971 790.69 187.806 753.094 196.06C714.235 204.73 680.37 207.856 647.093 212.331C606.288 217.818 565.116 223.478 522.768 229.744C476.852 236.537 429.782 244.008 384.459 251.273C351.524 256.517 319.994 261.261 289.609 262.497C284.762 262.696 279.997 262.964 275.319 262.856C125.945 259.406 65.2807 161.698 56.2004 181.126" stroke="#EDECCA" stroke-width="0.864782" stroke-miterlimit="10"/>
<path d="M1506.2 244.657C1504.89 230.569 1433.97 273.415 1312.24 201.318C1291.69 189.146 1272.59 176.525 1253.65 165.892C1194.46 132.663 1144.52 112.488 1078.55 111.264C1029.29 110.352 971.27 121.205 895.247 146.314C887.788 148.778 880.368 151.36 872.957 153.954C834.95 167.233 796.445 181.705 759.363 191.049C720.997 200.829 686.774 206.321 653.207 212.811C611.97 220.78 570.698 228.749 528.726 236.649C483.053 245.249 436.761 253.715 392.121 260.737C359.566 265.831 328.283 269.826 298.063 270.073C293.233 270.112 288.485 270.194 283.829 269.947C132.552 262.008 72.8087 157.452 65.5488 172.996" stroke="#EDECCA" stroke-width="0.864782" stroke-miterlimit="10"/>
<path d="M1508.45 239.663C1507.46 229.1 1435.94 277.134 1312.41 205.504C1291.96 193.639 1273.09 181.312 1254.54 170.606C1196.48 136.814 1147.72 113.608 1081.77 110.296C1033.37 107.861 975.836 117.054 899.739 141.385C892.35 143.745 884.999 146.219 877.661 148.714C840.017 161.499 802.196 175.604 765.629 186.033C727.751 196.925 693.177 204.786 659.313 213.283C617.656 223.734 576.28 234.02 534.68 243.55C489.249 253.962 443.731 263.423 399.778 270.203C367.604 275.141 336.567 278.336 306.507 277.648C301.699 277.523 296.964 277.419 292.334 277.043C139.211 264.525 80.3322 153.215 74.8884 164.872" stroke="#EDECCA" stroke-width="0.864782" stroke-miterlimit="10"/>
<path d="M1510.7 234.668C1510.04 227.625 1437.92 280.822 1312.59 209.689C1292.23 198.131 1273.56 186.137 1255.44 175.318C1198.43 141.09 1150.9 114.771 1084.98 109.323C1037.44 105.392 980.411 112.911 904.236 136.446C896.916 138.708 889.634 141.069 882.366 143.464C845.085 155.753 807.943 169.494 771.89 181.009C734.501 193.012 699.586 203.242 665.414 213.749C623.342 226.686 581.863 239.286 540.626 250.446C495.449 262.674 450.697 273.125 407.428 279.663C375.634 284.45 344.843 286.91 314.948 285.219C310.157 284.938 305.444 284.644 300.83 284.13C145.917 266.946 87.8516 148.964 84.2195 156.739" stroke="#EDECCA" stroke-width="0.864782" stroke-miterlimit="10"/>
<path d="M1512.95 229.675C1512.62 226.155 1439.92 284.48 1312.77 213.879C1292.5 202.624 1274.04 190.971 1256.34 180.036C1200.38 145.376 1154.06 115.982 1088.21 108.354C1041.49 102.945 985.02 108.878 908.737 131.518C901.49 133.688 894.274 135.928 887.079 138.224C850.161 150.015 813.702 163.393 778.164 175.998C741.268 189.116 706.028 201.755 671.527 214.23C629.067 229.705 587.488 244.648 546.588 257.356C501.697 271.483 457.68 282.841 415.098 289.133C383.685 293.768 353.145 295.489 323.405 292.799C318.631 292.363 313.94 291.87 309.344 291.226C152.71 269.295 95.3837 144.727 93.5676 148.61" stroke="#EDECCA" stroke-width="0.864782" stroke-miterlimit="10"/>
<path d="M1515.2 224.68C1515.2 224.68 1441.92 288.104 1312.95 218.065C1183.97 148.026 1133.34 63.3467 913.23 126.584C693.121 189.821 500.807 321.471 331.85 300.37C162.893 279.27 102.907 140.481 102.907 140.481" stroke="#EDECCA" stroke-width="0.864782" stroke-miterlimit="10"/>
<path d="M1613.19 180.52C1600.01 145.103 1561.41 124.067 1523.71 121.326C1486.02 118.584 1448.93 130.834 1413.78 144.71C1341.07 173.399 1271.38 209.745 1197.2 234.379C1123.02 259.012 1042.11 271.508 966.703 250.935C920.343 238.288 877.752 213.628 830.881 203.039C736.896 181.8 640.836 219.262 545.122 230.34C472.705 238.72 445.508 203.904 405.17 152.471C366.013 102.543 308.085 67.7007 245.627 56.5061C183.168 45.3115 116.748 57.8724 62.6863 91.0974" stroke="#EDECCA" stroke-width="0.864782" stroke-miterlimit="10"/>
<path d="M1614.56 175.535C1599.9 142.323 1560.47 122.567 1522.17 121.041C1483.81 119.553 1445.97 132.512 1409.86 146.668C1336.8 175.375 1266.33 210.848 1191.86 233.692C1117.67 256.639 1037.39 266.865 961.934 246.291C915.733 233.692 873.104 209.845 826.367 199.714C732.706 179.396 637.087 216.283 541.758 227.266C469.765 235.564 441.482 201.868 400.57 151.645C361.157 102.962 303.705 68.423 241.795 58.6337C180.015 48.7492 114.746 62.2787 61.1814 95.4907" stroke="#EDECCA" stroke-width="0.864782" stroke-miterlimit="10"/>
<path d="M1615.93 170.545C1599.8 139.543 1559.54 121.058 1520.64 120.747C1481.6 120.513 1443.03 134.177 1405.94 148.623C1332.53 177.347 1261.24 211.774 1186.54 232.995C1112.29 254.087 1032.67 262.208 957.178 241.635C911.132 229.087 868.468 206.044 821.861 196.376C728.529 176.979 633.351 213.291 538.403 224.183C466.833 232.399 437.318 199.952 395.977 150.806C356.171 103.486 299.334 69.1321 237.969 60.7438C176.863 52.1694 112.744 66.6675 59.6809 99.8665" stroke="#EDECCA" stroke-width="0.864782" stroke-miterlimit="10"/>
<path d="M1617.3 165.555C1599.7 136.758 1558.61 119.553 1519.09 120.457C1479.39 121.477 1440.07 135.85 1402.02 150.577C1328.26 179.318 1256.18 212.789 1181.2 232.299C1106.93 251.627 1027.95 257.555 952.409 236.977C906.523 224.477 863.825 202.248 817.347 193.042C724.34 174.566 629.603 210.299 535.039 221.104C463.893 229.238 433.228 197.976 391.373 149.976C351.247 103.961 294.928 70.0095 234.129 62.8664C173.685 55.7622 110.729 71.0732 58.1677 104.259" stroke="#EDECCA" stroke-width="0.864782" stroke-miterlimit="10"/>
<path d="M1618.67 160.565C1599.6 133.977 1557.67 118.044 1517.55 120.167C1477.19 122.441 1437.11 137.519 1398.1 152.535C1323.99 181.294 1251.13 213.818 1175.88 231.607C1101.58 249.175 1023.24 252.902 947.648 232.325C901.919 219.872 859.185 198.451 812.842 189.708C720.159 172.153 625.863 207.311 531.684 218.021C460.962 226.072 429.151 195.991 386.781 149.141C346.348 104.428 290.556 70.7746 230.303 64.9806C170.533 59.2341 108.732 75.4661 56.6675 108.639" stroke="#EDECCA" stroke-width="0.864782" stroke-miterlimit="10"/>
<path d="M1620.03 155.58C1599.49 131.198 1556.74 116.544 1516.01 119.882C1474.97 123.411 1434.16 139.197 1394.18 154.5C1319.71 183.275 1246.07 214.853 1170.54 230.92C1096.22 246.733 1018.51 248.259 942.874 227.677C897.305 215.276 854.533 194.664 808.323 186.38C715.968 169.746 622.109 204.324 528.315 214.948C458.017 222.917 425.064 194.02 382.176 148.316C341.436 104.904 286.172 71.5453 226.467 67.1089C167.377 62.7202 106.721 79.8731 55.1582 113.038" stroke="#EDECCA" stroke-width="0.864782" stroke-miterlimit="10"/>
<path d="M1621.4 150.59C1599.4 128.417 1555.8 114.944 1514.47 119.592C1472.76 124.284 1431.21 140.87 1390.27 156.453C1315.44 185.246 1241.03 215.881 1165.21 230.228C1090.88 244.294 1013.8 243.606 938.123 223.029C892.709 210.675 849.902 190.872 803.822 183.05C711.792 167.337 618.374 201.34 524.964 211.869C455.09 219.755 421.004 192.039 377.588 147.486C336.55 105.375 281.809 72.3058 222.645 69.2315C164.233 66.1961 104.728 84.2787 53.6624 117.426" stroke="#EDECCA" stroke-width="0.864782" stroke-miterlimit="10"/>
<path d="M1622.77 145.6C1599.29 125.632 1554.86 113.43 1512.93 119.302C1470.55 125.239 1428.25 142.539 1386.34 158.412C1311.17 187.222 1235.98 216.923 1159.88 229.536C1085.53 241.855 1009.07 238.958 933.353 218.376C888.099 206.07 845.254 187.079 799.308 179.716C707.602 164.924 614.625 198.352 521.6 208.79C452.15 216.594 416.94 190.058 372.983 146.651C331.655 105.837 277.429 73.0621 218.805 71.3455C161.077 69.6592 102.713 88.6714 52.1489 121.81" stroke="#EDECCA" stroke-width="0.864782" stroke-miterlimit="10"/>
<path d="M1624.14 140.611C1599.19 122.852 1553.92 111.917 1511.39 119.013C1468.33 126.199 1425.27 144.122 1382.43 160.367C1306.84 189.034 1230.94 217.966 1154.55 228.84C1080.2 239.425 1004.36 234.306 928.593 213.719C883.494 201.461 840.614 183.279 794.802 176.382C703.421 162.507 610.885 195.36 518.24 205.707C449.214 213.434 412.88 188.074 368.387 145.817C326.773 106.296 273.062 73.8107 214.979 73.4648C157.933 73.1232 100.715 93.0694 50.644 126.195" stroke="#EDECCA" stroke-width="0.864782" stroke-miterlimit="10"/>
<path d="M1625.51 135.625C1599.09 120.072 1552.99 110.408 1509.85 118.727C1466.12 127.163 1422.31 145.791 1378.51 162.33C1302.57 191.006 1225.9 219.025 1149.22 228.153C1074.86 237.004 999.639 229.657 923.828 209.071C878.889 196.865 835.974 179.491 790.288 173.053C699.235 160.099 607.136 192.377 514.876 202.633C446.273 210.278 408.824 186.094 363.786 144.991C321.892 106.763 268.69 74.5673 211.143 75.5877C154.785 76.5866 98.7043 97.4754 49.135 130.584" stroke="#EDECCA" stroke-width="0.864782" stroke-miterlimit="10"/>
<path d="M1626.88 130.635C1598.98 117.292 1552.05 108.895 1508.31 118.438C1463.91 128.123 1419.36 147.455 1374.59 164.288C1298.3 192.973 1220.87 220.084 1143.89 227.461C1069.53 234.591 994.926 225.009 919.067 204.423C874.284 192.264 831.335 175.699 785.783 169.724C695.054 157.69 603.396 189.389 511.521 199.558C443.342 207.121 404.785 184.109 359.19 144.165C317.023 107.221 264.323 75.3196 207.312 77.715C151.642 80.0499 96.7024 101.881 47.6304 134.981" stroke="#EDECCA" stroke-width="0.864782" stroke-miterlimit="10"/>
<path d="M1628.25 125.646C1598.89 114.507 1551.11 107.386 1506.77 118.148C1461.7 129.083 1416.4 149.125 1370.67 166.243C1294.02 194.941 1215.84 221.144 1138.56 226.769C1064.2 232.178 990.208 220.357 914.302 199.77C869.679 187.659 826.691 171.903 781.273 166.39C690.868 155.277 599.651 186.401 508.161 196.476C440.406 203.956 400.747 182.112 354.593 143.33C312.158 107.671 259.96 76.0591 203.486 79.8295C148.503 83.5005 94.7004 106.275 46.1299 139.361" stroke="#EDECCA" stroke-width="0.864782" stroke-miterlimit="10"/>
<path d="M1629.62 120.655C1598.78 111.726 1550.18 105.88 1505.23 117.858C1459.49 130.047 1413.44 150.793 1366.75 168.201C1289.75 196.912 1210.81 222.215 1133.23 226.077C1058.87 229.778 985.482 215.708 909.533 195.117C865.066 183.058 822.043 168.11 776.759 163.06C686.679 152.868 595.902 183.412 504.798 193.401C437.466 200.799 396.713 180.118 349.993 142.5C307.294 108.12 255.593 76.7978 199.651 81.9519C145.36 86.9504 92.6943 110.68 44.6211 143.754" stroke="#EDECCA" stroke-width="0.864782" stroke-miterlimit="10"/>
<path d="M1630.99 115.67C1598.68 108.951 1549.24 104.376 1503.69 117.573C1457.28 131.016 1410.49 152.467 1362.83 170.16C1285.48 198.888 1205.78 223.297 1127.9 225.385C1053.55 227.378 980.769 211.056 904.777 190.465C860.469 178.453 817.408 164.314 772.253 159.726C682.502 150.456 592.162 180.425 501.442 190.318C434.534 197.634 392.687 178.112 345.401 141.665C302.447 108.562 251.235 77.5288 195.824 84.0666C142.225 90.3925 90.6923 115.073 43.1206 148.134" stroke="#EDECCA" stroke-width="0.864782" stroke-miterlimit="10"/>
<path d="M1632.35 110.68C1598.58 106.166 1548.3 102.871 1502.15 117.283C1455.07 131.984 1407.53 154.135 1358.92 172.119C1281.21 200.864 1200.75 224.382 1122.57 224.693C1048.22 224.991 976.047 206.407 900.011 185.812C855.86 173.848 812.764 160.522 767.743 156.393C678.316 148.043 588.417 177.437 498.082 187.239C431.598 194.473 388.67 176.105 340.8 140.835C297.595 109.002 246.872 78.2595 191.988 86.1895C139.081 93.8342 88.6814 119.475 41.6113 152.523" stroke="#EDECCA" stroke-width="0.864782" stroke-miterlimit="10"/>
<path d="M1633.72 105.691C1598.48 103.386 1547.37 101.367 1500.61 116.989C1452.86 132.944 1404.58 155.801 1355 174.074C1276.94 202.84 1195.72 225.472 1117.24 224.002C1042.89 222.609 971.334 201.76 895.251 181.165C851.259 169.252 808.128 156.73 763.237 153.064C674.135 145.635 584.677 174.45 494.727 184.161C428.666 191.313 384.657 174.095 336.208 140.005C292.761 109.435 242.513 78.9864 188.166 88.3131C135.946 97.2722 86.6881 123.882 40.1152 156.916" stroke="#EDECCA" stroke-width="0.864782" stroke-miterlimit="10"/>
<path d="M1635.09 100.701C1598.38 100.601 1546.43 99.8617 1499.07 116.699C1450.64 133.912 1401.62 157.473 1351.08 176.027C1272.67 204.812 1190.7 226.565 1111.9 223.305C1037.56 220.226 966.613 197.102 890.482 176.507C846.646 164.643 803.48 152.933 758.723 149.729C669.949 143.218 580.929 171.461 491.363 181.082C425.726 188.152 380.645 172.075 331.608 139.175C287.919 109.863 238.146 79.7079 184.331 90.4312C132.803 100.701 84.6776 128.278 38.6021 161.3" stroke="#EDECCA" stroke-width="0.864782" stroke-miterlimit="10"/>
<path d="M1636.46 95.7152C1598.27 97.8253 1545.5 98.3657 1497.53 116.414C1448.44 134.885 1398.67 159.151 1347.16 177.991C1268.4 206.796 1185.67 227.677 1106.58 222.618C1032.24 217.861 961.895 192.458 885.721 171.859C842.045 160.042 798.841 149.141 754.214 146.4C665.764 140.809 577.184 168.474 487.999 178.004C422.79 184.991 376.637 170.048 327.003 138.34C283.08 110.278 233.775 80.4172 180.491 92.5501C129.655 104.125 82.667 132.676 37.0886 165.689" stroke="#EDECCA" stroke-width="0.864782" stroke-miterlimit="10"/>
<path d="M1637.83 90.7258C1598.17 95.0411 1544.56 96.8615 1495.98 116.124C1446.23 135.854 1395.71 160.825 1343.24 179.95C1264.13 208.782 1180.63 228.793 1101.24 221.926C1026.91 215.497 957.174 187.806 880.952 167.207C837.432 155.442 794.193 145.35 749.7 143.067C661.574 138.397 573.435 165.486 484.635 174.925C419.85 181.831 372.633 168.016 322.402 137.511C278.246 110.694 229.408 81.1267 176.66 94.6692C126.512 107.546 80.6608 137.078 35.584 170.074" stroke="#EDECCA" stroke-width="0.864782" stroke-miterlimit="10"/>
<path d="M1639.2 85.736C1598.07 92.2608 1543.63 95.3611 1494.45 115.835C1444.02 136.827 1392.81 162.607 1339.33 181.904C1259.92 210.918 1175.61 229.908 1095.92 221.23C1021.58 213.136 952.461 183.154 876.196 162.555C832.835 150.837 789.557 141.553 745.198 139.733C657.397 135.984 569.699 162.498 481.284 171.847C416.923 178.67 368.646 165.975 317.814 136.68C273.434 111.104 225.053 81.8316 172.838 96.7923C123.377 110.962 78.6674 141.48 34.0879 174.463" stroke="#EDECCA" stroke-width="0.864782" stroke-miterlimit="10"/>
<path d="M1640.57 80.7455C1597.97 89.4755 1542.74 93.9507 1492.91 115.544C1441.86 137.89 1389.85 164.275 1335.41 183.862C1255.65 212.893 1170.58 231.036 1090.59 220.542C1016.25 210.787 947.743 178.505 871.43 157.906C828.226 146.235 784.913 137.765 740.684 136.407C653.211 133.579 565.95 159.514 477.92 168.772C413.982 175.513 364.651 163.929 313.214 135.854C268.608 111.51 220.682 82.5356 169.003 98.9146C120.229 114.377 76.6568 145.881 32.5789 178.855" stroke="#EDECCA" stroke-width="0.864782" stroke-miterlimit="10"/>
<path d="M1641.93 75.7603C1597.86 86.6998 1541.81 92.4506 1491.37 115.259C1439.64 138.859 1386.9 165.953 1331.49 185.821C1251.38 214.869 1165.54 232.169 1085.26 219.85C1010.92 208.444 943.021 173.857 866.67 153.253C823.625 141.631 780.274 133.969 736.179 133.074C649.03 131.167 562.21 156.527 474.565 165.693C411.051 172.352 360.668 161.867 308.617 135.024C263.791 111.9 216.31 83.232 165.176 101.038C117.085 117.784 74.6591 150.283 31.0784 183.244" stroke="#EDECCA" stroke-width="0.864782" stroke-miterlimit="10"/>
<path d="M1643.3 70.7705C1597.77 83.9152 1540.88 90.9415 1489.83 114.97C1437.44 139.828 1383.94 167.622 1327.57 187.78C1247.11 216.845 1160.5 233.306 1079.93 219.158C1005.58 206.105 938.304 169.209 861.905 148.601C819.016 137.03 775.634 130.177 731.669 129.74C644.845 128.754 558.466 153.534 471.205 162.61C408.115 169.187 356.682 159.795 304.021 134.185C258.974 112.28 211.935 83.9109 161.345 103.152C113.929 121.183 72.6485 154.68 29.5693 187.629" stroke="#EDECCA" stroke-width="0.864782" stroke-miterlimit="10"/>
<path d="M1644.67 65.7807C1597.66 81.1349 1539.94 89.4368 1488.29 114.68C1435.23 140.792 1380.99 169.295 1323.65 189.739C1242.84 218.821 1155.46 234.452 1074.6 218.467C1000.24 203.77 933.591 164.556 857.144 143.948C814.415 132.425 770.995 126.38 727.163 126.406C640.663 126.341 554.726 150.547 467.85 159.532C405.183 166.026 352.704 157.716 299.429 133.355C254.166 112.656 207.563 84.5984 157.518 105.271C110.785 124.577 70.6508 159.078 28.0732 192.013" stroke="#EDECCA" stroke-width="0.864782" stroke-miterlimit="10"/>
<path d="M1646.04 60.7909C1597.56 78.3503 1539.01 87.9278 1486.75 114.39C1433.02 141.756 1378.04 170.964 1319.73 191.693C1238.57 220.789 1150.42 235.602 1069.27 217.771C994.9 201.435 928.869 159.904 852.379 139.296C809.806 127.82 766.351 122.584 722.649 123.073C636.478 123.924 550.977 147.559 464.486 156.449C402.243 162.861 348.717 155.623 294.824 132.52C249.345 113.019 203.174 85.2729 153.679 107.39C107.616 127.967 68.6403 163.475 26.5557 196.402" stroke="#EDECCA" stroke-width="0.864782" stroke-miterlimit="10"/>
<path d="M1647.41 55.8057C1597.45 75.5746 1538.07 86.4276 1485.21 114.105C1430.81 142.725 1375.08 172.642 1315.81 193.656C1234.29 222.769 1145.37 236.761 1063.94 217.088C989.555 199.117 924.152 155.26 847.614 134.652C805.201 123.228 761.707 118.801 718.139 119.752C632.292 121.525 547.232 144.58 461.126 153.383C399.307 159.714 344.739 153.539 290.228 131.703C244.533 113.396 198.79 85.965 149.852 109.522C104.459 131.37 66.6382 167.89 25.0552 200.799" stroke="#EDECCA" stroke-width="0.864782" stroke-miterlimit="10"/>
<path d="M1648.78 50.8159C1597.35 72.7901 1537.14 84.9186 1483.67 113.815C1428.61 143.689 1372.13 174.311 1311.89 195.611C1230.03 224.741 1140.32 237.92 1058.6 216.391C984.207 196.791 919.43 150.607 842.849 129.995C800.592 118.619 757.063 115 713.629 116.414C628.107 119.108 543.488 141.588 457.762 150.301C396.367 156.549 340.753 151.425 285.627 130.865C239.716 113.742 194.397 86.6309 146.017 111.636C101.29 134.752 64.6319 172.283 23.5461 205.18" stroke="#EDECCA" stroke-width="0.864782" stroke-miterlimit="10"/>
<path d="M1650.15 45.8262C1597.25 70.0098 1536.21 83.4139 1482.13 113.521C1426.4 144.649 1369.17 175.98 1307.97 197.565C1225.75 226.713 1135.26 239.079 1053.27 215.695C978.849 194.469 914.708 145.951 838.08 125.339C795.983 114.01 752.415 111.204 709.115 113.076C623.921 116.691 539.739 138.591 454.398 147.213C393.426 153.383 336.77 149.297 281.026 130.026C234.895 114.079 189.999 87.2925 142.181 113.746C98.1163 138.129 62.6213 176.672 22.0371 209.56" stroke="#EDECCA" stroke-width="0.864782" stroke-miterlimit="10"/>
<path d="M1651.52 40.8364C1597.15 67.2252 1535.28 81.9049 1480.59 113.232C1424.19 145.613 1366.22 177.654 1304.06 199.524C1221.48 228.689 1130.2 240.251 1047.94 215.003C973.496 192.156 909.995 141.302 833.319 120.69C791.377 109.414 747.78 107.412 704.605 109.747C619.736 114.282 535.999 135.608 451.038 144.139C390.49 150.227 332.788 147.174 276.426 129.2C230.078 114.421 185.598 87.9627 138.35 115.874C94.9425 141.519 60.6192 181.082 20.5322 213.953" stroke="#EDECCA" stroke-width="0.864782" stroke-miterlimit="10"/>
<path d="M1652.89 35.8512C1597.05 64.4495 1534.35 80.4047 1479.05 112.946C1421.99 146.587 1363.27 179.327 1300.14 201.483C1217.21 230.665 1125.08 241.587 1042.61 214.316C968.087 189.994 905.274 136.659 828.559 116.042C786.777 104.813 743.14 103.624 700.1 106.422C615.555 111.879 532.259 132.629 447.683 141.065C387.559 147.071 328.81 145.034 271.834 128.374C225.265 114.754 181.196 88.6331 134.524 118.001C91.769 144.905 58.6176 185.489 19.0322 218.35" stroke="#EDECCA" stroke-width="0.864782" stroke-miterlimit="10"/>
<path d="M1654.25 30.8606C1596.95 61.6685 1533.41 78.8949 1477.5 112.656C1419.77 147.55 1360.31 181 1296.22 203.441C1212.94 232.64 1120.03 242.685 1037.28 213.624C962.743 187.615 900.556 132.006 823.794 111.389C782.168 100.207 738.496 99.827 695.59 103.087C611.369 109.465 528.514 129.636 444.323 137.986C384.623 143.909 324.823 142.884 267.238 127.543C220.444 115.077 176.747 89.2377 130.693 120.119C88.5476 148.229 56.6155 189.885 17.5273 222.734" stroke="#EDECCA" stroke-width="0.864782" stroke-miterlimit="10"/>
<path d="M1655.62 25.8712C1596.85 58.8843 1532.48 77.3906 1475.97 112.367C1417.57 148.515 1357.36 182.669 1292.3 205.4C1208.67 234.617 1115 243.788 1031.95 212.932C957.403 185.233 895.839 127.358 819.033 106.737C777.567 95.6073 733.857 96.0353 691.085 99.7539C607.192 107.053 524.774 126.649 440.968 134.903C381.692 140.745 320.841 140.719 262.641 126.705C215.623 115.385 172.371 89.9473 126.862 122.234C85.3955 151.654 54.6093 194.283 16.0227 227.115" stroke="#EDECCA" stroke-width="0.864782" stroke-miterlimit="10"/>
</svg>
