<svg width="1240" height="492" viewBox="0 0 1240 492" fill="none" xmlns="http://www.w3.org/2000/svg">
<path d="M-17 481.222C38.5954 478.688 202.238 465.369 316.573 466.017C430.907 466.665 560.127 480.549 669.007 485.109C777.887 489.668 874.187 494.022 969.852 493.374C1065.52 492.726 1197.48 483.248 1243 481.222V-69.9999L-17 -69.9999L-17 481.222Z" fill="#96D7FA"/>
<path d="M-20 429.741C21.317 425.559 169.425 410.257 227.902 404.647C286.379 399.037 274.357 384.179 330.861 396.083C387.366 407.987 508.246 480.321 566.928 476.073C625.61 471.824 625.652 368.748 682.952 370.593C740.252 372.437 832.132 470.45 910.729 487.141C989.326 503.832 1091.32 480.304 1154.53 470.737C1217.75 461.171 1267.42 436.574 1290 429.741V-16L-20 -16L-20 429.741Z" fill="#A8E1FF"/>
<path d="M-20 360.141C9.63633 355.684 94.1025 334.893 157.818 333.395C221.533 331.897 279.687 343.252 362.293 351.152C444.899 359.053 580.971 383.045 653.455 380.797C725.938 378.549 732.486 340.474 797.194 337.666C861.903 334.858 964.403 360.204 1041.7 363.95C1119.01 367.696 1224.45 360.776 1261 360.141V-138L-20 -138L-20 360.141Z" fill="#BEE9FF"/>
<path d="M-39 249.064C-0.705444 256.493 98.6331 290.192 190.767 293.638C282.902 297.084 417.96 280.812 513.805 269.74C609.651 258.669 687.132 239.712 765.842 227.21C844.551 214.708 905.867 191.084 986.06 194.726C1066.25 198.369 1203.51 240.008 1247 249.064V-126L-39 -126L-39 249.064Z" fill="#D0EFFF"/>
<path d="M-39 201.171C3.22145 211.022 149.248 262.762 214.329 260.273C279.41 257.783 294.17 197.327 351.486 186.236C408.802 175.144 487.637 190.202 558.223 193.723C628.81 197.244 693.177 205.128 775.003 207.36C856.828 209.593 967.342 208.148 1049.18 207.116C1131.01 206.085 1229.86 202.162 1266 201.171V-116L-39 -116L-39 201.171Z" fill="#DDF3FF"/>
<path d="M-49 132.435C-5.67852 142.542 144.152 195.63 210.929 193.076C277.705 190.522 292.85 128.49 351.659 117.11C410.469 105.729 491.358 121.18 563.783 124.792C636.208 128.405 702.253 136.495 786.21 138.785C870.167 141.075 983.561 139.593 1067.53 138.535C1151.49 137.476 1252.92 133.451 1290 132.435V-193L-49 -193L-49 132.435Z" fill="#E9F4FA"/>
</svg>
