<svg width="38" height="24" viewBox="0 0 38 24" fill="none" xmlns="http://www.w3.org/2000/svg">
<g id="Group">
<path id="Vector" d="M0.134606 12.8743C-0.0888421 12.5615 -0.027688 12.1287 0.268674 11.8864C2.97592 9.6637 4.44832 7.50684 5.99835 5.23473C6.9086 3.9011 7.84473 2.52983 9.03724 1.12564C9.31243 0.803405 9.80402 0.779884 10.1074 1.07625L12.4901 3.41186C12.7606 3.67765 12.7841 4.10808 12.5395 4.39974C11.5751 5.55696 10.7848 6.71419 9.95455 7.92786C8.3222 10.3199 6.48993 13.006 3.12175 15.7321C2.79246 15.9979 2.30793 15.9344 2.06331 15.5886L0.134606 12.8743Z" fill="#1E8DCC"/>
<path id="Vector_2" d="M5.29263 20.2178C5.08565 19.8909 5.17032 19.4604 5.4855 19.2346C9.13593 16.6168 10.8341 14.1283 12.6288 11.501C14.868 8.21983 17.3964 4.5153 23.7753 0.728447C24.1328 0.51676 24.5985 0.643772 24.7961 1.0107L26.3696 3.9461C26.5531 4.2895 26.4355 4.71758 26.1015 4.91751C20.7293 8.1281 18.716 11.08 16.5873 14.1988C14.701 16.9625 12.5794 20.072 8.11983 23.2379C7.77878 23.4801 7.30131 23.3884 7.07551 23.0332L5.29498 20.2178H5.29263Z" fill="#1E8DCC"/>
<path id="Vector_3" d="M17.8247 21.0437C17.5283 20.7991 17.4718 20.364 17.6976 20.0535C18.1587 19.4184 18.5961 18.7786 19.0501 18.113C21.3716 14.7119 24.0012 10.8592 30.9069 6.92651C32.2853 6.14091 33.5954 5.48468 34.8843 4.93194C35.2724 4.76494 35.7217 4.96017 35.8628 5.35767L36.9824 8.4977C37.1117 8.85757 36.94 9.25742 36.5896 9.41031C35.5241 9.87602 34.4327 10.4288 33.2755 11.0873C27.3294 14.472 25.229 17.5509 23.0039 20.8108C22.51 21.5353 22.002 22.2785 21.4492 23.0312C21.1999 23.3699 20.7177 23.4334 20.3931 23.1653L17.8223 21.0437H17.8247Z" fill="#1E8DCC"/>
</g>
</svg>
