<svg width="32" height="32" viewBox="0 0 32 32" fill="none" xmlns="http://www.w3.org/2000/svg">
<path d="M2.66675 16.8135H25.3334" stroke="#6E7071" stroke-width="1.5" stroke-miterlimit="10" stroke-linecap="round" stroke-linejoin="round"/>
<path d="M25.3334 13.7067V23.2401C25.2934 27.0401 24.2534 28.0001 20.2934 28.0001H7.70679C3.68012 28.0001 2.66675 27.0001 2.66675 23.0267V13.7067C2.66675 10.1067 3.50675 8.94673 6.66675 8.76007C6.98675 8.74673 7.33345 8.7334 7.70679 8.7334H20.2934C24.32 8.7334 25.3334 9.7334 25.3334 13.7067Z" stroke="#6E7071" stroke-width="1.5" stroke-linecap="round" stroke-linejoin="round"/>
<path d="M29.3334 8.97333V18.2933C29.3334 21.8933 28.4934 23.0533 25.3334 23.24V13.7067C25.3334 9.73333 24.32 8.73333 20.2934 8.73333H7.70679C7.33345 8.73333 6.98675 8.74667 6.66675 8.76C6.70675 4.96 7.74679 4 11.7068 4H24.2934C28.32 4 29.3334 5 29.3334 8.97333Z" stroke="#6E7071" stroke-width="1.5" stroke-linecap="round" stroke-linejoin="round"/>
<path d="M7 23.7471H9.29329" stroke="#6E7071" stroke-width="1.5" stroke-miterlimit="10" stroke-linecap="round" stroke-linejoin="round"/>
<path d="M12.1467 23.7471H16.7334" stroke="#6E7071" stroke-width="1.5" stroke-miterlimit="10" stroke-linecap="round" stroke-linejoin="round"/>
</svg>
