<svg width="32" height="32" viewBox="0 0 32 32" fill="none" xmlns="http://www.w3.org/2000/svg">
<path d="M12.6667 18.3336C12.6667 19.627 13.6668 20.667 14.8934 20.667H17.4001C18.4667 20.667 19.3334 19.7603 19.3334 18.627C19.3334 17.4136 18.8001 16.9736 18.0134 16.6936L14.0001 15.2936C13.2134 15.0136 12.6801 14.587 12.6801 13.3603C12.6801 12.2403 13.5467 11.3203 14.6134 11.3203H17.1201C18.3467 11.3203 19.3468 12.3603 19.3468 13.6536" fill="#BCBDBD" fill-opacity="0.25"/>
<path d="M12.6667 18.3336C12.6667 19.627 13.6668 20.667 14.8934 20.667H17.4001C18.4667 20.667 19.3334 19.7603 19.3334 18.627C19.3334 17.4136 18.8001 16.9736 18.0134 16.6936L14.0001 15.2936C13.2134 15.0136 12.6801 14.587 12.6801 13.3603C12.6801 12.2403 13.5467 11.3203 14.6134 11.3203H17.1201C18.3467 11.3203 19.3468 12.3603 19.3468 13.6536" stroke="#6E7071" stroke-width="1.5" stroke-linecap="round" stroke-linejoin="round"/>
<path d="M16 10V22" stroke="#6E7071" stroke-width="1.5" stroke-linecap="round" stroke-linejoin="round"/>
<path d="M29.3334 16.0003C29.3334 23.3603 23.3601 29.3337 16.0001 29.3337C8.64008 29.3337 2.66675 23.3603 2.66675 16.0003C2.66675 8.64033 8.64008 2.66699 16.0001 2.66699" stroke="#6E7071" stroke-width="1.5" stroke-linecap="round" stroke-linejoin="round"/>
<path d="M29.3333 8.00033V2.66699H24" stroke="#6E7071" stroke-width="1.5" stroke-linecap="round" stroke-linejoin="round"/>
<path d="M22.6667 9.33366L29.3334 2.66699" stroke="#6E7071" stroke-width="1.5" stroke-linecap="round" stroke-linejoin="round"/>
</svg>
