<svg width="32" height="32" viewBox="0 0 32 32" fill="none" xmlns="http://www.w3.org/2000/svg">
<path d="M16.0001 19.3337C17.841 19.3337 19.3334 17.8413 19.3334 16.0003C19.3334 14.1594 17.841 12.667 16.0001 12.667C14.1591 12.667 12.6667 14.1594 12.6667 16.0003C12.6667 17.8413 14.1591 19.3337 16.0001 19.3337Z" fill="#BCBDBD" fill-opacity="0.25" stroke="#6E7071" stroke-width="1.5" stroke-miterlimit="10" stroke-linecap="round" stroke-linejoin="round"/>
<path d="M24.6667 12.667V19.3337" stroke="#6E7071" stroke-width="1.5" stroke-miterlimit="10" stroke-linecap="round" stroke-linejoin="round"/>
<path d="M11.9999 24.0003C11.9999 25.0003 11.7199 25.947 11.2266 26.747C10.3066 28.2937 8.61325 29.3337 6.66659 29.3337C4.71992 29.3337 3.02657 28.2937 2.10657 26.747C1.61323 25.947 1.33325 25.0003 1.33325 24.0003C1.33325 21.0537 3.71992 18.667 6.66659 18.667C9.61325 18.667 11.9999 21.0537 11.9999 24.0003Z" stroke="#6E7071" stroke-width="1.5" stroke-miterlimit="10" stroke-linecap="round" stroke-linejoin="round"/>
<path d="M8.65544 23.9727H4.68213" stroke="#6E7071" stroke-width="1.5" stroke-miterlimit="10" stroke-linecap="round" stroke-linejoin="round"/>
<path d="M6.6665 22.0264V26.013" stroke="#6E7071" stroke-width="1.5" stroke-miterlimit="10" stroke-linecap="round" stroke-linejoin="round"/>
<path d="M2.66675 20.3997V11.9997C2.66675 7.33301 5.33341 5.33301 9.33341 5.33301H22.6667C26.6667 5.33301 29.3334 7.33301 29.3334 11.9997V19.9997C29.3334 24.6663 26.6667 26.6663 22.6667 26.6663H11.3334" stroke="#6E7071" stroke-width="1.5" stroke-miterlimit="10" stroke-linecap="round" stroke-linejoin="round"/>
</svg>
