<svg width="32" height="32" viewBox="0 0 32 32" fill="none" xmlns="http://www.w3.org/2000/svg">
<path d="M11.4268 20.3596L20.1467 11.6396" stroke="#6E7071" stroke-width="1.5" stroke-linecap="round" stroke-linejoin="round"/>
<path d="M11.9733 13.8269C12.879 13.8269 13.6132 13.0926 13.6132 12.1869C13.6132 11.2811 12.879 10.5469 11.9733 10.5469C11.0675 10.5469 10.3333 11.2811 10.3333 12.1869C10.3333 13.0926 11.0675 13.8269 11.9733 13.8269Z" stroke="#6E7071" stroke-width="1.5" stroke-linecap="round" stroke-linejoin="round"/>
<path d="M20.6934 21.4538C21.5992 21.4538 22.3335 20.7195 22.3335 19.8138C22.3335 18.9081 21.5992 18.1738 20.6934 18.1738C19.7877 18.1738 19.0535 18.9081 19.0535 19.8138C19.0535 20.7195 19.7877 21.4538 20.6934 21.4538Z" stroke="#6E7071" stroke-width="1.5" stroke-linecap="round" stroke-linejoin="round"/>
<path d="M16.0001 29.3337C23.3639 29.3337 29.3334 23.3641 29.3334 16.0003C29.3334 8.63653 23.3639 2.66699 16.0001 2.66699C8.63628 2.66699 2.66675 8.63653 2.66675 16.0003C2.66675 23.3641 8.63628 29.3337 16.0001 29.3337Z" stroke="#6E7071" stroke-width="1.5" stroke-linecap="round" stroke-linejoin="round"/>
</svg>
