<svg width="1440" height="479" viewBox="0 0 1440 479" fill="none" xmlns="http://www.w3.org/2000/svg">
<path d="M131.905 285.502C124.754 275.492 126.711 261.643 136.195 253.89C222.827 182.763 269.944 113.744 319.544 41.0364C348.672 -1.63979 378.629 -45.5202 416.789 -90.4544C425.595 -100.766 441.326 -101.519 451.035 -92.035L527.28 -17.2953C535.936 -8.79013 536.689 4.98367 528.861 14.3167C498.001 51.3479 472.712 88.3791 446.143 127.217C393.908 203.763 335.275 289.717 227.493 376.951C216.956 385.457 201.451 383.424 193.623 372.36L131.905 285.502Z" fill="#FAFAFA"/>
<path d="M296.961 520.482C290.338 510.02 293.047 496.246 303.133 489.021C419.947 405.249 474.29 325.617 531.718 241.544C603.372 136.547 684.283 18.002 888.407 -103.177C899.847 -109.951 914.75 -105.887 921.072 -94.1453L971.426 -0.212547C977.296 10.7764 973.533 24.4749 962.845 30.8726C790.936 133.612 726.508 228.071 658.392 327.875C598.028 416.313 530.137 515.816 387.432 617.124C376.518 624.877 361.239 621.942 354.013 610.576L297.037 520.482H296.961Z" fill="#FAFAFA"/>
<path d="M697.984 546.898C688.501 539.071 686.694 525.146 693.92 515.211C708.672 494.889 722.672 474.416 737.198 453.116C811.486 344.28 895.634 220.994 1116.62 95.1479C1160.72 70.0089 1202.65 49.0095 1243.89 31.3218C1256.31 25.9779 1270.69 32.225 1275.2 44.9451L1311.03 145.426C1315.17 156.942 1309.68 169.737 1298.46 174.629C1264.37 189.532 1229.44 207.22 1192.41 228.295C1002.14 336.603 934.924 435.127 863.721 539.447C847.915 562.629 831.658 586.413 813.97 610.499C805.992 621.337 790.562 623.369 780.175 614.789L697.909 546.898H697.984Z" fill="#FAFAFA"/>
</svg>
