<svg width="1440" height="346" viewBox="0 0 1440 346" fill="none" xmlns="http://www.w3.org/2000/svg">
<path d="M1893.88 1C1792.12 70.4666 1685.73 134.096 1571.72 180.83C1534.76 195.983 1496.77 209.405 1457.28 215.409C1376.75 227.653 1295.08 208.532 1213.66 205.966C1110.25 202.704 1006.26 227.226 914.738 275.33C845.87 311.527 768.388 364.031 690.484 377.207C619.712 389.176 543.579 324.051 480.907 298.64C416.714 272.617 344.917 267.074 277.123 280.461C241.607 287.476 207.063 299.68 175.212 316.918C144.753 333.406 118.22 364.089 82.1103 339.974C70.1753 332.003 61.9242 319.719 51.6668 309.678C16.0187 274.785 -46.3203 272.058 -84.8774 303.708" stroke="#A1DDFF" stroke-width="0.490549" stroke-miterlimit="10"/>
<path d="M1889.39 3.17825C1789.95 73.5769 1684.65 137.873 1571.27 184.436C1533.52 199.967 1494.73 212.981 1454.54 219.682C1406.05 227.702 1357.06 224.73 1307.9 220.501C1274.35 217.617 1240.72 214.144 1207.13 213.172C1140.77 211.259 1074.17 219.54 1010.68 236.979C973.555 247.177 937.499 260.515 903.136 276.86C878.996 288.285 853.895 301.52 828.151 314.407C791.944 332.479 754.451 349.844 716.355 360.965C702.679 364.973 688.929 368.176 675.164 370.28C618.26 378.943 557.982 342.255 503.761 315.265C489.226 307.995 475.128 301.422 461.633 296.605C406.167 276.625 345.677 271.611 287.13 280.314C277.049 281.81 267.022 283.713 257.079 286.019C221.622 294.235 187.107 307.51 154.976 325.346C135.948 335.912 118.298 351.639 98.882 356.609C86.9274 359.67 74.3595 358.595 60.3789 349.854C48.1642 342.216 39.4472 330.413 28.8072 320.715C-8.12132 287 -70.9606 284.027 -110.626 315.27" stroke="#A1DDFF" stroke-width="0.490549" stroke-miterlimit="10"/>
<path d="M1884.91 5.35098C1787.77 76.6866 1683.57 141.645 1570.81 188.036C1532.27 203.95 1492.68 216.557 1451.8 223.944C1402.69 232.706 1352.96 230.567 1303.03 226.927C1268.94 224.445 1234.75 221.261 1200.59 220.368C1133.12 218.592 1065.41 226.152 1000.87 242.021C963.13 251.297 926.487 263.438 891.525 278.381C866.909 288.795 841.391 300.902 815.269 312.636C778.493 329.069 740.485 344.747 701.707 354.847C687.81 358.497 673.834 361.426 659.824 363.348C601.802 371.241 540.351 336.324 485.145 311.507C470.379 304.806 456.045 298.861 442.344 294.574C386.123 276.982 325.491 274.083 267.022 284.836C256.961 286.681 246.954 288.937 237.025 291.576C201.623 300.995 167.137 315.338 134.731 333.778C115.531 344.708 97.5821 360.513 77.8031 365.728C65.613 368.941 52.8342 368.028 38.6378 359.738C26.1337 352.434 16.9604 341.117 5.93777 331.757C-32.2662 299.219 -95.6156 296.001 -136.38 326.832" stroke="#A1DDFF" stroke-width="0.490549" stroke-miterlimit="10"/>
<path d="M1880.42 7.52454C1785.6 79.7922 1682.49 145.423 1570.37 191.637C1531.02 207.928 1490.64 220.128 1449.07 228.213C1399.33 237.719 1348.87 236.41 1298.17 233.358C1263.54 231.283 1228.79 228.389 1194.06 227.565C1125.49 225.932 1056.67 232.765 991.072 247.059C952.716 255.418 915.523 266.456 879.924 279.897C854.857 289.364 828.892 300.274 802.402 310.86C765.052 325.655 726.539 339.646 687.079 348.721C672.966 352.012 658.755 354.666 644.51 356.413C585.364 363.535 522.687 330.536 466.548 307.74C451.537 301.643 436.993 296.266 423.076 292.528C366.138 277.233 305.32 276.541 246.939 289.35C236.893 291.547 226.905 294.147 216.996 297.125C181.652 307.745 147.196 323.158 114.516 342.201C95.1441 353.494 76.9006 369.378 56.7537 374.838C44.3281 378.208 31.3384 377.462 16.9212 369.608C4.1277 362.643 -5.50181 351.801 -16.9071 342.78C-56.3913 311.419 -120.241 307.951 -162.114 338.38" stroke="#A1DDFF" stroke-width="0.490549" stroke-miterlimit="10"/>
<path d="M1875.93 9.70276C1783.43 82.9024 1681.41 149.2 1569.91 195.248C1529.78 211.922 1488.61 223.793 1446.33 232.485C1395.99 242.831 1344.79 242.257 1293.3 239.799C1258.14 238.127 1222.82 235.527 1187.53 234.776C1117.85 233.285 1047.92 239.397 981.271 252.117C942.302 259.554 904.52 269.424 868.322 281.432C842.779 289.909 816.398 299.666 789.53 309.109C751.611 322.266 712.583 334.569 672.441 342.618C658.107 345.552 643.666 347.931 629.185 349.496C568.921 355.849 505.061 324.664 447.942 303.993C432.696 298.474 417.935 293.691 403.802 290.503C346.158 277.503 285.148 279.019 226.847 293.878C216.815 296.423 206.847 299.372 196.957 302.688C161.672 314.51 127.241 330.992 94.2856 350.634C74.7421 362.289 56.2043 378.247 35.6895 383.957C23.0285 387.484 9.82289 386.905 -4.80527 379.493C-17.8931 372.866 -27.9739 362.505 -39.7618 353.823C-80.5264 323.639 -144.881 319.926 -187.854 349.942" stroke="#A1DDFF" stroke-width="0.490549" stroke-miterlimit="10"/>
<path d="M1871.45 11.8755C1781.26 86.0122 1680.34 152.977 1569.46 198.848C1528.53 215.9 1486.57 227.383 1443.59 236.748C1392.64 247.854 1340.7 248.094 1288.44 246.225C1252.73 244.96 1216.86 242.649 1181 241.967C1110.21 240.618 1039.18 246.005 971.47 257.155C931.883 263.674 893.517 272.367 856.721 282.948C830.707 290.429 803.923 299.107 776.659 307.333C738.195 318.944 698.617 329.368 657.809 336.491C643.249 339.032 628.587 341.171 613.86 342.554C552.473 348.137 487.441 318.763 429.336 300.225C413.859 295.285 398.872 291.096 384.524 288.457C326.178 277.738 264.972 281.476 206.749 298.39C196.737 301.289 186.789 304.581 176.909 308.236C141.683 321.265 107.276 338.816 74.0458 359.056C54.3306 371.075 35.4935 387.111 14.6158 393.066C1.71926 396.75 -11.7021 396.338 -26.5412 389.367C-39.9234 383.079 -50.4555 373.199 -62.626 364.855C-104.666 335.849 -169.526 331.89 -213.607 361.499" stroke="#A1DDFF" stroke-width="0.490549" stroke-miterlimit="10"/>
<path d="M1866.96 14.0537C1779.08 89.1224 1679.26 156.754 1569.01 202.454C1527.29 219.888 1484.53 230.974 1440.86 241.021C1389.28 252.887 1336.6 253.937 1283.57 252.661C1247.33 251.798 1210.89 249.782 1174.47 249.174C1102.57 247.967 1030.43 252.632 961.669 262.203C921.468 267.8 882.509 275.32 845.119 284.474C818.63 290.959 791.429 298.498 763.791 305.567C724.753 315.555 684.666 324.262 643.175 330.374C628.4 332.552 613.502 334.426 598.54 335.623C536.035 340.435 469.83 312.871 410.734 296.463C395.026 292.102 379.824 288.501 365.25 286.421C306.208 277.984 244.801 283.944 186.656 302.908C176.659 306.156 166.73 309.796 156.87 313.784C121.702 328.015 87.3248 346.636 53.8154 367.479C33.9286 379.861 14.7972 395.975 -6.44846 402.176C-19.5755 406.017 -33.2275 405.776 -48.2726 399.242C-61.954 393.297 -72.9325 383.888 -85.4807 375.882C-128.801 348.054 -194.167 343.845 -239.346 373.052" stroke="#A1DDFF" stroke-width="0.490549" stroke-miterlimit="10"/>
<path d="M1862.47 16.2266C1776.91 92.2273 1678.18 160.526 1568.56 206.054C1526.04 223.866 1482.48 234.555 1438.11 245.283C1385.92 257.905 1332.51 259.774 1278.7 259.087C1241.91 258.631 1204.92 256.904 1167.93 256.365C1094.93 255.3 1021.67 259.239 951.863 267.24C911.049 271.92 871.496 278.263 833.508 285.989C806.538 291.478 778.92 297.88 750.91 303.796C711.298 312.155 670.705 319.15 628.532 324.252C613.541 326.067 598.408 327.671 583.206 328.686C519.577 332.729 452.21 306.97 392.122 292.695C376.184 288.908 360.761 285.901 345.967 284.375C286.232 278.209 224.615 286.401 166.553 307.421C156.571 311.017 146.662 315.01 136.821 319.332C101.713 334.764 67.3594 354.455 33.5754 375.897C13.5168 388.641 -5.91377 404.834 -27.5224 411.28C-40.885 415.273 -54.7627 415.214 -70.0089 409.107C-83.9945 403.505 -95.4144 394.572 -108.345 386.905C-152.941 360.248 -218.812 355.799 -265.1 384.594" stroke="#A1DDFF" stroke-width="0.490549" stroke-miterlimit="10"/>
<path d="M1857.99 18.3994C1774.74 95.337 1677.1 164.303 1568.11 209.659C1524.8 227.854 1480.45 238.141 1435.38 249.556C1382.57 262.928 1328.42 265.621 1273.84 265.528C1236.52 265.474 1198.96 264.042 1161.4 263.576C1087.29 262.653 1012.93 265.866 942.062 272.298C900.63 276.055 860.483 281.216 821.907 287.524C794.455 292.013 766.425 297.281 738.042 302.039C697.857 308.775 656.758 314.058 613.899 318.144C598.687 319.596 583.328 320.931 567.886 321.764C503.138 325.036 434.609 301.078 373.521 288.942C357.352 285.729 341.713 283.315 326.698 282.344C266.272 278.439 204.448 288.873 146.47 311.949C136.507 315.897 126.618 320.234 116.787 324.894C81.7373 341.529 47.4087 362.289 13.3499 384.334C-6.88033 397.441 -26.6053 413.708 -48.5819 420.404C-62.1799 424.554 -76.288 424.677 -91.7305 418.996C-106.02 413.742 -117.882 405.275 -131.195 397.952C-177.071 372.472 -243.447 367.778 -290.834 396.166" stroke="#A1DDFF" stroke-width="0.490549" stroke-miterlimit="10"/>
<path d="M1853.5 20.5776C1772.57 98.4473 1676.03 168.081 1567.65 213.265C1523.55 231.837 1478.4 241.727 1432.63 253.824C1379.2 267.947 1324.32 271.464 1268.96 271.959C1231.1 272.313 1192.98 271.165 1154.86 270.772C1079.65 269.992 1004.17 272.484 932.256 277.336C890.211 280.176 849.47 284.154 810.3 289.045C782.368 292.533 753.921 296.668 725.165 300.269C684.406 305.375 642.802 308.952 599.256 312.022C583.829 313.111 568.234 314.176 552.551 314.828C486.68 317.33 416.988 295.167 354.904 285.18C338.51 282.54 322.646 280.716 307.409 280.304C246.302 278.655 184.262 291.336 126.363 316.462C116.414 320.759 106.544 325.444 96.7334 330.443C61.7425 348.279 27.4434 370.113 -6.89504 392.757C-27.2921 406.227 -47.3211 422.572 -69.6607 429.514C-83.4942 433.821 -97.833 434.125 -113.477 428.871C-128.075 423.966 -140.373 415.97 -154.069 408.979C-201.221 384.678 -268.107 379.733 -316.598 407.714" stroke="#A1DDFF" stroke-width="0.490549" stroke-miterlimit="10"/>
<path d="M1849.02 22.7511C1770.4 101.553 1674.95 171.858 1567.21 216.866C1522.31 235.821 1476.37 245.308 1429.9 258.092C1375.85 272.965 1320.24 277.307 1264.1 278.391C1225.7 279.146 1187.01 278.293 1148.33 277.974C1072.01 277.336 995.419 279.102 922.449 282.384C879.786 284.302 838.453 287.093 798.694 290.571C770.281 293.053 741.417 296.06 712.289 298.508C670.95 301.981 628.846 303.855 584.618 305.915C568.975 306.641 553.145 307.436 537.227 307.907C470.237 309.639 399.387 289.266 336.298 281.427C319.673 279.362 303.593 278.126 288.131 278.273C226.341 278.871 164.086 293.809 106.265 320.99C96.3312 325.64 86.481 330.668 76.6896 336.006C41.7576 355.044 7.48301 377.948 -27.1252 401.19C-47.6939 415.023 -68.0173 431.447 -90.7248 438.633C-104.794 443.097 -119.363 443.588 -135.203 438.756C-150.111 434.204 -162.86 426.698 -176.924 420.022C-225.405 397 -292.743 391.707 -342.342 419.281" stroke="#A1DDFF" stroke-width="0.490549" stroke-miterlimit="10"/>
<path d="M1844.53 24.9239C1768.22 104.663 1673.87 175.63 1566.76 220.466C1521.06 239.799 1474.32 248.884 1427.17 262.354C1372.49 277.973 1316.15 283.144 1259.23 284.817C1220.29 285.979 1181.05 285.415 1141.79 285.165C1064.37 284.669 986.667 285.709 912.648 287.421C869.372 288.422 827.435 290.021 787.092 292.087C758.199 293.563 728.918 295.437 699.421 296.732C657.509 298.572 614.9 298.748 569.985 299.788C554.121 300.156 538.065 300.676 521.902 300.965C453.789 301.927 381.781 283.34 317.691 277.655C300.841 276.158 284.54 275.511 268.852 276.227C206.381 279.062 143.905 296.266 86.167 325.498C76.2531 330.496 66.4224 335.878 56.6458 341.549C21.7727 361.789 -12.4774 385.762 -47.3603 409.607C-68.1007 423.804 -88.7234 440.301 -111.794 447.738C-126.093 452.359 -140.903 453.04 -156.934 448.621C-172.156 444.426 -185.337 437.382 -199.784 431.039C-249.54 409.195 -317.388 403.657 -368.086 430.824" stroke="#A1DDFF" stroke-width="0.490549" stroke-miterlimit="10"/>
<path d="M1840.04 27.1021C1766.05 107.773 1672.79 179.413 1566.3 224.077C1519.82 243.792 1472.28 252.47 1424.42 266.632C1369.13 282.997 1312.05 288.991 1254.36 291.258C1214.89 292.823 1175.08 292.553 1135.26 292.376C1056.73 292.023 977.916 292.342 902.842 292.479C858.948 292.558 816.417 292.97 775.481 293.622C746.107 294.093 716.409 294.834 686.54 294.976C644.048 295.182 600.939 293.661 555.342 293.681C539.262 293.686 522.971 293.936 506.572 294.049C437.341 294.24 364.176 277.434 299.085 273.912C282.009 272.985 265.487 272.926 249.579 274.206C186.425 279.274 123.733 298.748 66.0742 330.035C56.1749 335.387 46.364 341.112 36.602 347.121C1.7878 368.568 -32.4329 393.606 -67.5954 418.055C-88.5075 432.614 -109.424 449.19 -132.863 456.872C-147.398 461.645 -162.448 462.523 -178.67 458.52C-194.201 454.689 -207.819 448.101 -222.648 442.096C-273.68 421.435 -342.033 415.641 -393.84 442.401" stroke="#A1DDFF" stroke-width="0.490549" stroke-miterlimit="10"/>
<path d="M1835.56 29.2749C1763.88 110.878 1671.63 182.974 1565.85 227.677C1518.53 247.677 1470.24 256.041 1421.69 270.895C1365.78 288 1307.97 294.829 1249.5 297.688C1209.48 299.66 1169.11 299.68 1128.73 299.572C1049.09 299.361 969.174 298.954 893.046 297.517C848.538 296.678 805.41 295.888 763.885 295.138C734.03 294.598 703.915 294.206 673.678 293.205C630.607 291.777 587.002 288.559 540.714 287.559C524.418 287.205 507.892 287.181 491.252 287.112C420.898 286.533 346.58 271.503 280.483 270.144C263.181 269.786 246.439 270.316 230.305 272.16C166.47 279.455 103.562 301.206 45.9862 334.543C36.1017 340.244 26.3103 346.316 16.568 352.664C-18.1873 375.313 -52.3835 401.42 -87.8207 426.467C-108.905 441.39 -130.121 458.044 -153.922 465.971C-168.693 470.901 -183.978 471.975 -200.392 468.385C-216.237 464.917 -230.286 458.785 -245.493 453.119C-297.8 433.639 -366.663 427.595 -419.569 453.948" stroke="#A1DDFF" stroke-width="0.490549" stroke-miterlimit="10"/>
<path d="M1831.07 31.4484C1761.7 113.988 1670.55 186.746 1565.4 231.278C1517.28 251.656 1468.19 259.612 1418.95 275.158C1362.41 293.004 1303.87 300.666 1244.63 304.115C1204.07 306.489 1163.14 306.803 1122.19 306.769C1041.45 306.695 960.418 305.572 883.235 302.56C838.109 300.799 794.382 298.812 752.273 296.659C721.933 295.104 691.406 293.588 660.796 291.434C617.147 288.368 573.042 283.463 526.067 281.437C509.55 280.726 492.798 280.431 475.918 280.176C404.445 278.827 328.969 265.573 261.867 266.377C244.335 266.588 227.377 267.706 211.017 270.115C146.495 279.627 83.376 303.664 25.8788 339.057C16.0138 345.105 6.24211 351.526 -3.48547 358.213C-38.182 382.063 -72.3536 409.244 -108.066 434.89C-129.321 450.171 -150.832 466.903 -175.001 475.081C-190.007 480.168 -205.533 481.443 -222.133 478.26C-238.296 475.159 -252.768 469.474 -268.362 464.147C-321.945 445.844 -391.313 439.555 -445.328 465.496" stroke="#A1DDFF" stroke-width="0.490549" stroke-miterlimit="10"/>
<path d="M1826.58 33.626C1759.53 117.098 1669.47 190.528 1564.95 234.883C1516.04 255.638 1466.15 263.188 1416.22 279.43C1359.06 298.017 1299.78 306.513 1239.77 310.55C1198.67 313.332 1157.18 313.935 1115.67 313.97C1033.82 314.038 951.676 312.189 873.439 307.607C827.7 304.929 783.374 301.74 740.677 298.184C709.856 295.618 678.912 292.969 647.929 289.668C603.706 284.959 559.095 278.371 511.439 275.319C494.706 274.25 477.718 273.681 460.603 273.244C388.007 271.125 311.378 259.636 243.27 262.614C225.512 263.389 208.333 265.096 191.748 268.079C126.544 279.803 63.2046 306.131 5.79079 343.579C-4.05943 349.981 -13.8115 356.75 -23.5195 363.77C-58.1571 388.822 -92.2993 417.073 -128.291 443.322C-149.718 458.966 -171.523 475.777 -196.06 484.2C-211.302 489.444 -227.068 490.925 -243.859 488.144C-260.337 485.411 -275.24 480.177 -291.217 475.188C-346.075 458.063 -415.954 451.524 -471.067 477.062" stroke="#A1DDFF" stroke-width="0.490549" stroke-miterlimit="10"/>
<path d="M1822.1 35.7995C1757.36 120.203 1668.48 194.512 1564.49 238.484C1514.83 259.72 1464.1 266.76 1413.47 283.693C1355.69 303.021 1295.69 312.351 1234.89 316.977C1193.27 320.161 1151.21 321.054 1109.13 321.166C1026.17 321.377 942.92 318.802 863.633 312.646C817.276 309.045 772.356 304.654 729.065 299.7C697.764 296.114 666.403 292.342 635.052 287.897C590.25 281.55 545.139 273.274 496.796 269.198C479.847 267.77 462.624 266.926 445.269 266.308C371.554 263.419 293.767 253.696 224.654 258.852C206.671 260.196 189.266 262.487 172.465 266.038C106.574 279.97 43.0235 308.594 -14.3119 348.093C-24.1425 354.843 -33.8799 361.96 -43.5731 369.319C-78.1519 395.573 -112.27 424.893 -148.536 451.741C-170.135 467.747 -192.239 484.637 -217.134 493.305C-232.606 498.701 -248.618 500.393 -265.595 498.009C-282.387 495.65 -297.712 490.827 -314.081 486.211C-370.185 470.151 -440.599 463.479 -496.82 488.605" stroke="#A1DDFF" stroke-width="0.490549" stroke-miterlimit="10"/>
<path d="M1817.61 37.9729C1755.19 123.314 1667.4 198.289 1564.04 242.09C1513.59 263.704 1462.06 270.336 1410.74 287.966C1352.33 308.03 1291.6 318.194 1230.03 323.418C1187.86 327.009 1145.24 328.191 1102.59 328.373C1018.53 328.726 934.168 325.43 853.826 317.699C806.856 313.181 761.339 307.583 717.459 301.231C685.676 296.629 653.903 291.724 622.175 286.137C576.799 278.146 531.183 268.187 482.158 263.086C464.993 261.3 447.539 260.182 429.944 259.382C355.105 255.723 276.161 247.756 206.052 255.095C187.838 257.003 170.218 259.878 153.191 264.003C86.6085 280.137 22.8519 311.061 -34.4049 352.616C-44.2208 359.719 -53.9337 367.18 -63.6122 374.872C-98.1321 402.328 -132.22 432.718 -168.766 460.169C-190.537 476.538 -212.935 493.501 -238.198 502.42C-253.906 507.973 -270.158 509.876 -287.322 507.889C-304.427 505.907 -320.184 501.522 -336.936 497.244C-394.315 482.361 -465.239 475.444 -522.565 500.163" stroke="#A1DDFF" stroke-width="0.490549" stroke-miterlimit="10"/>
<path d="M1813.12 40.1512C1753.02 126.424 1666.33 202.067 1563.6 245.696C1512.35 267.692 1460.02 273.907 1408 292.234C1348.98 313.034 1287.52 324.037 1225.17 329.85C1182.46 333.843 1139.28 335.319 1096.07 335.574C1010.9 336.07 925.427 332.047 844.035 322.746C796.447 317.306 750.341 310.502 705.867 302.757C673.604 297.135 641.414 291.106 609.318 284.371C563.363 274.732 517.247 263.101 467.534 256.974C450.149 254.83 432.465 253.437 414.629 252.456C338.667 248.026 258.566 241.816 187.456 251.337C169.016 253.805 151.17 257.268 133.922 261.967C66.6482 280.294 2.68551 313.529 -54.4879 357.134C-64.2891 364.585 -73.9823 372.395 -83.6412 380.425C-118.102 409.083 -152.166 440.547 -188.982 468.591C-210.924 485.324 -233.622 502.366 -259.248 511.529C-275.191 517.239 -291.678 519.358 -309.038 517.764C-326.458 516.165 -342.646 512.216 -359.781 508.277C-418.441 494.566 -489.865 487.404 -548.294 511.72" stroke="#A1DDFF" stroke-width="0.490549" stroke-miterlimit="10"/>
<path d="M1808.64 42.3239C1750.84 129.529 1665.25 205.838 1563.14 249.296C1511.1 271.67 1457.96 277.473 1405.26 296.502C1345.61 318.037 1283.41 329.879 1220.29 336.28C1177.04 340.68 1133.31 342.446 1089.53 342.77C1003.25 343.408 916.666 338.664 834.219 327.784C786.018 321.426 739.313 313.411 694.251 304.272C661.512 297.63 628.9 290.473 596.431 282.6C549.902 271.317 503.281 258.008 452.886 250.851C435.286 248.349 417.366 246.682 399.294 245.519C322.214 240.319 240.95 235.865 168.839 247.574C150.169 250.606 132.107 254.653 114.634 259.926C46.6631 280.446 -17.5055 315.991 -74.5956 361.651C-84.3771 369.456 -94.0556 377.614 -103.695 385.978C-138.097 415.842 -172.136 448.371 -209.227 477.019C-231.341 494.114 -254.333 511.234 -280.327 520.648C-296.505 526.515 -313.233 528.85 -330.78 527.648C-348.518 526.432 -365.133 522.914 -382.65 519.319C-442.586 506.785 -514.52 499.378 -574.053 523.282" stroke="#A1DDFF" stroke-width="0.490549" stroke-miterlimit="10"/>
<path d="M1804.15 44.4968C1748.67 132.639 1664.17 209.615 1562.69 252.897C1509.86 275.653 1455.92 281.039 1402.53 300.764C1342.25 323.035 1279.33 335.716 1215.43 342.706C1171.64 347.509 1127.35 349.569 1083 349.966C995.62 350.746 907.925 345.277 824.428 332.827C775.609 325.547 728.315 316.324 682.66 305.792C649.44 298.13 616.416 289.845 583.569 280.828C536.466 267.898 489.339 252.916 438.259 244.729C420.437 241.874 402.291 239.926 383.974 238.582C305.771 232.612 223.344 229.909 150.238 243.807C131.342 247.398 113.054 252.033 95.365 257.885C26.6931 280.598 -37.6718 318.453 -94.6834 366.164C-104.45 374.317 -114.104 382.823 -123.734 391.526C-158.082 422.592 -192.087 456.19 -229.457 485.441C-251.737 502.9 -275.034 520.093 -301.391 529.757C-317.805 535.781 -334.773 538.337 -352.506 537.518C-370.558 536.689 -387.605 533.603 -405.505 530.341C-466.72 518.985 -539.155 511.332 -599.792 534.83" stroke="#A1DDFF" stroke-width="0.490549" stroke-miterlimit="10"/>
<path d="M1799.66 46.675C1746.5 135.749 1663.09 213.393 1562.24 256.507C1508.61 279.641 1453.87 284.611 1399.78 305.042C1338.88 328.044 1275.23 341.568 1210.56 349.152C1166.24 354.362 1121.37 356.711 1076.46 357.177C987.977 358.1 899.168 351.904 814.617 337.884C765.185 329.687 717.297 319.248 671.043 307.328C637.348 298.645 603.907 289.232 570.687 279.072C523.015 264.493 475.373 247.839 423.611 238.622C405.573 235.409 387.192 233.186 368.64 231.661C289.318 224.921 205.724 223.964 131.621 240.054C112.495 244.209 93.9816 249.428 76.0766 255.855C6.70318 280.75 -57.858 320.926 -114.791 370.692C-124.543 379.198 -134.177 388.048 -143.787 397.089C-178.077 429.357 -212.057 464.024 -249.702 493.874C-272.154 511.695 -295.745 528.968 -322.47 538.877C-339.114 545.053 -356.322 547.834 -374.252 547.402C-392.613 546.961 -410.096 544.302 -428.374 541.383C-490.87 531.204 -563.81 523.307 -625.55 546.392" stroke="#A1DDFF" stroke-width="0.490549" stroke-miterlimit="10"/>
<path d="M1795.18 48.8478C1744.33 138.854 1662.01 217.17 1561.79 260.107C1507.37 283.624 1451.83 288.177 1397.05 309.305C1335.52 333.037 1271.15 347.406 1205.69 355.578C1160.83 361.19 1115.41 363.829 1069.93 364.374C980.335 365.438 890.422 358.521 804.816 342.922C754.766 333.803 706.289 322.152 659.442 308.843C625.27 299.136 591.408 288.599 557.815 277.301C509.57 261.074 461.422 242.752 408.978 232.499C390.72 228.933 372.108 226.436 353.315 224.729C272.87 217.219 188.113 218.004 113.02 236.291C93.6629 241.005 74.9288 246.809 56.803 253.814C-13.2768 280.892 -78.0292 323.388 -134.879 375.21C-144.611 384.064 -154.231 393.262 -163.821 402.641C-198.052 436.111 -232.008 471.848 -269.927 502.301C-292.551 520.486 -316.441 537.836 -343.529 547.991C-360.409 554.324 -377.853 557.331 -395.973 557.282C-414.649 557.233 -432.563 555.001 -451.224 552.416C-514.995 543.414 -588.445 535.266 -651.284 557.949" stroke="#A1DDFF" stroke-width="0.490549" stroke-miterlimit="10"/>
<path d="M1790.69 51.0213C1742.16 141.964 1660.94 220.942 1561.34 263.708C1506.12 287.603 1449.74 291.63 1394.31 313.568C1332.11 337.914 1267.06 353.238 1200.83 362.005C1155.43 368.024 1109.44 370.952 1063.4 371.565C972.701 372.772 881.675 365.129 795.015 347.96C744.351 337.924 695.286 325.056 647.841 310.36C613.193 299.626 578.914 287.966 544.948 275.526C496.133 257.65 447.451 237.763 394.345 226.373C375.861 222.483 357.029 219.677 337.995 217.788C256.432 209.508 170.502 212.039 94.4182 232.524C74.8306 237.798 55.8758 244.19 37.5293 251.768C-33.2569 281.03 -98.2055 325.846 -154.972 379.718C-164.69 388.921 -174.285 398.472 -183.865 408.185C-218.037 442.857 -251.963 479.668 -290.162 510.719C-312.958 529.267 -337.142 546.691 -364.598 557.096C-381.713 563.586 -399.393 566.818 -417.705 567.152C-436.694 567.495 -455.04 565.69 -474.084 563.443C-539.135 555.619 -613.085 547.226 -677.033 569.502" stroke="#A1DDFF" stroke-width="0.490549" stroke-miterlimit="10"/>
<path d="M1786.2 53.1995C1739.98 145.074 1659.86 224.72 1560.88 267.314C1504.87 291.591 1447.69 295.212 1391.57 317.841C1328.75 342.927 1262.96 359.086 1195.96 368.441C1150.02 374.862 1103.48 378.085 1056.86 378.772C965.058 380.121 872.924 371.757 785.214 353.013C733.932 342.054 684.283 327.975 636.239 311.89C601.115 300.132 566.444 287.284 532.076 273.765C482.727 254.153 433.495 232.672 379.711 220.261C361.012 216.013 341.944 212.932 322.67 210.862C239.983 201.811 152.886 206.084 75.8115 228.767C55.9933 234.6 36.8129 241.575 18.2554 249.738C-53.2421 281.177 -118.377 328.319 -175.065 384.246C-184.768 393.802 -194.343 403.697 -203.904 413.748C-238.017 449.622 -271.919 487.502 -310.393 519.152C-333.36 538.063 -357.838 555.566 -385.662 566.215C-403.013 572.862 -420.928 576.321 -439.436 577.032C-458.734 577.773 -477.518 576.384 -496.943 574.481C-563.27 567.834 -637.731 559.191 -702.782 581.059" stroke="#A1DDFF" stroke-width="0.490549" stroke-miterlimit="10"/>
<path d="M1781.72 55.3723C1737.81 148.179 1658.78 228.497 1560.44 270.919C1503.63 295.574 1445.65 298.787 1388.84 322.108C1325.39 347.94 1258.88 364.928 1191.1 374.876C1144.62 381.705 1097.51 385.217 1050.34 385.973C957.421 387.464 864.177 378.374 775.413 358.06C723.517 346.184 673.28 330.884 624.633 313.416C589.038 300.632 553.945 286.666 519.199 272.003C469.276 250.748 419.539 227.584 365.069 214.148C346.148 209.542 326.85 206.187 307.341 203.935C223.535 194.114 135.261 200.123 57.2002 225.009C37.1515 231.401 17.7454 238.96 -1.02793 247.702C-73.2416 281.319 -138.558 330.786 -195.167 388.764C-204.851 398.668 -214.412 408.911 -223.953 419.301C-258.007 456.376 -291.884 495.326 -330.628 527.579C-353.767 546.853 -378.544 564.434 -406.731 575.329C-424.317 582.133 -442.468 585.822 -461.167 586.911C-480.775 588.054 -499.994 587.083 -519.803 585.513C-587.41 580.044 -662.371 571.155 -728.526 592.616" stroke="#A1DDFF" stroke-width="0.490549" stroke-miterlimit="10"/>
<path d="M1777.23 57.5452C1735.64 151.289 1657.7 232.269 1559.98 274.52C1502.38 299.557 1443.6 302.358 1386.1 326.376C1322.03 352.949 1254.78 370.77 1186.23 381.307C1139.21 388.543 1091.54 392.345 1043.8 393.174C949.783 394.807 855.426 384.991 765.611 363.103C713.098 350.305 662.277 333.793 613.031 314.936C576.961 301.127 541.45 286.048 506.332 270.232C455.84 247.338 405.588 222.487 350.44 208.031C331.304 203.066 311.77 199.436 292.021 197.003C207.092 186.412 117.646 194.163 38.6034 221.246C18.3193 228.197 -1.30763 236.34 -20.2968 245.661C-93.2266 281.451 -158.725 333.248 -215.255 393.282C-224.924 403.539 -234.46 414.125 -243.987 424.853C-277.982 463.136 -311.83 503.15 -350.853 536.007C-374.164 555.643 -399.236 573.298 -427.791 584.443C-445.607 591.399 -463.993 595.329 -482.889 596.791C-502.805 598.331 -522.462 597.777 -542.653 596.55C-611.54 592.258 -687.006 583.124 -754.265 604.173" stroke="#A1DDFF" stroke-width="0.490549" stroke-miterlimit="10"/>
<path d="M1772.74 59.7233C1733.46 154.399 1656.62 236.051 1559.53 278.125C1501.14 303.541 1441.55 305.935 1383.36 330.644C1318.67 357.957 1250.69 376.613 1181.36 387.738C1133.8 395.376 1085.57 399.472 1037.26 400.375C942.135 402.146 846.669 391.614 755.8 368.151C702.674 354.435 651.299 336.623 601.42 316.467C564.903 301.574 528.946 285.435 493.45 268.471C442.384 243.939 391.627 217.395 335.792 201.919C316.435 196.596 296.676 192.691 276.686 190.077C190.639 178.716 99.9613 188.061 19.9871 217.494C-0.542352 224.965 -20.3802 233.731 -39.5852 243.63C-113.236 281.598 -178.916 335.721 -235.358 397.805C-245.012 408.41 -254.529 419.349 -264.041 430.411C-297.977 469.896 -331.8 510.979 -371.098 544.434C-394.58 564.429 -419.952 582.167 -448.869 593.558C-466.922 600.671 -485.538 604.831 -504.635 606.67C-524.855 608.618 -544.953 608.476 -565.527 607.588C-635.69 604.473 -711.661 595.088 -780.024 615.736" stroke="#A1DDFF" stroke-width="0.490549" stroke-miterlimit="10"/>
<path d="M1768.26 61.8968C1731.29 157.505 1655.55 239.824 1559.08 281.726C1499.89 307.524 1439.51 309.511 1380.62 334.912C1315.31 362.966 1246.6 382.451 1176.49 394.17C1128.4 402.215 1079.61 406.6 1030.73 407.572C934.497 409.485 837.918 398.227 745.994 373.194C692.255 358.556 640.291 339.547 589.813 317.988C552.821 302.079 516.447 284.812 480.578 266.706C428.943 240.535 377.671 212.304 321.155 195.802C301.582 190.116 281.587 185.942 261.362 183.146C174.191 171.014 82.3458 182.125 1.3807 213.731C-19.3793 221.772 -39.4623 231.077 -58.8586 241.59C-133.314 281.584 -199.087 338.184 -255.451 402.323C-265.085 413.282 -274.587 424.564 -284.079 435.96C-317.957 476.646 -351.751 518.804 -391.328 552.858C-414.982 573.215 -440.648 591.032 -469.934 602.668C-488.221 609.938 -507.068 614.333 -526.361 616.541C-546.886 618.89 -567.425 619.16 -588.377 618.611C-659.82 616.673 -736.297 607.044 -805.763 627.284" stroke="#A1DDFF" stroke-width="0.490549" stroke-miterlimit="10"/>
<path d="M1763.77 64.0703C1729.12 160.615 1654.47 243.596 1558.63 285.327C1498.65 311.503 1437.46 313.083 1377.88 339.175C1311.94 367.975 1242.51 388.289 1171.62 400.596C1122.99 409.044 1073.63 413.719 1024.19 414.768C926.855 416.824 829.167 404.84 736.193 378.232C681.835 362.677 629.283 342.466 578.212 319.504C540.744 302.585 503.948 284.189 467.706 264.93C415.497 237.121 363.719 207.203 306.521 189.675C286.728 183.632 266.502 179.182 246.037 176.205C157.748 163.303 64.7301 176.185 -17.2259 209.959C-38.2164 218.564 -58.5252 228.458 -78.1373 239.544C-153.294 281.761 -219.263 340.637 -275.549 406.831C-285.168 418.138 -294.646 429.769 -304.123 441.503C-337.942 483.391 -371.711 526.618 -411.563 561.276C-435.389 581.996 -461.354 599.887 -491.003 611.773C-509.526 619.2 -528.598 623.83 -548.093 626.411C-568.921 629.168 -589.902 629.849 -611.236 629.639C-683.955 628.873 -760.937 619.003 -831.507 638.831" stroke="#A1DDFF" stroke-width="0.490549" stroke-miterlimit="10"/>
<path d="M1759.29 66.2479C1726.95 163.725 1653.39 247.378 1558.18 288.937C1497.4 315.496 1435.42 316.663 1375.14 343.447C1308.58 372.988 1238.42 394.136 1166.75 407.037C1117.58 415.891 1067.67 420.856 1017.66 421.974C919.217 424.172 820.42 411.467 726.387 383.285C671.416 366.807 618.27 345.399 566.601 321.034C528.657 303.099 491.444 283.576 454.824 263.169C402.046 233.721 349.754 202.11 291.874 183.563C271.864 177.161 251.408 172.442 230.702 169.278C141.29 155.606 47.1047 170.259 -35.8422 206.206C-57.0633 215.38 -77.5927 225.863 -97.4256 237.513C-173.289 281.952 -239.449 343.109 -295.656 411.359C-305.261 423.014 -314.719 434.993 -324.177 447.066C-357.936 490.155 -391.681 534.452 -431.808 569.708C-455.806 590.791 -482.065 608.76 -512.082 620.892C-530.84 628.475 -550.133 633.381 -569.839 636.295C-590.967 639.498 -612.394 640.548 -634.11 640.68C-708.11 641.092 -785.597 630.977 -857.271 650.398" stroke="#A1DDFF" stroke-width="0.490549" stroke-miterlimit="10"/>
<path d="M1754.8 68.4214C1724.78 166.83 1652.31 251.151 1557.72 292.538C1496.16 319.474 1433.38 320.235 1372.41 347.715C1305.22 377.997 1234.33 399.978 1161.89 413.468C1014.33 440.949 859.973 433.198 716.586 388.328C620.134 358.144 529.28 312.278 441.957 261.398C388.605 230.312 335.807 197.014 277.246 177.441C169.585 141.459 48.9197 155.508 -54.4388 202.439C-157.797 249.37 -244.919 327.156 -315.739 415.872C-380.011 496.376 -437.739 591.13 -533.136 630.002C-642.239 674.455 -769.016 632.165 -883 661.946" stroke="#A1DDFF" stroke-width="0.490549" stroke-miterlimit="10"/>
<path d="M1527.04 690.481C1528.24 566.103 1484.27 441.768 1405.12 345.812C1382.61 318.513 1356.2 292.7 1322.9 280.726C1226.69 246.133 1123.95 321.755 1043.05 364.693C945.427 416.505 848.906 470.804 747.26 514.526C690.194 539.073 623.171 559.907 567.969 531.416C512.071 502.562 490.801 435.376 467.691 376.869C440.765 308.692 403.685 243.018 349.253 193.923C294.822 144.829 221.24 113.836 148.374 121.828C91.3131 128.087 39.3198 157.039 -8.16044 189.303C-132.912 274.079 -238.895 386.312 -316.397 515.714" stroke="#A1DDFF" stroke-width="0.490549" stroke-miterlimit="10"/>
<path d="M1530.16 685.104C1531.23 575.177 1492.56 467.59 1423.99 375.318C1417.62 366.748 1411.07 358.32 1404.23 350.123C1381.75 323.197 1355.57 297.713 1322.74 285.645C1227.8 250.704 1126.63 322.373 1045.85 363.77C974.227 400.473 903.112 439.226 829.471 474.306C803.923 486.525 778.155 498.293 752.058 509.394C695.448 533.471 629.219 554.025 574.43 526.863C518.954 499.358 496.992 434.772 473.244 378.555C445.568 313.052 408.06 249.929 353.732 202.728C334.817 186.295 313.649 171.971 291.04 160.605C248.735 139.325 201.377 128.385 154.319 133.36C97.7932 139.334 46.1777 167.114 -0.998376 197.906C-96.5082 260.201 -180.907 337.526 -250.486 426.6C-271.251 453.178 -290.692 480.795 -308.7 509.38" stroke="#A1DDFF" stroke-width="0.490549" stroke-miterlimit="10"/>
<path d="M1533.28 679.733C1534.31 573.47 1493.58 471.843 1423.06 379.242C1416.66 370.839 1410.15 362.519 1403.33 354.445C1380.88 327.896 1354.93 302.736 1322.57 290.571C1228.9 255.276 1129.31 322.996 1048.64 362.858C977.769 397.873 907.277 435.601 833.675 469.94C808.314 481.87 782.736 493.388 756.85 504.273C700.697 527.883 635.258 548.153 580.886 522.321C525.831 496.16 503.178 434.174 478.797 380.253C450.375 317.423 412.431 256.85 358.211 211.548C339.329 195.777 318.265 182.027 295.808 171.122C253.802 150.696 206.881 140.168 160.27 144.907C104.278 150.602 53.0453 177.205 6.16851 206.52C-88.7723 265.813 -172.617 338.89 -242.397 423.867C-263.221 449.224 -282.789 475.63 -300.998 503.057" stroke="#A1DDFF" stroke-width="0.490549" stroke-miterlimit="10"/>
<path d="M1536.4 674.357C1537.39 571.758 1494.63 476.092 1422.14 383.162C1415.71 374.916 1409.24 366.709 1402.45 358.762C1380.03 332.586 1354.3 307.76 1322.41 295.496C1230.02 259.853 1132.03 323.624 1051.44 361.941C981.335 395.274 911.378 431.8 837.894 465.574C812.689 477.161 787.333 488.483 761.653 499.152C705.956 522.292 641.306 542.281 587.356 517.778C532.723 492.962 509.378 433.581 484.36 381.95C455.187 321.794 416.817 263.772 362.704 220.364C343.852 205.255 322.896 192.079 300.591 181.63C258.879 162.057 212.405 151.942 166.23 156.45C110.773 161.866 59.9228 187.291 13.3452 215.129C-81.0315 271.425 -164.317 340.249 -234.298 421.135C-255.181 445.27 -274.872 470.465 -293.282 496.739" stroke="#A1DDFF" stroke-width="0.490549" stroke-miterlimit="10"/>
<path d="M1539.51 668.985C1540.47 570.051 1495.69 480.334 1421.21 387.086C1414.75 379.002 1408.31 370.903 1401.54 363.083C1379.16 337.285 1353.66 312.782 1322.24 300.421C1231.12 264.429 1134.73 324.261 1054.23 361.028C984.896 392.688 915.513 428.12 842.093 461.208C817.065 472.49 791.915 483.577 766.44 494.03C711.2 516.703 647.345 536.414 593.806 513.235C539.596 489.767 515.559 432.986 489.903 383.647C459.98 326.165 421.182 270.688 367.173 229.178C348.356 214.727 327.507 202.129 305.349 192.137C263.937 173.422 217.904 163.719 172.165 167.987C117.239 173.118 66.7708 197.371 20.4974 223.733C-73.3102 277.026 -156.041 341.602 -226.229 418.393C-247.175 441.306 -266.989 465.289 -285.6 490.405" stroke="#A1DDFF" stroke-width="0.490549" stroke-miterlimit="10"/>
<path d="M1542.63 663.609C1543.55 568.34 1496.78 484.569 1420.28 391.006C1413.8 383.079 1407.39 375.098 1400.65 367.401C1378.3 341.976 1353.02 317.802 1322.08 305.347C1232.23 269.007 1137.46 324.905 1057.02 360.116C988.473 390.118 919.663 424.447 846.302 456.848C821.451 467.826 796.501 478.677 771.238 488.915C716.454 511.117 653.389 530.548 600.267 508.699C546.478 486.575 521.755 432.399 495.456 385.35C464.787 330.536 425.558 277.616 371.652 238.004C352.869 224.215 332.123 212.192 310.117 202.655C269.005 184.794 223.408 175.503 178.116 179.541C123.724 184.392 73.6386 207.472 27.6644 232.358C-65.5742 282.654 -147.751 342.977 -218.14 415.676C-239.145 437.368 -259.086 460.139 -277.898 484.098" stroke="#A1DDFF" stroke-width="0.490549" stroke-miterlimit="10"/>
<path d="M1545.75 658.232C1546.63 566.627 1497.91 488.787 1419.36 394.92C1412.86 387.15 1406.47 379.282 1399.76 371.713C1377.44 346.665 1352.39 322.815 1321.91 310.261C1233.34 273.573 1140.21 325.542 1059.81 359.189C992.068 387.543 923.813 420.758 850.511 452.467C825.836 463.141 801.088 473.756 776.035 483.773C721.707 505.51 659.437 524.656 606.728 504.136C553.361 483.356 527.945 431.785 501.009 387.027C469.59 334.887 429.934 284.517 376.13 246.799C357.382 233.672 336.744 222.223 314.885 213.148C274.067 196.14 228.917 187.261 184.061 191.063C130.204 195.635 80.4964 217.538 34.8264 240.947C-57.8432 288.241 -139.466 344.315 -210.056 412.919C-231.125 433.389 -251.188 454.949 -270.197 477.749" stroke="#A1DDFF" stroke-width="0.490549" stroke-miterlimit="10"/>
<path d="M1548.86 652.861C1549.71 564.92 1499.05 493.006 1418.43 398.845C1411.9 391.227 1405.55 383.476 1398.86 376.034C1376.57 351.36 1351.74 327.838 1321.74 315.192C1234.44 278.15 1142.96 326.209 1062.6 358.281C995.669 384.997 927.968 417.093 854.715 448.111C830.217 458.486 805.67 468.856 780.828 478.662C726.956 499.927 665.476 518.794 613.183 499.604C560.238 480.173 534.131 431.197 506.562 388.735C474.397 339.268 434.31 291.449 380.614 255.629C361.9 243.16 341.365 232.289 319.659 223.67C279.139 207.516 234.431 199.054 190.011 202.621C136.689 206.908 87.3641 227.639 41.9883 249.571C-50.1122 293.868 -131.18 345.689 -201.976 410.201C-223.104 429.45 -243.295 449.798 -262.505 471.441" stroke="#A1DDFF" stroke-width="0.490549" stroke-miterlimit="10"/>
<path d="M1551.98 647.484C1552.79 563.208 1500.22 497.204 1417.51 402.764C1410.97 395.298 1404.63 387.67 1397.97 380.351C1375.71 356.054 1351.11 332.861 1321.58 320.116C1235.56 282.727 1145.73 326.876 1065.4 357.364C999.289 382.455 932.123 413.419 858.928 443.74C834.612 453.81 810.261 463.945 785.626 473.535C732.21 494.335 671.524 512.917 619.644 495.061C567.121 476.974 540.322 430.603 512.115 390.432C479.2 343.638 438.68 298.37 385.093 264.444C366.413 252.636 345.986 242.34 324.427 234.177C284.206 218.882 239.939 210.827 195.957 214.163C143.169 218.17 94.2268 237.724 49.1503 258.185C-42.3812 299.479 -122.895 347.052 -193.892 407.468C-215.084 425.496 -235.397 444.627 -254.808 465.122" stroke="#A1DDFF" stroke-width="0.490549" stroke-miterlimit="10"/>
<path d="M1555.1 642.108C1555.88 561.496 1501.4 501.389 1416.58 406.683C1410.03 399.369 1403.71 391.859 1397.07 384.668C1374.85 360.743 1350.47 337.879 1321.42 325.036C1236.67 287.299 1148.51 327.553 1068.2 356.446C1002.92 379.929 936.283 409.754 863.137 439.374C838.997 449.15 814.848 459.04 790.423 468.414C737.464 488.742 677.568 507.045 626.104 490.518C574.003 473.776 546.513 430.009 517.668 392.129C484.002 348.009 443.056 305.292 389.571 273.264C370.926 262.119 350.602 252.396 329.195 244.69C289.269 230.248 245.443 222.61 201.907 225.705C149.654 229.429 101.09 247.809 56.3172 266.794C-34.6452 305.091 -114.605 348.411 -185.803 404.736C-207.053 421.542 -227.495 439.462 -247.102 458.799" stroke="#A1DDFF" stroke-width="0.490549" stroke-miterlimit="10"/>
<path d="M1558.22 636.737C1558.96 559.789 1502.62 505.569 1415.65 410.604C1409.09 403.437 1402.79 396.049 1396.18 388.98C1373.98 365.434 1349.84 342.893 1321.25 329.957C1237.77 291.871 1151.31 328.24 1070.98 355.525C1006.55 377.413 940.438 406.086 867.336 434.999C843.378 444.476 819.424 454.125 795.211 463.284C742.708 483.146 683.606 501.164 632.555 485.967C580.876 470.568 552.694 429.406 523.212 393.817C488.8 352.371 447.422 312.204 394.04 282.07C375.429 271.582 355.208 262.433 333.953 255.188C294.326 241.6 250.942 234.374 207.843 237.239C156.119 240.682 107.943 257.886 63.4694 275.394C-26.924 310.689 -106.329 349.756 -177.733 401.99C-199.043 417.574 -219.612 434.282 -239.42 452.462" stroke="#A1DDFF" stroke-width="0.490549" stroke-miterlimit="10"/>
<path d="M1561.33 631.36C1562.04 558.077 1503.86 509.723 1414.73 414.523C1408.15 407.503 1401.87 400.243 1395.28 393.297C1373.12 370.123 1349.2 347.911 1321.08 334.877C1238.88 296.443 1154.12 328.946 1073.78 354.607C1010.2 374.916 944.603 402.421 871.55 430.632C847.773 439.815 824.016 449.219 800.014 458.162C747.966 477.553 689.655 495.296 639.025 481.424C587.768 467.374 558.899 428.807 528.775 395.519C493.612 356.741 451.807 319.13 398.534 290.89C379.957 281.064 359.844 272.489 338.736 265.705C299.409 252.97 256.466 246.156 213.803 248.786C162.614 251.95 114.815 267.976 70.6462 284.012C-19.1781 316.31 -98.029 351.124 -169.634 399.262C-191.008 413.625 -211.699 429.121 -231.703 446.143" stroke="#A1DDFF" stroke-width="0.490549" stroke-miterlimit="10"/>
<path d="M1564.45 625.989C1565.12 556.37 1505.12 513.864 1413.8 418.448C1407.22 411.575 1400.97 404.423 1394.39 397.619C1372.3 374.779 1348.56 352.94 1320.92 339.808C1239.99 301.02 1156.93 329.673 1076.58 353.7C1013.86 372.449 948.768 398.777 875.759 426.272C852.164 435.161 828.608 444.314 804.806 453.041C753.215 471.966 695.699 489.425 645.481 476.882C594.646 464.176 565.085 428.214 534.328 397.217C498.415 361.112 456.183 326.053 403.013 299.71C384.47 290.547 364.46 282.546 343.504 276.218C304.471 264.342 261.97 257.94 219.753 260.334C169.099 263.213 121.683 278.067 77.8132 292.627C-11.4421 321.922 -89.7386 352.488 -161.545 396.535C-182.977 409.677 -203.796 423.961 -224.002 439.83" stroke="#A1DDFF" stroke-width="0.490549" stroke-miterlimit="10"/>
<path d="M1567.57 620.612C1568.2 554.658 1506.41 517.98 1412.87 422.367C1406.29 415.636 1400.05 408.617 1393.49 401.935C1371.44 379.468 1347.92 357.958 1320.75 344.728C1241.1 305.592 1159.76 330.413 1079.37 352.777C1017.53 369.981 952.927 395.117 879.968 421.901C856.559 430.495 833.194 439.404 809.604 447.915C758.469 466.369 701.742 483.548 651.941 472.334C601.528 460.973 571.276 427.616 539.88 398.909C503.222 365.478 460.559 332.969 407.491 308.52C388.978 300.014 369.081 292.592 348.267 286.72C309.534 275.698 267.474 269.708 225.694 271.866C175.574 274.466 128.541 288.143 84.9701 301.226C-3.71615 327.524 -81.4583 353.837 -153.471 393.787C-174.967 405.708 -195.908 418.781 -216.315 433.492" stroke="#A1DDFF" stroke-width="0.490549" stroke-miterlimit="10"/>
<path d="M1570.68 615.235C1571.28 552.945 1507.72 522.075 1411.94 426.286C1405.36 419.698 1399.13 412.805 1392.6 406.252C1370.58 384.157 1347.28 362.976 1320.58 349.652C1242.2 310.168 1162.6 331.173 1082.16 351.865C1021.21 367.543 957.097 391.471 884.172 417.534C860.945 425.834 837.776 434.498 814.396 442.793C763.718 460.781 707.786 477.676 658.397 467.791C608.405 457.779 577.461 427.022 545.429 400.606C508.019 369.848 464.925 339.89 411.965 317.34C393.486 309.496 373.692 302.648 353.031 297.232C314.596 287.063 272.978 281.486 231.635 283.413C182.05 285.734 135.394 298.233 92.1224 309.844C4.00516 333.14 -73.1826 355.205 -145.396 391.064C-166.951 401.763 -188.02 413.625 -208.623 427.179" stroke="#A1DDFF" stroke-width="0.490549" stroke-miterlimit="10"/>
<path d="M1573.8 609.864C1574.37 551.238 1509.06 526.152 1411.02 430.205C1404.43 423.759 1398.21 416.995 1391.71 410.569C1369.73 388.847 1346.65 367.994 1320.42 354.572C1243.32 314.74 1165.46 331.953 1084.95 350.942C1024.9 365.109 961.267 387.822 888.381 413.164C865.335 421.174 842.363 429.587 819.194 437.666C768.972 455.184 713.829 471.799 664.858 463.244C615.288 454.576 583.652 426.418 550.982 402.298C512.827 374.214 469.3 346.807 416.449 326.15C398.004 318.968 378.318 312.694 357.804 307.74C319.663 298.424 278.487 293.264 237.59 294.956C188.54 296.992 142.266 308.319 99.2942 318.453C11.746 338.752 -64.8875 356.564 -137.302 388.327C-158.921 397.8 -180.112 408.449 -200.917 420.85" stroke="#A1DDFF" stroke-width="0.490549" stroke-miterlimit="10"/>
<path d="M1576.91 604.488C1577.44 549.526 1510.42 530.199 1410.09 434.125C1403.5 427.816 1397.29 421.184 1390.81 414.886C1368.85 393.542 1345.98 373.066 1320.25 359.498C1244.34 319.469 1168.32 332.763 1087.74 350.03C1028.58 362.711 965.431 384.187 892.585 408.798C869.725 416.519 846.944 424.682 823.986 432.545C774.22 449.597 719.872 465.927 671.313 458.701C622.16 451.378 589.838 425.825 556.535 403.995C517.629 378.585 473.676 353.729 420.927 334.97C402.517 328.446 382.934 322.751 362.572 318.252C324.731 309.795 283.996 305.042 243.535 306.499C195.015 308.255 149.124 318.404 106.456 327.063C19.477 344.359 -56.6022 357.923 -129.223 385.595C-150.9 393.846 -172.22 403.284 -193.225 414.532" stroke="#A1DDFF" stroke-width="0.490549" stroke-miterlimit="10"/>
<path d="M1580.03 599.116C1580.53 547.82 1511.8 534.227 1409.17 438.05C1402.58 431.879 1396.37 425.384 1389.92 419.208C1368 398.237 1345.35 378.09 1320.09 364.428C1245.46 324.046 1171.19 333.597 1090.55 349.123C1032.29 360.337 969.616 380.562 896.804 404.442C874.131 411.879 851.541 419.787 828.789 427.434C779.479 444.015 725.921 460.065 677.779 454.174C629.048 448.199 596.038 425.246 562.093 405.708C522.437 382.971 478.057 360.666 425.411 343.801C407.035 337.939 387.555 332.817 367.345 328.775C329.803 321.172 289.509 316.835 249.485 318.057C201.5 319.528 155.992 328.51 113.623 335.692C27.2129 349.991 -48.3169 359.302 -121.134 382.878C-142.875 389.907 -164.312 398.134 -185.518 408.224" stroke="#A1DDFF" stroke-width="0.490549" stroke-miterlimit="10"/>
<path d="M1583.15 593.74C1583.61 546.103 1513.21 538.225 1408.23 441.969C1401.65 435.936 1395.45 429.573 1389.02 423.525C1367.13 402.932 1344.7 383.108 1319.92 369.349C1246.55 328.618 1174.06 334.456 1093.33 348.201C1035.99 357.968 973.776 376.928 901.003 400.067C878.516 407.219 856.118 414.867 833.577 422.303C784.723 438.418 731.96 454.189 684.229 449.622C635.92 444.991 602.219 424.643 567.636 407.396C527.234 387.327 482.423 367.573 429.88 352.606C411.538 347.406 392.166 342.859 372.103 339.273C334.856 332.523 295.004 328.599 255.421 329.585C207.97 330.777 162.845 338.581 120.775 344.286C34.9343 355.584 -40.0411 360.641 -113.059 380.131C-134.859 385.939 -156.424 392.954 -177.831 401.887" stroke="#A1DDFF" stroke-width="0.490549" stroke-miterlimit="10"/>
<path d="M1586.27 588.363C1586.7 544.391 1514.64 542.188 1407.31 445.884C1400.73 439.982 1394.53 433.762 1388.13 427.836C1366.27 407.616 1344.08 388.121 1319.76 374.268C1247.67 333.185 1176.95 335.338 1096.13 347.283C1039.7 355.623 977.96 373.307 905.216 395.7C882.916 402.568 860.709 409.961 838.379 417.177C789.982 432.82 738.008 448.312 690.695 445.074C642.807 441.788 608.415 424.039 573.193 409.088C532.041 391.693 486.803 374.489 434.368 361.421C416.061 356.878 396.792 352.91 376.881 349.785C339.933 343.889 300.522 340.376 261.381 341.132C214.465 342.044 169.717 348.672 127.952 352.9C42.6799 361.2 -31.7411 362.005 -104.965 377.398C-126.824 381.985 -148.516 387.788 -170.125 395.563" stroke="#A1DDFF" stroke-width="0.490549" stroke-miterlimit="10"/>
<path d="M1589.38 582.992C1589.77 542.684 1516.1 546.127 1406.39 449.808C1399.81 444.039 1393.61 437.956 1387.23 432.158C1365.41 412.315 1343.43 393.145 1319.59 379.193C1248.77 337.757 1179.83 336.261 1098.92 346.366C1043.41 353.297 982.135 369.687 909.421 391.33C887.307 397.913 865.296 405.05 843.172 412.05C795.231 427.228 744.047 442.435 697.155 440.527C649.69 438.589 614.606 423.441 578.747 410.78C536.844 396.059 491.174 381.406 438.847 370.231C420.574 366.351 401.413 362.956 381.649 360.288C345 355.25 306.031 352.15 267.327 352.665C220.945 353.292 176.58 358.747 135.114 361.504C50.411 366.802 -23.4558 363.359 -96.8811 374.656C-118.804 378.021 -140.618 382.613 -162.423 389.23" stroke="#A1DDFF" stroke-width="0.490549" stroke-miterlimit="10"/>
<path d="M1592.5 577.615C1592.85 540.971 1517.57 550.032 1405.45 453.727C1398.89 448.086 1392.68 442.145 1386.33 436.475C1364.54 417.01 1342.83 398.119 1319.42 384.118C1249.96 342.191 1182.71 337.217 1101.71 345.453C1047.11 351.001 986.309 366.076 913.625 386.968C891.697 393.272 869.878 400.149 847.965 406.934C800.48 421.64 750.09 436.568 703.611 435.989C656.567 435.395 620.792 422.852 584.3 412.482C541.651 400.434 495.55 388.332 443.326 379.056C425.087 375.838 406.029 373.017 386.417 370.805C350.063 366.62 311.54 363.932 273.272 364.217C227.421 364.565 183.438 368.843 142.271 370.123C58.1372 372.424 -15.1752 364.727 -88.8017 371.933C-110.783 374.077 -132.725 377.452 -154.731 382.921" stroke="#A1DDFF" stroke-width="0.490549" stroke-miterlimit="10"/>
<path d="M1595.62 572.244C1595.94 539.264 1519.08 553.907 1404.53 457.652C1397.97 452.143 1391.77 446.345 1385.44 440.797C1363.67 421.709 1342.19 403.142 1319.26 389.044C1251.07 346.763 1185.6 338.208 1104.51 344.541C1050.83 348.73 990.499 362.476 917.838 382.603C896.097 388.627 874.469 395.244 852.762 401.813C805.733 416.053 756.134 430.696 710.071 431.447C663.45 432.197 626.982 422.259 589.853 414.179C546.454 404.805 499.925 395.254 447.805 387.871C429.595 385.311 410.65 383.064 391.186 381.313C355.13 377.982 317.044 375.706 279.223 375.76C233.906 375.828 190.306 378.929 149.438 378.732C65.8733 378.031 -6.88493 366.086 -80.7174 369.196C-102.763 370.118 -124.827 372.282 -147.03 376.594" stroke="#A1DDFF" stroke-width="0.490549" stroke-miterlimit="10"/>
<path d="M1598.73 566.868C1599.02 537.553 1520.6 557.739 1403.6 461.566C1397.06 456.185 1390.84 450.529 1384.55 445.109C1362.81 426.399 1341.55 408.156 1319.09 393.964C1252.18 351.335 1188.48 339.233 1107.3 343.619C1054.53 346.469 994.678 358.865 922.042 378.232C900.488 383.976 879.051 390.329 857.555 396.686C810.982 410.456 762.178 424.82 716.527 426.899C670.327 428.999 633.173 421.655 595.401 415.872C551.251 409.171 504.296 402.171 452.283 396.686C434.108 394.788 415.266 393.115 395.954 391.825C360.193 389.348 322.553 387.489 285.168 387.302C240.386 387.087 197.168 389.014 156.6 387.342C73.6041 383.643 1.40029 367.445 -72.6333 366.464C-94.7374 366.165 -116.93 367.116 -139.333 370.27" stroke="#A1DDFF" stroke-width="0.490549" stroke-miterlimit="10"/>
<path d="M1601.85 561.491C1602.1 535.841 1522.16 561.535 1402.68 465.486C1396.14 460.227 1389.91 454.733 1383.65 449.426C1361.91 431.133 1340.91 413.174 1318.93 398.889C1253.29 355.912 1191.36 340.303 1110.09 342.707C1058.24 344.237 998.858 355.279 926.251 373.866C904.888 379.336 883.637 385.424 862.353 391.565C816.236 404.869 768.221 418.948 722.988 422.357C677.21 425.801 639.364 421.062 600.954 417.569C556.059 413.537 508.672 409.093 456.762 405.502C438.622 404.266 419.883 403.167 400.722 402.333C365.26 400.714 328.062 399.262 291.114 398.845C246.866 398.35 204.026 399.1 163.762 395.956C81.3353 389.255 9.68575 368.809 -64.549 363.732C-86.7169 362.211 -109.032 361.951 -131.636 363.947" stroke="#A1DDFF" stroke-width="0.490549" stroke-miterlimit="10"/>
<path d="M1604.97 556.119C1605.18 534.133 1523.72 565.298 1401.75 469.41C1395.22 464.279 1389 458.932 1382.76 453.742C1361.05 435.827 1340.28 418.197 1318.76 403.809C1254.4 360.484 1194.23 341.411 1112.89 341.784C1061.94 342.02 1003.04 351.683 930.46 369.495C909.283 374.69 888.224 380.513 867.15 386.434C821.49 399.267 774.269 413.071 729.448 417.804C684.092 422.592 645.554 420.458 606.507 419.256C560.861 417.898 513.047 416.004 461.241 414.307C443.134 413.728 424.503 413.208 405.49 412.83C370.327 412.065 333.565 411.03 297.059 410.373C253.346 409.597 210.889 409.171 170.924 404.55C89.0663 394.852 17.971 370.152 -56.4697 360.984C-78.6965 358.242 -101.139 356.77 -123.94 357.614" stroke="#A1DDFF" stroke-width="0.490549" stroke-miterlimit="10"/>
<path d="M1608.09 550.743C1608.27 532.421 1525.32 569.016 1400.83 473.329C1394.31 468.321 1388.08 463.121 1381.86 458.059C1360.19 440.516 1339.64 423.215 1318.6 408.734C1255.51 365.06 1197.08 342.564 1115.68 340.871C1065.62 339.831 1007.22 348.107 934.669 365.129C913.679 370.054 892.811 375.607 871.943 381.312C826.739 393.679 780.308 407.198 735.904 413.266C690.969 419.398 651.74 419.869 612.06 420.958C565.669 422.273 517.423 422.93 465.719 423.131C447.647 423.215 429.119 423.269 410.258 423.347C375.39 423.436 339.074 422.813 303.009 421.925C259.831 420.865 217.752 419.266 178.091 413.168C96.8021 400.468 26.2613 371.516 -48.3806 358.256C-70.6663 354.293 -93.2365 351.609 -116.238 351.295" stroke="#A1DDFF" stroke-width="0.490549" stroke-miterlimit="10"/>
<path d="M1611.2 545.372C1611.35 530.714 1526.94 572.695 1399.9 477.254C1393.39 472.368 1387.15 467.316 1380.97 462.381C1359.32 445.216 1339 428.239 1318.43 413.659C1256.62 369.633 1199.92 343.761 1118.47 339.959C1069.3 337.664 1011.41 344.536 938.878 360.768C918.079 365.424 897.397 370.707 876.74 376.196C831.992 388.092 786.357 401.332 742.364 408.729C697.852 416.21 657.931 419.276 617.613 422.661C570.471 426.649 521.794 429.857 470.198 431.952C452.16 432.698 433.74 433.325 415.021 433.86C380.452 434.802 344.578 434.591 308.95 433.468C266.301 432.129 224.61 429.352 185.248 421.783C104.528 406.085 34.5417 372.88 -40.3013 355.524C-62.6507 350.339 -85.3434 346.444 -108.546 344.973" stroke="#A1DDFF" stroke-width="0.490549" stroke-miterlimit="10"/>
<path d="M1614.32 539.995C1614.43 529.002 1528.58 576.325 1398.97 481.169C1392.48 476.401 1386.24 471.505 1380.07 466.693C1358.46 449.901 1338.37 433.252 1318.27 418.58C1257.73 374.205 1202.75 344.997 1121.27 339.037C1072.97 335.505 1015.6 340.965 943.087 356.393C922.474 360.778 901.989 365.787 881.538 371.065C837.246 382.495 792.4 395.45 748.83 404.177C704.739 413.002 664.127 418.673 623.171 424.348C575.279 431.01 526.175 436.769 474.687 440.762C456.684 442.165 438.366 443.372 419.799 444.368C385.529 446.168 350.092 446.369 314.905 445.01C272.792 443.387 231.482 439.438 192.415 430.392C112.264 411.697 42.8322 374.239 -32.2168 352.792C-54.6251 346.386 -77.4454 341.274 -100.845 338.65" stroke="#A1DDFF" stroke-width="0.490549" stroke-miterlimit="10"/>
<path d="M1617.44 534.619C1617.51 527.29 1530.23 579.911 1398.05 485.088C1391.57 480.437 1385.32 475.694 1379.18 471.009C1357.6 454.595 1337.73 438.275 1318.1 423.5C1258.83 378.776 1205.55 346.277 1124.06 338.12C1076.62 333.371 1019.78 337.408 947.296 352.027C926.874 356.147 906.575 360.881 886.335 365.943C842.5 376.902 798.449 389.578 755.29 399.634C711.622 409.803 670.317 418.079 628.724 426.045C580.086 435.381 530.55 443.691 479.165 449.577C461.197 451.642 442.987 453.423 424.567 454.875C390.592 457.529 355.601 458.142 320.855 456.553C279.277 454.649 238.345 449.523 199.582 439.001C120 417.304 51.1224 375.597 -24.1278 350.055C-46.5998 342.427 -69.5428 336.103 -93.1431 332.326" stroke="#A1DDFF" stroke-width="0.490549" stroke-miterlimit="10"/>
<path d="M1620.55 529.247C1620.59 525.583 1531.92 583.453 1397.11 489.012C1390.64 484.479 1384.39 479.893 1378.28 475.331C1356.73 459.29 1337.09 443.298 1317.93 428.429C1259.94 383.358 1208.32 347.611 1126.85 337.207C1080.24 331.257 1023.97 333.95 951.495 347.661C931.265 351.541 911.152 355.975 891.123 360.822C847.744 371.315 804.482 383.706 761.741 395.092C718.494 406.61 676.503 417.485 634.267 427.743C584.878 439.751 534.916 450.612 483.634 458.397C465.7 461.124 447.594 463.479 429.326 465.387C395.649 468.895 361.1 469.92 326.791 468.095C285.747 465.912 245.198 459.614 206.734 447.615C127.722 422.921 59.398 376.961 -16.0533 347.327C-38.5842 338.477 -61.6548 330.943 -85.4513 326.008" stroke="#A1DDFF" stroke-width="0.490549" stroke-miterlimit="10"/>
<path d="M1623.67 523.871C1623.67 523.871 1533.62 586.945 1396.19 492.932C1258.76 398.918 1211.45 297.482 955.708 343.295C778.983 374.955 612.266 452.609 434.103 475.895C360.801 485.475 283.976 480.962 213.906 456.224C135.462 428.528 67.693 378.32 -7.96431 344.59C-30.559 334.519 -53.7472 325.772 -77.7498 319.68" stroke="#A1DDFF" stroke-width="0.490549" stroke-miterlimit="10"/>
</svg>
