<svg width="390" height="129" viewBox="0 0 390 129" fill="none" xmlns="http://www.w3.org/2000/svg">
<path d="M639.527 1C609.86 21.2511 578.845 39.8005 545.609 53.4247C534.833 57.8422 523.76 61.7549 512.247 63.5053C488.769 67.0747 464.962 61.5003 441.225 60.7524C411.08 59.8014 380.765 66.9503 354.083 80.9735C334.006 91.5259 311.418 106.832 288.708 110.673C268.076 114.162 245.881 95.1769 227.611 87.7692C208.897 80.1827 187.967 78.5667 168.203 82.4693C157.85 84.5143 147.779 88.0723 138.494 93.0976C129.614 97.904 121.879 106.849 111.352 99.8189C107.873 97.495 105.468 93.9141 102.477 90.9868C92.0852 80.8147 73.9119 80.0196 62.6716 89.2464" stroke="#A1DDFF" stroke-width="0.143006" stroke-miterlimit="10"/>
<path d="M638.218 1.63501C609.227 22.1579 578.53 40.9017 545.477 54.4759C534.471 59.0035 523.164 62.7974 511.449 64.7509C497.313 67.089 483.029 66.2224 468.7 64.9897C458.918 64.1488 449.115 63.1363 439.322 62.8532C419.976 62.2955 400.562 64.7094 382.052 69.7933C371.229 72.7664 360.719 76.6548 350.701 81.4197C343.664 84.7504 336.346 88.6087 328.841 92.3654C318.286 97.6338 307.356 102.696 296.25 105.938C292.263 107.107 288.254 108.04 284.242 108.654C267.653 111.179 250.08 100.484 234.274 92.6157C230.036 90.4963 225.926 88.5801 221.992 87.1757C205.823 81.3511 188.188 79.8896 171.121 82.4265C168.182 82.8627 165.259 83.4175 162.36 84.0897C152.024 86.485 141.962 90.3548 132.595 95.5545C127.047 98.6348 121.902 103.22 116.242 104.668C112.757 105.561 109.093 105.247 105.017 102.699C101.456 100.472 98.9152 97.0317 95.8134 94.2045C85.0479 84.3757 66.7288 83.509 55.1653 92.6171" stroke="#A1DDFF" stroke-width="0.143006" stroke-miterlimit="10"/>
<path d="M636.91 2.26842C608.593 23.0644 578.216 42.0013 545.344 55.5254C534.107 60.1646 522.566 63.8399 510.649 65.9935C496.331 68.5476 481.835 67.9241 467.28 66.863C457.341 66.1394 447.373 65.2113 437.416 64.951C417.747 64.4333 398.009 66.6371 379.192 71.2633C368.191 73.9676 357.508 77.507 347.316 81.8629C340.14 84.899 332.701 88.4284 325.086 91.8491C314.364 96.6398 303.284 101.21 291.98 104.155C287.928 105.219 283.854 106.072 279.77 106.633C262.855 108.934 244.94 98.7549 228.846 91.5202C224.542 89.5667 220.363 87.8335 216.369 86.5836C199.979 81.4554 182.304 80.6102 165.259 83.7449C162.326 84.2826 159.408 84.9404 156.514 85.7098C146.193 88.4555 136.14 92.637 126.693 98.0127C121.095 101.199 115.863 105.807 110.097 107.327C106.543 108.263 102.818 107.997 98.6792 105.581C95.034 103.451 92.3597 100.152 89.1464 97.4235C78.009 87.9379 59.5412 86.9997 47.6573 95.9877" stroke="#A1DDFF" stroke-width="0.143006" stroke-miterlimit="10"/>
<path d="M635.603 2.90206C607.959 23.9698 577.901 43.1026 545.214 56.5752C533.745 61.3245 521.971 64.8811 509.853 67.2378C495.353 70.0093 480.644 69.6274 465.863 68.7379C455.766 68.133 445.636 67.2893 435.512 67.049C415.521 66.5728 395.459 68.5649 376.336 72.7321C365.155 75.1689 354.312 78.3866 343.934 82.305C336.626 85.065 329.057 88.2454 321.335 91.3315C310.446 95.6446 299.219 99.7231 287.715 102.369C283.601 103.328 279.458 104.102 275.305 104.611C258.063 106.688 239.791 97.0675 223.425 90.422C219.049 88.6444 214.809 87.0771 210.752 85.9874C194.153 81.5284 176.423 81.3268 159.404 85.0607C156.475 85.7014 153.564 86.4593 150.675 87.3273C140.371 90.4234 130.327 94.9167 120.799 100.468C115.152 103.76 109.834 108.391 103.96 109.982C100.338 110.965 96.5513 110.748 92.3483 108.458C88.6187 106.427 85.8115 103.267 82.4866 100.637C70.976 91.4946 52.3623 90.4835 40.1553 99.3542" stroke="#A1DDFF" stroke-width="0.143006" stroke-miterlimit="10"/>
<path d="M634.294 3.53706C607.326 24.8765 577.586 44.2038 545.082 57.6278C533.382 62.4886 521.38 65.9493 509.055 68.4834C494.379 71.4994 479.452 71.3321 464.444 70.6156C454.192 70.128 443.897 69.3701 433.609 69.1513C413.295 68.7165 392.909 70.4984 373.479 74.2065C362.118 76.3745 351.104 79.2518 340.552 82.7526C333.105 85.2237 325.414 88.0682 317.582 90.821C306.528 94.6565 295.15 98.2431 283.448 100.59C279.269 101.445 275.059 102.139 270.837 102.595C253.269 104.447 234.653 95.3558 218.001 89.3295C213.556 87.7206 209.253 86.3263 205.133 85.3968C188.328 81.6071 170.543 82.049 153.546 86.3807C150.622 87.1229 147.716 87.9823 144.833 88.9491C134.547 92.3955 124.509 97.2005 114.902 102.927C109.204 106.324 103.8 110.976 97.8197 112.641C94.1287 113.669 90.2789 113.5 86.0145 111.34C82.1991 109.408 79.2603 106.387 75.8238 103.856C63.94 95.0569 45.179 93.9743 32.6516 102.725" stroke="#A1DDFF" stroke-width="0.143006" stroke-miterlimit="10"/>
<path d="M632.987 4.17048C606.694 25.783 577.273 45.3049 544.951 58.6774C533.018 63.6483 520.786 66.9961 508.257 69.7261C493.401 72.9637 478.26 73.0338 463.025 72.4889C452.616 72.12 442.158 71.4464 431.704 71.2477C411.068 70.8544 390.359 72.4246 370.622 75.6751C359.081 77.5757 347.897 80.1098 337.17 83.1944C329.586 85.3752 321.778 87.905 313.83 90.3033C302.616 93.6882 291.079 96.7271 279.182 98.8036C274.938 99.5443 270.663 100.168 266.37 100.571C248.474 102.199 229.516 93.6353 212.577 88.2311C208.065 86.791 203.696 85.5698 199.513 84.8004C182.504 81.6757 164.661 82.7654 147.688 87.6963C144.769 88.5414 141.869 89.501 138.988 90.5664C128.719 94.3646 118.689 99.4814 109.001 105.382C103.254 108.886 97.7626 113.56 91.6762 115.297C87.9166 116.37 84.0039 116.25 79.678 114.218C75.7768 112.385 72.7064 109.505 69.1584 107.072C56.9028 98.6162 37.9945 97.4622 25.1439 106.094" stroke="#A1DDFF" stroke-width="0.143006" stroke-miterlimit="10"/>
<path d="M631.678 4.80547C606.06 26.6897 576.958 46.406 544.819 59.7285C532.656 64.811 520.191 68.0429 507.459 70.9717C492.423 74.431 477.067 74.737 461.607 74.3652C451.04 74.1135 440.417 73.5258 429.801 73.3484C408.842 72.9966 387.81 74.3566 367.764 77.1467C356.045 78.7784 344.687 80.9707 333.787 83.6392C326.065 85.5297 318.135 87.7277 310.078 89.7885C298.698 92.7001 287.011 95.2384 274.916 97.0203C270.609 97.6552 266.266 98.2015 261.904 98.5505C243.682 99.9534 224.382 91.9178 207.154 87.1343C202.575 85.8629 198.143 84.8133 193.894 84.2069C176.682 81.7472 158.78 83.4847 141.83 89.0134C138.915 89.9601 136.021 91.0212 133.147 92.1838C122.894 96.3324 112.873 101.761 103.104 107.837C97.3063 111.447 91.729 116.145 85.5354 117.952C81.7086 119.072 77.7287 119.002 73.3427 117.097C69.3542 115.364 66.1538 112.621 62.4957 110.287C49.8668 102.174 30.8112 100.947 17.6403 109.462" stroke="#A1DDFF" stroke-width="0.143006" stroke-miterlimit="10"/>
<path d="M630.37 5.4389C605.425 27.5949 576.644 47.5057 544.686 60.7781C532.292 65.9707 519.594 69.0868 506.659 72.2143C491.444 75.8939 475.873 76.4387 460.187 76.2385C449.463 76.1055 438.677 75.6021 427.894 75.4448C406.614 75.1345 385.257 76.2829 364.906 78.6153C353.008 79.9796 341.477 81.8287 330.403 84.081C322.54 85.6812 314.489 87.5475 306.323 89.2721C294.775 91.709 282.942 93.7482 270.647 95.2355C266.277 95.7646 261.865 96.2322 257.434 96.5283C238.884 97.7066 219.245 90.1974 201.728 86.0359C197.082 84.9319 192.586 84.0553 188.273 83.6105C170.859 81.8129 152.896 84.2011 135.97 90.3289C133.059 91.3772 130.171 92.5413 127.302 93.8011C117.067 98.3001 107.052 104.04 97.2035 110.291C91.3559 114.007 85.6915 118.727 79.392 120.606C75.4965 121.77 71.4509 121.753 67.0062 119.973C62.9291 118.34 59.5999 115.735 55.8303 113.5C42.8296 105.729 23.6267 104.432 10.1326 112.827" stroke="#A1DDFF" stroke-width="0.143006" stroke-miterlimit="10"/>
<path d="M629.063 6.07233C604.793 28.5015 576.331 48.6067 544.556 61.8291C531.93 67.1332 519.001 70.1321 505.863 73.4598C490.467 77.3582 474.682 78.1433 458.769 78.1161C447.889 78.1004 436.939 77.6828 425.991 77.5469C404.387 77.2781 382.707 78.2148 362.048 80.0896C349.97 81.185 338.266 82.6895 327.02 84.5285C319.018 85.837 310.846 87.3729 302.572 88.7601C290.857 90.7236 278.876 92.2637 266.381 93.455C261.947 93.8783 257.469 94.2672 252.967 94.5104C234.092 95.4642 214.114 88.4798 196.305 84.9418C191.592 84.0051 187.033 83.3015 182.655 83.0184C165.04 81.88 147.017 84.9218 130.115 91.6488C127.21 92.8 124.327 94.0642 121.462 95.4227C111.244 100.272 101.236 106.324 91.3072 112.751C85.4096 116.572 79.6593 121.314 73.2527 123.266C69.2885 124.476 65.1757 124.512 60.6738 122.856C56.508 121.324 53.0501 118.856 49.1689 116.721C35.795 109.293 16.4448 107.924 2.63037 116.2" stroke="#A1DDFF" stroke-width="0.143006" stroke-miterlimit="10"/>
<path d="M627.754 6.70733C604.16 29.4082 576.016 49.7079 544.423 62.8803C531.565 68.2945 518.405 71.1775 505.062 74.704C489.486 78.8212 473.486 79.8466 457.348 79.991C446.311 80.094 435.196 79.7593 424.085 79.6449C402.159 79.4175 380.154 80.144 359.19 81.5583C346.933 82.3864 335.056 83.5461 323.637 84.9719C315.494 85.9887 307.201 87.1942 298.818 88.2439C286.936 89.7326 274.807 90.7751 262.113 91.6703C257.615 91.9878 253.069 92.2981 248.497 92.4883C229.294 93.2177 208.977 86.7566 190.878 83.845C186.099 83.0756 181.474 82.5436 177.032 82.4235C159.218 81.943 141.132 85.6397 124.253 92.9645C121.353 94.2173 118.476 95.583 115.615 97.0402C105.415 102.24 95.4158 108.605 85.4053 115.206C79.4591 119.133 73.6202 123.898 67.1076 125.922C63.0749 127.177 58.8948 127.266 54.3343 125.734C50.0784 124.304 46.4933 121.973 42.5005 119.936C28.7547 112.851 9.25582 111.41 -4.88037 119.567" stroke="#A1DDFF" stroke-width="0.143006" stroke-miterlimit="10"/>
<path d="M626.447 7.34095C603.528 30.3135 575.703 50.8092 544.293 63.93C531.204 69.4558 517.811 72.2215 504.265 75.9483C488.508 80.2842 472.296 81.5499 455.929 81.8659C444.735 82.0861 433.457 81.8373 422.18 81.7443C399.931 81.5584 377.603 82.0733 356.331 83.03C343.894 83.5891 331.844 84.4028 320.253 85.4167C311.97 86.1404 303.556 87.017 295.064 87.7306C283.013 88.7431 270.739 89.2894 257.845 89.89C253.285 90.1016 248.67 90.3333 244.029 90.4706C224.5 90.9754 203.846 85.0363 185.454 82.7511C180.608 82.149 175.92 81.7887 171.412 81.8316C153.399 82.006 135.25 86.3606 118.394 94.2846C115.498 95.6403 112.627 97.1061 109.772 98.662C99.5887 104.212 89.5968 110.889 79.5077 117.665C73.5114 121.697 67.5867 126.485 60.9669 128.58C56.8655 129.882 52.6182 130.025 48.0005 128.616C43.6546 127.289 39.9378 125.101 35.8378 123.155C21.7045 116.443 2.074 114.9 -12.3854 122.939" stroke="#A1DDFF" stroke-width="0.143006" stroke-miterlimit="10"/>
<path d="M625.139 7.97438C602.893 31.2201 575.387 51.9088 544.161 64.9796C530.84 70.6155 517.215 73.264 503.468 77.1909C487.529 81.7443 471.104 83.2515 454.511 83.7392C443.159 84.0781 431.718 83.9137 420.275 83.8407C397.704 83.6963 375.052 83.9995 353.474 84.4986C340.858 84.7903 328.632 85.2565 316.871 85.8585C308.448 86.289 299.912 86.8353 291.313 87.2128C279.095 87.7491 266.673 87.8006 253.58 88.1038C248.955 88.211 244.274 88.3626 239.562 88.447C219.706 88.7273 198.714 83.3088 180.03 81.6513C175.118 81.2151 170.366 81.0264 165.792 81.2352C147.58 82.0617 129.367 87.077 112.535 95.5987C109.645 97.0559 106.779 98.6247 103.929 100.278C93.7627 106.178 83.778 113.167 73.6088 120.119C67.5625 124.257 61.5505 129.067 54.8249 131.234C50.6562 132.582 46.3389 132.78 41.6654 131.492C37.2279 130.269 33.3854 128.216 29.1738 126.367C14.6687 119.998 -5.11054 118.384 -19.8903 126.304" stroke="#A1DDFF" stroke-width="0.143006" stroke-miterlimit="10"/>
<path d="M623.831 8.60939C602.259 32.1268 575.072 53.0114 544.029 66.0322C530.477 71.7796 516.619 74.3094 502.668 78.438C486.55 83.2087 469.91 84.9562 453.091 85.6169C441.583 86.0731 429.978 85.9945 418.37 85.943C395.476 85.84 372.501 85.933 350.615 85.973C337.819 85.9959 325.42 86.116 313.486 86.3062C304.923 86.4435 296.266 86.6594 287.558 86.7009C275.171 86.761 262.603 86.3176 249.311 86.3234C244.623 86.3248 239.874 86.3977 235.093 86.4306C214.911 86.4864 193.581 81.587 174.606 80.5602C169.628 80.2899 164.811 80.2728 160.173 80.646C141.763 82.1233 123.487 87.8006 106.678 96.9216C103.792 98.4818 100.932 100.151 98.0858 101.902C87.9366 108.155 77.9605 115.454 67.7098 122.581C61.6134 126.826 55.5157 131.658 48.6828 133.897C44.4455 135.289 40.0581 135.545 35.3289 134.378C30.8013 133.261 26.8314 131.34 22.5083 129.59C7.63137 123.567 -12.2952 121.878 -27.3981 129.679" stroke="#A1DDFF" stroke-width="0.143006" stroke-miterlimit="10"/>
<path d="M622.523 9.24279C601.627 33.0319 574.733 54.0496 543.898 67.0818C530.104 72.9121 516.023 75.3504 501.872 79.6806C485.572 84.6673 468.718 86.6579 451.673 87.4916C440.008 88.0665 428.239 88.0722 416.467 88.0408C393.251 87.9793 369.952 87.8606 347.759 87.4416C334.784 87.197 322.211 86.9668 310.106 86.748C301.402 86.5907 292.623 86.4763 283.808 86.1846C271.252 85.7684 258.54 84.8303 245.046 84.5385C240.296 84.4356 235.478 84.4284 230.627 84.4084C210.117 84.2397 188.452 79.8579 169.183 79.4618C164.139 79.3574 159.258 79.5119 154.555 80.0496C135.945 82.1761 117.606 88.517 100.822 98.2357C97.94 99.8974 95.0856 101.668 92.2455 103.518C82.1135 110.121 72.1445 117.732 61.8137 125.034C55.6673 129.384 49.4823 134.239 42.5436 136.55C38.2377 137.987 33.7816 138.3 28.9966 137.254C24.3775 136.243 20.2818 134.455 15.8486 132.803C0.599799 127.124 -19.4754 125.363 -34.8987 133.045" stroke="#A1DDFF" stroke-width="0.143006" stroke-miterlimit="10"/>
<path d="M621.215 9.87642C600.994 33.9387 574.419 55.1494 543.765 68.1315C529.739 74.072 515.427 76.3916 501.072 80.9234C484.591 86.126 467.524 88.3598 450.253 89.3651C438.431 90.0573 426.498 90.1488 414.56 90.1388C391.021 90.1173 367.4 89.7898 344.899 88.9118C331.744 88.3984 318.996 87.8192 306.721 87.1914C297.876 86.7381 288.976 86.2962 280.053 85.6684C267.328 84.7746 254.47 83.3445 240.776 82.7539C235.961 82.5466 231.077 82.4608 226.156 82.3864C205.32 81.9931 183.317 78.1291 163.756 78.3636C158.645 78.4251 153.701 78.7512 148.932 79.4533C130.122 82.2262 111.721 89.2335 94.9595 99.5514C92.0836 101.315 89.235 103.187 86.3991 105.136C76.2843 112.089 66.3225 120.013 55.9116 127.489C49.7151 131.944 43.4443 136.822 36.3984 139.206C32.0238 140.689 27.4976 141.06 22.6583 140.132C17.9462 139.229 13.7275 137.571 9.18136 136.018C-6.43923 130.683 -26.6618 128.849 -42.4082 136.411" stroke="#A1DDFF" stroke-width="0.143006" stroke-miterlimit="10"/>
<path d="M619.908 10.5112C600.36 34.8452 574.106 56.2518 543.635 69.1825C529.378 75.2331 514.832 77.434 500.276 82.1689C483.613 87.5874 466.333 90.0643 448.836 91.2412C436.857 92.0521 424.761 92.228 412.659 92.238C388.798 92.258 364.852 91.7189 342.043 90.3832C328.71 89.6024 315.788 88.6728 303.34 87.636C294.355 86.8881 285.334 86.1159 276.302 85.1535C263.41 83.7806 250.405 81.86 236.512 80.9705C231.634 80.6588 226.682 80.4929 221.692 80.3656C200.529 79.7478 178.19 76.3986 158.335 77.2666C153.158 77.4926 148.15 77.9903 143.315 78.8597C124.306 82.2776 105.841 89.9528 89.1036 100.87C86.2321 102.736 83.3891 104.71 80.559 106.756C70.4613 114.059 60.5081 122.295 50.0157 129.947C43.7692 134.508 37.4125 139.409 30.2593 141.864C25.8161 143.393 21.2199 143.825 16.3248 143.014C11.5212 142.217 7.17668 140.691 2.51896 139.237C-13.4735 134.245 -33.8447 132.338 -49.9115 139.783" stroke="#A1DDFF" stroke-width="0.143006" stroke-miterlimit="10"/>
<path d="M618.599 11.1449C599.727 35.7506 573.817 57.4132 543.502 70.2323C529.024 76.423 514.234 78.4752 499.476 83.4117C482.631 89.0462 465.14 91.7662 447.416 93.1147C435.281 94.0428 423.021 94.3031 410.752 94.336C386.568 94.3975 362.299 93.6467 339.185 91.852C325.671 90.8023 312.575 89.5224 299.955 88.078C290.83 87.0327 281.687 85.9329 272.548 84.6373C259.487 82.7868 246.336 80.3743 232.243 79.1859C227.302 78.7698 222.281 78.5238 217.222 78.3436C195.732 77.5013 173.055 74.6669 152.907 76.1699C147.665 76.5617 142.591 77.2296 137.693 78.2649C118.484 82.3263 99.9577 90.6707 83.2431 102.186C80.3773 104.153 77.5386 106.228 74.7128 108.374C64.6323 116.027 54.6862 124.575 44.1137 132.401C37.8171 137.068 31.3733 141.991 24.1157 144.518C19.6053 146.091 14.9375 146.585 9.98808 145.89C5.09297 145.202 0.625455 143.796 -4.14667 142.451C-20.5023 137.768 -41.0295 135.824 -57.4194 143.148" stroke="#A1DDFF" stroke-width="0.143006" stroke-miterlimit="10"/>
<path d="M617.291 11.7785C599.093 36.6573 573.502 58.5144 543.371 71.2835C528.662 77.5843 513.64 79.5178 498.678 84.6574C481.652 90.5064 463.948 93.4695 445.998 94.9925C433.705 96.0393 421.28 96.384 408.847 96.4369C384.342 96.5398 359.748 95.5788 336.326 93.3251C322.633 92.008 309.364 90.3763 296.572 88.5243C287.306 87.1829 278.044 85.7529 268.794 84.124C255.566 81.7944 242.268 78.8914 227.976 77.4041C222.972 76.8836 217.884 76.5576 212.754 76.3245C190.937 75.2576 167.923 72.9352 147.485 75.0746C142.175 75.6309 137.038 76.4689 132.074 77.6716C112.664 82.375 94.0774 91.3902 77.3857 103.504C74.5241 105.575 71.6926 107.75 68.8711 109.992C58.8077 117.997 48.8702 126.856 38.2162 134.858C31.8696 139.631 25.3399 144.576 17.9751 147.176C13.396 148.794 8.6582 149.349 3.65441 148.77C-1.33223 148.192 -5.92558 146.914 -10.8092 145.667C-27.5367 141.328 -48.2126 139.312 -64.9243 146.518" stroke="#A1DDFF" stroke-width="0.143006" stroke-miterlimit="10"/>
<path d="M615.984 12.4135C598.461 37.564 573.189 59.6156 543.24 72.3346C528.301 78.747 513.045 80.5589 497.882 85.9016C480.674 91.9651 462.756 95.1727 444.58 96.8674C432.13 98.0314 419.543 98.4619 406.945 98.5363C382.117 98.6807 357.199 97.508 333.471 94.7966C319.598 93.2107 306.157 91.2272 293.192 88.9691C283.787 87.3303 274.403 85.5727 265.046 83.6092C251.649 80.7992 238.205 77.4085 223.713 75.6223C218.644 74.9974 213.489 74.5913 208.289 74.3052C186.145 73.0139 162.793 71.2034 142.063 73.9792C136.687 74.6985 131.485 75.7081 126.457 77.0781C106.845 82.4209 88.1982 92.1096 71.5308 104.821C68.6736 106.994 65.8478 109.27 63.032 111.611C52.9858 119.966 43.0554 129.138 32.3228 137.314C25.9261 142.192 19.3092 147.16 11.8385 149.831C7.19081 151.496 2.38437 152.114 -2.67663 151.649C-7.75479 151.183 -12.474 150.031 -17.4692 148.883C-34.5699 144.886 -55.3917 142.798 -72.4252 149.887" stroke="#A1DDFF" stroke-width="0.143006" stroke-miterlimit="10"/>
<path d="M614.675 13.0469C597.828 38.4691 572.874 60.7152 543.108 73.3841C527.936 79.9067 512.446 81.5984 497.081 87.1456C479.691 93.4236 461.561 96.8758 443.159 98.7421C430.551 100.025 417.801 100.54 405.038 100.634C379.887 100.82 354.645 99.4371 330.61 96.2652C316.558 94.4118 302.943 92.0751 289.806 89.4109C280.262 87.4746 270.755 85.3881 261.289 83.0929C247.725 79.8037 234.134 75.9239 219.443 73.8375C214.311 73.1081 209.087 72.6219 203.819 72.283C181.348 70.7671 157.658 69.4686 136.636 72.8822C131.193 73.766 125.928 74.9458 120.834 76.4831C101.019 82.4651 82.3122 92.8273 65.6691 106.138C62.8176 108.414 59.9961 110.792 57.186 113.23C47.1569 121.936 37.2337 131.419 26.421 139.771C19.9743 144.754 13.2715 149.745 5.69364 152.49C0.977284 154.2 -3.89923 154.881 -9.01457 154.53C-14.1857 154.176 -19.0293 153.15 -24.1361 152.102C-41.6086 148.448 -62.5791 146.289 -79.9343 153.258" stroke="#A1DDFF" stroke-width="0.143006" stroke-miterlimit="10"/>
<path d="M613.368 13.6803C597.194 39.3757 572.56 61.8163 542.977 74.4337C527.574 81.0678 511.851 82.638 496.284 88.3883C478.712 94.8808 460.37 98.5775 441.742 100.615C428.977 102.015 416.063 102.616 403.136 102.732C377.662 102.959 352.097 101.365 327.755 97.7352C313.523 95.613 299.736 92.9245 286.427 89.8541C276.742 87.6204 267.115 85.205 257.539 82.5765C243.808 78.8069 230.069 74.4395 215.178 72.0527C209.983 71.2204 204.693 70.6527 199.353 70.2608C176.555 68.5204 152.525 67.7325 131.213 71.7839C125.705 72.8307 120.373 74.1821 115.216 75.8881C95.197 82.5093 76.4331 93.5451 59.8129 107.454C56.9656 109.831 54.1513 112.31 51.344 114.847C41.3307 123.904 31.4175 133.699 20.5233 142.226C14.0279 147.316 7.23657 152.328 -0.44717 155.145C-5.23217 156.901 -10.1788 157.646 -15.3484 157.408C-20.6111 157.166 -25.5806 156.266 -30.7989 155.315C-48.6446 152.005 -69.761 149.774 -87.438 156.624" stroke="#A1DDFF" stroke-width="0.143006" stroke-miterlimit="10"/>
<path d="M612.059 14.3153C596.56 40.2824 572.245 62.9175 542.844 75.4863C527.209 82.2305 511.253 83.6791 495.485 89.6354C477.731 96.3409 459.176 100.284 440.322 102.495C427.401 104.013 414.322 104.698 401.229 104.834C375.434 105.103 349.544 103.297 324.895 99.2096C310.485 96.82 296.524 93.7768 283.04 90.3018C273.217 87.7706 263.468 85.0263 253.784 82.0646C239.887 77.8145 225.998 72.9594 210.908 70.2723C205.649 69.3356 200.291 68.6878 194.882 68.243C171.758 66.2781 147.389 65.9993 125.786 70.6899C120.21 71.9011 114.813 73.4227 109.593 75.2961C89.3695 82.5537 70.5484 94.2659 53.951 108.774C51.1081 111.254 48.2994 113.833 45.4979 116.469C35.5018 125.876 25.5957 135.982 14.6214 144.684C8.07601 149.88 1.19883 154.915 -6.59216 157.804C-11.4444 159.604 -16.461 160.415 -21.6879 160.289C-27.0407 160.16 -32.1374 159.385 -37.4658 158.534C-55.6848 155.567 -76.9485 153.265 -94.9473 159.995" stroke="#A1DDFF" stroke-width="0.143006" stroke-miterlimit="10"/>
<path d="M610.751 14.9488C595.927 41.1876 571.93 64.0186 542.713 76.5359C526.848 83.3916 510.656 84.7187 494.687 90.878C476.75 97.7967 457.984 101.985 438.903 104.368C425.825 106.004 412.583 106.773 399.325 106.932C373.206 107.242 346.994 105.226 322.038 100.678C307.447 98.0198 293.315 94.6234 279.658 90.7436C269.696 87.9135 259.825 84.8417 250.032 81.5483C235.967 76.8176 221.931 71.4763 206.642 68.4875C201.319 67.4478 195.894 66.7199 190.415 66.2223C166.963 64.0329 142.255 64.2617 120.363 69.5929C114.72 70.9672 109.259 72.659 103.975 74.7011C83.5448 82.5951 64.668 94.9837 48.095 110.091C45.2577 112.672 42.4534 115.354 39.6576 118.088C29.6786 127.845 19.7797 138.263 8.7253 147.141C2.12985 152.442 -4.83457 157.5 -12.7314 160.461C-17.6522 162.307 -22.7375 163.184 -28.0202 163.169C-33.4645 163.155 -38.6871 162.504 -44.127 161.751C-62.7179 159.126 -84.1302 156.751 -102.449 163.364" stroke="#A1DDFF" stroke-width="0.143006" stroke-miterlimit="10"/>
<path d="M609.444 15.5824C595.295 42.0943 571.617 65.1184 542.581 77.5857C526.485 84.5515 510.047 85.7256 493.889 92.1208C475.756 99.2183 456.792 103.686 437.484 106.241C424.249 107.996 410.844 108.85 397.421 109.028C370.981 109.38 344.444 107.152 319.181 102.147C304.411 99.2211 290.108 95.4701 276.276 91.1856C266.176 88.0566 256.182 84.6573 246.281 81.0307C232.05 75.8195 217.858 70.0221 202.376 66.7015C196.988 65.5674 191.498 64.7494 185.949 64.1988C162.171 61.7849 137.121 62.5228 114.941 68.4948C109.23 70.0321 103.705 71.8954 98.3561 74.1049C77.7203 82.6352 58.7862 95.7003 42.2375 111.405C39.4045 114.088 36.6073 116.872 33.8144 119.704C23.8526 129.812 13.9623 140.543 2.82635 149.595C-3.81916 155.002 -10.8694 160.082 -18.8734 163.115C-23.8629 165.007 -29.0169 165.949 -34.3553 166.047C-39.8911 166.147 -45.2396 165.62 -50.7911 164.965C-69.7552 162.685 -91.3134 160.238 -109.956 166.732" stroke="#A1DDFF" stroke-width="0.143006" stroke-miterlimit="10"/>
<path d="M608.135 16.2174C594.66 43.001 571.303 66.2196 542.45 78.6368C526.121 85.7142 509.451 86.7696 493.091 93.3665C474.776 100.68 455.599 105.39 436.066 108.118C422.673 109.99 409.105 110.929 395.516 111.129C368.753 111.523 341.893 109.084 316.324 103.62C301.374 100.425 286.9 96.321 272.894 91.6318C262.655 88.2039 252.547 84.4586 242.528 80.5174C228.141 74.8 213.789 68.5377 198.11 64.9197C192.659 63.6812 187.1 62.7831 181.481 62.1796C157.376 59.5412 131.985 60.7868 109.516 67.3994C103.739 69.0997 98.1472 71.1333 92.7373 73.5129C71.8941 82.6782 52.9057 96.4211 36.3799 112.725C33.5512 115.511 30.7597 118.395 27.9725 121.326C18.0279 131.784 8.14468 142.827 -3.07131 152.053C-9.76687 157.566 -16.9029 162.669 -25.0142 165.774C-30.0724 167.711 -35.295 168.719 -40.6906 168.927C-46.3165 169.143 -51.7922 168.738 -57.4552 168.183C-76.7911 166.245 -98.4981 163.726 -117.462 170.101" stroke="#A1DDFF" stroke-width="0.143006" stroke-miterlimit="10"/>
<path d="M606.828 16.8508C594.028 43.9062 570.989 67.3206 542.32 79.6878C525.759 86.8753 508.856 87.812 492.294 94.6106C473.798 102.141 454.408 107.094 434.649 109.994C421.1 111.984 407.366 113.008 393.613 113.229C366.526 113.663 339.343 111.013 313.466 105.091C298.338 101.629 283.692 97.1689 269.51 92.0765C259.134 88.3497 248.903 84.2783 238.774 80.0039C224.22 73.8074 209.721 67.0546 193.841 63.1377C188.326 61.7949 182.7 60.8167 177.012 60.1603C152.581 57.2973 126.847 59.0491 104.091 66.3038C98.2459 68.1672 92.5885 70.371 87.1157 72.9193C66.0637 82.7196 47.0224 97.1403 30.5195 114.042C27.6965 116.93 24.9093 119.916 22.1278 122.944C12.2003 133.753 2.3243 145.108 -8.97035 154.51C-15.716 160.129 -22.9392 165.254 -31.1564 168.43C-36.2831 170.414 -41.5744 171.489 -47.0258 171.807C-52.7418 172.14 -58.3447 171.857 -64.1193 171.399C-83.8285 169.805 -105.681 167.214 -124.967 173.47" stroke="#A1DDFF" stroke-width="0.143006" stroke-miterlimit="10"/>
<path d="M605.52 17.4842C593.394 44.8128 570.675 68.4203 542.187 80.7374C525.395 88.0365 508.258 88.853 491.495 95.8546C472.817 103.601 453.214 108.797 433.229 111.868C419.523 113.978 405.625 115.086 391.708 115.328C364.299 115.804 336.792 112.942 310.609 106.562C295.3 102.83 280.485 98.0169 266.128 92.5197C255.613 88.4941 245.261 84.0981 235.023 79.4875C220.303 72.8134 205.654 65.5687 189.577 61.3543C183.998 59.9071 178.304 58.8489 172.546 58.1395C147.788 55.052 121.712 57.3115 98.6693 65.2069C92.756 67.2333 87.0343 69.6072 81.4985 72.3243C60.2377 82.7581 41.1435 97.8581 24.6635 115.359C21.8448 118.35 19.0648 121.436 16.2876 124.563C6.37723 135.723 -3.4902 147.388 -14.8664 156.967C-21.662 162.692 -28.9711 167.838 -37.2955 171.087C-42.4895 173.115 -47.8494 174.261 -53.358 174.687C-59.164 175.136 -64.8943 174.974 -70.7805 174.617C-90.8629 173.366 -112.863 170.703 -132.471 176.839" stroke="#A1DDFF" stroke-width="0.143006" stroke-miterlimit="10"/>
<path d="M604.211 18.1192C592.761 45.7195 570.36 69.5229 542.055 81.7886C525.031 89.1977 507.662 89.8956 490.697 97.0988C471.837 105.061 452.021 110.5 431.808 113.743C417.945 115.97 403.885 117.164 389.802 117.427C362.07 117.943 334.239 114.873 307.749 108.033C292.261 104.035 277.284 98.8421 262.743 92.9659C252.098 88.6243 241.616 83.9193 231.268 78.9742C216.381 71.8224 201.584 64.0844 185.307 59.5725C179.664 58.0209 173.903 56.8826 168.076 56.1203C142.991 52.8083 116.556 55.5326 93.2421 64.113C87.2573 66.2909 81.4741 68.8465 75.8754 71.7323C54.4044 82.801 35.2572 98.5789 18.8029 116.678C15.9886 119.77 13.2142 122.959 10.4413 126.183C0.548158 137.694 -9.31213 149.671 -20.7684 159.424C-27.6141 165.253 -35.0104 170.424 -43.4406 173.745C-48.7033 175.818 -54.1303 177.031 -59.6976 177.567C-65.5923 178.135 -71.4513 178.093 -77.449 177.835C-97.9032 176.926 -120.051 174.191 -139.98 180.21" stroke="#A1DDFF" stroke-width="0.143006" stroke-miterlimit="10"/>
<path d="M602.904 18.7528C592.127 46.6248 570.046 70.6227 541.923 82.8383C524.67 90.359 507.065 90.9382 489.899 98.3431C470.858 106.522 450.828 112.202 430.39 115.618C416.369 117.964 402.146 119.242 387.897 119.525C359.843 120.083 331.688 116.801 304.89 109.503C289.224 105.236 274.075 99.6945 259.36 93.4094C248.576 88.7717 237.972 83.7378 227.515 78.4595C212.462 70.8301 197.515 62.6001 181.039 57.7893C175.333 56.1319 169.505 54.9149 163.608 54.0998C138.196 50.5632 111.421 53.8023 87.8178 63.0162C81.7658 65.3601 75.9111 68.0729 70.2567 71.1375C48.5511 82.7969 29.3768 99.2969 12.9454 117.995C10.1367 121.19 7.36671 124.479 4.59954 127.801C-5.27648 139.662 -15.1282 151.952 -26.666 161.879C-33.5617 167.814 -41.0438 173.008 -49.5813 176.4C-54.9126 178.52 -60.4069 179.801 -66.0313 180.445C-72.0147 181.13 -78.0024 181.208 -84.1102 181.048C-104.938 180.483 -127.232 177.676 -147.484 183.576" stroke="#A1DDFF" stroke-width="0.143006" stroke-miterlimit="10"/>
<path d="M601.596 19.3865C591.494 47.5316 569.731 71.7225 541.792 83.8881C524.306 91.5189 506.469 91.9794 489.1 99.5859C469.877 107.982 449.636 113.904 428.97 117.492C414.793 119.954 400.404 121.317 385.992 121.623C357.615 122.222 329.137 118.729 302.033 110.972C286.186 106.437 270.866 100.545 255.978 93.8513C245.055 88.9191 234.328 83.5563 223.763 77.9419C208.542 69.8348 193.448 61.1129 176.774 56.0033C171.003 54.2414 165.107 52.9444 159.141 52.0763C133.403 48.3152 106.286 52.0706 82.3936 61.9166C76.2744 64.4249 70.3539 67.3094 64.6365 70.5413C42.7265 82.8484 23.495 100.012 7.08639 119.309C4.28204 122.606 1.51915 125.996 -1.24373 129.417C-11.1026 141.628 -20.9472 154.23 -32.565 164.333C-39.5108 170.374 -47.0802 175.59 -55.7235 179.055C-61.1234 181.22 -66.6835 182.57 -72.3666 183.322C-78.4386 184.126 -84.555 184.324 -90.7743 184.263C-111.974 184.04 -134.416 181.163 -154.989 186.943" stroke="#A1DDFF" stroke-width="0.143006" stroke-miterlimit="10"/>
<path d="M600.289 20.0213C590.862 48.4381 569.418 72.825 541.66 84.9405C523.943 92.6829 505.873 93.0232 488.302 100.831C468.897 109.443 448.443 115.608 427.551 119.369C413.218 121.951 398.665 123.398 384.087 123.724C355.389 124.365 326.587 120.661 299.174 112.445C283.149 107.641 267.656 101.401 252.593 94.2974C241.531 89.0691 230.683 83.3774 220.007 77.4284C204.621 68.8437 189.377 59.6284 172.503 54.2213C166.67 52.355 160.707 50.9793 154.67 50.0569C128.605 46.0713 101.147 50.343 76.9665 60.8225C70.78 63.4967 64.7952 66.5527 59.0134 69.9491C36.8975 82.9041 17.6102 100.733 1.22452 120.629C-1.57555 124.027 -4.3327 127.519 -7.08986 131.039C-16.9316 143.6 -26.769 156.514 -38.4669 166.792C-45.4628 172.938 -53.1179 178.176 -61.8685 181.713C-67.3371 183.924 -72.9615 185.354 -78.7061 186.203C-84.8654 187.137 -91.1119 187.443 -97.4428 187.482C-119.015 187.602 -141.605 184.653 -162.499 190.315" stroke="#A1DDFF" stroke-width="0.143006" stroke-miterlimit="10"/>
<path d="M598.98 20.6549C590.228 49.3434 569.103 73.9248 541.529 85.9903C523.58 93.8428 505.278 94.0644 487.504 102.076C467.918 110.903 447.25 117.312 426.133 121.244C383.118 129.255 338.118 126.996 296.317 113.915C268.199 105.116 241.713 91.7449 216.256 76.9122C200.703 67.8499 185.311 58.1426 168.239 52.4367C136.853 41.9471 101.677 46.0428 71.5453 59.7243C41.4138 73.4057 16.0159 96.0822 -4.62998 121.945C-23.3667 145.414 -40.1957 173.037 -68.0061 184.369C-99.8122 197.328 -136.771 184.999 -170 193.681" stroke="#A1DDFF" stroke-width="0.143006" stroke-miterlimit="10"/>
<path d="M532.584 202C532.934 165.741 520.114 129.494 497.042 101.521C490.478 93.5625 482.78 86.0375 473.073 82.5467C445.024 72.4619 415.073 94.5078 391.489 107.025C363.03 122.129 334.892 137.959 305.259 150.705C288.623 157.861 269.084 163.935 252.992 155.629C236.696 147.217 230.496 127.631 223.759 110.575C215.909 90.6995 205.099 71.5538 189.231 57.2417C173.363 42.9296 151.912 33.8945 130.67 36.2241C114.035 38.0488 98.8782 46.4891 85.0366 55.8946C48.6686 80.609 17.7721 113.327 -4.82153 151.051" stroke="#A1DDFF" stroke-width="0.143006" stroke-miterlimit="10"/>
<path d="M533.493 200.432C533.804 168.386 522.531 137.022 502.543 110.122C500.686 107.624 498.776 105.167 496.782 102.778C490.228 94.928 482.596 87.4988 473.026 83.9808C445.349 73.7945 415.855 94.6877 392.305 106.756C371.426 117.456 350.694 128.753 329.226 138.98C321.778 142.542 314.266 145.973 306.658 149.209C290.155 156.228 270.848 162.22 254.875 154.301C238.703 146.283 232.3 127.455 225.377 111.066C217.309 91.9706 206.375 73.5685 190.537 59.8085C185.022 55.0177 178.852 50.8419 172.261 47.5285C159.928 41.3249 146.122 38.1358 132.403 39.5859C115.925 41.3277 100.878 49.4262 87.1246 58.4027C59.2812 76.5631 34.677 99.1052 14.3929 125.072C8.33948 132.82 2.67213 140.872 -2.57764 149.205" stroke="#A1DDFF" stroke-width="0.143006" stroke-miterlimit="10"/>
<path d="M534.401 198.866C534.702 167.888 522.828 138.262 502.272 111.266C500.406 108.817 498.507 106.391 496.52 104.037C489.975 96.298 482.41 88.9632 472.976 85.4166C445.669 75.1273 416.637 94.8693 393.118 106.49C372.458 116.698 351.908 127.696 330.451 137.707C323.058 141.185 315.602 144.543 308.055 147.716C291.685 154.599 272.608 160.508 256.757 152.977C240.708 145.351 234.104 127.28 226.996 111.561C218.71 93.2448 207.649 75.5864 191.842 62.3797C186.338 57.7821 180.197 53.7736 173.651 50.5946C161.405 44.6398 147.726 41.5709 134.138 42.9523C117.815 44.6126 102.879 52.3678 89.2138 60.9139C61.5363 78.1991 37.0937 99.5028 16.751 124.276C10.6804 131.668 4.97588 139.366 -0.33252 147.361" stroke="#A1DDFF" stroke-width="0.143006" stroke-miterlimit="10"/>
<path d="M535.311 197.299C535.6 167.389 523.134 139.5 502.003 112.409C500.129 110.005 498.241 107.613 496.262 105.296C489.726 97.6652 482.226 90.4277 472.93 86.8525C445.995 76.4617 417.428 95.0525 393.935 106.223C373.498 115.94 353.104 126.588 331.681 136.434C324.334 139.812 316.942 143.113 309.455 146.223C293.218 152.969 274.371 158.796 258.644 151.653C242.717 144.418 235.911 127.107 228.618 112.056C220.113 94.5191 208.927 77.6043 193.152 64.9497C187.657 60.5451 181.547 56.7039 175.045 53.6579C162.885 47.9519 149.337 45.0031 135.875 46.3173C119.709 47.8961 104.884 55.3081 91.306 63.4238C63.793 79.8352 39.5134 99.899 19.1121 123.479C13.0243 130.515 7.28402 137.86 1.91699 145.519" stroke="#A1DDFF" stroke-width="0.143006" stroke-miterlimit="10"/>
<path d="M536.219 195.733C536.498 166.892 523.445 140.737 501.731 113.553C499.848 111.196 497.97 108.835 495.998 106.556C489.471 99.0351 482.038 91.8919 472.88 88.2881C446.316 77.7957 418.217 95.2382 394.747 105.957C374.536 115.186 354.309 125.516 332.905 135.161C325.609 138.45 318.277 141.682 310.851 144.73C294.747 151.34 276.132 157.086 260.524 150.329C244.72 143.487 237.713 126.934 230.234 112.551C221.51 95.7931 210.2 79.6205 194.455 67.5193C188.969 63.3063 182.891 59.6339 176.432 56.7209C164.359 51.2652 150.94 48.4365 137.606 49.6807C121.593 51.1765 106.881 58.2468 93.3908 65.9319C66.0437 81.4681 41.9257 100.294 21.4643 122.68C15.3579 129.36 9.58191 136.351 4.15625 143.673" stroke="#A1DDFF" stroke-width="0.143006" stroke-miterlimit="10"/>
<path d="M537.127 194.166C537.396 166.393 523.763 141.972 501.461 114.696C499.571 112.385 497.702 110.058 495.738 107.815C489.221 100.402 481.852 93.3551 472.831 89.7242C446.64 79.1303 419.012 95.4259 395.561 105.691C375.578 114.437 355.519 124.445 334.132 133.89C326.888 137.091 319.614 140.254 312.249 143.239C296.279 149.711 277.894 155.376 262.407 149.006C246.727 142.556 239.519 126.763 231.853 113.047C222.912 97.0676 211.476 81.64 195.761 70.0923C190.285 66.0723 184.237 62.5673 177.822 59.7872C165.837 54.5804 152.544 51.8718 139.34 53.0488C123.484 54.4631 108.883 61.1915 95.4803 68.4463C68.2991 83.1087 44.3426 100.694 23.8226 121.888C17.6991 128.212 11.8859 134.85 6.40161 141.834" stroke="#A1DDFF" stroke-width="0.143006" stroke-miterlimit="10"/>
<path d="M538.036 192.599C538.295 165.894 524.09 143.201 501.192 115.837C499.296 113.572 497.436 111.278 495.478 109.071C488.971 101.769 481.668 94.8165 472.784 91.157C446.963 80.4615 419.813 95.6116 396.376 105.42C376.627 113.686 356.729 123.369 335.359 132.613C328.166 135.725 320.951 138.82 313.648 141.74C297.81 148.076 279.657 153.658 264.291 147.676C248.733 141.618 241.324 126.584 233.471 113.536C224.312 98.3359 212.751 83.652 197.066 72.6562C191.601 68.8294 185.584 65.4916 179.212 62.846C167.312 57.888 154.15 55.2995 141.074 56.4078C125.373 57.7407 110.882 64.1259 97.5681 70.9502C70.5528 84.7374 46.7579 101.084 26.1793 121.084C20.0372 127.052 14.1882 133.337 8.64673 139.984" stroke="#A1DDFF" stroke-width="0.143006" stroke-miterlimit="10"/>
<path d="M538.945 191.033C539.192 165.396 524.422 144.431 500.921 116.981C499.019 114.76 497.165 112.501 495.216 110.331C488.718 103.138 481.48 96.281 472.734 92.5943C447.285 81.7958 420.614 95.8062 397.19 105.156C377.676 112.944 357.94 122.301 336.585 131.343C329.443 134.368 322.287 137.391 315.045 140.25C299.34 146.449 281.417 151.949 266.173 146.355C250.738 140.69 243.127 126.412 235.09 114.034C225.713 99.613 214.027 85.6727 198.373 75.2304C192.918 71.5952 186.932 68.4262 180.603 65.9135C168.791 61.2043 155.758 58.7375 142.808 59.7771C127.264 61.027 112.884 67.0705 99.6561 73.4643C72.8067 86.3778 49.1734 101.485 28.5347 120.292C22.3754 125.903 16.4893 131.835 10.8892 138.145" stroke="#A1DDFF" stroke-width="0.143006" stroke-miterlimit="10"/>
<path d="M539.854 189.465C540.091 164.897 524.764 145.655 500.652 118.124C498.745 115.947 496.899 113.723 494.956 111.59C488.467 104.507 481.296 97.7452 472.687 94.0299C447.609 83.1299 421.423 96.0005 398.004 104.888C378.731 112.203 359.151 121.23 337.813 130.069C330.724 133.005 323.625 135.959 316.444 138.755C300.872 144.819 283.18 150.236 268.056 145.03C252.744 139.758 244.932 126.239 236.709 114.528C227.113 100.887 215.301 87.6904 199.679 77.8001C194.233 74.3579 188.278 71.3562 181.993 68.9766C170.268 64.5177 157.363 62.1695 144.541 63.1419C129.152 64.3103 114.885 70.0105 101.744 75.9753C75.0602 88.0136 51.5886 101.882 30.8912 119.495C24.7134 124.751 18.7915 130.328 13.1327 136.303" stroke="#A1DDFF" stroke-width="0.143006" stroke-miterlimit="10"/>
<path d="M540.762 187.898C540.99 164.398 525.11 146.875 500.381 119.266C498.471 117.134 496.63 114.945 494.696 112.848C488.216 105.874 481.11 99.2081 472.64 95.4642C447.932 84.4627 422.234 96.1979 398.82 104.621C379.79 111.467 360.364 120.161 339.04 128.796C332.003 131.646 324.963 134.529 317.842 137.262C302.403 143.188 284.942 148.524 269.939 143.706C254.751 138.825 246.737 126.066 238.328 115.023C228.513 102.161 216.577 89.7082 200.985 80.3713C195.549 77.1222 189.624 74.2878 183.383 72.0412C171.744 67.8311 158.968 65.6045 146.276 66.5069C131.043 67.5923 116.885 72.9507 103.833 78.4851C77.3155 89.6496 54.0054 102.278 33.2495 118.698C27.0544 123.598 21.0954 128.822 15.3794 134.459" stroke="#A1DDFF" stroke-width="0.143006" stroke-miterlimit="10"/>
<path d="M541.672 186.332C541.889 163.9 525.465 148.094 500.111 120.409C498.198 118.32 496.363 116.166 494.434 114.105C487.964 107.241 480.924 100.67 472.589 96.8988C448.254 85.7958 423.048 96.3983 399.632 104.352C380.848 110.733 361.575 119.092 340.264 127.521C333.28 130.284 326.297 133.097 319.238 135.767C303.932 141.557 286.703 146.809 271.82 142.379C256.754 137.89 248.538 125.89 239.944 115.515C229.912 103.433 217.849 91.7234 202.287 82.9385C196.862 79.881 190.967 77.214 184.77 75.1018C173.218 71.1405 160.571 69.034 148.006 69.8691C132.928 70.8731 118.883 75.8883 105.918 80.9922C79.5663 91.2815 56.4178 102.671 35.6018 117.898C29.3896 122.441 23.3934 127.312 17.6188 132.612" stroke="#A1DDFF" stroke-width="0.143006" stroke-miterlimit="10"/>
<path d="M542.58 184.765C542.787 163.401 525.825 149.305 499.841 121.552C497.925 119.505 496.094 117.389 494.174 115.364C487.713 108.608 480.738 102.133 472.543 98.333C448.579 87.1284 423.867 96.6041 400.447 104.085C381.914 110.005 362.789 118.024 341.493 126.248C334.561 128.925 327.636 131.666 320.638 134.273C305.465 139.926 288.466 145.099 273.706 141.055C258.764 136.959 250.348 125.716 241.566 116.011C231.315 104.707 219.128 93.7425 203.598 85.5096C198.182 82.6452 192.319 80.1454 186.165 78.1677C174.7 74.4552 162.181 72.4688 149.744 73.2354C134.821 74.1578 120.887 78.8298 108.011 83.5047C81.8247 92.9202 58.8378 103.069 37.9631 117.103C31.7323 121.29 25.7003 125.807 19.8685 130.77" stroke="#A1DDFF" stroke-width="0.143006" stroke-miterlimit="10"/>
<path d="M543.488 183.199C543.684 162.903 526.193 150.512 499.571 122.696C497.653 120.692 495.83 118.607 493.912 116.624C487.474 109.965 480.552 103.599 472.494 99.7704C448.902 88.4629 424.688 96.8159 401.262 103.82C382.98 109.286 364.003 116.961 342.72 124.977C335.841 127.568 328.974 130.236 322.035 132.781C306.995 138.298 290.228 143.387 275.588 139.731C260.769 136.027 252.151 125.543 243.184 116.506C232.715 105.981 220.404 95.7605 204.903 88.081C199.497 85.4097 193.664 83.0772 187.555 81.2325C176.176 77.7703 163.786 75.904 151.479 76.6019C136.712 77.4414 122.889 81.7716 110.1 86.016C84.0798 94.5564 61.2545 103.467 40.3212 116.308C34.0733 120.139 28.0041 124.303 22.1136 128.929" stroke="#A1DDFF" stroke-width="0.143006" stroke-miterlimit="10"/>
<path d="M544.397 181.631C544.583 162.404 526.569 151.712 499.3 123.838C497.381 121.876 495.562 119.83 493.652 117.882C487.223 111.332 480.366 105.062 472.445 101.205C449.224 89.7956 425.513 97.0317 402.076 103.551C384.05 108.567 365.216 115.894 343.947 123.702C337.122 126.208 330.311 128.805 323.434 131.286C308.527 136.666 291.99 141.674 277.472 138.405C262.775 135.093 253.956 125.368 244.803 117C234.116 107.254 221.679 97.7768 206.209 90.6493C200.812 88.1696 195.011 86.0059 188.943 84.2941C177.652 81.0808 165.39 79.3347 153.21 79.9639C138.599 80.7218 124.888 84.7089 112.186 88.5228C86.3321 96.1894 63.6684 103.86 42.6751 115.507C36.4085 118.982 30.3036 122.793 24.3545 127.082" stroke="#A1DDFF" stroke-width="0.143006" stroke-miterlimit="10"/>
<path d="M545.305 180.064C545.481 161.905 526.951 152.906 499.03 124.981C497.109 123.06 495.293 121.051 493.39 119.14C486.972 112.699 480.18 106.524 472.396 102.64C449.547 91.1297 426.341 97.2532 402.89 103.285C385.121 107.856 366.432 114.832 345.172 122.43C338.401 124.849 331.647 127.375 324.831 129.793C310.057 135.037 293.751 139.962 279.354 137.081C264.78 134.162 255.759 125.195 246.421 117.494C235.515 108.528 222.952 99.7945 207.513 93.2205C202.126 90.9338 196.355 88.9374 190.332 87.3586C179.127 84.3941 166.995 82.7681 154.942 83.3301C140.487 84.0066 126.886 87.6504 114.271 91.0353C88.5829 97.8267 66.0809 104.259 45.0289 114.713C38.7452 117.832 32.6031 121.29 26.5968 125.241" stroke="#A1DDFF" stroke-width="0.143006" stroke-miterlimit="10"/>
<path d="M546.215 178.498C546.381 161.407 527.341 154.094 498.761 126.123C496.841 124.244 495.027 122.272 493.131 120.399C486.723 114.066 479.996 107.987 472.349 104.075C449.872 92.4625 427.175 97.4806 403.705 103.016C386.197 107.146 367.647 113.768 346.399 121.155C339.681 123.491 332.984 125.943 326.23 128.298C311.589 133.405 295.513 138.249 281.237 135.755C266.786 133.228 257.564 125.019 248.04 117.988C236.916 109.801 224.228 101.811 208.82 95.7889C203.443 93.6952 197.704 91.8662 191.724 90.4218C180.605 87.7061 168.601 86.2017 156.678 86.6951C142.379 87.2886 128.889 90.5906 116.362 93.5451C90.8397 99.4627 68.4992 104.655 47.3886 113.915C41.0863 116.676 34.9084 119.781 28.8435 123.396" stroke="#A1DDFF" stroke-width="0.143006" stroke-miterlimit="10"/>
<path d="M547.123 176.931C547.278 160.908 527.737 155.274 498.49 127.266C496.569 125.427 494.757 123.494 492.868 121.657C486.468 115.435 479.8 109.466 472.299 105.51C450.169 93.8412 428.007 97.7166 404.517 102.75C387.271 106.447 368.861 112.708 347.625 119.883C340.961 122.134 334.32 124.513 327.627 126.806C313.119 131.776 297.275 136.537 283.119 134.431C268.79 132.296 259.367 124.846 249.658 118.483C238.317 111.075 225.503 103.829 210.126 98.3602C204.759 96.4582 199.05 94.7979 193.114 93.4865C182.082 91.0211 170.207 89.6353 158.412 90.0601C144.267 90.572 130.889 93.5308 118.45 96.0549C93.0935 101.097 70.9147 105.051 49.744 113.118C43.4245 115.524 37.2095 118.275 31.0859 121.554" stroke="#A1DDFF" stroke-width="0.143006" stroke-miterlimit="10"/>
<path d="M548.033 175.365C548.177 160.411 528.141 156.448 498.221 128.41C496.3 126.611 494.49 124.718 492.609 122.917C486.22 116.804 479.617 110.931 472.254 106.948C450.495 95.1755 428.846 97.9599 405.335 102.486C388.353 105.755 370.081 111.651 348.855 118.613C342.245 120.781 335.66 123.086 329.027 125.316C314.652 130.149 299.039 134.828 285.004 133.111C270.798 131.369 261.175 124.678 251.279 118.982C239.718 112.353 226.78 105.851 211.433 100.934C206.076 99.2255 200.397 97.7325 194.505 96.5541C183.561 94.3375 171.814 93.0733 160.146 93.4294C146.157 93.8584 132.891 96.4769 120.539 98.5705C95.3487 102.739 73.33 105.453 52.1021 112.326C45.7641 114.376 39.5147 116.774 33.3325 119.715" stroke="#A1DDFF" stroke-width="0.143006" stroke-miterlimit="10"/>
<path d="M548.941 173.798C549.075 159.91 528.551 157.614 497.949 129.553C496.03 127.794 494.221 125.939 492.346 124.176C485.965 118.172 479.428 112.394 472.202 108.382C450.814 96.5084 429.68 98.2102 406.146 102.217C389.43 105.065 371.294 110.592 350.079 117.337C343.523 119.422 336.994 121.652 330.423 123.82C316.181 128.518 300.799 133.115 286.884 131.784C272.801 130.434 262.976 124.502 252.895 119.474C241.117 113.623 228.053 107.865 212.735 103.501C207.388 101.986 201.741 100.66 195.892 99.6145C185.034 97.6468 173.416 96.5027 161.877 96.7902C148.044 97.1377 134.888 99.4129 122.624 101.076C97.5995 104.369 75.7424 105.844 54.4559 111.526C48.1007 113.219 41.8142 115.264 35.5734 117.868" stroke="#A1DDFF" stroke-width="0.143006" stroke-miterlimit="10"/>
<path d="M549.85 172.23C549.975 159.411 528.968 158.769 497.68 130.694C495.762 128.974 493.953 127.16 492.087 125.433C485.716 119.538 479.245 113.855 472.156 109.816C451.14 97.8397 430.523 98.4675 406.962 101.95C390.512 104.381 372.514 109.536 351.307 116.064C344.806 118.067 338.332 120.222 331.823 122.325C317.714 126.886 302.562 131.402 288.769 130.458C274.809 129.5 264.783 124.326 254.515 119.967C242.518 114.896 229.33 109.881 214.044 106.071C208.707 104.747 203.09 103.59 197.285 102.679C186.514 100.96 175.025 99.9362 163.614 100.156C149.937 100.422 136.892 102.354 124.716 103.587C99.8577 106.007 78.1622 106.241 56.8156 110.729C50.4433 112.066 44.1195 113.758 37.8201 116.024" stroke="#A1DDFF" stroke-width="0.143006" stroke-miterlimit="10"/>
<path d="M550.758 170.664C550.871 158.913 529.393 159.917 497.41 131.838C495.493 130.156 493.684 128.383 491.825 126.693C485.463 120.908 479.058 115.319 472.108 111.252C451.462 99.1725 431.364 98.7363 407.776 101.682C391.594 103.703 373.731 108.481 352.533 114.79C346.086 116.709 339.669 118.79 333.22 120.831C319.244 125.255 304.322 129.689 290.652 129.132C276.815 128.567 266.587 124.151 256.134 120.46C243.918 116.169 230.604 111.897 215.35 108.64C210.023 107.508 204.437 106.519 198.675 105.741C187.991 104.272 176.631 103.368 165.347 103.518C151.826 103.702 138.893 105.292 126.804 106.095C102.111 107.64 80.5775 106.636 59.1723 109.929C52.7813 110.91 46.4218 112.249 40.0652 114.178" stroke="#A1DDFF" stroke-width="0.143006" stroke-miterlimit="10"/>
<path d="M551.666 169.097C551.769 158.414 529.824 161.056 497.138 132.981C495.225 131.336 493.416 129.604 491.564 127.951C485.21 122.277 478.88 116.769 472.058 112.688C451.808 100.465 432.203 99.0151 408.588 101.416C392.673 103.034 374.948 107.428 353.758 113.519C347.366 115.356 341.005 117.361 334.617 119.339C320.774 123.627 306.084 127.978 292.534 127.809C278.82 127.636 268.391 123.98 257.752 120.957C245.319 117.444 231.88 113.916 216.655 111.212C211.338 110.274 205.782 109.452 200.065 108.807C189.467 107.587 178.237 106.803 167.081 106.886C153.714 106.988 140.892 108.235 128.891 108.608C104.364 109.279 82.9914 107.035 61.5276 109.136C55.1194 109.761 48.7228 110.745 42.3075 112.339" stroke="#A1DDFF" stroke-width="0.143006" stroke-miterlimit="10"/>
<path d="M552.576 167.531C552.669 157.917 530.263 162.185 496.869 134.125C494.957 132.519 493.148 130.828 491.304 129.211C484.958 123.647 478.695 118.234 472.011 114.124C452.133 101.798 433.046 99.3041 409.405 101.15C393.758 102.372 376.169 106.379 354.987 112.246C348.649 114.002 342.344 115.931 336.016 117.846C322.306 121.998 307.846 126.267 294.418 126.485C280.827 126.704 270.196 123.807 259.372 121.451C246.72 118.719 233.156 115.934 217.961 113.782C212.653 113.036 207.13 112.381 201.455 111.87C190.944 110.899 179.841 110.235 168.816 110.251C155.605 110.271 142.894 111.175 130.98 111.118C106.619 110.913 85.4085 107.431 63.8846 108.338C57.4579 108.607 51.0254 109.237 44.553 110.494" stroke="#A1DDFF" stroke-width="0.143006" stroke-miterlimit="10"/>
<path d="M553.484 165.964C553.567 157.418 530.706 163.302 496.599 135.266C494.69 133.697 492.879 132.048 491.043 130.468C484.707 125.014 478.51 119.695 471.962 115.558C452.456 103.131 433.885 99.603 410.219 100.881C394.837 101.712 377.387 105.326 356.213 110.972C349.929 112.647 343.679 114.499 337.413 116.352C323.836 120.366 309.608 124.553 296.3 125.16C282.832 125.772 272 123.631 260.989 121.945C248.118 119.991 234.43 117.951 219.267 116.352C213.968 115.798 208.475 115.311 202.845 114.935C192.42 114.213 181.447 113.671 170.549 113.616C157.494 113.553 144.895 114.115 133.068 113.628C108.873 112.549 87.8237 107.827 66.2412 107.541C59.7973 107.454 53.3277 107.731 46.7966 108.651" stroke="#A1DDFF" stroke-width="0.143006" stroke-miterlimit="10"/>
<path d="M554.394 164.396C554.467 156.919 531.16 164.409 496.329 136.409C494.423 134.876 492.608 133.274 490.782 131.727C484.444 126.394 478.323 121.158 471.913 116.994C452.778 104.465 434.725 99.9148 411.033 100.616C395.917 101.062 378.606 104.281 357.44 109.699C351.212 111.294 345.017 113.069 338.812 114.859C325.368 118.737 311.37 122.842 298.183 123.835C284.838 124.839 273.805 123.458 262.608 122.44C249.52 121.264 235.705 119.969 220.572 118.922C215.284 118.561 209.821 118.241 204.235 117.998C193.897 117.526 183.053 117.103 172.282 116.981C159.383 116.837 146.894 117.056 135.156 116.139C111.127 114.185 90.2392 108.225 68.5981 106.745C62.1356 106.301 55.6303 106.226 49.0405 106.808" stroke="#A1DDFF" stroke-width="0.143006" stroke-miterlimit="10"/>
<path d="M555.302 162.83C555.363 156.421 531.617 165.506 496.058 137.553C494.155 136.057 492.34 134.498 490.521 132.985C484.193 127.762 478.138 122.623 471.866 118.428C453.102 105.798 435.561 100.238 411.848 100.347C396.995 100.415 379.826 103.232 358.666 108.425C352.493 109.939 346.354 111.637 340.21 113.363C326.899 117.104 313.133 121.128 300.067 122.508C286.844 123.904 275.61 123.282 264.226 122.932C250.92 122.535 236.981 121.983 221.878 121.489C216.6 121.32 211.168 121.168 205.625 121.058C195.375 120.835 184.658 120.533 174.015 120.342C161.272 120.116 148.895 119.991 137.244 118.644C113.38 115.817 92.6545 108.617 70.9533 105.944C64.4737 105.144 57.9311 104.715 51.2842 104.961" stroke="#A1DDFF" stroke-width="0.143006" stroke-miterlimit="10"/>
<path d="M556.211 161.263C556.263 155.922 532.082 166.59 495.79 138.695C493.889 137.235 492.073 135.719 490.261 134.243C483.942 129.129 477.952 124.086 471.817 119.864C453.425 107.132 436.393 100.574 412.661 100.08C398.069 99.7773 381.044 102.19 359.893 107.152C353.774 108.588 347.691 110.207 341.607 111.87C328.429 115.475 314.894 119.416 301.949 121.185C288.849 122.973 277.413 123.11 265.845 123.428C252.321 123.811 238.256 124.003 223.184 124.061C217.915 124.086 212.514 124.101 207.015 124.124C196.85 124.15 186.264 123.968 175.75 123.709C163.162 123.401 150.895 122.934 139.333 121.157C115.636 117.454 95.0713 109.014 73.3114 105.149C66.8146 103.993 60.2349 103.211 53.5293 103.119" stroke="#A1DDFF" stroke-width="0.143006" stroke-miterlimit="10"/>
<path d="M557.119 159.697C557.161 155.424 532.554 167.663 495.518 139.839C493.622 138.415 491.803 136.942 489.999 135.503C483.69 130.5 477.766 125.55 471.769 121.3C453.749 108.465 437.221 100.923 413.476 99.8146C399.141 99.1454 382.265 101.149 361.12 105.881C355.057 107.238 349.028 108.778 343.006 110.379C329.961 113.846 316.657 117.706 303.832 119.863C290.856 122.044 279.218 122.937 267.464 123.924C253.721 125.087 239.531 126.022 224.489 126.633C219.231 126.85 213.861 127.033 208.404 127.189C198.326 127.463 187.868 127.402 177.482 127.075C165.049 126.684 152.894 125.875 141.42 123.668C117.888 119.092 97.4852 109.412 75.6667 104.352C69.1513 102.841 62.5358 101.705 55.7716 101.276" stroke="#A1DDFF" stroke-width="0.143006" stroke-miterlimit="10"/>
<path d="M558.029 158.13C558.06 154.925 533.031 168.721 495.249 140.98C493.356 139.59 491.537 138.163 489.739 136.76C483.438 131.865 477.581 127.012 471.722 122.734C454.072 109.798 438.045 101.283 414.292 99.5457C400.211 98.5161 383.487 100.108 362.348 104.605C356.338 105.884 350.366 107.344 344.405 108.883C331.492 112.215 318.419 115.991 305.717 118.536C292.864 121.108 281.024 122.761 269.084 124.416C255.123 126.358 240.808 128.037 225.798 129.201C220.55 129.61 215.21 129.962 209.797 130.252C199.806 130.777 189.476 130.836 179.218 130.439C166.941 129.966 154.898 128.815 143.509 126.178C120.143 120.728 99.9021 109.808 78.0236 103.556C71.491 101.688 64.8384 100.198 58.017 99.4328" stroke="#A1DDFF" stroke-width="0.143006" stroke-miterlimit="10"/>
<path d="M558.937 156.562C558.957 154.426 533.515 169.766 494.979 142.123C493.09 140.767 491.268 139.384 489.479 138.019C483.188 133.234 477.396 128.476 471.673 124.169C454.395 111.131 438.862 101.656 415.105 99.2783C401.275 97.894 384.705 99.0709 363.574 103.332C357.621 104.534 351.703 105.914 345.803 107.39C333.024 110.584 320.182 114.28 307.6 117.211C294.87 120.176 282.829 122.588 270.703 124.911C256.524 127.632 242.083 130.055 227.103 131.771C221.865 132.373 216.557 132.892 211.187 133.315C201.282 134.089 191.081 134.268 180.952 133.804C168.831 133.249 156.899 131.755 145.598 128.688C122.398 122.362 102.319 110.204 80.3815 102.758C73.8304 100.534 67.142 98.6905 60.262 97.5893" stroke="#A1DDFF" stroke-width="0.143006" stroke-miterlimit="10"/>
<path d="M559.845 154.996C559.855 153.928 534.005 170.799 494.707 143.267C492.821 141.946 490.999 140.609 489.215 139.279C482.935 134.602 477.207 129.94 471.623 125.606C454.717 112.466 439.668 102.045 415.917 99.0122C402.332 97.2775 385.928 98.0627 364.798 102.06C358.901 103.191 353.038 104.484 347.199 105.897C334.553 108.955 321.941 112.568 309.481 115.887C296.873 119.245 284.632 122.415 272.319 125.405C257.921 128.906 243.356 132.072 228.406 134.342C223.178 135.137 217.899 135.824 212.574 136.38C202.756 137.402 192.684 137.701 182.683 137.169C170.717 136.533 158.896 134.697 147.683 131.199C124.649 124 104.731 110.601 82.7354 101.962C76.1671 99.3826 69.4415 97.186 62.5043 95.7474" stroke="#A1DDFF" stroke-width="0.143006" stroke-miterlimit="10"/>
<path d="M560.755 153.429C560.755 153.429 534.503 171.817 494.438 144.41C454.373 117.002 440.582 87.4316 366.027 100.787C314.507 110.017 265.905 132.655 213.967 139.443C192.597 142.236 170.201 140.92 149.774 133.709C126.906 125.634 107.15 110.998 85.0937 101.165C78.5069 98.2286 71.7469 95.6788 64.7496 93.9026" stroke="#A1DDFF" stroke-width="0.143006" stroke-miterlimit="10"/>
</svg>
