<svg width="68" height="69" viewBox="0 0 68 69" fill="none" xmlns="http://www.w3.org/2000/svg">
<rect y="0.708984" width="68" height="68" rx="34" fill="#10a1f8"/>
<path d="M27.4166 39.9177C27.4166 41.6961 28.7917 43.1261 30.4783 43.1261H33.9249C35.3916 43.1261 36.5833 41.8794 36.5833 40.3211C36.5833 38.6527 35.85 38.0477 34.7683 37.6627L29.25 35.7377C28.1683 35.3527 27.435 34.7661 27.435 33.0794C27.435 31.5394 28.6266 30.2744 30.0933 30.2744H33.54C35.2266 30.2744 36.6016 31.7044 36.6016 33.4827" stroke="#E9F4FA" stroke-width="3" stroke-linecap="round" stroke-linejoin="round"/>
<path d="M32 28.459V44.959" stroke="#E9F4FA" stroke-width="3" stroke-linecap="round" stroke-linejoin="round"/>
<path d="M50.3333 36.7093C50.3333 46.8293 42.12 55.0426 32 55.0426C21.88 55.0426 13.6666 46.8293 13.6666 36.7093C13.6666 26.5893 21.88 18.376 32 18.376" stroke="#E9F4FA" stroke-width="3" stroke-linecap="round" stroke-linejoin="round"/>
<path d="M50.3333 25.7093V18.376H43" stroke="#E9F4FA" stroke-width="3" stroke-linecap="round" stroke-linejoin="round"/>
<path d="M41.1666 27.5426L50.3333 18.376" stroke="#E9F4FA" stroke-width="3" stroke-linecap="round" stroke-linejoin="round"/>
</svg>
