<svg width="1272" height="784" viewBox="0 0 1272 784" fill="none" xmlns="http://www.w3.org/2000/svg">
<mask id="mask0_529_3488" style="mask-type:luminance" maskUnits="userSpaceOnUse" x="-219" y="-58" width="1914" height="908">
<path d="M1450.87 535.358L1450.27 535.569C1393.52 507.039 1323.12 462.727 1235.51 398.596C1173.17 355.308 1047.36 290.159 934.477 269.163C888.415 260.596 844.51 259.38 807.961 270.004C771.448 280.62 742.262 303.062 725.597 341.818C707.552 383.781 704.171 444.862 722.021 530.734C731.252 580.267 722.542 646.461 692.387 704.009C673.001 741.003 644.755 774.431 606.713 797.578C568.666 820.724 520.828 833.584 462.27 829.436C385.134 823.97 289.388 788.991 172.907 709.124C97.2626 657.665 -9.72347 729.758 -115.959 808.279L-116.11 807.844C-9.75505 729.243 97.3536 657.124 173.264 708.768C289.673 788.583 385.334 823.541 462.382 828.999C520.797 833.138 568.508 820.316 606.45 797.235C644.394 774.15 672.573 740.798 691.916 703.882C722.027 646.418 730.721 580.324 721.509 530.865C703.641 444.912 707.032 383.759 725.109 341.722C741.849 302.8 771.166 280.255 807.853 269.592C844.504 258.938 888.504 260.151 934.65 268.734C1047.62 289.745 1173.5 354.933 1235.88 398.247L1235.88 398.253C1323.66 462.506 1394.12 506.849 1450.87 535.363M1470.11 528.664L1469.49 528.88C1409.41 502.703 1331.97 456.358 1231.6 383.513C1160.86 336.709 1034.8 273.51 922.691 253.42C875.739 245.006 831.239 244.154 794.293 255.242C757.381 266.317 727.995 289.321 711.224 328.62C693.613 369.891 689.901 429.129 705.973 511.382L705.975 511.388C713.681 561.626 704.503 628.08 674.475 685.637C655.044 722.888 626.878 756.413 588.907 779.41C550.929 802.41 503.153 814.876 444.505 810.002C370.327 803.836 278.745 769.92 167.598 694.467C91.5509 643.624 -15.1218 715.358 -121.065 793.593L-121.215 793.16C-15.1534 714.843 91.6393 643.087 167.953 694.106C279.029 769.509 370.526 803.404 444.623 809.561C503.128 814.425 550.777 801.994 588.642 779.061C626.513 756.124 654.613 722.675 674.003 685.504C703.986 628.031 713.152 561.667 705.453 511.504C689.366 429.174 693.088 369.864 710.731 328.52C727.573 289.055 757.091 265.952 794.176 254.826C831.228 243.707 875.823 244.557 922.858 252.987C1035.04 273.091 1161.17 336.322 1231.95 383.15L1231.96 383.158C1332.54 456.151 1410.05 502.531 1470.11 528.664ZM1492.85 520.754L1492.18 520.988C1429.34 499.627 1344.18 452.215 1227.67 368.419C1148.75 318.203 1022.48 256.907 911.16 237.663C863.285 229.385 818.181 228.891 780.82 240.404C743.491 251.91 713.88 275.414 696.938 315.151C679.647 355.71 675.554 413.173 689.914 492.024L689.918 492.036C696.09 542.993 686.445 609.721 656.558 667.282C637.09 704.774 609.036 738.386 571.17 761.227C533.298 784.072 485.624 796.143 426.925 790.552C355.685 783.767 268.197 750.956 162.279 679.805C85.8302 629.58 -20.5246 700.956 -126.179 778.906L-126.329 778.473C-20.5562 700.441 85.9162 629.047 162.632 679.447C268.476 750.553 355.886 783.34 427.049 790.118C485.601 795.697 533.147 783.661 570.907 760.884C608.673 738.102 636.659 704.571 656.084 667.157C685.929 609.676 695.559 543.04 689.395 492.149C675.021 413.224 679.127 355.688 696.448 315.059C713.458 275.16 743.202 251.557 780.699 239.999C818.164 228.452 863.361 228.946 911.323 237.241C1022.72 256.498 1149.06 317.831 1228.02 368.069L1228.03 368.075C1344.83 452.074 1430.06 499.494 1492.85 520.758L1492.85 520.754ZM1522.91 510.293L1522.08 510.584C1457.69 499.192 1363.66 452.985 1223.74 353.332C1136.89 299.827 1010.44 240.369 899.933 221.898C851.077 213.733 805.342 213.58 767.534 225.502C729.761 237.415 699.894 261.39 682.73 301.489C665.679 341.324 661.157 397.062 673.861 472.671L673.865 472.682C678.478 524.376 668.374 591.383 638.642 648.953C619.158 686.678 591.247 720.356 553.522 743.033C515.795 765.714 468.262 777.386 409.546 771.091C341.226 763.765 257.755 732.106 156.967 665.14C80.1175 615.536 -25.9215 686.549 -131.286 764.216L-131.436 763.784C-25.9555 686.038 80.2025 615 157.319 664.779C258.041 731.703 341.435 763.339 409.678 770.657C468.241 776.937 515.643 765.301 553.259 742.69C590.881 720.073 618.726 686.472 638.168 648.827C667.861 591.333 677.952 524.415 673.343 472.786C660.628 397.102 665.161 341.295 682.242 301.393C699.476 261.135 729.471 237.06 767.412 225.094C805.321 213.14 851.151 213.288 900.097 221.468C1010.69 239.949 1137.2 299.446 1224.09 352.975L1224.11 352.982C1364.53 452.997 1458.64 499.144 1522.91 510.296L1522.91 510.293ZM1694.52 436.232L1694.88 437.27C1694.17 441.975 1693.42 446.635 1692.64 451.238L1692.09 451.428C1692.95 446.425 1693.75 441.355 1694.52 436.232ZM1686.47 413.116L1686.82 414.117C1684.39 428.675 1681.65 442.836 1678.3 456.225L1677.74 456.422C1681.19 442.67 1683.98 428.099 1686.47 413.113L1686.47 413.116ZM1678.54 390.304L1678.87 391.275C1674.13 416.822 1668.57 441.239 1660.38 462.463L1659.78 462.674C1668.12 441.149 1673.74 416.299 1678.54 390.304ZM1670.7 367.788L1671.03 368.722C1662.99 407.888 1653.23 444.608 1635.07 471.27L1634.32 471.53C1652.77 444.7 1662.59 407.473 1670.7 367.788ZM1662.97 345.556L1663.28 346.454C1652.47 394.191 1639.38 438.592 1611.68 465.509C1559.66 516.058 1456.22 504.887 1219.82 338.25C1125.31 281.59 998.732 223.892 889.037 206.117C839.119 198.031 792.705 198.211 754.416 210.526C716.159 222.83 686.004 247.261 668.565 287.675C651.696 326.771 646.722 380.821 657.806 453.312L657.812 453.329C660.848 505.778 650.292 573.067 620.724 630.652C601.242 668.593 573.501 702.326 535.955 724.835C498.403 747.343 451.055 758.619 392.363 751.634C326.941 743.85 247.42 713.375 151.651 650.476C74.3993 601.488 -31.3243 672.147 -136.397 749.525L-136.548 749.093C-31.3558 671.632 74.4843 600.952 152.002 650.113C247.705 712.969 327.155 743.419 392.501 751.195C451.042 758.16 498.258 746.924 535.692 724.482C573.134 702.038 600.804 668.382 620.248 630.52C649.777 573.012 660.322 505.805 657.285 453.419C646.191 380.855 651.18 326.737 668.077 287.576C685.581 247.005 715.865 222.476 754.286 210.118C792.679 197.769 839.192 197.583 889.197 205.683C998.964 223.467 1125.61 281.195 1220.16 337.88L1220.17 337.887C1456.28 504.325 1559.5 515.589 1611.31 465.244C1639.08 438.258 1652.13 393.554 1662.97 345.552L1662.97 345.556ZM1655.33 323.595L1655.63 324.463C1643.89 371.55 1630.21 415.662 1602.46 442.849C1550.22 494.033 1448.25 485.177 1215.88 323.158C1114.03 263.5 987.381 207.494 878.525 190.334C827.439 182.282 780.28 182.784 741.458 195.484C702.667 208.174 672.192 233.055 654.431 273.759C637.698 312.11 632.247 364.496 641.751 433.963L641.753 433.969L641.753 433.981C643.197 487.196 632.197 554.781 602.807 612.376C583.343 650.526 555.808 684.301 518.476 706.625C481.139 728.958 434.015 739.831 375.382 732.178C312.838 724.012 237.19 694.757 146.341 635.817C68.689 587.44 -36.7201 657.742 -141.507 734.84L-141.657 734.408C-36.7576 657.233 68.7691 586.912 146.684 635.453C237.47 694.357 313.051 723.588 375.526 731.746C434.009 739.38 480.994 728.542 518.213 706.282C555.438 684.02 582.904 650.322 602.331 612.254C631.683 554.729 642.672 487.226 641.227 434.064C631.715 364.528 637.18 312.071 653.938 273.658C671.766 232.799 702.366 207.822 741.324 195.078C780.251 182.344 827.504 181.834 878.678 189.902C987.608 207.074 1114.33 263.109 1216.23 322.797L1216.24 322.805C1448.32 484.619 1550.06 493.566 1602.08 442.59C1629.9 415.335 1643.55 370.934 1655.32 323.6L1655.33 323.595ZM1647.78 301.896L1648.07 302.73C1635.4 349.01 1621.11 392.666 1593.4 420.067C1540.91 471.954 1440.39 465.497 1211.96 308.07C1103.12 245.589 976.449 191.184 868.444 174.539C816.062 166.465 768.079 167.276 728.664 180.358C689.281 193.429 658.44 218.765 640.311 259.75C623.685 297.338 617.742 348.089 625.693 414.606L625.695 414.614L625.692 414.628C625.519 468.634 614.08 536.518 584.889 594.128C565.458 632.473 538.16 666.275 501.082 688.414C463.998 710.559 417.14 721.036 358.601 712.731C298.904 704.262 227.058 676.253 141.026 621.153C62.9753 573.393 -42.1229 643.341 -146.614 720.151L-146.764 719.718C-42.157 642.83 63.0588 572.864 141.372 620.788C227.346 675.852 299.13 703.84 358.754 712.299C417.137 720.583 463.857 710.142 500.825 688.066C537.8 665.987 565.029 632.266 584.415 594.002C613.574 536.46 624.997 468.653 625.174 414.699C617.22 348.114 623.171 297.298 639.829 259.646C658.025 218.509 688.988 193.077 728.535 179.952C768.053 166.834 816.135 166.018 868.606 174.104C976.685 190.758 1103.42 245.191 1212.3 307.703L1212.32 307.711C1440.46 464.934 1540.74 471.487 1593.02 419.808C1620.81 392.341 1635.08 348.407 1647.78 301.896ZM1640.31 280.443L1640.59 281.244C1627.01 326.559 1612.11 369.593 1584.51 397.143C1531.72 449.817 1432.64 445.85 1208.04 292.983C1092.62 227.871 966.003 174.975 858.865 158.741C805.031 150.584 756.124 151.685 716.043 165.149C675.993 178.602 644.748 204.413 626.201 245.679C609.653 282.499 603.21 331.622 609.631 395.249L609.635 395.26L609.631 395.274C607.814 450.087 595.95 518.278 566.968 575.907C547.593 614.436 520.562 648.247 483.775 670.198C446.975 692.153 400.426 702.238 342.013 693.301C285.146 684.602 217.022 657.868 135.708 606.493C57.2581 559.348 -47.5257 628.939 -151.727 705.467L-151.877 705.034C-47.5622 628.432 57.3416 558.819 136.05 606.127C217.31 657.467 285.365 684.182 342.17 692.871C400.427 701.784 446.841 691.734 483.516 669.853C520.201 647.967 547.161 614.232 566.493 575.79C595.44 518.228 607.294 450.109 609.112 395.342C602.684 331.651 609.144 282.463 625.717 245.581C644.328 204.166 675.696 178.261 715.905 164.753C756.087 151.254 805.091 150.144 859.016 158.316C966.219 174.559 1092.9 227.48 1208.36 292.62L1208.38 292.631C1432.69 445.302 1531.54 449.361 1584.12 396.897C1611.79 369.278 1626.69 325.985 1640.3 280.452L1640.31 280.443ZM1632.93 259.23L1633.2 260.002C1618.74 304.197 1603.23 346.432 1575.81 374.062C1522.69 427.616 1425.02 426.257 1204.11 277.897C1082.58 210.382 956.093 158.895 849.858 142.956C794.383 134.633 744.435 136.008 703.607 149.857C662.812 163.698 631.11 190.006 612.098 231.564C595.609 267.604 588.658 315.111 593.578 375.896L593.581 375.907L593.578 375.921C590.094 431.564 577.811 500.067 549.057 557.716C529.756 596.413 503.031 630.222 466.565 651.979C430.092 673.739 383.881 683.434 325.629 673.888C271.558 665.029 207.097 639.591 130.397 591.831C51.5503 545.296 -52.926 614.533 -156.839 690.776L-156.989 690.343C-52.9625 614.026 51.6269 544.769 130.733 591.458C207.38 639.186 271.779 664.605 325.789 673.454C383.884 682.974 429.952 673.313 466.303 651.626C502.664 629.936 529.319 596.205 548.579 557.591C577.301 500.007 589.575 431.566 593.056 375.968C588.134 315.122 595.099 267.553 611.613 231.452C630.693 189.744 662.512 163.339 703.468 149.446C744.396 135.562 794.443 134.181 850.008 142.516C956.308 158.464 1082.85 209.973 1204.43 277.515L1204.45 277.525C1425.07 425.69 1522.51 427.145 1575.43 373.799C1602.9 346.105 1618.41 303.623 1632.92 259.224L1632.93 259.23ZM1625.63 238.242L1625.89 238.984C1610.58 281.898 1594.48 323.154 1567.37 350.783C1513.85 405.33 1417.55 406.715 1200.17 262.803C1073.05 193.142 946.811 142.956 841.506 127.191C784.162 118.605 733.039 120.226 691.37 134.468C649.729 148.7 617.524 175.546 597.99 217.42C581.548 252.671 574.082 298.565 577.522 356.547L577.528 356.564L577.52 356.576C572.345 413.067 559.654 481.893 531.148 539.562C511.941 578.417 485.557 612.214 449.451 633.768C413.335 655.328 367.509 664.636 309.442 654.506C258.137 645.558 197.264 621.433 125.079 577.171C45.8376 531.252 -58.3268 600.136 -161.951 676.094L-162.101 675.662C-58.3669 599.631 45.9142 530.725 125.416 576.801C197.548 621.033 258.364 645.138 309.607 654.077C367.512 664.176 413.196 654.905 449.186 633.419C485.186 611.93 511.505 578.215 530.667 539.441C559.141 481.834 571.824 413.064 576.997 356.611C573.557 298.573 581.037 252.617 597.506 217.311C617.103 175.295 649.429 148.351 691.226 134.065C732.998 119.787 784.224 118.158 841.657 126.757C947.03 142.536 1073.33 192.744 1200.51 262.437L1200.52 262.447C1417.6 406.158 1513.66 404.872 1566.98 350.533C1594.16 322.838 1610.26 281.351 1625.62 238.247L1625.63 238.242ZM1618.4 217.472L1618.65 218.186C1602.56 259.649 1585.91 299.733 1559.21 327.265C1505.22 382.938 1410.28 387.238 1196.25 247.719C1064.14 176.196 938.253 127.191 833.912 111.453C774.432 102.484 721.965 104.323 679.342 118.966C636.747 133.601 603.981 161.03 583.872 203.249C567.467 237.692 559.485 281.98 561.467 337.188L561.472 337.202L561.465 337.217C551.397 420.95 528.144 529.802 463.825 591.471C399.468 653.176 294.064 667.647 119.768 562.509C40.1323 517.196 -63.7262 585.733 -167.061 661.406L-167.212 660.974C-63.7696 585.229 40.2029 516.675 120.096 562.135C294.118 667.11 399.286 652.729 463.45 591.207C527.653 529.65 550.878 420.908 560.937 337.248C558.957 281.979 566.951 237.637 583.383 203.137C603.555 160.778 636.443 133.253 679.195 118.566C721.919 103.889 774.484 102.041 834.057 111.024C938.464 126.77 1064.41 175.798 1196.57 247.348L1196.59 247.358C1410.32 386.681 1505.03 382.483 1558.82 327.02C1585.59 299.421 1602.25 259.117 1618.4 217.478L1618.4 217.472ZM1611.25 196.906L1611.49 197.595C1594.71 237.425 1577.57 276.137 1551.4 303.458C1496.86 360.419 1403.23 367.839 1192.33 232.633C1055.9 159.581 930.517 111.636 827.186 95.782C765.255 86.2773 711.25 88.3012 667.549 103.359C623.874 118.405 590.482 146.477 569.739 189.079C553.366 222.701 544.87 265.379 545.417 317.843L545.42 317.852L545.412 317.873C532.892 402.221 510.271 510.115 448.225 571.735C386.139 633.397 284.644 648.735 114.46 547.855C34.4309 503.152 -69.1226 571.339 -172.165 646.725L-172.316 646.293C-69.1626 570.833 34.498 502.631 114.786 547.476C284.689 648.194 385.948 632.95 447.844 571.477C509.777 509.965 532.38 402.177 544.889 317.899C544.346 265.377 552.854 222.645 569.256 188.962C590.065 146.225 623.575 118.059 667.402 102.96C711.204 87.8698 765.307 85.8369 827.336 95.3546C930.73 111.222 1056.17 159.184 1192.65 232.263L1192.66 232.273C1403.26 367.288 1496.67 359.97 1551.01 303.218C1577.24 275.829 1594.4 236.91 1611.24 196.914L1611.25 196.906ZM1604.16 176.535L1604.39 177.197C1587.04 215.195 1569.5 252.31 1544.02 279.288C1488.81 337.737 1396.45 348.544 1188.4 217.542C1048.43 143.338 923.73 96.3338 821.469 80.1979C756.693 69.9755 700.928 72.1393 656.004 87.6197C611.105 103.092 577.018 131.878 555.575 174.901C539.231 207.688 530.223 248.749 529.359 298.489L529.357 298.505L529.354 298.518C514.383 383.482 492.391 490.416 432.617 551.989C372.798 613.61 275.216 629.813 109.139 533.187C28.7152 489.1 -74.5254 556.937 -177.279 632.038L-177.429 631.609C-74.5679 556.435 28.7868 488.581 109.467 532.814L109.469 532.819C275.258 629.274 372.605 613.167 432.232 551.742C491.903 490.273 513.876 383.43 528.834 298.528C529.702 248.736 538.727 207.622 555.096 174.783C576.611 131.622 610.806 102.745 655.861 87.2192C700.888 71.7026 756.752 69.5327 821.626 79.768C923.945 95.915 1048.7 142.939 1188.72 217.173L1188.74 217.18C1396.48 347.986 1488.62 337.285 1543.63 279.045C1569.17 251.998 1586.74 214.693 1604.16 176.539L1604.16 176.535ZM1597.13 156.349L1597.36 156.987C1579.59 192.929 1561.79 228.194 1537.17 254.649C1481.16 314.831 1390.03 329.369 1184.47 202.456C1041.85 127.517 918.054 81.3359 816.942 64.7439C748.855 53.5716 691.063 55.8184 644.745 71.7402C598.451 87.6536 563.601 117.234 541.379 160.741C525.07 192.67 515.554 232.104 513.3 279.138L513.302 279.146L513.294 279.168L513.05 280.36C496.096 363.661 475.281 465.917 421.105 527.722C363.935 592.944 269.693 613.124 103.826 518.529C23.0119 475.049 -79.9272 542.538 -182.388 617.356L-182.537 616.926C-79.9687 542.039 23.08 474.531 104.148 518.151L104.15 518.157C269.715 612.575 363.723 592.501 420.703 527.493C474.793 465.786 495.594 363.592 512.54 280.344L512.776 279.173C515.033 232.088 524.565 192.602 540.903 160.619C563.195 116.981 598.152 87.3073 644.602 71.3425C691.025 55.3873 748.919 53.1303 817.101 64.3196C918.27 80.9198 1042.12 127.121 1184.79 202.085L1184.81 202.093C1390.05 328.811 1480.96 314.385 1536.78 254.414C1561.46 227.889 1579.31 192.444 1597.14 156.357L1597.13 156.349ZM1590.17 136.34L1590.39 136.954C1572.43 170.574 1554.53 203.699 1530.99 229.405C1474.01 291.637 1384.06 310.36 1180.54 187.367C1036.27 112.185 913.669 66.7144 813.814 49.4879C741.849 37.0721 681.713 39.3277 633.8 55.7045C585.91 72.0729 550.225 102.553 527.143 146.598C510.87 177.649 500.856 215.441 497.246 259.782L497.244 259.798L497.24 259.812C495.818 265.983 494.39 272.25 492.948 278.588C474.538 359.453 453.399 452.282 403.937 509.626C348.881 573.462 258.802 593.332 98.5128 503.861C17.3066 460.994 -85.3231 528.133 -187.495 602.667L-187.645 602.234C-85.369 527.633 17.3738 460.473 98.8351 503.483C258.813 592.784 348.654 573.021 403.526 509.403C452.907 452.15 474.031 359.379 492.432 278.564C493.875 272.229 495.304 265.965 496.724 259.8C500.341 215.411 510.37 177.572 526.669 146.472C549.818 102.298 585.618 71.7241 633.66 55.3028C681.677 38.8898 741.919 36.6256 813.983 49.0571C913.888 66.2943 1036.54 111.78 1180.87 186.992L1180.88 186.997C1384.08 309.797 1473.81 291.188 1530.6 229.166C1554.21 203.385 1572.15 170.096 1590.17 136.34ZM1583.27 116.497L1583.48 117.091C1565.62 148.059 1547.9 178.685 1525.72 203.339C1467.51 268.039 1378.72 291.582 1176.62 172.281C975.559 68.293 820.287 22.2377 707.736 25.4353C668.752 26.5422 634.898 33.5611 606.051 46.1252C577.21 58.687 553.361 76.7959 534.385 100.093C505.635 135.385 488.05 182.583 481.191 240.435L481.194 240.444L481.185 240.462C478.295 251.704 475.425 263.305 472.514 275.064C453.223 353.033 432.189 438.054 386.817 491.576C333.889 554.014 247.928 573.596 93.2037 489.205C11.6077 446.945 -90.7185 513.741 -192.599 587.986L-192.749 587.553C-90.7654 513.238 11.6749 446.424 93.5242 488.821C247.938 573.046 333.669 553.572 386.406 491.354C431.702 437.916 452.725 352.95 472.004 275.029C474.902 263.318 477.758 251.766 480.673 240.44C487.545 182.514 505.162 135.24 533.972 99.8767C553.008 76.5088 576.931 58.343 605.866 45.7392C634.795 33.1405 668.724 26.1047 707.788 24.9948C820.431 21.7935 975.794 67.8669 1176.94 171.901L1176.95 171.907C1378.72 291.018 1467.3 267.591 1525.32 203.103C1547.57 178.371 1565.34 147.595 1583.27 116.497ZM1576.42 96.815L1576.62 97.3869L1576.27 97.9501C1559.05 125.641 1541.98 153.088 1521.67 176.103C1461.91 243.837 1374.23 273.135 1172.7 157.198C972.819 54.5314 821.055 9.08856 709.971 8.92297C666.258 8.8578 628.848 15.8035 597.291 29.0322C565.744 42.2571 540.041 61.7646 519.732 86.8264C491.583 121.559 473.783 166.958 465.132 221.087L465.135 221.096L465.128 221.11C460.611 237.053 456.261 253.554 451.865 270.223C432.131 345.068 411.479 423.404 369.751 473.561C318.976 534.59 237.081 553.908 87.8893 474.544C5.90588 432.888 -96.1213 499.339 -197.712 573.302L-197.862 572.869C-96.1697 498.843 5.9671 432.372 88.2028 474.163C237.078 553.362 318.744 534.148 369.334 473.343C410.996 423.266 431.637 344.984 451.355 270.185C455.743 253.537 460.087 237.063 464.617 221.079C473.283 166.879 491.113 121.413 519.313 86.6155C539.686 61.4786 565.468 41.9119 597.113 28.6437C628.744 15.383 666.237 8.41794 710.04 8.48333C821.209 8.6531 973.057 54.1108 1173.01 156.812L1173.02 156.818C1374.23 272.571 1461.69 243.401 1521.27 175.874C1541.54 152.895 1558.6 125.467 1575.81 97.7923L1576.42 96.8178L1576.42 96.815ZM1569.62 77.2811L1569.82 77.8334L1568.69 79.5127C1552.87 103.12 1537.17 126.543 1519.44 147.082C1457.6 218.694 1371.08 255.214 1168.76 142.104C925.451 17.9262 756.752 -21.7934 643.26 -3.13459C529.856 15.5092 471.583 92.4892 449.072 201.737L449.068 201.747L449.07 201.753C442.771 222.109 436.93 243.2 431.068 264.368C411.234 335.979 391.166 408.445 352.739 455.577C304.14 515.189 226.256 534.268 82.5738 459.88C0.202113 418.825 -101.524 484.938 -202.826 558.615L-202.976 558.182C-101.573 484.441 0.257384 418.315 82.882 459.495C226.249 533.724 303.906 514.751 352.324 455.365C390.685 408.312 410.742 335.891 430.562 264.328C436.426 243.147 442.271 222.042 448.558 201.709C471.113 92.2553 529.525 15.1271 643.219 -3.56445C756.83 -22.2394 925.652 17.4874 1169.07 141.724L1169.08 141.727C1371.05 254.645 1457.36 218.256 1519.02 146.857C1536.74 126.337 1552.43 102.93 1568.24 79.3386L1569.62 77.2835L1569.62 77.2811ZM1562.88 57.895L1563.07 58.4306L1561.17 61.0573C1547.79 79.5955 1534.5 98.0198 1520.21 114.962C1455.4 191.827 1370.24 238.261 1164.84 127.018C911.356 -1.58883 741.629 -39.1308 628.654 -18.8096C515.758 1.49622 459.538 79.6259 433.018 182.393L433.015 182.407C424.81 206.929 417.481 232.397 410.196 257.715C390.539 326.044 371.198 393.272 335.809 437.639C289.399 495.826 215.469 514.697 77.2648 445.224C-5.49234 404.778 -106.92 470.546 -207.929 543.936L-208.08 543.504C-106.968 470.05 -5.44154 404.266 77.5685 444.836C215.454 514.151 289.157 495.388 335.387 437.429C370.713 393.138 390.042 325.952 409.687 257.667C416.975 232.338 424.304 206.858 432.51 182.348C459.08 79.394 515.432 1.11563 628.609 -19.2383C741.706 -39.5797 911.555 -2.0304 1165.16 126.637L1165.16 126.636C1370.2 237.689 1455.16 191.398 1519.8 114.739C1534.08 97.8049 1547.37 79.3925 1560.74 60.8675L1562.88 57.8978L1562.88 57.895ZM1556.18 38.6428L1556.36 39.1617L1553.71 42.5733C1476.54 141.924 1401.98 237.922 1160.91 111.932C897.254 -21.1083 726.502 -56.4699 614.039 -34.4879C501.655 -12.5212 447.48 66.7607 416.952 163.045L416.947 163.053C406.678 191.592 397.894 221.254 389.263 250.406C370.003 315.438 351.502 377.913 318.943 419.729C274.741 476.491 204.713 495.18 71.9459 430.561C-11.1986 390.72 -112.326 456.145 -213.043 529.25L-213.193 528.817C-112.374 455.649 -11.1478 390.208 72.2477 430.168C204.689 494.631 274.498 476.05 318.517 419.52C351.025 377.779 369.512 315.343 388.758 250.35C397.39 221.198 406.176 191.532 416.449 162.982C447.033 66.5251 501.325 -12.9005 613.984 -34.9225C726.568 -56.9275 897.443 -21.5586 1161.22 111.541C1401.86 237.311 1476.27 141.509 1553.28 42.3616L1556.17 38.6369L1556.18 38.6428ZM1549.53 19.5218L1549.7 20.0239L1546.33 24.0589C1466.04 120.14 1388.42 213.028 1156.99 96.8432C728.702 -118.168 550.088 -78.0646 459.559 35.5521C413.419 93.4577 390.129 170.479 368.332 242.558C349.662 304.301 332.087 362.423 302.171 401.858C260.193 457.193 194.002 475.735 66.6393 415.9C-16.8901 376.659 -117.715 441.748 -218.147 514.569L-218.298 514.136C-117.771 441.254 -16.8407 376.154 66.9377 415.509C193.975 475.188 259.948 456.756 301.744 401.656C331.606 362.29 349.171 304.206 367.828 242.505C389.639 170.386 412.939 93.3248 459.141 35.344C549.84 -78.488 728.672 -118.724 1157.3 96.4576C1388.32 212.434 1465.78 119.731 1545.92 23.8389L1549.53 19.5218ZM-110.996 822.531C-4.35225 743.645 103.077 671.164 178.583 723.43C300.426 807.769 400.321 843.743 480.335 848.417C538.623 851.821 586.358 838.612 624.336 815.39C662.321 792.166 690.551 758.925 709.832 722.277C740.057 664.82 748.276 598.988 737.564 550.227C717.821 460.341 720.97 397.246 739.642 354.542C756.355 316.323 785.493 294.426 821.783 284.27C858.037 274.127 901.423 275.713 946.678 284.459C1060.42 306.436 1186.03 373.634 1239.81 413.335C1316.8 470.158 1380.67 511.932 1433.75 541.313L1433.15 541.521C1380.08 512.139 1316.28 470.402 1239.44 413.682C1185.68 374.007 1060.16 306.852 946.494 284.889C901.326 276.16 858.033 274.572 821.881 284.686C785.764 294.791 756.766 316.59 740.127 354.643C721.488 397.272 718.35 460.288 738.075 550.09C748.803 598.93 740.573 664.863 710.3 722.408C690.978 759.136 662.681 792.453 624.6 815.736C586.517 839.023 538.658 852.269 480.228 848.855C400.126 844.177 300.142 808.178 178.217 723.783C102.981 671.704 -4.32761 744.162 -110.849 822.964L-111.001 822.529L-110.996 822.531Z" fill="white"/>
</mask>
<g mask="url(#mask0_529_3488)">
<path d="M1411.16 -378.169L-319.278 223.91L-25.707 1067.66L1704.73 465.584L1411.16 -378.169Z" fill="#98CBE8"/>
</g>
</svg>
