<svg width="38" height="23" viewBox="0 0 38 23" fill="none" xmlns="http://www.w3.org/2000/svg">
<g id="Group">
<path id="Vector" d="M0.408654 12.2483C0.185206 11.9355 0.24636 11.5027 0.542722 11.2604C3.24997 9.03772 4.72237 6.88086 6.27239 4.60875C7.18265 3.27512 8.11878 1.90386 9.31128 0.499664C9.58648 0.177428 10.0781 0.153908 10.3815 0.45027L12.7641 2.78589C13.0346 3.05167 13.0582 3.4821 12.8135 3.77376C11.8492 4.93099 11.0589 6.08821 10.2286 7.30189C8.59625 9.69395 6.76398 12.38 3.3958 15.1061C3.06651 15.3719 2.58198 15.3084 2.33736 14.9626L0.408654 12.2483Z" fill="#9C9D9D"/>
<path id="Vector_2" d="M5.56668 19.5918C5.3597 19.2649 5.44437 18.8345 5.75955 18.6087C9.40998 15.9908 11.1082 13.5023 12.9028 10.875C15.142 7.59385 17.6705 3.88932 24.0493 0.10247C24.4069 -0.109217 24.8726 0.0177954 25.0701 0.38472L26.6437 3.32012C26.8272 3.66352 26.7095 4.0916 26.3756 4.29153C21.0034 7.50212 18.99 10.454 16.8614 13.5728C14.975 16.3365 12.8534 19.446 8.39388 22.6119C8.05283 22.8542 7.57536 22.7624 7.34956 22.4073L5.56903 19.5918H5.56668Z" fill="#9C9D9D"/>
<path id="Vector_3" d="M18.0986 20.4177C17.8022 20.1731 17.7458 19.738 17.9716 19.4275C18.4326 18.7924 18.8701 18.1527 19.324 17.487C21.6455 14.0859 24.2752 10.2332 31.1809 6.30053C32.5592 5.51493 33.8693 4.8587 35.1582 4.30596C35.5463 4.13897 35.9956 4.33419 36.1367 4.73169L37.2563 7.87172C37.3857 8.23159 37.214 8.63144 36.8635 8.78433C35.798 9.25004 34.7066 9.80278 33.5494 10.4614C27.6033 13.846 25.5029 16.9249 23.2779 20.1849C22.7839 20.9093 22.2759 21.6526 21.7231 22.4052C21.4738 22.7439 20.9916 22.8074 20.6671 22.5393L18.0962 20.4177H18.0986Z" fill="#9C9D9D"/>
</g>
</svg>
