<svg width="101" height="18" viewBox="0 0 101 18" fill="none" xmlns="http://www.w3.org/2000/svg">
<g id="Group">
<path id="Vector" d="M9.6018 9.08947L7.96005 14.2429C7.77894 14.8238 7.59077 15.3366 7.3932 15.7764C7.19562 16.2186 6.97923 16.5856 6.74167 16.8796C6.50411 17.1736 6.23362 17.397 5.93256 17.5476C5.63149 17.6981 5.28338 17.7734 4.89058 17.7734C4.57305 17.7734 4.28845 17.7193 4.03442 17.6087C3.7804 17.4982 3.55225 17.3265 3.34291 17.0936C3.13593 16.8607 2.94541 16.5573 2.77606 16.1881C2.60671 15.8188 2.44677 15.3719 2.29388 14.8521L0.729748 9.61869C0.647425 9.36231 0.553343 9.09182 0.452204 8.80957C0.351064 8.52732 0.299316 8.25918 0.299316 8.01222C0.299316 7.76525 0.334599 7.53945 0.407514 7.33717C0.478076 7.13724 0.576864 6.96789 0.701524 6.82677C0.826184 6.68799 0.974364 6.57745 1.14842 6.49747C1.32247 6.4175 1.51064 6.37752 1.71527 6.37752C1.95754 6.37752 2.17863 6.42456 2.37856 6.51864C2.57849 6.61273 2.75489 6.74209 2.91013 6.90438C3.06537 7.06668 3.19708 7.2619 3.30763 7.4877C3.41818 7.7135 3.50286 7.96047 3.56166 8.2239L5.25045 14.7133L7.09684 9.073C7.20974 8.70373 7.32969 8.35092 7.45435 8.01927C7.57901 7.68763 7.7366 7.39597 7.92477 7.14665C8.11293 6.89733 8.34109 6.69975 8.60922 6.55157C8.87736 6.40339 9.21136 6.33048 9.61121 6.33048C9.98049 6.33048 10.2933 6.38222 10.552 6.48336C10.8084 6.5845 11.0295 6.73739 11.2153 6.94202C11.4011 7.14665 11.5587 7.40303 11.6905 7.71115C11.8222 8.02162 11.9445 8.37914 12.0597 8.78605L13.8144 14.6192C14.0778 13.6384 14.346 12.6623 14.6117 11.6909C14.8799 10.7195 15.1457 9.7457 15.4091 8.76253C15.4844 8.46146 15.5761 8.1651 15.6819 7.87344C15.7878 7.58178 15.9148 7.32306 16.0677 7.09255C16.2182 6.86205 16.397 6.67623 16.5992 6.53746C16.8039 6.39869 17.0438 6.32812 17.3237 6.32812C17.7776 6.32812 18.1281 6.46925 18.3774 6.75385C18.6267 7.0361 18.7514 7.40538 18.7514 7.85698C18.7514 8.07572 18.7138 8.31799 18.6385 8.58142C18.5632 8.84485 18.4833 9.09888 18.4009 9.34114L16.7122 14.551C16.5757 14.9814 16.4299 15.3907 16.27 15.7788C16.1124 16.1669 15.9289 16.5103 15.7196 16.8043C15.5126 17.0983 15.2703 17.3335 14.9951 17.5076C14.7199 17.6816 14.3883 17.7687 14.0049 17.7687C13.6662 17.7687 13.3604 17.7122 13.0923 17.5993C12.8242 17.4864 12.5819 17.2935 12.3608 17.0207C12.1421 16.7478 11.9351 16.3856 11.7375 15.934C11.5399 15.4801 11.3447 14.9109 11.1495 14.2241L9.5971 9.08241L9.6018 9.08947Z" fill="#9C9D9D"/>
<path id="Vector_2" d="M27.2825 10.3233C27.2825 9.6882 27.1155 9.23895 26.7791 8.97552C26.4428 8.71208 25.9912 8.57801 25.4267 8.57801C25.088 8.57801 24.7704 8.59683 24.4764 8.63446C24.1824 8.6721 23.9049 8.71914 23.6438 8.77559C23.3827 8.83204 23.1357 8.89084 22.9029 8.95199C22.6677 9.01315 22.4466 9.0696 22.2349 9.12134C22.0608 9.16603 21.9056 9.18955 21.7715 9.18955C21.5222 9.18955 21.2964 9.10958 21.0965 8.94494C20.8966 8.78264 20.7954 8.5592 20.7954 8.26989C20.7954 7.98058 20.866 7.74538 21.0095 7.53369C21.1529 7.322 21.3482 7.13854 21.5928 6.9833C21.8374 6.82806 22.122 6.70105 22.4489 6.59756C22.7735 6.49642 23.1146 6.4141 23.4744 6.35294C23.832 6.29179 24.2012 6.24945 24.5799 6.22358C24.9563 6.19771 25.3208 6.18359 25.6666 6.18359C26.391 6.18359 27.0567 6.26592 27.6612 6.42821C28.2656 6.5905 28.7831 6.86099 29.2182 7.23733C29.6534 7.61601 29.9921 8.10995 30.2367 8.72149C30.4813 9.33303 30.6036 10.0857 30.6036 10.9748V15.5049C30.6036 15.7989 30.5848 16.0835 30.5472 16.354C30.5095 16.6268 30.4343 16.8668 30.3214 17.0784C30.2085 17.2901 30.0462 17.4571 29.8345 17.5818C29.6228 17.7064 29.3429 17.7676 28.9971 17.7676C28.4538 17.7676 28.0516 17.5888 27.7905 17.229C27.5294 16.8715 27.4001 16.3587 27.4001 15.6954C27.2025 16.0812 26.9649 16.4128 26.6803 16.6927C26.3981 16.9726 26.0853 17.2007 25.7466 17.3772C25.4079 17.5536 25.0456 17.6876 24.6646 17.7747C24.2836 17.8617 23.8955 17.904 23.5027 17.904C22.9735 17.904 22.4842 17.8264 22.0303 17.6712C21.5763 17.5159 21.1859 17.2972 20.8589 17.0149C20.5296 16.7327 20.2733 16.3916 20.0898 15.9965C19.904 15.599 19.8123 15.1568 19.8123 14.6652C19.8123 13.9784 19.9557 13.388 20.2427 12.8988C20.5296 12.4072 20.946 12.0073 21.494 11.6992C22.042 11.3888 22.71 11.163 23.498 11.0195C24.2859 10.876 25.1868 10.8054 26.1982 10.8054H27.2848V10.3186L27.2825 10.3233ZM27.2707 12.4966C26.758 12.4825 26.2476 12.4895 25.7419 12.5201C25.2362 12.5507 24.7822 12.6307 24.3824 12.7647C23.9825 12.8964 23.6603 13.0917 23.4133 13.348C23.1687 13.6044 23.0464 13.9525 23.0464 14.39C23.0464 14.6323 23.0911 14.851 23.1828 15.0462C23.2745 15.2415 23.3992 15.4132 23.5615 15.5566C23.7238 15.7001 23.9166 15.8107 24.1401 15.8859C24.3635 15.9612 24.6105 15.9988 24.881 15.9988C25.2291 15.9988 25.5466 15.9377 25.8383 15.813C26.1299 15.6884 26.3793 15.5072 26.591 15.2697C26.8026 15.0321 26.9673 14.7405 27.0896 14.3971C27.2096 14.0537 27.2707 13.6585 27.2707 13.214V12.5013V12.4966Z" fill="#9C9D9D"/>
<path id="Vector_3" d="M40.9763 15.2596C40.8187 15.7135 40.64 16.0993 40.4448 16.4215C40.2472 16.7414 40.0284 17.0025 39.7885 17.2024C39.5463 17.4023 39.2758 17.5481 38.9723 17.6375C38.6713 17.7293 38.3302 17.7739 37.9539 17.7739C37.4999 17.7739 37.1119 17.7034 36.7873 17.5599C36.4627 17.4164 36.171 17.1977 35.9099 16.9037C35.6489 16.6097 35.4089 16.238 35.1902 15.7888C34.9715 15.3395 34.748 14.808 34.5222 14.1964L32.6993 9.3041C32.617 9.09241 32.5253 8.86426 32.4265 8.61964C32.3277 8.37503 32.2783 8.14923 32.2783 7.9446C32.2783 7.70939 32.3207 7.4977 32.403 7.30483C32.4853 7.11196 32.6006 6.94731 32.7487 6.81324C32.8969 6.67918 33.0686 6.57098 33.2638 6.49571C33.4591 6.42045 33.6707 6.38281 33.8989 6.38281C34.1623 6.38281 34.414 6.46514 34.6516 6.62743C34.8891 6.78972 35.1032 6.99435 35.2913 7.24367C35.4795 7.493 35.6441 7.76584 35.7829 8.05985C35.9217 8.35386 36.0275 8.62905 36.0934 8.88778L37.9515 14.6527L39.9343 8.46911C40.0167 8.18216 40.1178 7.91167 40.2354 7.65999C40.353 7.40597 40.4894 7.18722 40.6494 6.99671C40.807 6.80854 40.9881 6.65801 41.188 6.54981C41.3879 6.44161 41.6161 6.38517 41.8725 6.38517C42.0912 6.38517 42.3029 6.41809 42.5075 6.4863C42.7122 6.55452 42.8909 6.6533 43.0462 6.78737C43.2014 6.91909 43.3261 7.08138 43.4201 7.27425C43.5142 7.46712 43.5613 7.69057 43.5613 7.9493C43.5613 8.14452 43.5166 8.36797 43.4248 8.61729C43.3331 8.86661 43.2508 9.09712 43.1755 9.3088C42.8133 10.3131 42.4487 11.3081 42.0818 12.2936C41.7149 13.2791 41.3479 14.2693 40.9787 15.2666L40.9763 15.2596Z" fill="#9C9D9D"/>
<path id="Vector_4" d="M56.5048 11.7047C56.5048 12.0152 56.4036 12.2457 56.199 12.3962C55.9944 12.5467 55.7121 12.622 55.3499 12.622H48.3383C48.376 13.5346 48.6394 14.2426 49.1263 14.7459C49.6132 15.2493 50.3541 15.4986 51.3513 15.4986C51.6759 15.4986 51.9794 15.4774 52.264 15.4374C52.5462 15.3951 52.8238 15.3387 53.0966 15.2681C53.3694 15.1975 53.6399 15.1152 53.9128 15.0235C54.1856 14.9317 54.4679 14.8377 54.7619 14.7412C54.8607 14.7036 54.9477 14.6848 55.023 14.6848C55.2723 14.6848 55.4722 14.7812 55.6227 14.9741C55.7733 15.167 55.8485 15.3904 55.8485 15.6491C55.8485 15.7997 55.8227 15.9431 55.7686 16.0796C55.618 16.4418 55.3687 16.7428 55.0206 16.9804C54.6725 17.218 54.2726 17.4061 53.821 17.5473C53.3671 17.686 52.8873 17.7825 52.3816 17.8366C51.8759 17.8883 51.3913 17.9165 50.9327 17.9165C50.0648 17.9165 49.2533 17.7919 48.503 17.5426C47.7527 17.2932 47.1011 16.924 46.5484 16.4324C45.998 15.9408 45.5652 15.3269 45.2524 14.586C44.9396 13.8451 44.782 12.9889 44.782 12.0152C44.782 11.199 44.9325 10.4369 45.2359 9.72659C45.537 9.01626 45.958 8.40236 46.499 7.8802C47.0376 7.35804 47.6797 6.94878 48.4254 6.64536C49.1686 6.34429 49.9871 6.19141 50.8786 6.19141C51.8453 6.19141 52.6803 6.33959 53.3812 6.6383C54.0845 6.93702 54.6654 7.33687 55.1264 7.83786C55.5874 8.34121 55.9308 8.92453 56.1566 9.59252C56.3824 10.2605 56.5001 10.9661 56.5071 11.7047H56.5048ZM53.48 11.0132C53.4565 10.6133 53.3883 10.244 53.2706 9.90299C53.153 9.56429 52.9884 9.26793 52.772 9.01861C52.558 8.76929 52.2922 8.57407 51.9794 8.43529C51.6665 8.29652 51.3019 8.22596 50.8856 8.22596C50.5069 8.22596 50.1659 8.29887 49.8601 8.44705C49.5544 8.59523 49.2909 8.79516 49.0675 9.04683C48.844 9.30086 48.67 9.59487 48.5453 9.93122C48.4207 10.2676 48.3477 10.6274 48.3242 11.0132H53.4776H53.48Z" fill="#9C9D9D"/>
<path id="Vector_5" d="M62.3169 15.5456C62.3169 16.263 62.1711 16.8134 61.8818 17.1992C61.5901 17.5849 61.1103 17.7778 60.4376 17.7778C59.8025 17.7778 59.3556 17.5849 59.0945 17.1992C58.8335 16.8134 58.7041 16.263 58.7041 15.5456V8.07072C58.7041 7.79082 58.7558 7.54621 58.857 7.33452C58.9581 7.12283 59.0945 6.94878 59.2639 6.81236C59.4332 6.67594 59.6285 6.57009 59.8472 6.49483C60.066 6.41956 60.2965 6.38193 60.5387 6.38193C61.1267 6.38193 61.5713 6.57009 61.87 6.94878C62.1687 7.32746 62.3169 7.88961 62.3169 8.63757C62.4463 7.8755 62.7544 7.27572 63.246 6.84293C63.7376 6.4078 64.3679 6.19141 65.137 6.19141C65.3723 6.19141 65.5792 6.23139 65.7603 6.31136C65.9415 6.39133 66.092 6.49483 66.2143 6.62184C66.3343 6.7512 66.426 6.89703 66.4871 7.06403C66.5483 7.23103 66.5789 7.39567 66.5789 7.56267C66.5789 8.04485 66.4119 8.40236 66.0755 8.63287C65.7392 8.86337 65.2876 8.99744 64.7231 9.03507C64.3844 9.06565 64.0669 9.12916 63.7775 9.22794C63.4859 9.32673 63.2342 9.47256 63.0178 9.66308C62.8014 9.8536 62.6321 10.1029 62.5074 10.404C62.3828 10.7051 62.3216 11.0767 62.3216 11.5142V15.5456H62.3169Z" fill="#9C9D9D"/>
<path id="Vector_6" d="M71.6499 15.5441C71.6499 16.2615 71.5041 16.8118 71.2148 17.1976C70.9231 17.5833 70.4433 17.7762 69.7706 17.7762C69.1355 17.7762 68.6886 17.5833 68.4276 17.1976C68.1665 16.8118 68.0371 16.2615 68.0371 15.5441V3.57197C68.0371 2.85458 68.1665 2.3042 68.4276 1.91846C68.6886 1.53271 69.1355 1.33984 69.7706 1.33984C70.4433 1.33984 70.9231 1.53271 71.2148 1.91846C71.5064 2.3042 71.6499 2.85458 71.6499 3.57197V15.5441Z" fill="#9C9D9D"/>
<path id="Vector_7" d="M78.0948 2.34912C78.0948 2.59844 78.0383 2.81954 77.9254 3.01241C77.8125 3.20528 77.6643 3.36522 77.4832 3.49459C77.3021 3.62395 77.0928 3.72039 76.8552 3.78389C76.6177 3.8474 76.373 3.88033 76.1237 3.88033C75.8603 3.88033 75.6086 3.8474 75.3711 3.77919C75.1335 3.71098 74.9242 3.61219 74.743 3.47812C74.5619 3.34641 74.4185 3.18647 74.3126 2.99595C74.2068 2.80778 74.155 2.59139 74.155 2.35148C74.155 2.13273 74.2068 1.93045 74.3079 1.74464C74.409 1.55882 74.5478 1.39888 74.7219 1.26246C74.8959 1.12604 75.1029 1.0202 75.3452 0.944931C75.5874 0.869665 75.8509 0.832031 76.1378 0.832031C76.3872 0.832031 76.6294 0.86496 76.8693 0.933171C77.1069 1.00138 77.3162 1.10017 77.4973 1.22718C77.6784 1.35655 77.8243 1.51414 77.9325 1.7023C78.0407 1.89047 78.0971 2.10686 78.0971 2.34677L78.0948 2.34912ZM77.9231 15.5443C77.9231 16.2617 77.7772 16.8121 77.4879 17.1978C77.1963 17.5836 76.7164 17.7764 76.0437 17.7764C75.4087 17.7764 74.9618 17.5836 74.7007 17.1978C74.4396 16.8121 74.3103 16.2617 74.3103 15.5443V8.61272C74.3103 7.89533 74.4396 7.34495 74.7007 6.95921C74.9618 6.57346 75.4087 6.38059 76.0437 6.38059C76.7164 6.38059 77.1963 6.57346 77.4879 6.95921C77.7796 7.34495 77.9231 7.89533 77.9231 8.61272V15.5443Z" fill="#9C9D9D"/>
<path id="Vector_8" d="M81.6626 6.33392L81.912 3.9889C81.9355 3.7631 81.9731 3.53495 82.0319 3.30915C82.0884 3.08335 82.1801 2.87401 82.3048 2.68584C82.4294 2.49768 82.5964 2.34479 82.8081 2.22719C83.0198 2.10958 83.295 2.05078 83.6361 2.05078C84.1347 2.05078 84.4946 2.22484 84.718 2.57294C84.9415 2.92105 85.052 3.43851 85.052 4.12532V6.33392H86.3198C86.7055 6.33392 87.0183 6.43036 87.2606 6.62323C87.5029 6.8161 87.6228 7.11952 87.6228 7.53584C87.6228 7.92158 87.4935 8.21088 87.2371 8.4014C86.9807 8.59427 86.6326 8.69071 86.1951 8.69071H85.052V12.9715C85.052 13.4255 85.0591 13.8088 85.0755 14.1264C85.0896 14.4439 85.139 14.7026 85.2237 14.9026C85.306 15.1025 85.4307 15.246 85.5977 15.333C85.7647 15.42 86.0022 15.4624 86.3104 15.4624C86.5291 15.4624 86.7431 15.4718 86.9501 15.4906C87.1571 15.5094 87.3406 15.5564 87.5005 15.6317C87.6581 15.707 87.7851 15.8175 87.8792 15.9657C87.9733 16.1139 88.0203 16.3162 88.0203 16.5725C88.0203 16.8595 87.9474 17.09 87.8063 17.2641C87.6628 17.4381 87.4558 17.5722 87.19 17.6663C86.9219 17.7603 86.602 17.8238 86.228 17.8591C85.8541 17.8921 85.4377 17.9109 84.9767 17.9109C84.4475 17.9038 83.9677 17.8238 83.5326 17.6733C83.0974 17.5228 82.7234 17.2829 82.4106 16.9536C82.0978 16.6243 81.8555 16.1986 81.6862 15.674C81.5168 15.1495 81.4322 14.5051 81.4322 13.743V8.69071H80.91C80.5031 8.69071 80.162 8.59427 79.8915 8.4014C79.6187 8.20853 79.4846 7.89806 79.4846 7.46763C79.4846 7.12893 79.5928 6.85373 79.8069 6.64675C80.0209 6.43977 80.3478 6.33628 80.7877 6.33628H81.6721L81.6626 6.33392Z" fill="#9C9D9D"/>
<path id="Vector_9" d="M100.724 11.7047C100.724 12.0152 100.623 12.2457 100.418 12.3962C100.214 12.5467 99.9313 12.622 99.5691 12.622H92.5576C92.5952 13.5346 92.8586 14.2426 93.3455 14.7459C93.8324 15.2493 94.5733 15.4986 95.5706 15.4986C95.8952 15.4986 96.1986 15.4774 96.4832 15.4374C96.7654 15.3951 97.043 15.3387 97.3158 15.2681C97.5887 15.1975 97.8592 15.1152 98.132 15.0235C98.4048 14.9317 98.6871 14.8377 98.9811 14.7412C99.0799 14.7036 99.1669 14.6848 99.2422 14.6848C99.4915 14.6848 99.6914 14.7812 99.842 14.9741C99.9925 15.167 100.068 15.3904 100.068 15.6491C100.068 15.7997 100.042 15.9431 99.9878 16.0796C99.8373 16.4418 99.5879 16.7428 99.2398 16.9804C98.8917 17.218 98.4919 17.4061 98.0403 17.5473C97.5863 17.686 97.1065 17.7825 96.6008 17.8366C96.0951 17.8883 95.6106 17.9165 95.1519 17.9165C94.284 17.9165 93.4725 17.7919 92.7222 17.5426C91.9719 17.2932 91.3204 16.924 90.7676 16.4324C90.2172 15.9408 89.7845 15.3269 89.4716 14.586C89.1588 13.8451 89.0012 12.9889 89.0012 12.0152C89.0012 11.199 89.1518 10.4369 89.4552 9.72659C89.7562 9.01626 90.1773 8.40236 90.7182 7.8802C91.2569 7.35804 91.899 6.94878 92.6446 6.64536C93.3879 6.34429 94.2064 6.19141 95.0978 6.19141C96.0645 6.19141 96.8995 6.33959 97.6004 6.6383C98.3037 6.93702 98.8847 7.33687 99.3457 7.83786C99.8067 8.34121 100.15 8.92453 100.376 9.59252C100.602 10.2605 100.719 10.9661 100.726 11.7047H100.724ZM97.6992 11.0132C97.6757 10.6133 97.6075 10.244 97.4899 9.90299C97.3723 9.56429 97.2076 9.26793 96.9912 9.01861C96.7772 8.76929 96.5114 8.57407 96.1986 8.43529C95.8858 8.29652 95.5212 8.22596 95.1049 8.22596C94.7262 8.22596 94.3851 8.29887 94.0794 8.44705C93.7736 8.59523 93.5102 8.79516 93.2867 9.04683C93.0633 9.30086 92.8892 9.59487 92.7646 9.93122C92.6399 10.2676 92.567 10.6274 92.5435 11.0132H97.6969H97.6992Z" fill="#9C9D9D"/>
</g>
</svg>
