<svg width="101" height="18" viewBox="0 0 101 18" fill="none" xmlns="http://www.w3.org/2000/svg">
<g id="Group">
<path id="Vector" d="M9.32812 8.73644L7.68637 13.8899C7.50526 14.4708 7.31709 14.9836 7.11952 15.4234C6.92194 15.8656 6.70555 16.2325 6.46799 16.5265C6.23043 16.8205 5.95994 17.044 5.65887 17.1945C5.35781 17.3451 5.0097 17.4203 4.6169 17.4203C4.29937 17.4203 4.01477 17.3662 3.76074 17.2557C3.50672 17.1451 3.27857 16.9734 3.06923 16.7406C2.86225 16.5077 2.67173 16.2043 2.50238 15.835C2.33303 15.4657 2.17309 15.0189 2.0202 14.499L0.456066 9.26566C0.373743 9.00928 0.279662 8.73879 0.178522 8.45654C0.0773827 8.17429 0.0256348 7.90616 0.0256348 7.65919C0.0256348 7.41222 0.0609176 7.18642 0.133832 6.98414C0.204395 6.78421 0.303182 6.61486 0.427842 6.47374C0.552503 6.33497 0.700683 6.22442 0.874737 6.14445C1.04879 6.06448 1.23696 6.02449 1.44159 6.02449C1.68385 6.02449 1.90495 6.07153 2.10488 6.16562C2.30481 6.2597 2.48121 6.38906 2.63645 6.55136C2.79169 6.71365 2.9234 6.90887 3.03395 7.13467C3.1445 7.36047 3.22917 7.60744 3.28798 7.87088L4.97677 14.3603L6.82315 8.71998C6.93606 8.3507 7.05601 7.99789 7.18067 7.66624C7.30533 7.3346 7.46292 7.04294 7.65109 6.79362C7.83925 6.5443 8.0674 6.34673 8.33554 6.19854C8.60368 6.05036 8.93768 5.97745 9.33753 5.97745C9.70681 5.97745 10.0196 6.0292 10.2784 6.13034C10.5347 6.23147 10.7558 6.38436 10.9417 6.58899C11.1275 6.79362 11.2851 7.05 11.4168 7.35812C11.5485 7.6686 11.6708 8.02611 11.7861 8.43302L13.5407 14.2662C13.8041 13.2854 14.0723 12.3093 14.3381 11.3378C14.6062 10.3664 14.872 9.39267 15.1354 8.4095C15.2107 8.10844 15.3024 7.81207 15.4083 7.52042C15.5141 7.22876 15.6411 6.97003 15.794 6.73952C15.9445 6.50902 16.1233 6.32321 16.3256 6.18443C16.5302 6.04566 16.7701 5.9751 17.05 5.9751C17.504 5.9751 17.8544 6.11622 18.1037 6.40082C18.3531 6.68307 18.4777 7.05235 18.4777 7.50395C18.4777 7.72269 18.4401 7.96496 18.3648 8.22839C18.2896 8.49183 18.2096 8.74585 18.1273 8.98811L16.4385 14.198C16.302 14.6284 16.1562 15.0377 15.9963 15.4258C15.8387 15.8139 15.6552 16.1573 15.4459 16.4513C15.2389 16.7453 14.9966 16.9805 14.7214 17.1545C14.4463 17.3286 14.1146 17.4156 13.7312 17.4156C13.3925 17.4156 13.0867 17.3592 12.8186 17.2463C12.5505 17.1334 12.3082 16.9405 12.0871 16.6677C11.8684 16.3948 11.6614 16.0326 11.4638 15.581C11.2662 15.127 11.071 14.5578 10.8758 13.871L9.32342 8.72939L9.32812 8.73644Z" fill="#E9EAEA"/>
<path id="Vector_2" d="M27.0087 9.97121C27.0087 9.33615 26.8417 8.8869 26.5053 8.62346C26.169 8.36003 25.7174 8.22596 25.1529 8.22596C24.8142 8.22596 24.4966 8.24478 24.2026 8.28241C23.9086 8.32005 23.6311 8.36709 23.37 8.42354C23.1089 8.47999 22.8619 8.53879 22.6291 8.59994C22.3939 8.6611 22.1728 8.71755 21.9611 8.76929C21.787 8.81398 21.6318 8.8375 21.4977 8.8375C21.2484 8.8375 21.0226 8.75753 20.8227 8.59289C20.6228 8.43059 20.5216 8.20715 20.5216 7.91784C20.5216 7.62853 20.5922 7.39333 20.7357 7.18164C20.8791 6.96995 21.0744 6.78649 21.319 6.63125C21.5636 6.47601 21.8482 6.349 22.1751 6.24551C22.4997 6.14437 22.8408 6.06205 23.2006 6.00089C23.5582 5.93974 23.9274 5.8974 24.3061 5.87153C24.6825 5.84566 25.047 5.83154 25.3928 5.83154C26.1172 5.83154 26.7829 5.91387 27.3874 6.07616C27.9918 6.23845 28.5093 6.50894 28.9444 6.88528C29.3796 7.26396 29.7183 7.7579 29.9629 8.36944C30.2075 8.98098 30.3298 9.73365 30.3298 10.6227V15.1528C30.3298 15.4469 30.311 15.7315 30.2734 16.0019C30.2357 16.2748 30.1605 16.5147 30.0476 16.7264C29.9347 16.9381 29.7724 17.1051 29.5607 17.2297C29.349 17.3544 29.0691 17.4155 28.7233 17.4155C28.18 17.4155 27.7778 17.2368 27.5167 16.8769C27.2556 16.5194 27.1263 16.0067 27.1263 15.3434C26.9287 15.7291 26.6911 16.0607 26.4065 16.3406C26.1243 16.6205 25.8115 16.8487 25.4728 17.0251C25.1341 17.2015 24.7718 17.3356 24.3908 17.4226C24.0098 17.5096 23.6217 17.552 23.2289 17.552C22.6997 17.552 22.2104 17.4743 21.7565 17.3191C21.3025 17.1639 20.9121 16.9451 20.5851 16.6629C20.2558 16.3806 19.9995 16.0396 19.816 15.6444C19.6302 15.2469 19.5385 14.8047 19.5385 14.3132C19.5385 13.6263 19.6819 13.036 19.9689 12.5467C20.2558 12.0552 20.6722 11.6553 21.2202 11.3472C21.7682 11.0367 22.4362 10.8109 23.2242 10.6674C24.0121 10.5239 24.913 10.4534 25.9244 10.4534H27.011V9.9665L27.0087 9.97121ZM26.9969 12.1445C26.4841 12.1304 25.9737 12.1375 25.4681 12.1681C24.9624 12.1986 24.5084 12.2786 24.1085 12.4127C23.7087 12.5444 23.3865 12.7396 23.1395 12.996C22.8949 13.2524 22.7726 13.6005 22.7726 14.038C22.7726 14.2802 22.8173 14.499 22.909 14.6942C23.0007 14.8894 23.1254 15.0611 23.2877 15.2046C23.45 15.3481 23.6428 15.4586 23.8663 15.5339C24.0897 15.6091 24.3367 15.6468 24.6072 15.6468C24.9553 15.6468 25.2728 15.5856 25.5645 15.461C25.8561 15.3363 26.1055 15.1552 26.3172 14.9176C26.5288 14.6801 26.6935 14.3884 26.8158 14.045C26.9358 13.7016 26.9969 13.3065 26.9969 12.8619V12.1492V12.1445Z" fill="#E9EAEA"/>
<path id="Vector_3" d="M40.7023 14.908C40.5447 15.362 40.3659 15.7477 40.1707 16.0699C39.9731 16.3898 39.7544 16.6509 39.5145 16.8508C39.2722 17.0508 39.0017 17.1966 38.6983 17.286C38.3972 17.3777 38.0562 17.4224 37.6798 17.4224C37.2259 17.4224 36.8378 17.3518 36.5132 17.2083C36.1886 17.0649 35.897 16.8461 35.6359 16.5521C35.3748 16.2581 35.1349 15.8865 34.9162 15.4372C34.6974 14.988 34.474 14.4564 34.2482 13.8449L32.4253 8.95254C32.343 8.74085 32.2512 8.5127 32.1525 8.26808C32.0537 8.02346 32.0043 7.79766 32.0043 7.59303C32.0043 7.35782 32.0466 7.14614 32.1289 6.95327C32.2113 6.7604 32.3265 6.59575 32.4747 6.46168C32.6229 6.32761 32.7946 6.21942 32.9898 6.14415C33.185 6.06888 33.3967 6.03125 33.6249 6.03125C33.8883 6.03125 34.14 6.11357 34.3775 6.27587C34.6151 6.43816 34.8291 6.64279 35.0173 6.89211C35.2055 7.14143 35.3701 7.41427 35.5089 7.70828C35.6476 8.0023 35.7535 8.27749 35.8194 8.53622L37.6775 14.3012L39.6603 8.11755C39.7426 7.83059 39.8438 7.5601 39.9614 7.30843C40.079 7.05441 40.2154 6.83566 40.3753 6.64514C40.5329 6.45698 40.714 6.30644 40.914 6.19825C41.1139 6.09005 41.342 6.0336 41.5984 6.0336C41.8172 6.0336 42.0288 6.06653 42.2335 6.13474C42.4381 6.20295 42.6169 6.30174 42.7721 6.43581C42.9273 6.56753 43.052 6.72982 43.1461 6.92269C43.2402 7.11556 43.2872 7.33901 43.2872 7.59774C43.2872 7.79296 43.2425 8.01641 43.1508 8.26573C43.0591 8.51505 42.9767 8.74555 42.9015 8.95724C42.5392 9.96158 42.1747 10.9565 41.8078 11.942C41.4408 12.9276 41.0739 13.9178 40.7046 14.9151L40.7023 14.908Z" fill="#E9EAEA"/>
<path id="Vector_4" d="M56.231 11.3517C56.231 11.6621 56.1298 11.8926 55.9252 12.0432C55.7206 12.1937 55.4383 12.269 55.0761 12.269H48.0645C48.1022 13.1816 48.3656 13.8896 48.8525 14.3929C49.3394 14.8962 50.0803 15.1456 51.0775 15.1456C51.4021 15.1456 51.7055 15.1244 51.9902 15.0844C52.2724 15.0421 52.5499 14.9856 52.8228 14.9151C53.0956 14.8445 53.3661 14.7622 53.639 14.6704C53.9118 14.5787 54.1941 14.4846 54.4881 14.3882C54.5868 14.3506 54.6739 14.3317 54.7491 14.3317C54.9985 14.3317 55.1984 14.4282 55.3489 14.6211C55.4995 14.8139 55.5747 15.0374 55.5747 15.2961C55.5747 15.4466 55.5489 15.5901 55.4948 15.7265C55.3442 16.0888 55.0949 16.3898 54.7468 16.6274C54.3987 16.8649 53.9988 17.0531 53.5472 17.1942C53.0933 17.333 52.6135 17.4294 52.1078 17.4835C51.6021 17.5353 51.1175 17.5635 50.6589 17.5635C49.791 17.5635 48.9795 17.4388 48.2292 17.1895C47.4789 16.9402 46.8273 16.5709 46.2746 16.0793C45.7242 15.5878 45.2914 14.9739 44.9786 14.233C44.6658 13.4921 44.5082 12.6359 44.5082 11.6621C44.5082 10.846 44.6587 10.0839 44.9621 9.37356C45.2632 8.66323 45.6842 8.04934 46.2252 7.52717C46.7638 7.00501 47.4059 6.59575 48.1516 6.29233C48.8948 5.99126 49.7133 5.83838 50.6048 5.83838C51.5715 5.83838 52.4065 5.98656 53.1074 6.28527C53.8107 6.58399 54.3916 6.98384 54.8526 7.48484C55.3136 7.98818 55.657 8.5715 55.8828 9.23949C56.1086 9.90748 56.2263 10.6131 56.2333 11.3517H56.231ZM53.2062 10.6601C53.1827 10.2603 53.1144 9.89102 52.9968 9.54996C52.8792 9.21126 52.7146 8.9149 52.4982 8.66558C52.2842 8.41626 52.0184 8.22104 51.7056 8.08227C51.3927 7.94349 51.0281 7.87293 50.6118 7.87293C50.2331 7.87293 49.8921 7.94584 49.5863 8.09403C49.2806 8.24221 49.0171 8.44213 48.7937 8.69381C48.5702 8.94783 48.3962 9.24184 48.2715 9.57819C48.1468 9.91454 48.0739 10.2744 48.0504 10.6601H53.2038H53.2062Z" fill="#E9EAEA"/>
<path id="Vector_5" d="M62.0428 15.1926C62.0428 15.91 61.897 16.4604 61.6077 16.8461C61.3161 17.2319 60.8362 17.4247 60.1635 17.4247C59.5285 17.4247 59.0816 17.2319 58.8205 16.8461C58.5594 16.4604 58.4301 15.91 58.4301 15.1926V7.71769C58.4301 7.4378 58.4818 7.19318 58.5829 6.98149C58.6841 6.7698 58.8205 6.59575 58.9899 6.45933C59.1592 6.32291 59.3544 6.21706 59.5732 6.1418C59.7919 6.06653 60.0224 6.0289 60.2647 6.0289C60.8527 6.0289 61.2972 6.21706 61.596 6.59575C61.8947 6.97443 62.0428 7.53658 62.0428 8.28454C62.1722 7.52247 62.4803 6.92269 62.9719 6.48991C63.4635 6.05477 64.0939 5.83838 64.863 5.83838C65.0982 5.83838 65.3052 5.87836 65.4863 5.95834C65.6674 6.03831 65.8179 6.1418 65.9403 6.26881C66.0602 6.39817 66.1519 6.544 66.2131 6.711C66.2742 6.878 66.3048 7.04265 66.3048 7.20964C66.3048 7.69182 66.1378 8.04934 65.8015 8.27984C65.4651 8.51034 65.0135 8.64441 64.449 8.68205C64.1103 8.71262 63.7928 8.77613 63.5035 8.87492C63.2118 8.9737 62.9602 9.11953 62.7438 9.31005C62.5274 9.50057 62.358 9.74989 62.2334 10.051C62.1087 10.352 62.0476 10.7237 62.0476 11.1611V15.1926H62.0428Z" fill="#E9EAEA"/>
<path id="Vector_6" d="M71.376 15.1925C71.376 15.9099 71.2302 16.4603 70.9408 16.846C70.6492 17.2318 70.1694 17.4246 69.4967 17.4246C68.8616 17.4246 68.4147 17.2318 68.1536 16.846C67.8925 16.4603 67.7632 15.9099 67.7632 15.1925V3.22041C67.7632 2.50302 67.8925 1.95263 68.1536 1.56689C68.4147 1.18115 68.8616 0.988281 69.4967 0.988281C70.1694 0.988281 70.6492 1.18115 70.9408 1.56689C71.2325 1.95263 71.376 2.50302 71.376 3.22041V15.1925Z" fill="#E9EAEA"/>
<path id="Vector_7" d="M77.8204 1.99756C77.8204 2.24688 77.7639 2.46798 77.651 2.66085C77.5381 2.85372 77.3899 3.01366 77.2088 3.14303C77.0277 3.27239 76.8184 3.36883 76.5808 3.43233C76.3432 3.49584 76.0986 3.52877 75.8493 3.52877C75.5859 3.52877 75.3342 3.49584 75.0966 3.42763C74.8591 3.35942 74.6497 3.26063 74.4686 3.12656C74.2875 2.99484 74.144 2.8349 74.0382 2.64438C73.9324 2.45622 73.8806 2.23983 73.8806 1.99991C73.8806 1.78117 73.9324 1.57889 74.0335 1.39308C74.1346 1.20726 74.2734 1.04732 74.4475 0.9109C74.6215 0.774479 74.8285 0.668635 75.0708 0.593369C75.313 0.518102 75.5765 0.480469 75.8634 0.480469C76.1127 0.480469 76.355 0.513398 76.5949 0.581608C76.8325 0.649819 77.0418 0.748606 77.2229 0.875619C77.404 1.00498 77.5499 1.16257 77.6581 1.35074C77.7663 1.53891 77.8227 1.7553 77.8227 1.99521L77.8204 1.99756ZM77.6487 15.1927C77.6487 15.9101 77.5028 16.4605 77.2135 16.8463C76.9219 17.232 76.442 17.4249 75.7693 17.4249C75.1343 17.4249 74.6874 17.232 74.4263 16.8463C74.1652 16.4605 74.0358 15.9101 74.0358 15.1927V8.26116C74.0358 7.54377 74.1652 6.99338 74.4263 6.60764C74.6874 6.2219 75.1343 6.02903 75.7693 6.02903C76.442 6.02903 76.9219 6.2219 77.2135 6.60764C77.5052 6.99338 77.6487 7.54377 77.6487 8.26116V15.1927Z" fill="#E9EAEA"/>
<path id="Vector_8" d="M81.3887 5.98431L81.638 3.63929C81.6616 3.41349 81.6992 3.18534 81.758 2.95954C81.8145 2.73374 81.9062 2.5244 82.0308 2.33623C82.1555 2.14807 82.3225 1.99518 82.5342 1.87758C82.7459 1.75997 83.0211 1.70117 83.3621 1.70117C83.8608 1.70117 84.2206 1.87523 84.4441 2.22333C84.6675 2.57144 84.7781 3.0889 84.7781 3.77571V5.98431H86.0458C86.4316 5.98431 86.7444 6.08075 86.9867 6.27362C87.2289 6.46649 87.3489 6.76991 87.3489 7.18623C87.3489 7.57197 87.2195 7.86128 86.9632 8.05179C86.7068 8.24466 86.3587 8.3411 85.9212 8.3411H84.7781V12.6219C84.7781 13.0758 84.7851 13.4592 84.8016 13.7768C84.8157 14.0943 84.8651 14.353 84.9498 14.5529C85.0321 14.7529 85.1568 14.8964 85.3238 14.9834C85.4908 15.0704 85.7283 15.1127 86.0364 15.1127C86.2552 15.1127 86.4692 15.1222 86.6762 15.141C86.8832 15.1598 87.0667 15.2068 87.2266 15.2821C87.3842 15.3574 87.5112 15.4679 87.6053 15.6161C87.6994 15.7643 87.7464 15.9666 87.7464 16.2229C87.7464 16.5099 87.6735 16.7404 87.5324 16.9144C87.3889 17.0885 87.1819 17.2226 86.9161 17.3166C86.648 17.4107 86.3281 17.4742 85.9541 17.5095C85.5801 17.5424 85.1638 17.5613 84.7028 17.5613C84.1736 17.5542 83.6938 17.4742 83.2586 17.3237C82.8235 17.1732 82.4495 16.9333 82.1367 16.604C81.8239 16.2747 81.5816 15.8489 81.4123 15.3244C81.2429 14.7999 81.1582 14.1554 81.1582 13.3934V8.3411H80.6361C80.2291 8.3411 79.8881 8.24466 79.6176 8.05179C79.3448 7.85892 79.2107 7.54845 79.2107 7.11802C79.2107 6.77932 79.3189 6.50412 79.5329 6.29714C79.747 6.09016 80.0739 5.98667 80.5138 5.98667H81.3981L81.3887 5.98431Z" fill="#E9EAEA"/>
<path id="Vector_9" d="M100.45 11.3517C100.45 11.6621 100.349 11.8926 100.144 12.0432C99.9395 12.1937 99.6573 12.269 99.2951 12.269H92.2835C92.3212 13.1816 92.5846 13.8896 93.0715 14.3929C93.5583 14.8962 94.2993 15.1456 95.2965 15.1456C95.6211 15.1456 95.9245 15.1244 96.2091 15.0844C96.4914 15.0421 96.7689 14.9856 97.0418 14.9151C97.3146 14.8445 97.5851 14.7622 97.858 14.6704C98.1308 14.5787 98.413 14.4846 98.7071 14.3882C98.8058 14.3506 98.8929 14.3317 98.9681 14.3317C99.2175 14.3317 99.4174 14.4282 99.5679 14.6211C99.7184 14.8139 99.7937 15.0374 99.7937 15.2961C99.7937 15.4466 99.7679 15.5901 99.7138 15.7265C99.5632 16.0888 99.3139 16.3898 98.9658 16.6274C98.6177 16.8649 98.2178 17.0531 97.7662 17.1942C97.3123 17.333 96.8324 17.4294 96.3268 17.4835C95.8211 17.5353 95.3365 17.5635 94.8779 17.5635C94.01 17.5635 93.1985 17.4388 92.4482 17.1895C91.6979 16.9402 91.0463 16.5709 90.4936 16.0793C89.9432 15.5878 89.5104 14.9739 89.1976 14.233C88.8848 13.4921 88.7272 12.6359 88.7272 11.6621C88.7272 10.846 88.8777 10.0839 89.1811 9.37356C89.4822 8.66323 89.9032 8.04934 90.4442 7.52717C90.9828 7.00501 91.6249 6.59575 92.3705 6.29233C93.1138 5.99126 93.9323 5.83838 94.8238 5.83838C95.7905 5.83838 96.6255 5.98656 97.3264 6.28527C98.0297 6.58399 98.6106 6.98384 99.0716 7.48484C99.5326 7.98818 99.876 8.5715 100.102 9.23949C100.328 9.90748 100.445 10.6131 100.452 11.3517H100.45ZM97.4252 10.6601C97.4016 10.2603 97.3334 9.89102 97.2158 9.54996C97.0982 9.21126 96.9336 8.9149 96.7172 8.66558C96.5031 8.41626 96.2374 8.22104 95.9245 8.08227C95.6117 7.94349 95.2471 7.87293 94.8308 7.87293C94.4521 7.87293 94.1111 7.94584 93.8053 8.09403C93.4995 8.24221 93.2361 8.44213 93.0127 8.69381C92.7892 8.94783 92.6152 9.24184 92.4905 9.57819C92.3658 9.91454 92.2929 10.2744 92.2694 10.6601H97.4228H97.4252Z" fill="#E9EAEA"/>
</g>
</svg>
