<svg width="101" height="18" viewBox="0 0 101 18" fill="none" xmlns="http://www.w3.org/2000/svg">
<g id="Group">
<path id="Vector" d="M9.32763 8.71349L7.68588 13.8669C7.50477 14.4479 7.3166 14.9606 7.11903 15.4005C6.92145 15.8427 6.70506 16.2096 6.4675 16.5036C6.22994 16.7976 5.95945 17.021 5.65839 17.1716C5.35732 17.3221 5.00921 17.3974 4.61641 17.3974C4.29888 17.3974 4.01428 17.3433 3.76025 17.2327C3.50623 17.1222 3.27808 16.9505 3.06874 16.7176C2.86176 16.4848 2.67124 16.1814 2.50189 15.8121C2.33254 15.4428 2.1726 14.9959 2.01971 14.4761L0.455578 9.24271C0.373255 8.98633 0.279174 8.71584 0.178034 8.4336C0.0768944 8.15135 0.0251465 7.88321 0.0251465 7.63624C0.0251465 7.38927 0.0604293 7.16347 0.133344 6.96119C0.203906 6.76126 0.302694 6.59191 0.427354 6.45079C0.552014 6.31202 0.700194 6.20147 0.874248 6.1215C1.0483 6.04153 1.23647 6.00154 1.4411 6.00154C1.68337 6.00154 1.90446 6.04858 2.10439 6.14267C2.30432 6.23675 2.48072 6.36611 2.63596 6.52841C2.7912 6.6907 2.92291 6.88593 3.03346 7.11173C3.14401 7.33753 3.22868 7.58449 3.28749 7.84793L4.97628 14.3373L6.82267 8.69703C6.93557 8.32775 7.05552 7.97494 7.18018 7.6433C7.30484 7.31165 7.46243 7.01999 7.6506 6.77067C7.83876 6.52135 8.06692 6.32378 8.33505 6.1756C8.60319 6.02741 8.93719 5.9545 9.33704 5.9545C9.70632 5.9545 10.0191 6.00625 10.2779 6.10739C10.5343 6.20853 10.7553 6.36141 10.9412 6.56604C11.127 6.77067 11.2846 7.02705 11.4163 7.33517C11.548 7.64565 11.6703 8.00316 11.7856 8.41007L13.5402 14.2432C13.8036 13.2624 14.0718 12.2863 14.3376 11.3149C14.6057 10.3435 14.8715 9.36972 15.1349 8.38655C15.2102 8.08549 15.3019 7.78912 15.4078 7.49747C15.5136 7.20581 15.6406 6.94708 15.7935 6.71658C15.944 6.48607 16.1228 6.30026 16.3251 6.16148C16.5297 6.02271 16.7696 5.95215 17.0495 5.95215C17.5035 5.95215 17.8539 6.09327 18.1033 6.37787C18.3526 6.66012 18.4772 7.0294 18.4772 7.481C18.4772 7.69975 18.4396 7.94201 18.3643 8.20544C18.2891 8.46888 18.2091 8.7229 18.1268 8.96517L16.438 14.175C16.3016 14.6055 16.1557 15.0147 15.9958 15.4028C15.8382 15.7909 15.6547 16.1343 15.4454 16.4283C15.2384 16.7223 14.9961 16.9575 14.721 17.1316C14.4458 17.3056 14.1141 17.3927 13.7307 17.3927C13.392 17.3927 13.0863 17.3362 12.8181 17.2233C12.55 17.1104 12.3077 16.9176 12.0866 16.6447C11.8679 16.3719 11.6609 16.0097 11.4633 15.5581C11.2658 15.1041 11.0705 14.5349 10.8753 13.8481L9.32293 8.70644L9.32763 8.71349Z" fill="#272A2B"/>
<path id="Vector_2" d="M27.0083 9.94826C27.0083 9.3132 26.8413 8.86395 26.505 8.60052C26.1686 8.33708 25.717 8.20301 25.1525 8.20301C24.8138 8.20301 24.4963 8.22183 24.2023 8.25946C23.9083 8.2971 23.6307 8.34414 23.3696 8.40059C23.1085 8.45704 22.8616 8.51584 22.6287 8.57699C22.3935 8.63815 22.1724 8.6946 21.9607 8.74634C21.7867 8.79103 21.6314 8.81455 21.4974 8.81455C21.248 8.81455 21.0222 8.73458 20.8223 8.56994C20.6224 8.40764 20.5213 8.1842 20.5213 7.89489C20.5213 7.60558 20.5918 7.37038 20.7353 7.15869C20.8788 6.947 21.074 6.76354 21.3186 6.6083C21.5632 6.45306 21.8478 6.32605 22.1748 6.22256C22.4994 6.12142 22.8404 6.0391 23.2003 5.97794C23.5578 5.91679 23.9271 5.87445 24.3058 5.84858C24.6821 5.82271 25.0467 5.80859 25.3924 5.80859C26.1169 5.80859 26.7825 5.89092 27.387 6.05321C27.9915 6.2155 28.5089 6.48599 28.9441 6.86233C29.3792 7.24101 29.7179 7.73495 29.9625 8.34649C30.2071 8.95803 30.3294 9.7107 30.3294 10.5998V15.1299C30.3294 15.4239 30.3106 15.7085 30.273 15.979C30.2354 16.2518 30.1601 16.4918 30.0472 16.7034C29.9343 16.9151 29.772 17.0821 29.5603 17.2068C29.3486 17.3314 29.0687 17.3926 28.723 17.3926C28.1796 17.3926 27.7774 17.2138 27.5164 16.854C27.2553 16.4965 27.1259 15.9837 27.1259 15.3204C26.9283 15.7062 26.6908 16.0378 26.4062 16.3177C26.1239 16.5976 25.8111 16.8257 25.4724 17.0022C25.1337 17.1786 24.7715 17.3126 24.3904 17.3997C24.0094 17.4867 23.6213 17.529 23.2285 17.529C22.6993 17.529 22.21 17.4514 21.7561 17.2962C21.3021 17.1409 20.9117 16.9222 20.5848 16.6399C20.2555 16.3577 19.9991 16.0166 19.8156 15.6215C19.6298 15.224 19.5381 14.7818 19.5381 14.2902C19.5381 13.6034 19.6816 13.013 19.9685 12.5238C20.2555 12.0322 20.6718 11.6323 21.2198 11.3242C21.7679 11.0138 22.4359 10.788 23.2238 10.6445C24.0117 10.501 24.9126 10.4304 25.924 10.4304H27.0106V9.94355L27.0083 9.94826ZM26.9965 12.1216C26.4838 12.1075 25.9734 12.1145 25.4677 12.1451C24.962 12.1757 24.508 12.2557 24.1082 12.3897C23.7083 12.5214 23.3861 12.7167 23.1391 12.973C22.8945 13.2294 22.7722 13.5775 22.7722 14.015C22.7722 14.2573 22.8169 14.476 22.9086 14.6712C23.0003 14.8665 23.125 15.0382 23.2873 15.1816C23.4496 15.3251 23.6425 15.4357 23.8659 15.5109C24.0894 15.5862 24.3363 15.6238 24.6068 15.6238C24.9549 15.6238 25.2725 15.5627 25.5641 15.438C25.8558 15.3134 26.1051 15.1322 26.3168 14.8947C26.5285 14.6571 26.6931 14.3655 26.8154 14.0221C26.9354 13.6787 26.9965 13.2835 26.9965 12.839V12.1263V12.1216Z" fill="#272A2B"/>
<path id="Vector_3" d="M40.7019 14.8855C40.5443 15.3395 40.3656 15.7252 40.1703 16.0475C39.9728 16.3674 39.754 16.6284 39.5141 16.8284C39.2718 17.0283 39.0013 17.1741 38.6979 17.2635C38.3969 17.3552 38.0558 17.3999 37.6795 17.3999C37.2255 17.3999 36.8374 17.3294 36.5129 17.1859C36.1883 17.0424 35.8966 16.8237 35.6355 16.5297C35.3744 16.2356 35.1345 15.864 34.9158 15.4148C34.697 14.9655 34.4736 14.4339 34.2478 13.8224L32.4249 8.93008C32.3426 8.71839 32.2509 8.49024 32.1521 8.24562C32.0533 8.001 32.0039 7.7752 32.0039 7.57057C32.0039 7.33536 32.0462 7.12368 32.1286 6.93081C32.2109 6.73794 32.3261 6.57329 32.4743 6.43922C32.6225 6.30515 32.7942 6.19696 32.9894 6.12169C33.1847 6.04642 33.3963 6.00879 33.6245 6.00879C33.8879 6.00879 34.1396 6.09111 34.3772 6.25341C34.6147 6.4157 34.8288 6.62033 35.0169 6.86965C35.2051 7.11897 35.3697 7.39181 35.5085 7.68582C35.6473 7.97983 35.7531 8.25503 35.819 8.51376L37.6771 14.2787L39.6599 8.09509C39.7423 7.80813 39.8434 7.53764 39.961 7.28597C40.0786 7.03194 40.215 6.8132 40.375 6.62268C40.5326 6.43452 40.7137 6.28398 40.9136 6.17579C41.1135 6.06759 41.3417 6.01114 41.5981 6.01114C41.8168 6.01114 42.0285 6.04407 42.2331 6.11228C42.4377 6.18049 42.6165 6.27928 42.7717 6.41335C42.927 6.54506 43.0516 6.70736 43.1457 6.90023C43.2398 7.0931 43.2868 7.31655 43.2868 7.57528C43.2868 7.7705 43.2422 7.99395 43.1504 8.24327C43.0587 8.49259 42.9764 8.72309 42.9011 8.93478C42.5389 9.93912 42.1743 10.9341 41.8074 11.9196C41.4405 12.9051 41.0735 13.8953 40.7043 14.8926L40.7019 14.8855Z" fill="#272A2B"/>
<path id="Vector_4" d="M56.2306 11.3297C56.2306 11.6402 56.1295 11.8707 55.9248 12.0212C55.7202 12.1717 55.4379 12.247 55.0757 12.247H48.0642C48.1018 13.1596 48.3652 13.8676 48.8521 14.3709C49.339 14.8743 50.0799 15.1236 51.0772 15.1236C51.4018 15.1236 51.7052 15.1024 51.9898 15.0624C52.272 15.0201 52.5496 14.9637 52.8224 14.8931C53.0953 14.8225 53.3658 14.7402 53.6386 14.6485C53.9114 14.5567 54.1937 14.4627 54.4877 14.3662C54.5865 14.3286 54.6735 14.3098 54.7488 14.3098C54.9981 14.3098 55.198 14.4062 55.3486 14.5991C55.4991 14.792 55.5744 15.0154 55.5744 15.2741C55.5744 15.4247 55.5485 15.5681 55.4944 15.7046C55.3439 16.0668 55.0945 16.3678 54.7464 16.6054C54.3983 16.843 53.9985 17.0311 53.5469 17.1723C53.0929 17.311 52.6131 17.4075 52.1074 17.4616C51.6017 17.5133 51.1172 17.5415 50.6585 17.5415C49.7906 17.5415 48.9791 17.4169 48.2288 17.1676C47.4785 16.9182 46.827 16.549 46.2742 16.0574C45.7238 15.5658 45.2911 14.9519 44.9782 14.211C44.6654 13.4701 44.5078 12.6139 44.5078 11.6402C44.5078 10.824 44.6583 10.0619 44.9618 9.35159C45.2628 8.64126 45.6839 8.02736 46.2248 7.5052C46.7635 6.98304 47.4056 6.57378 48.1512 6.27036C48.8944 5.96929 49.713 5.81641 50.6044 5.81641C51.5711 5.81641 52.4061 5.96459 53.107 6.2633C53.8103 6.56202 54.3913 6.96187 54.8523 7.46286C55.3133 7.96621 55.6567 8.54953 55.8825 9.21752C56.1083 9.88551 56.2259 10.5911 56.2329 11.3297H56.2306ZM53.2058 10.6382C53.1823 10.2383 53.1141 9.86904 52.9965 9.52799C52.8789 9.18929 52.7142 8.89293 52.4978 8.64361C52.2838 8.39429 52.018 8.19907 51.7052 8.06029C51.3924 7.92152 51.0278 7.85096 50.6115 7.85096C50.2328 7.85096 49.8917 7.92387 49.586 8.07205C49.2802 8.22023 49.0168 8.42016 48.7933 8.67183C48.5699 8.92586 48.3958 9.21987 48.2711 9.55622C48.1465 9.89256 48.0736 10.2524 48.05 10.6382H53.2035H53.2058Z" fill="#272A2B"/>
<path id="Vector_5" d="M62.0425 15.1706C62.0425 15.888 61.8967 16.4384 61.6073 16.8242C61.3157 17.2099 60.8359 17.4028 60.1632 17.4028C59.5281 17.4028 59.0812 17.2099 58.8201 16.8242C58.5591 16.4384 58.4297 15.888 58.4297 15.1706V7.69572C58.4297 7.41582 58.4814 7.17121 58.5826 6.95952C58.6837 6.74783 58.8201 6.57378 58.9895 6.43736C59.1588 6.30094 59.3541 6.19509 59.5728 6.11983C59.7915 6.04456 60.022 6.00693 60.2643 6.00693C60.8523 6.00693 61.2969 6.19509 61.5956 6.57378C61.8943 6.95246 62.0425 7.51461 62.0425 8.26257C62.1718 7.5005 62.48 6.90072 62.9716 6.46793C63.4631 6.0328 64.0935 5.81641 64.8626 5.81641C65.0978 5.81641 65.3048 5.85639 65.4859 5.93636C65.667 6.01633 65.8176 6.11983 65.9399 6.24684C66.0598 6.3762 66.1516 6.52203 66.2127 6.68903C66.2739 6.85603 66.3045 7.02067 66.3045 7.18767C66.3045 7.66985 66.1375 8.02736 65.8011 8.25787C65.4648 8.48837 65.0132 8.62244 64.4487 8.66007C64.11 8.69065 63.7924 8.75416 63.5031 8.85294C63.2115 8.95173 62.9598 9.09756 62.7434 9.28808C62.527 9.4786 62.3577 9.72792 62.233 10.029C62.1083 10.3301 62.0472 10.7017 62.0472 11.1392V15.1706H62.0425Z" fill="#272A2B"/>
<path id="Vector_6" d="M71.3759 15.17C71.3759 15.8874 71.23 16.4378 70.9407 16.8236C70.6491 17.2093 70.1692 17.4022 69.4965 17.4022C68.8615 17.4022 68.4146 17.2093 68.1535 16.8236C67.8924 16.4378 67.7631 15.8874 67.7631 15.17V3.19795C67.7631 2.48056 67.8924 1.93017 68.1535 1.54443C68.4146 1.15869 68.8615 0.96582 69.4965 0.96582C70.1692 0.96582 70.6491 1.15869 70.9407 1.54443C71.2324 1.93017 71.3759 2.48056 71.3759 3.19795V15.17Z" fill="#272A2B"/>
<path id="Vector_7" d="M77.8206 1.9751C77.8206 2.22442 77.7641 2.44552 77.6512 2.63839C77.5383 2.83126 77.3902 2.9912 77.209 3.12057C77.0279 3.24993 76.8186 3.34636 76.581 3.40987C76.3435 3.47338 76.0989 3.50631 75.8496 3.50631C75.5861 3.50631 75.3344 3.47338 75.0969 3.40517C74.8593 3.33696 74.65 3.23817 74.4689 3.1041C74.2878 2.97238 74.1443 2.81244 74.0384 2.62192C73.9326 2.43376 73.8809 2.21737 73.8809 1.97745C73.8809 1.75871 73.9326 1.55643 74.0337 1.37062C74.1349 1.1848 74.2737 1.02486 74.4477 0.888439C74.6218 0.752018 74.8287 0.646175 75.071 0.570908C75.3133 0.495641 75.5767 0.458008 75.8637 0.458008C76.113 0.458008 76.3552 0.490937 76.5952 0.559147C76.8327 0.627358 77.042 0.726145 77.2232 0.853158C77.4043 0.982522 77.5501 1.14011 77.6583 1.32828C77.7665 1.51645 77.823 1.73284 77.823 1.97275L77.8206 1.9751ZM77.6489 15.1703C77.6489 15.8877 77.5031 16.4381 77.2138 16.8238C76.9221 17.2095 76.4423 17.4024 75.7696 17.4024C75.1345 17.4024 74.6876 17.2095 74.4265 16.8238C74.1655 16.4381 74.0361 15.8877 74.0361 15.1703V8.2387C74.0361 7.52131 74.1655 6.97092 74.4265 6.58518C74.6876 6.19944 75.1345 6.00657 75.7696 6.00657C76.4423 6.00657 76.9221 6.19944 77.2138 6.58518C77.5054 6.97092 77.6489 7.52131 77.6489 8.2387V15.1703Z" fill="#272A2B"/>
<path id="Vector_8" d="M81.3886 5.96185L81.6379 3.61683C81.6614 3.39103 81.6991 3.16287 81.7579 2.93708C81.8143 2.71128 81.9061 2.50194 82.0307 2.31377C82.1554 2.12561 82.3224 1.97272 82.5341 1.85512C82.7458 1.73751 83.021 1.67871 83.362 1.67871C83.8606 1.67871 84.2205 1.85277 84.444 2.20087C84.6674 2.54898 84.778 3.06644 84.778 3.75325V5.96185H86.0457C86.4315 5.96185 86.7443 6.05829 86.9866 6.25116C87.2288 6.44403 87.3488 6.74745 87.3488 7.16377C87.3488 7.54951 87.2194 7.83881 86.963 8.02933C86.7067 8.2222 86.3586 8.31864 85.9211 8.31864H84.778V12.5994C84.778 13.0534 84.785 13.4368 84.8015 13.7543C84.8156 14.0718 84.865 14.3306 84.9497 14.5305C85.032 14.7304 85.1566 14.8739 85.3236 14.9609C85.4906 15.0479 85.7282 15.0903 86.0363 15.0903C86.2551 15.0903 86.4691 15.0997 86.6761 15.1185C86.8831 15.1373 87.0665 15.1844 87.2265 15.2596C87.3841 15.3349 87.5111 15.4454 87.6052 15.5936C87.6992 15.7418 87.7463 15.9441 87.7463 16.2005C87.7463 16.4874 87.6734 16.7179 87.5322 16.892C87.3888 17.066 87.1818 17.2001 86.916 17.2942C86.6479 17.3883 86.328 17.4518 85.954 17.4871C85.58 17.52 85.1637 17.5388 84.7027 17.5388C84.1735 17.5317 83.6936 17.4518 83.2585 17.3012C82.8234 17.1507 82.4494 16.9108 82.1366 16.5815C81.8237 16.2522 81.5815 15.8265 81.4121 15.302C81.2428 14.7775 81.1581 14.133 81.1581 13.3709V8.31864H80.6359C80.229 8.31864 79.888 8.2222 79.6175 8.02933C79.3446 7.83646 79.2106 7.52599 79.2106 7.09556C79.2106 6.75686 79.3188 6.48166 79.5328 6.27468C79.7468 6.0677 80.0738 5.96421 80.5136 5.96421H81.398L81.3886 5.96185Z" fill="#272A2B"/>
<path id="Vector_9" d="M100.45 11.3297C100.45 11.6402 100.349 11.8707 100.144 12.0212C99.9397 12.1717 99.6574 12.247 99.2952 12.247H92.2836C92.3213 13.1596 92.5847 13.8676 93.0716 14.3709C93.5585 14.8743 94.2994 15.1236 95.2967 15.1236C95.6212 15.1236 95.9247 15.1024 96.2093 15.0624C96.4915 15.0201 96.7691 14.9637 97.0419 14.8931C97.3147 14.8225 97.5852 14.7402 97.8581 14.6485C98.1309 14.5567 98.4132 14.4627 98.7072 14.3662C98.806 14.3286 98.893 14.3098 98.9683 14.3098C99.2176 14.3098 99.4175 14.4062 99.568 14.5991C99.7186 14.792 99.7938 15.0154 99.7938 15.2741C99.7938 15.4247 99.768 15.5681 99.7139 15.7046C99.5633 16.0668 99.314 16.3678 98.9659 16.6054C98.6178 16.843 98.2179 17.0311 97.7663 17.1723C97.3124 17.311 96.8326 17.4075 96.3269 17.4616C95.8212 17.5133 95.3367 17.5415 94.878 17.5415C94.0101 17.5415 93.1986 17.4169 92.4483 17.1676C91.698 16.9182 91.0465 16.549 90.4937 16.0574C89.9433 15.5658 89.5105 14.9519 89.1977 14.211C88.8849 13.4701 88.7273 12.6139 88.7273 11.6402C88.7273 10.824 88.8778 10.0619 89.1812 9.35159C89.4823 8.64126 89.9033 8.02736 90.4443 7.5052C90.9829 6.98304 91.6251 6.57378 92.3707 6.27036C93.1139 5.96929 93.9324 5.81641 94.8239 5.81641C95.7906 5.81641 96.6256 5.96459 97.3265 6.2633C98.0298 6.56202 98.6107 6.96187 99.0717 7.46286C99.5328 7.96621 99.8762 8.54953 100.102 9.21752C100.328 9.88551 100.445 10.5911 100.452 11.3297H100.45ZM97.4253 10.6382C97.4018 10.2383 97.3336 9.86904 97.216 9.52799C97.0983 9.18929 96.9337 8.89293 96.7173 8.64361C96.5033 8.39429 96.2375 8.19907 95.9247 8.06029C95.6118 7.92152 95.2473 7.85096 94.831 7.85096C94.4523 7.85096 94.1112 7.92387 93.8054 8.07205C93.4997 8.22023 93.2362 8.42016 93.0128 8.67183C92.7893 8.92586 92.6153 9.21987 92.4906 9.55622C92.366 9.89256 92.2931 10.2524 92.2695 10.6382H97.4229H97.4253Z" fill="#272A2B"/>
</g>
</svg>
