<svg width="464" height="669" viewBox="0 0 464 669" fill="none" xmlns="http://www.w3.org/2000/svg">
<g filter="url(#filter0_b_583_4556)">
<rect y="217.307" width="281.544" height="451.016" rx="27.3343" fill="url(#paint0_linear_583_4556)"/>
<rect x="1.19588" y="218.503" width="279.152" height="448.625" rx="26.1385" stroke="url(#paint1_radial_583_4556)" stroke-width="2.39175"/>
<rect x="1.19588" y="218.503" width="279.152" height="448.625" rx="26.1385" stroke="url(#paint2_radial_583_4556)" stroke-width="2.39175"/>
</g>
<path d="M147.06 588.9L150.171 588.9C151.844 588.9 153.254 589.049 154.404 589.348C155.553 589.647 156.478 590.077 157.178 590.638C157.879 591.198 158.388 591.876 158.706 592.67C159.014 593.454 159.168 594.342 159.168 595.332C159.168 596.117 159.07 596.841 158.874 597.505C158.678 598.168 158.365 598.766 157.935 599.298C157.496 599.822 156.926 600.27 156.225 600.644C155.525 601.017 154.675 601.302 153.675 601.499C152.675 601.695 151.507 601.793 150.171 601.793L147.06 601.793C145.388 601.793 143.986 601.643 142.856 601.344C141.725 601.036 140.819 600.602 140.137 600.041C139.446 599.481 138.951 598.808 138.652 598.023C138.353 597.229 138.203 596.341 138.203 595.36C138.203 594.566 138.301 593.838 138.498 593.174C138.684 592.502 138.988 591.904 139.408 591.38C139.82 590.857 140.371 590.413 141.062 590.049C141.744 589.675 142.58 589.39 143.571 589.194C144.561 588.998 145.724 588.9 147.06 588.9ZM150.592 591.506L146.626 591.506C145.71 591.506 144.907 591.563 144.215 591.675C143.515 591.777 142.917 591.932 142.422 592.137C141.926 592.343 141.525 592.604 141.216 592.922C140.908 593.23 140.684 593.59 140.544 594.001C140.394 594.403 140.319 594.856 140.319 595.36C140.319 595.977 140.436 596.524 140.67 597C140.894 597.477 141.254 597.878 141.749 598.205C142.244 598.523 142.893 598.766 143.697 598.934C144.5 599.102 145.477 599.186 146.626 599.186L150.592 599.186C151.507 599.186 152.316 599.135 153.016 599.032C153.717 598.92 154.324 598.757 154.838 598.542C155.343 598.327 155.758 598.065 156.085 597.757C156.412 597.449 156.655 597.093 156.814 596.692C156.964 596.281 157.038 595.828 157.038 595.332C157.038 594.697 156.917 594.141 156.674 593.665C156.431 593.188 156.053 592.791 155.539 592.473C155.016 592.146 154.348 591.904 153.535 591.745C152.713 591.586 151.732 591.506 150.592 591.506ZM138.371 577.044L158.888 577.044L158.888 579.636L141.609 579.636L143.515 584.864L141.174 584.864L138.371 577.45L138.371 577.044ZM156.758 556.051L158.888 556.051L158.888 569.406L157.024 569.406L149.583 562.721C148.667 561.899 147.892 561.264 147.256 560.815C146.612 560.358 146.037 560.04 145.533 559.862C145.019 559.676 144.496 559.582 143.963 559.582C143.29 559.582 142.683 559.722 142.141 560.003C141.59 560.274 141.151 560.675 140.824 561.208C140.497 561.74 140.333 562.385 140.333 563.142C140.333 564.048 140.511 564.805 140.866 565.412C141.212 566.01 141.697 566.458 142.323 566.757C142.949 567.056 143.669 567.206 144.482 567.206L144.482 569.799C143.332 569.799 142.281 569.546 141.328 569.042C140.375 568.537 139.619 567.79 139.058 566.799C138.488 565.809 138.203 564.59 138.203 563.142C138.203 561.852 138.432 560.75 138.89 559.834C139.338 558.919 139.974 558.218 140.796 557.732C141.609 557.237 142.562 556.99 143.655 556.99C144.253 556.99 144.86 557.092 145.477 557.298C146.084 557.494 146.691 557.77 147.298 558.125C147.906 558.47 148.504 558.877 149.092 559.344C149.681 559.802 150.26 560.292 150.83 560.815L156.758 566.281L156.758 556.051ZM147.411 549.492L147.411 547.642C147.411 546.736 147.261 545.988 146.962 545.4C146.654 544.802 146.238 544.358 145.715 544.068C145.182 543.77 144.584 543.62 143.921 543.62C143.136 543.62 142.478 543.751 141.945 544.012C141.412 544.274 141.011 544.666 140.74 545.19C140.469 545.713 140.333 546.376 140.333 547.18C140.333 547.908 140.478 548.553 140.768 549.114C141.048 549.665 141.45 550.099 141.973 550.417C142.496 550.725 143.113 550.879 143.823 550.879L143.823 553.472C142.786 553.472 141.842 553.21 140.992 552.687C140.142 552.164 139.465 551.431 138.96 550.487C138.456 549.534 138.203 548.432 138.203 547.18C138.203 545.946 138.423 544.867 138.862 543.942C139.292 543.017 139.936 542.298 140.796 541.784C141.646 541.27 142.706 541.013 143.977 541.013C144.491 541.013 145.042 541.135 145.631 541.378C146.21 541.611 146.752 541.98 147.256 542.485C147.761 542.98 148.177 543.625 148.504 544.419C148.821 545.213 148.98 546.166 148.98 547.278L148.98 549.492L147.411 549.492ZM149.541 549.492L147.985 549.492L147.985 547.278C147.985 545.979 148.139 544.905 148.448 544.054C148.756 543.204 149.167 542.536 149.681 542.05C150.195 541.555 150.76 541.21 151.377 541.013C151.984 540.808 152.591 540.705 153.198 540.705C154.151 540.705 154.997 540.869 155.735 541.196C156.473 541.513 157.099 541.966 157.613 542.555C158.127 543.134 158.514 543.816 158.776 544.601C159.038 545.386 159.168 546.241 159.168 547.166C159.168 548.053 159.042 548.889 158.79 549.674C158.538 550.45 158.173 551.136 157.697 551.734C157.211 552.332 156.618 552.799 155.917 553.136C155.207 553.472 154.399 553.64 153.493 553.64L153.493 551.048C154.203 551.048 154.824 550.893 155.357 550.585C155.889 550.267 156.305 549.819 156.604 549.24C156.893 548.651 157.038 547.96 157.038 547.166C157.038 546.371 156.903 545.689 156.632 545.12C156.352 544.54 155.931 544.097 155.371 543.788C154.81 543.471 154.105 543.312 153.254 543.312C152.404 543.312 151.708 543.489 151.166 543.844C150.615 544.199 150.209 544.704 149.947 545.358C149.676 546.002 149.541 546.764 149.541 547.642L149.541 549.492ZM152.021 501.984L154.151 501.984L154.151 516.727L152.624 516.727L138.484 507.59L138.484 505.473L142.576 507.744L152.021 513.784L152.021 501.984ZM138.484 504.829L158.888 504.829L158.888 507.421L138.484 507.421L138.484 504.829ZM149.176 496.35L148.644 498.424L138.484 497.401L138.484 486.933L140.88 486.933L140.88 495.201L146.43 495.818C146.215 495.444 146.014 494.972 145.827 494.402C145.64 493.823 145.547 493.16 145.547 492.412C145.547 491.469 145.71 490.623 146.037 489.876C146.355 489.128 146.813 488.493 147.411 487.97C148.009 487.437 148.728 487.031 149.569 486.75C150.41 486.47 151.349 486.33 152.386 486.33C153.367 486.33 154.268 486.466 155.09 486.736C155.913 486.998 156.632 487.395 157.249 487.928C157.856 488.46 158.328 489.133 158.664 489.946C159 490.749 159.168 491.697 159.168 492.791C159.168 493.613 159.056 494.393 158.832 495.131C158.599 495.86 158.248 496.514 157.781 497.093C157.305 497.663 156.716 498.13 156.015 498.494C155.305 498.849 154.474 499.074 153.521 499.167L153.521 496.701C154.287 496.588 154.932 496.364 155.455 496.028C155.978 495.692 156.375 495.252 156.646 494.711C156.908 494.159 157.038 493.519 157.038 492.791C157.038 492.174 156.931 491.627 156.716 491.151C156.501 490.674 156.193 490.273 155.791 489.946C155.389 489.619 154.903 489.371 154.334 489.203C153.764 489.025 153.124 488.937 152.414 488.937C151.769 488.937 151.171 489.025 150.62 489.203C150.069 489.38 149.587 489.647 149.176 490.002C148.765 490.347 148.448 490.773 148.223 491.277C147.99 491.782 147.873 492.361 147.873 493.015C147.873 493.884 147.99 494.542 148.223 494.991C148.457 495.43 148.775 495.883 149.176 496.35ZM138.455 473.535L138.455 473.311L140.656 473.311L140.656 473.535C140.656 474.908 140.88 476.058 141.328 476.983C141.768 477.908 142.361 478.641 143.108 479.183C143.846 479.725 144.678 480.117 145.603 480.36C146.528 480.594 147.467 480.71 148.42 480.71L151.419 480.71C152.325 480.71 153.128 480.603 153.829 480.388C154.52 480.173 155.104 479.879 155.581 479.505C156.057 479.131 156.417 478.711 156.66 478.244C156.903 477.767 157.024 477.272 157.024 476.758C157.024 476.16 156.912 475.628 156.688 475.161C156.454 474.694 156.132 474.301 155.721 473.984C155.301 473.657 154.805 473.409 154.235 473.241C153.666 473.073 153.04 472.989 152.358 472.989C151.75 472.989 151.166 473.063 150.606 473.213C150.036 473.362 149.531 473.591 149.092 473.899C148.644 474.208 148.293 474.596 148.041 475.063C147.78 475.52 147.649 476.067 147.649 476.702C147.649 477.422 147.826 478.094 148.181 478.72C148.527 479.337 148.985 479.846 149.555 480.248C150.115 480.64 150.727 480.865 151.391 480.921L151.377 482.294C150.33 482.163 149.438 481.92 148.7 481.565C147.952 481.201 147.345 480.752 146.878 480.22C146.402 479.678 146.056 479.075 145.841 478.412C145.617 477.739 145.505 477.029 145.505 476.282C145.505 475.264 145.696 474.385 146.079 473.647C146.462 472.909 146.976 472.302 147.621 471.825C148.256 471.349 148.975 470.999 149.779 470.774C150.573 470.541 151.391 470.424 152.231 470.424C153.194 470.424 154.095 470.559 154.936 470.83C155.777 471.101 156.515 471.508 157.15 472.05C157.786 472.582 158.281 473.241 158.636 474.026C158.991 474.81 159.168 475.721 159.168 476.758C159.168 477.861 158.944 478.823 158.496 479.645C158.038 480.467 157.431 481.149 156.674 481.691C155.917 482.233 155.076 482.64 154.151 482.911C153.226 483.182 152.287 483.317 151.335 483.317L150.115 483.317C148.677 483.317 147.266 483.172 145.883 482.883C144.5 482.593 143.248 482.093 142.127 481.383C141.006 480.664 140.114 479.669 139.451 478.398C138.787 477.127 138.455 475.506 138.455 473.535ZM138.455 457.391L138.455 457.167L140.656 457.167L140.656 457.391C140.656 458.764 140.88 459.913 141.328 460.838C141.768 461.763 142.361 462.497 143.108 463.038C143.846 463.58 144.678 463.973 145.603 464.216C146.528 464.449 147.467 464.566 148.42 464.566L151.419 464.566C152.325 464.566 153.128 464.459 153.829 464.244C154.52 464.029 155.104 463.735 155.581 463.361C156.057 462.987 156.417 462.567 156.66 462.1C156.903 461.623 157.024 461.128 157.024 460.614C157.024 460.016 156.912 459.484 156.688 459.016C156.454 458.549 156.132 458.157 155.721 457.839C155.301 457.512 154.805 457.265 154.235 457.096C153.666 456.928 153.04 456.844 152.358 456.844C151.75 456.844 151.166 456.919 150.606 457.068C150.036 457.218 149.531 457.447 149.092 457.755C148.644 458.063 148.293 458.451 148.041 458.918C147.78 459.376 147.649 459.923 147.649 460.558C147.649 461.277 147.826 461.95 148.181 462.576C148.527 463.193 148.985 463.702 149.555 464.104C150.115 464.496 150.727 464.72 151.391 464.776L151.377 466.15C150.33 466.019 149.438 465.776 148.7 465.421C147.952 465.057 147.345 464.608 146.878 464.076C146.402 463.534 146.056 462.931 145.841 462.268C145.617 461.595 145.505 460.885 145.505 460.138C145.505 459.119 145.696 458.241 146.079 457.503C146.462 456.765 146.976 456.158 147.621 455.681C148.256 455.205 148.975 454.854 149.779 454.63C150.573 454.396 151.391 454.28 152.231 454.28C153.194 454.28 154.095 454.415 154.936 454.686C155.777 454.957 156.515 455.363 157.15 455.905C157.786 456.438 158.281 457.096 158.636 457.881C158.991 458.666 159.168 459.577 159.168 460.614C159.168 461.716 158.944 462.679 158.496 463.501C158.038 464.323 157.431 465.005 156.674 465.547C155.917 466.089 155.076 466.495 154.151 466.766C153.226 467.037 152.287 467.173 151.335 467.173L150.115 467.173C148.677 467.173 147.266 467.028 145.883 466.738C144.5 466.449 143.248 465.949 142.127 465.239C141.006 464.519 140.114 463.524 139.451 462.254C138.787 460.983 138.455 459.362 138.455 457.391ZM156.758 416.469L158.888 416.469L158.888 429.825L157.024 429.825L149.583 423.14C148.667 422.318 147.892 421.683 147.256 421.234C146.612 420.776 146.037 420.459 145.533 420.281C145.019 420.094 144.496 420.001 143.963 420.001C143.29 420.001 142.683 420.141 142.141 420.421C141.59 420.692 141.151 421.094 140.824 421.627C140.497 422.159 140.333 422.804 140.333 423.561C140.333 424.467 140.511 425.224 140.866 425.831C141.212 426.429 141.697 426.877 142.323 427.176C142.949 427.475 143.669 427.625 144.482 427.625L144.482 430.217C143.332 430.217 142.281 429.965 141.328 429.461C140.375 428.956 139.619 428.209 139.058 427.218C138.488 426.228 138.203 425.009 138.203 423.561C138.203 422.271 138.432 421.169 138.89 420.253C139.338 419.338 139.974 418.637 140.796 418.151C141.609 417.656 142.562 417.408 143.655 417.408C144.253 417.408 144.86 417.511 145.477 417.717C146.084 417.913 146.691 418.188 147.298 418.543C147.906 418.889 148.504 419.296 149.092 419.763C149.681 420.22 150.26 420.711 150.83 421.234L156.758 426.7L156.758 416.469ZM156.758 400.325L158.888 400.325L158.888 413.681L157.024 413.681L149.583 406.996C148.667 406.174 147.892 405.538 147.256 405.09C146.612 404.632 146.037 404.314 145.533 404.137C145.019 403.95 144.496 403.857 143.963 403.857C143.29 403.857 142.683 403.997 142.141 404.277C141.59 404.548 141.151 404.95 140.824 405.482C140.497 406.015 140.333 406.659 140.333 407.416C140.333 408.322 140.511 409.079 140.866 409.686C141.212 410.284 141.697 410.733 142.323 411.032C142.949 411.331 143.669 411.48 144.482 411.48L144.482 414.073C143.332 414.073 142.281 413.821 141.328 413.316C140.375 412.812 139.619 412.064 139.058 411.074C138.488 410.084 138.203 408.864 138.203 407.416C138.203 406.127 138.432 405.024 138.89 404.109C139.338 403.193 139.974 402.493 140.796 402.007C141.609 401.512 142.562 401.264 143.655 401.264C144.253 401.264 144.86 401.367 145.477 401.572C146.084 401.768 146.691 402.044 147.298 402.399C147.906 402.745 148.504 403.151 149.092 403.618C149.681 404.076 150.26 404.567 150.83 405.09L156.758 410.555L156.758 400.325ZM149.176 394.271L148.644 396.345L138.484 395.322L138.484 384.853L140.88 384.853L140.88 393.122L146.43 393.738C146.215 393.365 146.014 392.893 145.827 392.323C145.64 391.744 145.547 391.08 145.547 390.333C145.547 389.389 145.71 388.544 146.037 387.796C146.355 387.049 146.813 386.414 147.411 385.89C148.008 385.358 148.728 384.951 149.569 384.671C150.41 384.391 151.349 384.251 152.386 384.251C153.367 384.251 154.268 384.386 155.09 384.657C155.912 384.919 156.632 385.316 157.249 385.848C157.856 386.381 158.328 387.054 158.664 387.866C159 388.67 159.168 389.618 159.168 390.711C159.168 391.533 159.056 392.314 158.832 393.052C158.599 393.78 158.248 394.434 157.781 395.014C157.305 395.584 156.716 396.051 156.015 396.415C155.305 396.77 154.474 396.994 153.521 397.088L153.521 394.621C154.287 394.509 154.932 394.285 155.455 393.949C155.978 393.612 156.375 393.173 156.646 392.631C156.908 392.08 157.038 391.44 157.038 390.711C157.038 390.095 156.931 389.548 156.716 389.072C156.501 388.595 156.193 388.193 155.791 387.866C155.389 387.539 154.903 387.292 154.334 387.124C153.764 386.946 153.124 386.857 152.414 386.857C151.769 386.857 151.171 386.946 150.62 387.124C150.069 387.301 149.587 387.567 149.176 387.922C148.765 388.268 148.448 388.693 148.223 389.198C147.99 389.702 147.873 390.282 147.873 390.936C147.873 391.804 147.99 392.463 148.223 392.912C148.457 393.351 148.775 393.804 149.176 394.271ZM138.371 372.885L158.888 372.885L158.888 375.478L141.609 375.478L143.515 380.705L141.174 380.705L138.371 373.292L138.371 372.885ZM153.367 331.039C154.609 331.039 155.665 331.329 156.534 331.908C157.393 332.478 158.047 333.253 158.496 334.234C158.944 335.206 159.168 336.304 159.168 337.527C159.168 338.751 158.944 339.854 158.496 340.835C158.047 341.816 157.393 342.591 156.534 343.161C155.665 343.731 154.609 344.016 153.367 344.016C152.554 344.016 151.811 343.862 151.138 343.554C150.456 343.236 149.863 342.792 149.359 342.222C148.854 341.643 148.466 340.961 148.195 340.176C147.915 339.382 147.775 338.508 147.775 337.555C147.775 336.304 148.018 335.187 148.504 334.206C148.98 333.225 149.639 332.454 150.48 331.894C151.321 331.324 152.283 331.039 153.367 331.039ZM153.311 333.646C152.554 333.646 151.886 333.809 151.306 334.136C150.718 334.463 150.26 334.921 149.933 335.509C149.606 336.098 149.443 336.78 149.443 337.555C149.443 338.35 149.606 339.036 149.933 339.616C150.26 340.185 150.718 340.629 151.306 340.947C151.886 341.265 152.554 341.423 153.311 341.423C154.095 341.423 154.768 341.269 155.329 340.961C155.88 340.643 156.305 340.195 156.604 339.616C156.893 339.027 157.038 338.331 157.038 337.527C157.038 336.724 156.893 336.033 156.604 335.453C156.305 334.874 155.88 334.43 155.329 334.122C154.768 333.804 154.095 333.646 153.311 333.646ZM143.795 331.515C144.785 331.515 145.677 331.777 146.472 332.3C147.266 332.823 147.892 333.538 148.35 334.444C148.807 335.351 149.036 336.378 149.036 337.527C149.036 338.695 148.807 339.737 148.35 340.653C147.892 341.559 147.266 342.269 146.472 342.783C145.677 343.297 144.785 343.554 143.795 343.554C142.608 343.554 141.599 343.297 140.768 342.783C139.936 342.26 139.301 341.545 138.862 340.639C138.423 339.732 138.203 338.7 138.203 337.541C138.203 336.374 138.423 335.337 138.862 334.43C139.301 333.524 139.936 332.814 140.768 332.3C141.599 331.777 142.608 331.515 143.795 331.515ZM143.837 334.108C143.155 334.108 142.552 334.253 142.029 334.542C141.506 334.832 141.095 335.234 140.796 335.748C140.488 336.262 140.333 336.859 140.333 337.541C140.333 338.224 140.478 338.821 140.768 339.335C141.048 339.84 141.45 340.237 141.973 340.527C142.496 340.807 143.118 340.947 143.837 340.947C144.538 340.947 145.15 340.807 145.673 340.527C146.196 340.237 146.602 339.835 146.892 339.321C147.182 338.807 147.326 338.209 147.326 337.527C147.326 336.845 147.182 336.252 146.892 335.748C146.602 335.234 146.196 334.832 145.673 334.542C145.15 334.253 144.538 334.108 143.837 334.108ZM153.367 314.895C154.609 314.895 155.665 315.184 156.534 315.763C157.393 316.333 158.047 317.109 158.496 318.09C158.944 319.061 159.168 320.159 159.168 321.383C159.168 322.607 158.944 323.709 158.496 324.69C158.047 325.671 157.393 326.447 156.534 327.017C155.665 327.587 154.609 327.872 153.367 327.872C152.554 327.872 151.811 327.718 151.138 327.409C150.456 327.092 149.863 326.648 149.359 326.078C148.854 325.499 148.466 324.817 148.195 324.032C147.915 323.238 147.775 322.364 147.775 321.411C147.775 320.159 148.018 319.043 148.504 318.062C148.98 317.081 149.639 316.31 150.48 315.749C151.321 315.18 152.283 314.895 153.367 314.895ZM153.311 317.501C152.554 317.501 151.886 317.665 151.306 317.992C150.718 318.319 150.26 318.776 149.933 319.365C149.606 319.954 149.443 320.636 149.443 321.411C149.443 322.205 149.606 322.892 149.933 323.471C150.26 324.041 150.718 324.485 151.306 324.803C151.886 325.12 152.554 325.279 153.311 325.279C154.095 325.279 154.768 325.125 155.329 324.817C155.88 324.499 156.305 324.05 156.604 323.471C156.893 322.883 157.038 322.187 157.038 321.383C157.038 320.58 156.893 319.888 156.604 319.309C156.305 318.73 155.88 318.286 155.329 317.978C154.768 317.66 154.095 317.501 153.311 317.501ZM143.795 315.371C144.785 315.371 145.677 315.633 146.472 316.156C147.266 316.679 147.892 317.394 148.35 318.3C148.807 319.206 149.036 320.234 149.036 321.383C149.036 322.551 148.807 323.593 148.35 324.508C147.892 325.415 147.266 326.125 146.472 326.638C145.677 327.152 144.785 327.409 143.795 327.409C142.608 327.409 141.599 327.152 140.768 326.638C139.936 326.115 139.301 325.401 138.862 324.494C138.423 323.588 138.203 322.556 138.203 321.397C138.203 320.229 138.423 319.192 138.862 318.286C139.301 317.38 139.936 316.67 140.768 316.156C141.599 315.633 142.608 315.371 143.795 315.371ZM143.837 317.964C143.155 317.964 142.552 318.108 142.029 318.398C141.506 318.688 141.095 319.089 140.796 319.603C140.488 320.117 140.333 320.715 140.333 321.397C140.333 322.079 140.478 322.677 140.768 323.191C141.048 323.695 141.45 324.093 141.973 324.382C142.496 324.662 143.118 324.803 143.837 324.803C144.538 324.803 145.15 324.662 145.673 324.382C146.196 324.093 146.602 323.691 146.892 323.177C147.182 322.663 147.326 322.065 147.326 321.383C147.326 320.701 147.182 320.108 146.892 319.603C146.602 319.089 146.196 318.688 145.673 318.398C145.15 318.108 144.538 317.964 143.837 317.964ZM152.021 297.825L154.151 297.825L154.151 312.568L152.624 312.568L138.484 303.431L138.484 301.315L142.576 303.585L152.021 309.625L152.021 297.825ZM138.484 300.67L158.888 300.67L158.888 303.263L138.484 303.263L138.484 300.67ZM156.716 292.892L156.716 292.626C156.716 291.131 156.506 289.917 156.085 288.982C155.665 288.048 155.1 287.329 154.39 286.824C153.68 286.32 152.881 285.974 151.993 285.787C151.096 285.6 150.176 285.507 149.232 285.507L146.107 285.507C145.182 285.507 144.36 285.614 143.641 285.829C142.921 286.035 142.319 286.324 141.833 286.698C141.347 287.062 140.978 287.478 140.726 287.945C140.474 288.412 140.347 288.908 140.347 289.431C140.347 290.029 140.469 290.566 140.712 291.042C140.945 291.51 141.277 291.907 141.707 292.234C142.137 292.551 142.641 292.794 143.22 292.962C143.8 293.131 144.43 293.215 145.112 293.215C145.72 293.215 146.308 293.14 146.878 292.99C147.448 292.841 147.962 292.612 148.42 292.304C148.877 291.995 149.242 291.612 149.513 291.155C149.774 290.687 149.905 290.141 149.905 289.515C149.905 288.936 149.793 288.394 149.569 287.889C149.335 287.375 149.022 286.922 148.63 286.53C148.228 286.128 147.775 285.81 147.27 285.577C146.766 285.334 146.238 285.194 145.687 285.156L145.687 283.923C146.462 283.923 147.228 284.077 147.985 284.386C148.733 284.685 149.415 285.105 150.031 285.647C150.648 286.189 151.143 286.824 151.517 287.553C151.881 288.282 152.063 289.076 152.063 289.935C152.063 290.944 151.867 291.818 151.475 292.556C151.082 293.294 150.559 293.901 149.905 294.378C149.251 294.845 148.522 295.195 147.719 295.429C146.906 295.653 146.084 295.765 145.252 295.765C144.281 295.765 143.37 295.63 142.52 295.359C141.669 295.088 140.922 294.686 140.277 294.154C139.623 293.621 139.114 292.962 138.75 292.178C138.385 291.383 138.203 290.468 138.203 289.431C138.203 288.263 138.437 287.268 138.904 286.446C139.371 285.624 139.997 284.956 140.782 284.442C141.567 283.919 142.45 283.535 143.431 283.293C144.412 283.05 145.421 282.928 146.458 282.928L147.397 282.928C148.452 282.928 149.527 282.998 150.62 283.138C151.704 283.269 152.741 283.526 153.731 283.909C154.721 284.283 155.609 284.829 156.394 285.549C157.169 286.268 157.786 287.207 158.244 288.366C158.692 289.515 158.916 290.935 158.916 292.626L158.916 292.892L156.716 292.892Z" fill="white"/>
<path d="M193.008 325.168L195.23 325.168C196.425 325.168 197.432 325.274 198.253 325.488C199.074 325.701 199.735 326.008 200.235 326.409C200.736 326.809 201.1 327.293 201.326 327.86C201.547 328.421 201.657 329.055 201.657 329.762C201.657 330.323 201.587 330.84 201.447 331.314C201.306 331.788 201.083 332.215 200.776 332.595C200.462 332.969 200.055 333.289 199.555 333.556C199.054 333.823 198.447 334.027 197.733 334.167C197.019 334.307 196.185 334.377 195.23 334.377L193.008 334.377C191.813 334.377 190.812 334.27 190.005 334.057C189.197 333.836 188.55 333.526 188.063 333.126C187.569 332.725 187.215 332.245 187.002 331.684C186.788 331.117 186.682 330.483 186.682 329.782C186.682 329.215 186.752 328.694 186.892 328.221C187.025 327.74 187.242 327.313 187.542 326.939C187.836 326.566 188.23 326.249 188.724 325.988C189.211 325.721 189.808 325.518 190.515 325.378C191.223 325.238 192.054 325.168 193.008 325.168ZM195.531 327.029L192.698 327.029C192.044 327.029 191.47 327.07 190.976 327.15C190.475 327.223 190.048 327.333 189.695 327.48C189.341 327.627 189.054 327.814 188.834 328.04C188.614 328.261 188.453 328.518 188.353 328.811C188.247 329.098 188.193 329.422 188.193 329.782C188.193 330.223 188.277 330.613 188.443 330.953C188.604 331.294 188.86 331.581 189.214 331.814C189.568 332.041 190.032 332.215 190.606 332.335C191.179 332.455 191.877 332.515 192.698 332.515L195.531 332.515C196.185 332.515 196.762 332.478 197.262 332.405C197.763 332.325 198.197 332.208 198.564 332.055C198.924 331.901 199.221 331.714 199.455 331.494C199.688 331.274 199.862 331.02 199.975 330.733C200.082 330.44 200.135 330.116 200.135 329.762C200.135 329.308 200.048 328.911 199.875 328.571C199.701 328.231 199.431 327.947 199.064 327.72C198.69 327.487 198.213 327.313 197.633 327.2C197.045 327.086 196.345 327.029 195.531 327.029ZM186.802 316.699L201.457 316.699L201.457 318.551L189.114 318.551L190.475 322.285L188.804 322.285L186.802 316.989L186.802 316.699ZM186.882 304.607L202.708 310.683L202.708 312.275L186.882 306.188L186.882 304.607ZM199.935 293.235L201.457 293.235L201.457 302.775L200.125 302.775L194.81 298C194.156 297.413 193.602 296.959 193.148 296.639C192.688 296.312 192.277 296.085 191.917 295.958C191.55 295.825 191.176 295.758 190.796 295.758C190.315 295.758 189.881 295.858 189.494 296.058C189.101 296.252 188.787 296.539 188.553 296.919C188.32 297.299 188.203 297.76 188.203 298.3C188.203 298.948 188.33 299.488 188.584 299.922C188.83 300.349 189.177 300.669 189.625 300.883C190.072 301.097 190.586 301.203 191.166 301.203L191.166 303.055C190.345 303.055 189.595 302.875 188.914 302.515C188.233 302.154 187.693 301.62 187.292 300.913C186.885 300.206 186.682 299.335 186.682 298.3C186.682 297.379 186.845 296.592 187.172 295.938C187.492 295.284 187.946 294.784 188.533 294.436C189.114 294.083 189.795 293.906 190.576 293.906C191.003 293.906 191.436 293.979 191.877 294.126C192.311 294.266 192.744 294.463 193.178 294.717C193.612 294.964 194.039 295.254 194.459 295.588C194.88 295.915 195.294 296.265 195.701 296.639L199.935 300.543L199.935 293.235ZM193.258 288.551L193.258 287.229C193.258 286.582 193.151 286.048 192.938 285.628C192.718 285.2 192.421 284.883 192.047 284.677C191.667 284.463 191.24 284.356 190.766 284.356C190.205 284.356 189.735 284.45 189.354 284.637C188.974 284.823 188.687 285.104 188.493 285.477C188.3 285.851 188.203 286.325 188.203 286.899C188.203 287.419 188.307 287.88 188.513 288.28C188.714 288.674 189.001 288.984 189.374 289.211C189.748 289.431 190.188 289.542 190.696 289.542L190.696 291.393C189.955 291.393 189.281 291.207 188.674 290.833C188.066 290.459 187.582 289.935 187.222 289.261C186.862 288.581 186.682 287.793 186.682 286.899C186.682 286.018 186.838 285.247 187.152 284.587C187.459 283.926 187.92 283.412 188.533 283.045C189.141 282.678 189.898 282.494 190.806 282.494C191.173 282.494 191.567 282.581 191.987 282.755C192.401 282.922 192.788 283.185 193.148 283.545C193.508 283.899 193.805 284.36 194.039 284.927C194.266 285.494 194.379 286.175 194.379 286.969L194.379 288.551L193.258 288.551ZM194.78 288.551L193.669 288.551L193.669 286.969C193.669 286.041 193.779 285.274 193.999 284.667C194.219 284.059 194.513 283.582 194.88 283.235C195.247 282.881 195.651 282.635 196.091 282.494C196.525 282.348 196.959 282.274 197.392 282.274C198.073 282.274 198.677 282.391 199.204 282.625C199.731 282.851 200.179 283.175 200.546 283.596C200.913 284.009 201.19 284.496 201.376 285.057C201.563 285.618 201.657 286.228 201.657 286.889C201.657 287.523 201.567 288.12 201.386 288.681C201.206 289.235 200.946 289.725 200.606 290.152C200.259 290.579 199.835 290.913 199.334 291.153C198.827 291.393 198.25 291.514 197.603 291.514L197.603 289.662C198.11 289.662 198.554 289.552 198.934 289.331C199.314 289.104 199.611 288.784 199.825 288.37C200.032 287.95 200.135 287.456 200.135 286.889C200.135 286.322 200.038 285.834 199.845 285.427C199.645 285.014 199.344 284.697 198.944 284.476C198.544 284.25 198.04 284.136 197.432 284.136C196.825 284.136 196.328 284.263 195.941 284.516C195.547 284.77 195.257 285.13 195.07 285.598C194.877 286.058 194.78 286.602 194.78 287.229L194.78 288.551Z" fill="white"/>
<g filter="url(#filter1_b_583_4556)">
<rect x="182.457" y="-0.000976562" width="281.544" height="451.016" rx="27.3343" fill="url(#paint3_linear_583_4556)"/>
<rect x="183.653" y="1.1949" width="279.152" height="448.625" rx="26.1385" stroke="url(#paint4_radial_583_4556)" stroke-width="2.39175"/>
<rect x="183.653" y="1.1949" width="279.152" height="448.625" rx="26.1385" stroke="url(#paint5_radial_583_4556)" stroke-width="2.39175"/>
</g>
<path d="M329.517 371.592L332.628 371.592C334.3 371.592 335.711 371.741 336.86 372.04C338.009 372.339 338.934 372.769 339.635 373.33C340.336 373.89 340.845 374.567 341.163 375.362C341.471 376.146 341.625 377.034 341.625 378.024C341.625 378.809 341.527 379.533 341.331 380.196C341.135 380.86 340.822 381.458 340.392 381.99C339.953 382.513 339.383 382.962 338.682 383.336C337.981 383.709 337.131 383.994 336.131 384.191C335.132 384.387 333.964 384.485 332.628 384.485L329.517 384.485C327.844 384.485 326.443 384.335 325.313 384.036C324.182 383.728 323.276 383.294 322.594 382.733C321.902 382.172 321.407 381.5 321.108 380.715C320.809 379.921 320.66 379.033 320.66 378.052C320.66 377.258 320.758 376.529 320.954 375.866C321.141 375.193 321.445 374.595 321.865 374.072C322.276 373.549 322.827 373.105 323.519 372.741C324.201 372.367 325.037 372.082 326.027 371.886C327.018 371.69 328.181 371.592 329.517 371.592ZM333.048 374.198L329.082 374.198C328.167 374.198 327.363 374.254 326.672 374.367C325.971 374.469 325.373 374.623 324.878 374.829C324.383 375.035 323.981 375.296 323.673 375.614C323.365 375.922 323.14 376.282 323 376.693C322.851 377.095 322.776 377.548 322.776 378.052C322.776 378.669 322.893 379.215 323.126 379.692C323.351 380.168 323.71 380.57 324.205 380.897C324.701 381.215 325.35 381.458 326.153 381.626C326.957 381.794 327.933 381.878 329.082 381.878L333.048 381.878C333.964 381.878 334.772 381.827 335.473 381.724C336.173 381.612 336.781 381.448 337.295 381.234C337.799 381.019 338.215 380.757 338.542 380.449C338.869 380.14 339.112 379.785 339.271 379.384C339.42 378.973 339.495 378.519 339.495 378.024C339.495 377.389 339.373 376.833 339.13 376.357C338.888 375.88 338.509 375.483 337.995 375.165C337.472 374.838 336.804 374.595 335.991 374.437C335.169 374.278 334.188 374.198 333.048 374.198ZM320.828 359.736L341.345 359.736L341.345 362.328L324.065 362.328L325.971 367.556L323.631 367.556L320.828 360.142L320.828 359.736ZM339.215 338.743L341.345 338.743L341.345 352.098L339.481 352.098L332.039 345.413C331.124 344.591 330.348 343.956 329.713 343.507C329.068 343.05 328.494 342.732 327.989 342.554C327.475 342.368 326.952 342.274 326.42 342.274C325.747 342.274 325.14 342.414 324.598 342.695C324.047 342.965 323.607 343.367 323.28 343.9C322.953 344.432 322.79 345.077 322.79 345.834C322.79 346.74 322.967 347.497 323.322 348.104C323.668 348.702 324.154 349.15 324.78 349.449C325.406 349.748 326.125 349.898 326.938 349.898L326.938 352.49C325.789 352.49 324.738 352.238 323.785 351.734C322.832 351.229 322.075 350.482 321.515 349.491C320.945 348.501 320.66 347.282 320.66 345.834C320.66 344.544 320.889 343.442 321.346 342.526C321.795 341.611 322.43 340.91 323.252 340.424C324.065 339.929 325.018 339.681 326.111 339.681C326.709 339.681 327.317 339.784 327.933 339.99C328.54 340.186 329.148 340.462 329.755 340.817C330.362 341.162 330.96 341.569 331.549 342.036C332.137 342.494 332.717 342.984 333.287 343.507L339.215 348.973L339.215 338.743ZM329.867 332.184L329.867 330.334C329.867 329.428 329.718 328.68 329.419 328.092C329.11 327.494 328.695 327.05 328.171 326.76C327.639 326.461 327.041 326.312 326.378 326.312C325.593 326.312 324.934 326.443 324.402 326.704C323.869 326.966 323.467 327.358 323.196 327.882C322.925 328.405 322.79 329.068 322.79 329.872C322.79 330.6 322.935 331.245 323.224 331.805C323.505 332.357 323.906 332.791 324.43 333.109C324.953 333.417 325.569 333.571 326.279 333.571L326.279 336.164C325.242 336.164 324.299 335.902 323.449 335.379C322.598 334.856 321.921 334.123 321.417 333.179C320.912 332.226 320.66 331.123 320.66 329.872C320.66 328.638 320.879 327.559 321.318 326.634C321.748 325.709 322.393 324.99 323.252 324.476C324.103 323.962 325.163 323.705 326.434 323.705C326.947 323.705 327.499 323.827 328.087 324.07C328.667 324.303 329.208 324.672 329.713 325.177C330.217 325.672 330.633 326.317 330.96 327.111C331.278 327.905 331.437 328.858 331.437 329.97L331.437 332.184L329.867 332.184ZM331.997 332.184L330.442 332.184L330.442 329.97C330.442 328.671 330.596 327.597 330.904 326.746C331.212 325.896 331.624 325.228 332.137 324.742C332.651 324.247 333.216 323.901 333.833 323.705C334.44 323.5 335.048 323.397 335.655 323.397C336.608 323.397 337.453 323.56 338.192 323.887C338.93 324.205 339.556 324.658 340.069 325.247C340.583 325.826 340.971 326.508 341.233 327.293C341.494 328.078 341.625 328.933 341.625 329.858C341.625 330.745 341.499 331.581 341.247 332.366C340.994 333.142 340.63 333.828 340.154 334.426C339.668 335.024 339.074 335.491 338.374 335.828C337.664 336.164 336.856 336.332 335.949 336.332L335.949 333.739C336.659 333.739 337.281 333.585 337.813 333.277C338.346 332.959 338.761 332.511 339.06 331.932C339.35 331.343 339.495 330.652 339.495 329.858C339.495 329.063 339.359 328.381 339.088 327.811C338.808 327.232 338.388 326.788 337.827 326.48C337.267 326.162 336.561 326.004 335.711 326.004C334.861 326.004 334.165 326.181 333.623 326.536C333.072 326.891 332.665 327.396 332.404 328.05C332.133 328.694 331.997 329.456 331.997 330.334L331.997 332.184ZM334.478 284.676L336.608 284.676L336.608 299.419L335.08 299.419L320.94 290.281L320.94 288.165L325.032 290.436L334.478 296.476L334.478 284.676ZM320.94 287.521L341.345 287.521L341.345 290.113L320.94 290.113L320.94 287.521ZM331.633 279.042L331.1 281.116L320.94 280.093L320.94 269.625L323.336 269.625L323.336 277.893L328.886 278.51C328.671 278.136 328.47 277.664 328.284 277.094C328.097 276.515 328.003 275.852 328.003 275.104C328.003 274.16 328.167 273.315 328.494 272.568C328.811 271.82 329.269 271.185 329.867 270.662C330.465 270.129 331.184 269.723 332.025 269.442C332.866 269.162 333.805 269.022 334.842 269.022C335.823 269.022 336.725 269.157 337.547 269.428C338.369 269.69 339.088 270.087 339.705 270.62C340.312 271.152 340.784 271.825 341.12 272.638C341.457 273.441 341.625 274.389 341.625 275.482C341.625 276.305 341.513 277.085 341.289 277.823C341.055 278.552 340.705 279.206 340.238 279.785C339.761 280.355 339.173 280.822 338.472 281.186C337.762 281.541 336.93 281.766 335.977 281.859L335.977 279.392C336.743 279.28 337.388 279.056 337.911 278.72C338.434 278.383 338.832 277.944 339.102 277.402C339.364 276.851 339.495 276.211 339.495 275.482C339.495 274.866 339.387 274.319 339.173 273.843C338.958 273.366 338.649 272.965 338.248 272.638C337.846 272.311 337.36 272.063 336.79 271.895C336.22 271.717 335.58 271.629 334.87 271.629C334.226 271.629 333.628 271.717 333.076 271.895C332.525 272.072 332.044 272.339 331.633 272.694C331.222 273.039 330.904 273.464 330.68 273.969C330.446 274.473 330.33 275.053 330.33 275.707C330.33 276.576 330.446 277.234 330.68 277.683C330.913 278.122 331.231 278.575 331.633 279.042ZM320.912 256.227L320.912 256.003L323.112 256.003L323.112 256.227C323.112 257.6 323.336 258.75 323.785 259.674C324.224 260.599 324.817 261.333 325.565 261.875C326.303 262.417 327.134 262.809 328.059 263.052C328.984 263.285 329.923 263.402 330.876 263.402L333.875 263.402C334.781 263.402 335.585 263.295 336.286 263.08C336.977 262.865 337.561 262.571 338.037 262.197C338.514 261.823 338.874 261.403 339.116 260.936C339.359 260.459 339.481 259.964 339.481 259.45C339.481 258.852 339.369 258.32 339.144 257.853C338.911 257.386 338.589 256.993 338.178 256.675C337.757 256.348 337.262 256.101 336.692 255.933C336.122 255.765 335.496 255.68 334.814 255.68C334.207 255.68 333.623 255.755 333.062 255.905C332.492 256.054 331.988 256.283 331.549 256.591C331.1 256.9 330.75 257.287 330.498 257.755C330.236 258.212 330.105 258.759 330.105 259.394C330.105 260.114 330.283 260.786 330.638 261.412C330.984 262.029 331.441 262.538 332.011 262.94C332.572 263.332 333.184 263.556 333.847 263.612L333.833 264.986C332.787 264.855 331.894 264.612 331.156 264.257C330.409 263.893 329.802 263.444 329.335 262.912C328.858 262.37 328.512 261.767 328.298 261.104C328.073 260.431 327.961 259.721 327.961 258.974C327.961 257.955 328.153 257.077 328.536 256.339C328.919 255.601 329.433 254.994 330.077 254.517C330.713 254.041 331.432 253.69 332.236 253.466C333.03 253.233 333.847 253.116 334.688 253.116C335.65 253.116 336.552 253.251 337.393 253.522C338.234 253.793 338.972 254.2 339.607 254.741C340.242 255.274 340.737 255.933 341.092 256.717C341.447 257.502 341.625 258.413 341.625 259.45C341.625 260.553 341.401 261.515 340.952 262.337C340.495 263.159 339.887 263.841 339.13 264.383C338.374 264.925 337.533 265.332 336.608 265.602C335.683 265.873 334.744 266.009 333.791 266.009L332.572 266.009C331.133 266.009 329.722 265.864 328.34 265.574C326.957 265.285 325.705 264.785 324.584 264.075C323.463 263.356 322.57 262.361 321.907 261.09C321.244 259.819 320.912 258.198 320.912 256.227ZM320.912 240.083L320.912 239.858L323.112 239.858L323.112 240.083C323.112 241.456 323.336 242.605 323.785 243.53C324.224 244.455 324.817 245.189 325.565 245.73C326.303 246.272 327.134 246.665 328.059 246.908C328.984 247.141 329.923 247.258 330.876 247.258L333.875 247.258C334.781 247.258 335.585 247.15 336.286 246.936C336.977 246.721 337.561 246.426 338.037 246.053C338.514 245.679 338.874 245.259 339.116 244.791C339.359 244.315 339.481 243.82 339.481 243.306C339.481 242.708 339.369 242.175 339.144 241.708C338.911 241.241 338.589 240.849 338.178 240.531C337.757 240.204 337.262 239.957 336.692 239.788C336.122 239.62 335.496 239.536 334.814 239.536C334.207 239.536 333.623 239.611 333.062 239.76C332.492 239.91 331.988 240.139 331.549 240.447C331.1 240.755 330.75 241.143 330.498 241.61C330.236 242.068 330.105 242.615 330.105 243.25C330.105 243.969 330.283 244.642 330.638 245.268C330.984 245.885 331.441 246.394 332.011 246.795C332.572 247.188 333.184 247.412 333.847 247.468L333.833 248.842C332.787 248.711 331.894 248.468 331.156 248.113C330.409 247.748 329.802 247.3 329.335 246.767C328.858 246.226 328.512 245.623 328.298 244.96C328.073 244.287 327.961 243.577 327.961 242.829C327.961 241.811 328.153 240.933 328.536 240.195C328.919 239.457 329.433 238.849 330.077 238.373C330.713 237.896 331.432 237.546 332.236 237.322C333.03 237.088 333.847 236.972 334.688 236.972C335.65 236.972 336.552 237.107 337.393 237.378C338.234 237.649 338.972 238.055 339.607 238.597C340.242 239.13 340.737 239.788 341.092 240.573C341.447 241.358 341.625 242.269 341.625 243.306C341.625 244.408 341.401 245.371 340.952 246.193C340.495 247.015 339.887 247.697 339.13 248.239C338.374 248.781 337.533 249.187 336.608 249.458C335.683 249.729 334.744 249.865 333.791 249.865L332.572 249.865C331.133 249.865 329.722 249.72 328.34 249.43C326.957 249.141 325.705 248.641 324.584 247.931C323.463 247.211 322.57 246.216 321.907 244.946C321.244 243.675 320.912 242.054 320.912 240.083ZM339.215 199.161L341.345 199.161L341.345 212.517L339.481 212.517L332.039 205.832C331.124 205.01 330.348 204.375 329.713 203.926C329.068 203.468 328.494 203.151 327.989 202.973C327.475 202.786 326.952 202.693 326.42 202.693C325.747 202.693 325.14 202.833 324.598 203.113C324.047 203.384 323.607 203.786 323.28 204.318C322.953 204.851 322.79 205.496 322.79 206.252C322.79 207.159 322.967 207.915 323.322 208.523C323.668 209.121 324.154 209.569 324.78 209.868C325.406 210.167 326.125 210.317 326.938 210.317L326.938 212.909C325.789 212.909 324.738 212.657 323.785 212.152C322.832 211.648 322.075 210.9 321.515 209.91C320.945 208.92 320.66 207.701 320.66 206.252C320.66 204.963 320.889 203.861 321.346 202.945C321.795 202.029 322.43 201.329 323.252 200.843C324.065 200.348 325.018 200.1 326.111 200.1C326.709 200.1 327.317 200.203 327.933 200.409C328.54 200.605 329.148 200.88 329.755 201.235C330.362 201.581 330.96 201.987 331.549 202.455C332.137 202.912 332.717 203.403 333.287 203.926L339.215 209.392L339.215 199.161ZM339.215 183.017L341.345 183.017L341.345 196.372L339.481 196.372L332.039 189.688C331.124 188.865 330.348 188.23 329.713 187.782C329.068 187.324 328.494 187.006 327.989 186.829C327.475 186.642 326.952 186.548 326.42 186.548C325.747 186.548 325.14 186.689 324.598 186.969C324.047 187.24 323.607 187.642 323.28 188.174C322.953 188.707 322.79 189.351 322.79 190.108C322.79 191.014 322.967 191.771 323.322 192.378C323.668 192.976 324.154 193.425 324.78 193.724C325.406 194.023 326.125 194.172 326.938 194.172L326.938 196.765C325.789 196.765 324.738 196.513 323.785 196.008C322.832 195.504 322.075 194.756 321.515 193.766C320.945 192.775 320.66 191.556 320.66 190.108C320.66 188.819 320.889 187.716 321.346 186.801C321.795 185.885 322.43 185.184 323.252 184.699C324.065 184.203 325.018 183.956 326.111 183.956C326.709 183.956 327.317 184.059 327.933 184.264C328.54 184.46 329.148 184.736 329.755 185.091C330.362 185.437 330.96 185.843 331.549 186.31C332.137 186.768 332.717 187.259 333.287 187.782L339.215 193.247L339.215 183.017ZM331.633 176.963L331.1 179.037L320.94 178.014L320.94 167.545L323.336 167.545L323.336 175.814L328.886 176.43C328.671 176.057 328.47 175.585 328.283 175.015C328.097 174.436 328.003 173.772 328.003 173.025C328.003 172.081 328.167 171.236 328.494 170.488C328.811 169.741 329.269 169.105 329.867 168.582C330.465 168.05 331.184 167.643 332.025 167.363C332.866 167.083 333.805 166.943 334.842 166.943C335.823 166.943 336.725 167.078 337.547 167.349C338.369 167.611 339.088 168.008 339.705 168.54C340.312 169.073 340.784 169.745 341.12 170.558C341.457 171.362 341.625 172.31 341.625 173.403C341.625 174.225 341.513 175.005 341.289 175.744C341.055 176.472 340.705 177.126 340.238 177.706C339.761 178.275 339.173 178.743 338.472 179.107C337.762 179.462 336.93 179.686 335.977 179.78L335.977 177.313C336.743 177.201 337.388 176.977 337.911 176.64C338.434 176.304 338.832 175.865 339.102 175.323C339.364 174.772 339.495 174.132 339.495 173.403C339.495 172.787 339.387 172.24 339.173 171.764C338.958 171.287 338.649 170.885 338.248 170.558C337.846 170.231 337.36 169.984 336.79 169.816C336.22 169.638 335.58 169.549 334.87 169.549C334.226 169.549 333.628 169.638 333.076 169.816C332.525 169.993 332.044 170.259 331.633 170.614C331.222 170.96 330.904 171.385 330.68 171.89C330.446 172.394 330.33 172.973 330.33 173.627C330.33 174.496 330.446 175.155 330.68 175.603C330.913 176.043 331.231 176.496 331.633 176.963ZM320.828 155.577L341.345 155.577L341.345 158.17L324.065 158.17L325.971 163.397L323.631 163.397L320.828 155.984L320.828 155.577ZM335.823 113.731C337.066 113.731 338.121 114.02 338.99 114.6C339.85 115.17 340.504 115.945 340.952 116.926C341.401 117.898 341.625 118.995 341.625 120.219C341.625 121.443 341.401 122.546 340.952 123.527C340.504 124.508 339.85 125.283 338.99 125.853C338.121 126.423 337.066 126.708 335.823 126.708C335.01 126.708 334.268 126.554 333.595 126.245C332.913 125.928 332.32 125.484 331.815 124.914C331.311 124.335 330.923 123.653 330.652 122.868C330.372 122.074 330.231 121.2 330.231 120.247C330.231 118.995 330.474 117.879 330.96 116.898C331.437 115.917 332.095 115.146 332.936 114.586C333.777 114.016 334.739 113.731 335.823 113.731ZM335.767 116.337C335.01 116.337 334.342 116.501 333.763 116.828C333.174 117.155 332.717 117.613 332.39 118.201C332.063 118.79 331.899 119.472 331.899 120.247C331.899 121.042 332.063 121.728 332.39 122.307C332.717 122.877 333.174 123.321 333.763 123.639C334.342 123.956 335.01 124.115 335.767 124.115C336.552 124.115 337.225 123.961 337.785 123.653C338.336 123.335 338.761 122.887 339.06 122.307C339.35 121.719 339.495 121.023 339.495 120.219C339.495 119.416 339.35 118.725 339.06 118.145C338.761 117.566 338.336 117.122 337.785 116.814C337.225 116.496 336.552 116.337 335.767 116.337ZM326.251 114.207C327.242 114.207 328.134 114.469 328.928 114.992C329.722 115.515 330.348 116.23 330.806 117.136C331.264 118.042 331.493 119.07 331.493 120.219C331.493 121.387 331.264 122.429 330.806 123.345C330.348 124.251 329.722 124.961 328.928 125.475C328.134 125.989 327.242 126.245 326.251 126.245C325.065 126.245 324.056 125.989 323.224 125.475C322.393 124.951 321.758 124.237 321.318 123.331C320.879 122.424 320.66 121.392 320.66 120.233C320.66 119.066 320.879 118.028 321.318 117.122C321.758 116.216 322.393 115.506 323.224 114.992C324.056 114.469 325.065 114.207 326.251 114.207ZM326.293 116.8C325.611 116.8 325.009 116.945 324.486 117.234C323.962 117.524 323.551 117.926 323.252 118.44C322.944 118.953 322.79 119.551 322.79 120.233C322.79 120.915 322.935 121.513 323.224 122.027C323.505 122.532 323.906 122.929 324.43 123.218C324.953 123.499 325.574 123.639 326.293 123.639C326.994 123.639 327.606 123.499 328.129 123.218C328.653 122.929 329.059 122.527 329.349 122.013C329.638 121.499 329.783 120.901 329.783 120.219C329.783 119.537 329.638 118.944 329.349 118.44C329.059 117.926 328.653 117.524 328.129 117.234C327.606 116.945 326.994 116.8 326.293 116.8ZM335.823 97.5864C337.066 97.5864 338.121 97.8761 338.99 98.4553C339.85 99.0252 340.504 99.8007 340.952 100.782C341.401 101.753 341.625 102.851 341.625 104.075C341.625 105.299 341.401 106.401 340.952 107.382C340.504 108.363 339.85 109.139 338.99 109.709C338.121 110.279 337.066 110.564 335.823 110.564C335.01 110.564 334.268 110.409 333.595 110.101C332.913 109.783 332.32 109.34 331.815 108.77C331.311 108.191 330.923 107.508 330.652 106.724C330.372 105.93 330.231 105.056 330.231 104.103C330.231 102.851 330.474 101.735 330.96 100.754C331.437 99.7727 332.095 99.0019 332.936 98.4413C333.777 97.8714 334.739 97.5864 335.823 97.5864ZM335.767 100.193C335.01 100.193 334.342 100.357 333.763 100.684C333.174 101.011 332.717 101.468 332.39 102.057C332.063 102.646 331.899 103.328 331.899 104.103C331.899 104.897 332.063 105.584 332.39 106.163C332.717 106.733 333.174 107.177 333.763 107.494C334.342 107.812 335.01 107.971 335.767 107.971C336.552 107.971 337.225 107.817 337.785 107.508C338.336 107.191 338.761 106.742 339.06 106.163C339.35 105.575 339.495 104.878 339.495 104.075C339.495 103.272 339.35 102.58 339.06 102.001C338.761 101.422 338.336 100.978 337.785 100.67C337.225 100.352 336.552 100.193 335.767 100.193ZM326.251 98.0629C327.242 98.0629 328.134 98.3245 328.928 98.8477C329.722 99.3709 330.348 100.086 330.806 100.992C331.264 101.898 331.493 102.926 331.493 104.075C331.493 105.243 331.264 106.285 330.806 107.2C330.348 108.106 329.722 108.816 328.928 109.33C328.134 109.844 327.242 110.101 326.251 110.101C325.065 110.101 324.056 109.844 323.224 109.33C322.393 108.807 321.758 108.092 321.318 107.186C320.879 106.28 320.66 105.248 320.66 104.089C320.66 102.921 320.879 101.884 321.318 100.978C321.758 100.072 322.393 99.3616 323.224 98.8477C324.056 98.3245 325.065 98.0629 326.251 98.0629ZM326.293 100.656C325.611 100.656 325.009 100.8 324.486 101.09C323.962 101.38 323.551 101.781 323.252 102.295C322.944 102.809 322.79 103.407 322.79 104.089C322.79 104.771 322.935 105.369 323.224 105.883C323.505 106.387 323.906 106.784 324.43 107.074C324.953 107.354 325.574 107.494 326.293 107.494C326.994 107.494 327.606 107.354 328.129 107.074C328.653 106.784 329.059 106.383 329.349 105.869C329.638 105.355 329.783 104.757 329.783 104.075C329.783 103.393 329.638 102.8 329.349 102.295C329.059 101.781 328.653 101.38 328.129 101.09C327.606 100.8 326.994 100.656 326.293 100.656ZM334.478 80.5172L336.608 80.5172L336.608 95.2601L335.08 95.2601L320.94 86.1228L320.94 84.0067L325.032 86.277L334.478 92.3171L334.478 80.5172ZM320.94 83.362L341.345 83.362L341.345 85.9547L320.94 85.9547L320.94 83.362ZM339.173 75.5842L339.173 75.3179C339.173 73.8231 338.962 72.6085 338.542 71.6742C338.121 70.74 337.556 70.0206 336.846 69.5161C336.136 69.0115 335.337 68.6659 334.45 68.479C333.553 68.2921 332.633 68.1987 331.689 68.1987L328.564 68.1987C327.639 68.1987 326.817 68.3062 326.097 68.521C325.378 68.7266 324.775 69.0162 324.289 69.3899C323.804 69.7543 323.435 70.17 323.182 70.6372C322.93 71.1043 322.804 71.5995 322.804 72.1227C322.804 72.7206 322.925 73.2578 323.168 73.7343C323.402 74.2015 323.734 74.5985 324.163 74.9255C324.593 75.2432 325.098 75.4861 325.677 75.6543C326.256 75.8224 326.887 75.9065 327.569 75.9065C328.176 75.9065 328.765 75.8318 329.335 75.6823C329.904 75.5328 330.418 75.3039 330.876 74.9956C331.334 74.6873 331.698 74.3042 331.969 73.8464C332.231 73.3793 332.362 72.8327 332.362 72.2068C332.362 71.6275 332.25 71.0856 332.025 70.5811C331.792 70.0673 331.479 69.6142 331.086 69.2218C330.685 68.82 330.231 68.5024 329.727 68.2688C329.222 68.0259 328.695 67.8857 328.143 67.8484L328.143 66.6151C328.919 66.6151 329.685 66.7693 330.442 67.0776C331.189 67.3766 331.871 67.797 332.488 68.3389C333.104 68.8807 333.6 69.5161 333.973 70.2448C334.338 70.9735 334.52 71.7677 334.52 72.6272C334.52 73.6362 334.324 74.5098 333.931 75.2479C333.539 75.9859 333.016 76.5932 332.362 77.0697C331.708 77.5368 330.979 77.8872 330.175 78.1208C329.363 78.345 328.54 78.4571 327.709 78.4571C326.737 78.4571 325.826 78.3216 324.976 78.0507C324.126 77.7797 323.379 77.378 322.734 76.8455C322.08 76.3129 321.571 75.6543 321.206 74.8695C320.842 74.0753 320.66 73.1597 320.66 72.1227C320.66 70.9548 320.893 69.9598 321.36 69.1377C321.828 68.3155 322.454 67.6475 323.238 67.1336C324.023 66.6104 324.906 66.2274 325.887 65.9845C326.868 65.7416 327.877 65.6201 328.914 65.6201L329.853 65.6201C330.909 65.6201 331.983 65.6902 333.076 65.8303C334.16 65.9611 335.197 66.218 336.187 66.6011C337.178 66.9748 338.065 67.5214 338.85 68.2408C339.626 68.9602 340.242 69.8991 340.7 71.0576C341.149 72.2068 341.373 73.6269 341.373 75.3179L341.373 75.5842L339.173 75.5842Z" fill="white"/>
<path d="M375.465 107.859L377.687 107.859C378.882 107.859 379.89 107.966 380.71 108.18C381.531 108.393 382.192 108.7 382.692 109.101C383.193 109.501 383.557 109.985 383.783 110.552C384.004 111.113 384.114 111.747 384.114 112.454C384.114 113.015 384.044 113.532 383.904 114.006C383.763 114.48 383.54 114.907 383.233 115.287C382.919 115.661 382.512 115.981 382.012 116.248C381.511 116.515 380.904 116.718 380.19 116.859C379.476 116.999 378.642 117.069 377.687 117.069L375.465 117.069C374.27 117.069 373.269 116.962 372.462 116.748C371.655 116.528 371.007 116.218 370.52 115.818C370.026 115.417 369.672 114.937 369.459 114.376C369.245 113.809 369.139 113.175 369.139 112.474C369.139 111.907 369.209 111.386 369.349 110.913C369.482 110.432 369.699 110.005 369.999 109.631C370.293 109.258 370.687 108.941 371.181 108.68C371.668 108.413 372.265 108.21 372.973 108.07C373.68 107.93 374.511 107.859 375.465 107.859ZM377.988 109.721L375.155 109.721C374.501 109.721 373.927 109.761 373.433 109.841C372.932 109.915 372.505 110.025 372.152 110.172C371.798 110.319 371.511 110.505 371.291 110.732C371.071 110.953 370.91 111.21 370.81 111.503C370.704 111.79 370.65 112.114 370.65 112.474C370.65 112.915 370.734 113.305 370.9 113.645C371.061 113.986 371.317 114.273 371.671 114.506C372.025 114.733 372.489 114.907 373.063 115.027C373.637 115.147 374.334 115.207 375.155 115.207L377.988 115.207C378.642 115.207 379.219 115.17 379.719 115.097C380.22 115.017 380.654 114.9 381.021 114.746C381.381 114.593 381.678 114.406 381.912 114.186C382.145 113.966 382.319 113.712 382.432 113.425C382.539 113.131 382.592 112.808 382.592 112.454C382.592 112 382.505 111.603 382.332 111.263C382.158 110.923 381.888 110.639 381.521 110.412C381.147 110.178 380.67 110.005 380.09 109.892C379.502 109.778 378.802 109.721 377.988 109.721ZM369.259 99.3909L383.914 99.3909L383.914 101.243L371.571 101.243L372.932 104.977L371.261 104.977L369.259 99.6812L369.259 99.3909ZM369.339 87.2987L385.165 93.3748L385.165 94.9664L369.339 88.8803L369.339 87.2987ZM382.392 75.9272L383.914 75.9272L383.914 85.4668L382.582 85.4668L377.267 80.692C376.613 80.1047 376.059 79.6509 375.605 79.3306C375.145 79.0036 374.734 78.7767 374.374 78.6499C374.007 78.5165 373.633 78.4497 373.253 78.4497C372.772 78.4497 372.339 78.5498 371.951 78.75C371.558 78.9436 371.244 79.2305 371.011 79.6109C370.777 79.9913 370.66 80.4517 370.66 80.9923C370.66 81.6396 370.787 82.1802 371.041 82.6139C371.287 83.041 371.634 83.3614 372.082 83.5749C372.529 83.7885 373.043 83.8952 373.623 83.8952L373.623 85.7471C372.802 85.7471 372.052 85.5669 371.371 85.2066C370.69 84.8462 370.15 84.3123 369.749 83.6049C369.342 82.8976 369.139 82.0267 369.139 80.9923C369.139 80.0714 369.302 79.2839 369.629 78.6299C369.949 77.9759 370.403 77.4754 370.99 77.1284C371.571 76.7747 372.252 76.5978 373.033 76.5978C373.46 76.5978 373.893 76.6713 374.334 76.8181C374.768 76.9582 375.201 77.1551 375.635 77.4087C376.069 77.6556 376.496 77.9459 376.916 78.2795C377.337 78.6065 377.751 78.9569 378.158 79.3306L382.392 83.2346L382.392 75.9272ZM375.715 71.2424L375.715 69.9211C375.715 69.2738 375.609 68.7399 375.395 68.3195C375.175 67.8924 374.878 67.5754 374.504 67.3685C374.124 67.155 373.697 67.0482 373.223 67.0482C372.662 67.0482 372.192 67.1416 371.811 67.3285C371.431 67.5153 371.144 67.7956 370.95 68.1693C370.757 68.543 370.66 69.0168 370.66 69.5908C370.66 70.1113 370.764 70.5717 370.97 70.9722C371.171 71.3659 371.458 71.6762 371.831 71.9031C372.205 72.1233 372.646 72.2334 373.153 72.2334L373.153 74.0853C372.412 74.0853 371.738 73.8984 371.131 73.5247C370.523 73.151 370.04 72.6272 369.679 71.9531C369.319 71.2725 369.139 70.485 369.139 69.5908C369.139 68.7099 369.295 67.9391 369.609 67.2784C369.916 66.6177 370.377 66.1039 370.99 65.7369C371.598 65.3698 372.355 65.1863 373.263 65.1863C373.63 65.1863 374.024 65.2731 374.444 65.4466C374.858 65.6134 375.245 65.877 375.605 66.2374C375.966 66.5911 376.262 67.0515 376.496 67.6188C376.723 68.186 376.836 68.8667 376.836 69.6608L376.836 71.2424L375.715 71.2424ZM377.237 71.2424L376.126 71.2424L376.126 69.6608C376.126 68.7332 376.236 67.9658 376.456 67.3585C376.676 66.7512 376.97 66.2741 377.337 65.927C377.704 65.5734 378.108 65.3264 378.548 65.1863C378.982 65.0395 379.416 64.9661 379.849 64.9661C380.53 64.9661 381.134 65.0829 381.661 65.3164C382.188 65.5433 382.636 65.867 383.003 66.2874C383.37 66.7012 383.647 67.1883 383.833 67.7489C384.02 68.3095 384.114 68.9201 384.114 69.5807C384.114 70.2147 384.024 70.812 383.844 71.3726C383.663 71.9265 383.403 72.4169 383.063 72.844C382.716 73.2711 382.292 73.6048 381.791 73.8451C381.284 74.0853 380.707 74.2054 380.06 74.2054L380.06 72.3536C380.567 72.3536 381.011 72.2434 381.391 72.0232C381.771 71.7963 382.068 71.476 382.282 71.0622C382.489 70.6418 382.592 70.148 382.592 69.5807C382.592 69.0135 382.495 68.5263 382.302 68.1193C382.102 67.7055 381.801 67.3885 381.401 67.1683C381.001 66.9414 380.497 66.828 379.889 66.828C379.282 66.828 378.785 66.9548 378.398 67.2083C378.004 67.4619 377.714 67.8223 377.527 68.2894C377.334 68.7499 377.237 69.2938 377.237 69.9211L377.237 71.2424Z" fill="white"/>
<defs>
<filter id="filter0_b_583_4556" x="-28.701" y="188.606" width="338.946" height="508.418" filterUnits="userSpaceOnUse" color-interpolation-filters="sRGB">
<feFlood flood-opacity="0" result="BackgroundImageFix"/>
<feGaussianBlur in="BackgroundImageFix" stdDeviation="14.3505"/>
<feComposite in2="SourceAlpha" operator="in" result="effect1_backgroundBlur_583_4556"/>
<feBlend mode="normal" in="SourceGraphic" in2="effect1_backgroundBlur_583_4556" result="shape"/>
</filter>
<filter id="filter1_b_583_4556" x="153.756" y="-28.702" width="338.946" height="508.418" filterUnits="userSpaceOnUse" color-interpolation-filters="sRGB">
<feFlood flood-opacity="0" result="BackgroundImageFix"/>
<feGaussianBlur in="BackgroundImageFix" stdDeviation="14.3505"/>
<feComposite in2="SourceAlpha" operator="in" result="effect1_backgroundBlur_583_4556"/>
<feBlend mode="normal" in="SourceGraphic" in2="effect1_backgroundBlur_583_4556" result="shape"/>
</filter>
<linearGradient id="paint0_linear_583_4556" x1="11.6171" y1="228.924" x2="293.844" y2="681.307" gradientUnits="userSpaceOnUse">
<stop stop-color="white" stop-opacity="0.4"/>
<stop offset="1" stop-color="white" stop-opacity="0"/>
</linearGradient>
<radialGradient id="paint1_radial_583_4556" cx="0" cy="0" r="1" gradientUnits="userSpaceOnUse" gradientTransform="translate(140.772 221.407) rotate(90) scale(391.564 244.431)">
<stop stop-color="white"/>
<stop offset="1" stop-color="white" stop-opacity="0"/>
</radialGradient>
<radialGradient id="paint2_radial_583_4556" cx="0" cy="0" r="1" gradientUnits="userSpaceOnUse" gradientTransform="translate(140.772 668.323) rotate(-90) scale(225.508 140.772)">
<stop stop-color="white"/>
<stop offset="1" stop-color="white" stop-opacity="0"/>
</radialGradient>
<linearGradient id="paint3_linear_583_4556" x1="194.074" y1="11.6161" x2="476.301" y2="463.999" gradientUnits="userSpaceOnUse">
<stop stop-color="white" stop-opacity="0.4"/>
<stop offset="1" stop-color="white" stop-opacity="0"/>
</linearGradient>
<radialGradient id="paint4_radial_583_4556" cx="0" cy="0" r="1" gradientUnits="userSpaceOnUse" gradientTransform="translate(323.229 4.09918) rotate(90) scale(391.564 244.431)">
<stop stop-color="white"/>
<stop offset="1" stop-color="white" stop-opacity="0"/>
</radialGradient>
<radialGradient id="paint5_radial_583_4556" cx="0" cy="0" r="1" gradientUnits="userSpaceOnUse" gradientTransform="translate(323.229 451.015) rotate(-90) scale(225.508 140.772)">
<stop stop-color="white"/>
<stop offset="1" stop-color="white" stop-opacity="0"/>
</radialGradient>
</defs>
</svg>
