<svg width="1512" height="982" viewBox="0 0 1512 982" fill="none" xmlns="http://www.w3.org/2000/svg">
<g clip-path="url(#clip0_583_4461)">
<rect width="1512" height="982" fill="white"/>
<rect width="1512" height="982" fill="url(#paint0_linear_583_4461)"/>
<rect width="1512" height="982" fill="url(#paint1_linear_583_4461)"/>
<ellipse cx="1155.66" cy="528.672" rx="277.711" ry="284.666" transform="rotate(38.5514 1155.66 528.672)" fill="url(#paint2_linear_583_4461)" fill-opacity="0.5"/>
<g filter="url(#filter0_b_583_4461)">
<rect x="842" y="420.307" width="281.544" height="451.016" rx="27.3343" fill="url(#paint3_linear_583_4461)"/>
<rect x="843.196" y="421.503" width="279.152" height="448.625" rx="26.1385" stroke="url(#paint4_radial_583_4461)" stroke-width="2.39175"/>
<rect x="843.196" y="421.503" width="279.152" height="448.625" rx="26.1385" stroke="url(#paint5_radial_583_4461)" stroke-width="2.39175"/>
</g>
<path d="M989.06 791.9L992.171 791.9C993.844 791.9 995.254 792.049 996.404 792.348C997.553 792.647 998.478 793.077 999.178 793.638C999.879 794.198 1000.39 794.876 1000.71 795.67C1001.01 796.454 1001.17 797.342 1001.17 798.332C1001.17 799.117 1001.07 799.841 1000.87 800.505C1000.68 801.168 1000.36 801.766 999.935 802.298C999.496 802.822 998.926 803.27 998.225 803.644C997.525 804.017 996.675 804.302 995.675 804.499C994.675 804.695 993.507 804.793 992.171 804.793L989.06 804.793C987.388 804.793 985.986 804.643 984.856 804.344C983.725 804.036 982.819 803.602 982.137 803.041C981.446 802.481 980.951 801.808 980.652 801.023C980.353 800.229 980.203 799.341 980.203 798.36C980.203 797.566 980.301 796.838 980.498 796.174C980.684 795.502 980.988 794.904 981.408 794.38C981.82 793.857 982.371 793.413 983.062 793.049C983.744 792.675 984.58 792.39 985.571 792.194C986.561 791.998 987.724 791.9 989.06 791.9ZM992.592 794.506L988.626 794.506C987.71 794.506 986.907 794.563 986.215 794.675C985.515 794.777 984.917 794.932 984.422 795.137C983.926 795.343 983.525 795.604 983.216 795.922C982.908 796.23 982.684 796.59 982.544 797.001C982.394 797.403 982.319 797.856 982.319 798.36C982.319 798.977 982.436 799.524 982.67 800C982.894 800.477 983.254 800.878 983.749 801.205C984.244 801.523 984.893 801.766 985.697 801.934C986.5 802.102 987.477 802.186 988.626 802.186L992.592 802.186C993.507 802.186 994.316 802.135 995.016 802.032C995.717 801.92 996.324 801.757 996.838 801.542C997.343 801.327 997.758 801.065 998.085 800.757C998.412 800.449 998.655 800.093 998.814 799.692C998.964 799.281 999.038 798.828 999.038 798.332C999.038 797.697 998.917 797.141 998.674 796.665C998.431 796.188 998.053 795.791 997.539 795.473C997.016 795.146 996.348 794.904 995.535 794.745C994.713 794.586 993.732 794.506 992.592 794.506ZM980.371 780.044L1000.89 780.044L1000.89 782.636L983.609 782.636L985.515 787.864L983.174 787.864L980.371 780.45L980.371 780.044ZM998.758 759.051L1000.89 759.051L1000.89 772.406L999.024 772.406L991.583 765.721C990.667 764.899 989.892 764.264 989.256 763.815C988.612 763.358 988.037 763.04 987.533 762.862C987.019 762.676 986.496 762.582 985.963 762.582C985.29 762.582 984.683 762.722 984.141 763.003C983.59 763.274 983.151 763.675 982.824 764.208C982.497 764.74 982.333 765.385 982.333 766.142C982.333 767.048 982.511 767.805 982.866 768.412C983.212 769.01 983.697 769.458 984.323 769.757C984.949 770.056 985.669 770.206 986.482 770.206L986.482 772.799C985.332 772.799 984.281 772.546 983.328 772.042C982.375 771.537 981.619 770.79 981.058 769.799C980.488 768.809 980.203 767.59 980.203 766.142C980.203 764.852 980.432 763.75 980.89 762.834C981.338 761.919 981.974 761.218 982.796 760.732C983.609 760.237 984.562 759.99 985.655 759.99C986.253 759.99 986.86 760.092 987.477 760.298C988.084 760.494 988.691 760.77 989.298 761.125C989.906 761.47 990.504 761.877 991.092 762.344C991.681 762.802 992.26 763.292 992.83 763.815L998.758 769.281L998.758 759.051ZM989.411 752.492L989.411 750.642C989.411 749.736 989.261 748.988 988.962 748.4C988.654 747.802 988.238 747.358 987.715 747.068C987.182 746.77 986.584 746.62 985.921 746.62C985.136 746.62 984.478 746.751 983.945 747.012C983.412 747.274 983.011 747.666 982.74 748.19C982.469 748.713 982.333 749.376 982.333 750.18C982.333 750.908 982.478 751.553 982.768 752.114C983.048 752.665 983.45 753.099 983.973 753.417C984.496 753.725 985.113 753.879 985.823 753.879L985.823 756.472C984.786 756.472 983.842 756.21 982.992 755.687C982.142 755.164 981.465 754.431 980.96 753.487C980.456 752.534 980.203 751.432 980.203 750.18C980.203 748.946 980.423 747.867 980.862 746.942C981.292 746.017 981.936 745.298 982.796 744.784C983.646 744.27 984.706 744.013 985.977 744.013C986.491 744.013 987.042 744.135 987.631 744.378C988.21 744.611 988.752 744.98 989.256 745.485C989.761 745.98 990.177 746.625 990.504 747.419C990.821 748.213 990.98 749.166 990.98 750.278L990.98 752.492L989.411 752.492ZM991.541 752.492L989.985 752.492L989.985 750.278C989.985 748.979 990.139 747.905 990.448 747.054C990.756 746.204 991.167 745.536 991.681 745.05C992.195 744.555 992.76 744.21 993.377 744.013C993.984 743.808 994.591 743.705 995.198 743.705C996.151 743.705 996.997 743.869 997.735 744.196C998.473 744.513 999.099 744.966 999.613 745.555C1000.13 746.134 1000.51 746.816 1000.78 747.601C1001.04 748.386 1001.17 749.241 1001.17 750.166C1001.17 751.053 1001.04 751.889 1000.79 752.674C1000.54 753.45 1000.17 754.136 999.697 754.734C999.211 755.332 998.618 755.799 997.917 756.136C997.207 756.472 996.399 756.64 995.493 756.64L995.493 754.048C996.203 754.048 996.824 753.893 997.357 753.585C997.889 753.267 998.305 752.819 998.604 752.24C998.893 751.651 999.038 750.96 999.038 750.166C999.038 749.371 998.903 748.689 998.632 748.12C998.352 747.54 997.931 747.097 997.371 746.788C996.81 746.471 996.105 746.312 995.254 746.312C994.404 746.312 993.708 746.489 993.166 746.844C992.615 747.199 992.209 747.704 991.947 748.358C991.676 749.002 991.541 749.764 991.541 750.642L991.541 752.492ZM994.021 704.984L996.151 704.984L996.151 719.727L994.624 719.727L980.484 710.59L980.484 708.473L984.576 710.744L994.021 716.784L994.021 704.984ZM980.484 707.829L1000.89 707.829L1000.89 710.421L980.484 710.421L980.484 707.829ZM991.176 699.35L990.644 701.424L980.484 700.401L980.484 689.933L982.88 689.933L982.88 698.201L988.43 698.818C988.215 698.444 988.014 697.972 987.827 697.402C987.64 696.823 987.547 696.16 987.547 695.412C987.547 694.469 987.71 693.623 988.037 692.876C988.355 692.128 988.813 691.493 989.411 690.97C990.009 690.437 990.728 690.031 991.569 689.75C992.41 689.47 993.349 689.33 994.386 689.33C995.367 689.33 996.268 689.466 997.09 689.736C997.913 689.998 998.632 690.395 999.249 690.928C999.856 691.46 1000.33 692.133 1000.66 692.946C1001 693.749 1001.17 694.697 1001.17 695.791C1001.17 696.613 1001.06 697.393 1000.83 698.131C1000.6 698.86 1000.25 699.514 999.781 700.093C999.305 700.663 998.716 701.13 998.015 701.494C997.305 701.849 996.474 702.074 995.521 702.167L995.521 699.701C996.287 699.588 996.932 699.364 997.455 699.028C997.978 698.692 998.375 698.252 998.646 697.711C998.908 697.159 999.038 696.519 999.038 695.791C999.038 695.174 998.931 694.627 998.716 694.151C998.501 693.674 998.193 693.273 997.791 692.946C997.389 692.619 996.903 692.371 996.334 692.203C995.764 692.025 995.124 691.937 994.414 691.937C993.769 691.937 993.171 692.025 992.62 692.203C992.069 692.38 991.587 692.647 991.176 693.002C990.765 693.347 990.448 693.773 990.223 694.277C989.99 694.782 989.873 695.361 989.873 696.015C989.873 696.884 989.99 697.542 990.223 697.991C990.457 698.43 990.775 698.883 991.176 699.35ZM980.455 676.535L980.455 676.311L982.656 676.311L982.656 676.535C982.656 677.908 982.88 679.058 983.328 679.983C983.768 680.908 984.361 681.641 985.108 682.183C985.846 682.725 986.678 683.117 987.603 683.36C988.528 683.594 989.467 683.71 990.42 683.71L993.419 683.71C994.325 683.71 995.128 683.603 995.829 683.388C996.52 683.173 997.104 682.879 997.581 682.505C998.057 682.131 998.417 681.711 998.66 681.244C998.903 680.767 999.024 680.272 999.024 679.758C999.024 679.16 998.912 678.628 998.688 678.161C998.454 677.694 998.132 677.301 997.721 676.984C997.301 676.657 996.805 676.409 996.235 676.241C995.666 676.073 995.04 675.989 994.358 675.989C993.75 675.989 993.166 676.063 992.606 676.213C992.036 676.362 991.531 676.591 991.092 676.899C990.644 677.208 990.293 677.596 990.041 678.063C989.78 678.52 989.649 679.067 989.649 679.702C989.649 680.422 989.826 681.094 990.181 681.72C990.527 682.337 990.985 682.846 991.555 683.248C992.115 683.64 992.727 683.865 993.391 683.921L993.377 685.294C992.33 685.163 991.438 684.92 990.7 684.565C989.952 684.201 989.345 683.752 988.878 683.22C988.402 682.678 988.056 682.075 987.841 681.412C987.617 680.739 987.505 680.029 987.505 679.282C987.505 678.264 987.696 677.385 988.079 676.647C988.462 675.909 988.976 675.302 989.621 674.825C990.256 674.349 990.975 673.999 991.779 673.774C992.573 673.541 993.391 673.424 994.231 673.424C995.194 673.424 996.095 673.559 996.936 673.83C997.777 674.101 998.515 674.508 999.15 675.05C999.786 675.582 1000.28 676.241 1000.64 677.026C1000.99 677.81 1001.17 678.721 1001.17 679.758C1001.17 680.861 1000.94 681.823 1000.5 682.645C1000.04 683.467 999.431 684.149 998.674 684.691C997.917 685.233 997.076 685.64 996.151 685.911C995.226 686.182 994.287 686.317 993.335 686.317L992.115 686.317C990.677 686.317 989.266 686.172 987.883 685.883C986.5 685.593 985.248 685.093 984.127 684.383C983.006 683.664 982.114 682.669 981.451 681.398C980.787 680.127 980.455 678.506 980.455 676.535ZM980.455 660.391L980.455 660.167L982.656 660.167L982.656 660.391C982.656 661.764 982.88 662.913 983.328 663.838C983.768 664.763 984.361 665.497 985.108 666.038C985.846 666.58 986.678 666.973 987.603 667.216C988.528 667.449 989.467 667.566 990.42 667.566L993.419 667.566C994.325 667.566 995.128 667.459 995.829 667.244C996.52 667.029 997.104 666.735 997.581 666.361C998.057 665.987 998.417 665.567 998.66 665.1C998.903 664.623 999.024 664.128 999.024 663.614C999.024 663.016 998.912 662.484 998.688 662.016C998.454 661.549 998.132 661.157 997.721 660.839C997.301 660.512 996.805 660.265 996.235 660.096C995.666 659.928 995.04 659.844 994.358 659.844C993.75 659.844 993.166 659.919 992.606 660.068C992.036 660.218 991.531 660.447 991.092 660.755C990.644 661.063 990.293 661.451 990.041 661.918C989.78 662.376 989.649 662.923 989.649 663.558C989.649 664.277 989.826 664.95 990.181 665.576C990.527 666.193 990.985 666.702 991.555 667.104C992.115 667.496 992.727 667.72 993.391 667.776L993.377 669.15C992.33 669.019 991.438 668.776 990.7 668.421C989.952 668.057 989.345 667.608 988.878 667.076C988.402 666.534 988.056 665.931 987.841 665.268C987.617 664.595 987.505 663.885 987.505 663.138C987.505 662.119 987.696 661.241 988.079 660.503C988.462 659.765 988.976 659.158 989.621 658.681C990.256 658.205 990.975 657.854 991.779 657.63C992.573 657.396 993.391 657.28 994.231 657.28C995.194 657.28 996.095 657.415 996.936 657.686C997.777 657.957 998.515 658.363 999.15 658.905C999.786 659.438 1000.28 660.096 1000.64 660.881C1000.99 661.666 1001.17 662.577 1001.17 663.614C1001.17 664.716 1000.94 665.679 1000.5 666.501C1000.04 667.323 999.431 668.005 998.674 668.547C997.917 669.089 997.076 669.495 996.151 669.766C995.226 670.037 994.287 670.173 993.335 670.173L992.115 670.173C990.677 670.173 989.266 670.028 987.883 669.738C986.5 669.449 985.248 668.949 984.127 668.239C983.006 667.519 982.114 666.524 981.451 665.254C980.787 663.983 980.455 662.362 980.455 660.391ZM998.758 619.469L1000.89 619.469L1000.89 632.825L999.024 632.825L991.583 626.14C990.667 625.318 989.892 624.683 989.256 624.234C988.612 623.776 988.037 623.459 987.533 623.281C987.019 623.094 986.496 623.001 985.963 623.001C985.29 623.001 984.683 623.141 984.141 623.421C983.59 623.692 983.151 624.094 982.824 624.627C982.497 625.159 982.333 625.804 982.333 626.561C982.333 627.467 982.511 628.224 982.866 628.831C983.212 629.429 983.697 629.877 984.323 630.176C984.949 630.475 985.669 630.625 986.482 630.625L986.482 633.217C985.332 633.217 984.281 632.965 983.328 632.461C982.375 631.956 981.619 631.209 981.058 630.218C980.488 629.228 980.203 628.009 980.203 626.561C980.203 625.271 980.432 624.169 980.89 623.253C981.338 622.338 981.974 621.637 982.796 621.151C983.609 620.656 984.562 620.408 985.655 620.408C986.253 620.408 986.86 620.511 987.477 620.717C988.084 620.913 988.691 621.188 989.298 621.543C989.906 621.889 990.504 622.296 991.092 622.763C991.681 623.22 992.26 623.711 992.83 624.234L998.758 629.7L998.758 619.469ZM998.758 603.325L1000.89 603.325L1000.89 616.681L999.024 616.681L991.583 609.996C990.667 609.174 989.892 608.538 989.256 608.09C988.612 607.632 988.037 607.314 987.533 607.137C987.019 606.95 986.496 606.857 985.963 606.857C985.29 606.857 984.683 606.997 984.141 607.277C983.59 607.548 983.151 607.95 982.824 608.482C982.497 609.015 982.333 609.659 982.333 610.416C982.333 611.322 982.511 612.079 982.866 612.686C983.212 613.284 983.697 613.733 984.323 614.032C984.949 614.331 985.669 614.48 986.482 614.48L986.482 617.073C985.332 617.073 984.281 616.821 983.328 616.316C982.375 615.812 981.619 615.064 981.058 614.074C980.488 613.084 980.203 611.864 980.203 610.416C980.203 609.127 980.432 608.024 980.89 607.109C981.338 606.193 981.974 605.493 982.796 605.007C983.609 604.512 984.562 604.264 985.655 604.264C986.253 604.264 986.86 604.367 987.477 604.572C988.084 604.768 988.691 605.044 989.298 605.399C989.906 605.745 990.504 606.151 991.092 606.618C991.681 607.076 992.26 607.567 992.83 608.09L998.758 613.555L998.758 603.325ZM991.176 597.271L990.644 599.345L980.484 598.322L980.484 587.853L982.88 587.853L982.88 596.122L988.43 596.738C988.215 596.365 988.014 595.893 987.827 595.323C987.64 594.744 987.547 594.08 987.547 593.333C987.547 592.389 987.71 591.544 988.037 590.796C988.355 590.049 988.813 589.414 989.411 588.89C990.008 588.358 990.728 587.951 991.569 587.671C992.41 587.391 993.349 587.251 994.386 587.251C995.367 587.251 996.268 587.386 997.09 587.657C997.912 587.919 998.632 588.316 999.249 588.848C999.856 589.381 1000.33 590.054 1000.66 590.866C1001 591.67 1001.17 592.618 1001.17 593.711C1001.17 594.533 1001.06 595.314 1000.83 596.052C1000.6 596.78 1000.25 597.434 999.781 598.014C999.305 598.584 998.716 599.051 998.015 599.415C997.305 599.77 996.474 599.994 995.521 600.088L995.521 597.621C996.287 597.509 996.932 597.285 997.455 596.949C997.978 596.612 998.375 596.173 998.646 595.631C998.908 595.08 999.038 594.44 999.038 593.711C999.038 593.095 998.931 592.548 998.716 592.072C998.501 591.595 998.193 591.193 997.791 590.866C997.389 590.539 996.903 590.292 996.334 590.124C995.764 589.946 995.124 589.857 994.414 589.857C993.769 589.857 993.171 589.946 992.62 590.124C992.069 590.301 991.587 590.567 991.176 590.922C990.765 591.268 990.448 591.693 990.223 592.198C989.99 592.702 989.873 593.282 989.873 593.936C989.873 594.804 989.99 595.463 990.223 595.912C990.457 596.351 990.775 596.804 991.176 597.271ZM980.371 575.885L1000.89 575.885L1000.89 578.478L983.609 578.478L985.515 583.705L983.174 583.705L980.371 576.292L980.371 575.885ZM995.367 534.039C996.609 534.039 997.665 534.329 998.534 534.908C999.393 535.478 1000.05 536.253 1000.5 537.234C1000.94 538.206 1001.17 539.304 1001.17 540.527C1001.17 541.751 1000.94 542.854 1000.5 543.835C1000.05 544.816 999.393 545.591 998.534 546.161C997.665 546.731 996.609 547.016 995.367 547.016C994.554 547.016 993.811 546.862 993.138 546.554C992.456 546.236 991.863 545.792 991.359 545.222C990.854 544.643 990.466 543.961 990.195 543.176C989.915 542.382 989.775 541.508 989.775 540.555C989.775 539.304 990.018 538.187 990.504 537.206C990.98 536.225 991.639 535.454 992.48 534.894C993.321 534.324 994.283 534.039 995.367 534.039ZM995.311 536.646C994.554 536.646 993.886 536.809 993.306 537.136C992.718 537.463 992.26 537.921 991.933 538.509C991.606 539.098 991.443 539.78 991.443 540.555C991.443 541.35 991.606 542.036 991.933 542.616C992.26 543.185 992.718 543.629 993.306 543.947C993.886 544.265 994.554 544.423 995.311 544.423C996.095 544.423 996.768 544.269 997.329 543.961C997.88 543.643 998.305 543.195 998.604 542.616C998.893 542.027 999.038 541.331 999.038 540.527C999.038 539.724 998.893 539.033 998.604 538.453C998.305 537.874 997.88 537.43 997.329 537.122C996.768 536.804 996.095 536.646 995.311 536.646ZM985.795 534.515C986.785 534.515 987.677 534.777 988.472 535.3C989.266 535.823 989.892 536.538 990.35 537.444C990.807 538.351 991.036 539.378 991.036 540.527C991.036 541.695 990.807 542.737 990.35 543.653C989.892 544.559 989.266 545.269 988.472 545.783C987.677 546.297 986.785 546.554 985.795 546.554C984.608 546.554 983.599 546.297 982.768 545.783C981.936 545.26 981.301 544.545 980.862 543.639C980.423 542.732 980.203 541.7 980.203 540.541C980.203 539.374 980.423 538.337 980.862 537.43C981.301 536.524 981.936 535.814 982.768 535.3C983.599 534.777 984.608 534.515 985.795 534.515ZM985.837 537.108C985.155 537.108 984.552 537.253 984.029 537.542C983.506 537.832 983.095 538.234 982.796 538.748C982.488 539.262 982.333 539.859 982.333 540.541C982.333 541.224 982.478 541.821 982.768 542.335C983.048 542.84 983.45 543.237 983.973 543.527C984.496 543.807 985.118 543.947 985.837 543.947C986.538 543.947 987.15 543.807 987.673 543.527C988.196 543.237 988.602 542.835 988.892 542.321C989.182 541.807 989.326 541.209 989.326 540.527C989.326 539.845 989.182 539.252 988.892 538.748C988.602 538.234 988.196 537.832 987.673 537.542C987.15 537.253 986.538 537.108 985.837 537.108ZM995.367 517.895C996.609 517.895 997.665 518.184 998.534 518.763C999.393 519.333 1000.05 520.109 1000.5 521.09C1000.94 522.061 1001.17 523.159 1001.17 524.383C1001.17 525.607 1000.94 526.709 1000.5 527.69C1000.05 528.671 999.393 529.447 998.534 530.017C997.665 530.587 996.609 530.872 995.367 530.872C994.554 530.872 993.811 530.718 993.138 530.409C992.456 530.092 991.863 529.648 991.359 529.078C990.854 528.499 990.466 527.817 990.195 527.032C989.915 526.238 989.775 525.364 989.775 524.411C989.775 523.159 990.018 522.043 990.504 521.062C990.98 520.081 991.639 519.31 992.48 518.749C993.321 518.18 994.283 517.895 995.367 517.895ZM995.311 520.501C994.554 520.501 993.886 520.665 993.306 520.992C992.718 521.319 992.26 521.776 991.933 522.365C991.606 522.954 991.443 523.636 991.443 524.411C991.443 525.205 991.606 525.892 991.933 526.471C992.26 527.041 992.718 527.485 993.306 527.803C993.886 528.12 994.554 528.279 995.311 528.279C996.095 528.279 996.768 528.125 997.329 527.817C997.88 527.499 998.305 527.05 998.604 526.471C998.893 525.883 999.038 525.187 999.038 524.383C999.038 523.58 998.893 522.888 998.604 522.309C998.305 521.73 997.88 521.286 997.329 520.978C996.768 520.66 996.095 520.501 995.311 520.501ZM985.795 518.371C986.785 518.371 987.677 518.633 988.472 519.156C989.266 519.679 989.892 520.394 990.35 521.3C990.807 522.206 991.036 523.234 991.036 524.383C991.036 525.551 990.807 526.593 990.35 527.508C989.892 528.415 989.266 529.125 988.472 529.638C987.677 530.152 986.785 530.409 985.795 530.409C984.608 530.409 983.599 530.152 982.768 529.638C981.936 529.115 981.301 528.401 980.862 527.494C980.423 526.588 980.203 525.556 980.203 524.397C980.203 523.229 980.423 522.192 980.862 521.286C981.301 520.38 981.936 519.67 982.768 519.156C983.599 518.633 984.608 518.371 985.795 518.371ZM985.837 520.964C985.155 520.964 984.552 521.108 984.029 521.398C983.506 521.688 983.095 522.089 982.796 522.603C982.488 523.117 982.333 523.715 982.333 524.397C982.333 525.079 982.478 525.677 982.768 526.191C983.048 526.695 983.45 527.093 983.973 527.382C984.496 527.662 985.118 527.803 985.837 527.803C986.538 527.803 987.15 527.662 987.673 527.382C988.196 527.093 988.602 526.691 988.892 526.177C989.182 525.663 989.326 525.065 989.326 524.383C989.326 523.701 989.182 523.108 988.892 522.603C988.602 522.089 988.196 521.688 987.673 521.398C987.15 521.108 986.538 520.964 985.837 520.964ZM994.021 500.825L996.151 500.825L996.151 515.568L994.624 515.568L980.484 506.431L980.484 504.315L984.576 506.585L994.021 512.625L994.021 500.825ZM980.484 503.67L1000.89 503.67L1000.89 506.263L980.484 506.263L980.484 503.67ZM998.716 495.892L998.716 495.626C998.716 494.131 998.506 492.917 998.085 491.982C997.665 491.048 997.1 490.329 996.39 489.824C995.68 489.32 994.881 488.974 993.993 488.787C993.096 488.6 992.176 488.507 991.232 488.507L988.107 488.507C987.182 488.507 986.36 488.614 985.641 488.829C984.921 489.035 984.319 489.324 983.833 489.698C983.347 490.062 982.978 490.478 982.726 490.945C982.474 491.412 982.347 491.908 982.347 492.431C982.347 493.029 982.469 493.566 982.712 494.042C982.945 494.51 983.277 494.907 983.707 495.234C984.137 495.551 984.641 495.794 985.22 495.962C985.8 496.131 986.43 496.215 987.112 496.215C987.72 496.215 988.308 496.14 988.878 495.99C989.448 495.841 989.962 495.612 990.42 495.304C990.877 494.995 991.242 494.612 991.513 494.155C991.774 493.687 991.905 493.141 991.905 492.515C991.905 491.936 991.793 491.394 991.569 490.889C991.335 490.375 991.022 489.922 990.63 489.53C990.228 489.128 989.775 488.81 989.27 488.577C988.766 488.334 988.238 488.194 987.687 488.156L987.687 486.923C988.462 486.923 989.228 487.077 989.985 487.386C990.733 487.685 991.415 488.105 992.031 488.647C992.648 489.189 993.143 489.824 993.517 490.553C993.881 491.282 994.063 492.076 994.063 492.935C994.063 493.944 993.867 494.818 993.475 495.556C993.082 496.294 992.559 496.901 991.905 497.378C991.251 497.845 990.522 498.195 989.719 498.429C988.906 498.653 988.084 498.765 987.252 498.765C986.281 498.765 985.37 498.63 984.52 498.359C983.669 498.088 982.922 497.686 982.277 497.154C981.623 496.621 981.114 495.962 980.75 495.178C980.385 494.383 980.203 493.468 980.203 492.431C980.203 491.263 980.437 490.268 980.904 489.446C981.371 488.624 981.997 487.956 982.782 487.442C983.567 486.919 984.45 486.535 985.431 486.293C986.412 486.05 987.421 485.928 988.458 485.928L989.397 485.928C990.452 485.928 991.527 485.998 992.62 486.138C993.704 486.269 994.741 486.526 995.731 486.909C996.721 487.283 997.609 487.829 998.394 488.549C999.169 489.268 999.786 490.207 1000.24 491.366C1000.69 492.515 1000.92 493.935 1000.92 495.626L1000.92 495.892L998.716 495.892Z" fill="white"/>
<path d="M1035.01 528.168L1037.23 528.168C1038.42 528.168 1039.43 528.274 1040.25 528.488C1041.07 528.701 1041.73 529.008 1042.24 529.409C1042.74 529.809 1043.1 530.293 1043.33 530.86C1043.55 531.421 1043.66 532.055 1043.66 532.762C1043.66 533.323 1043.59 533.84 1043.45 534.314C1043.31 534.788 1043.08 535.215 1042.78 535.595C1042.46 535.969 1042.06 536.289 1041.55 536.556C1041.05 536.823 1040.45 537.027 1039.73 537.167C1039.02 537.307 1038.18 537.377 1037.23 537.377L1035.01 537.377C1033.81 537.377 1032.81 537.27 1032 537.057C1031.2 536.836 1030.55 536.526 1030.06 536.126C1029.57 535.725 1029.22 535.245 1029 534.684C1028.79 534.117 1028.68 533.483 1028.68 532.782C1028.68 532.215 1028.75 531.694 1028.89 531.221C1029.03 530.74 1029.24 530.313 1029.54 529.939C1029.84 529.566 1030.23 529.249 1030.72 528.988C1031.21 528.721 1031.81 528.518 1032.52 528.378C1033.22 528.238 1034.05 528.168 1035.01 528.168ZM1037.53 530.029L1034.7 530.029C1034.04 530.029 1033.47 530.07 1032.98 530.15C1032.48 530.223 1032.05 530.333 1031.69 530.48C1031.34 530.627 1031.05 530.814 1030.83 531.04C1030.61 531.261 1030.45 531.518 1030.35 531.811C1030.25 532.098 1030.19 532.422 1030.19 532.782C1030.19 533.223 1030.28 533.613 1030.44 533.953C1030.6 534.294 1030.86 534.581 1031.21 534.814C1031.57 535.041 1032.03 535.215 1032.61 535.335C1033.18 535.455 1033.88 535.515 1034.7 535.515L1037.53 535.515C1038.18 535.515 1038.76 535.478 1039.26 535.405C1039.76 535.325 1040.2 535.208 1040.56 535.055C1040.92 534.901 1041.22 534.714 1041.45 534.494C1041.69 534.274 1041.86 534.02 1041.98 533.733C1042.08 533.44 1042.14 533.116 1042.14 532.762C1042.14 532.308 1042.05 531.911 1041.87 531.571C1041.7 531.231 1041.43 530.947 1041.06 530.72C1040.69 530.487 1040.21 530.313 1039.63 530.2C1039.05 530.086 1038.34 530.029 1037.53 530.029ZM1028.8 519.699L1043.46 519.699L1043.46 521.551L1031.11 521.551L1032.48 525.285L1030.8 525.285L1028.8 519.989L1028.8 519.699ZM1028.88 507.607L1044.71 513.683L1044.71 515.275L1028.88 509.188L1028.88 507.607ZM1041.94 496.235L1043.46 496.235L1043.46 505.775L1042.13 505.775L1036.81 501C1036.16 500.413 1035.6 499.959 1035.15 499.639C1034.69 499.312 1034.28 499.085 1033.92 498.958C1033.55 498.825 1033.18 498.758 1032.8 498.758C1032.32 498.758 1031.88 498.858 1031.49 499.058C1031.1 499.252 1030.79 499.539 1030.55 499.919C1030.32 500.299 1030.2 500.76 1030.2 501.3C1030.2 501.948 1030.33 502.488 1030.58 502.922C1030.83 503.349 1031.18 503.669 1031.62 503.883C1032.07 504.097 1032.59 504.203 1033.17 504.203L1033.17 506.055C1032.35 506.055 1031.59 505.875 1030.91 505.515C1030.23 505.154 1029.69 504.62 1029.29 503.913C1028.89 503.206 1028.68 502.335 1028.68 501.3C1028.68 500.379 1028.85 499.592 1029.17 498.938C1029.49 498.284 1029.95 497.784 1030.53 497.436C1031.11 497.083 1031.79 496.906 1032.58 496.906C1033 496.906 1033.44 496.979 1033.88 497.126C1034.31 497.266 1034.74 497.463 1035.18 497.717C1035.61 497.964 1036.04 498.254 1036.46 498.588C1036.88 498.915 1037.29 499.265 1037.7 499.639L1041.94 503.543L1041.94 496.235ZM1035.26 491.551L1035.26 490.229C1035.26 489.582 1035.15 489.048 1034.94 488.628C1034.72 488.2 1034.42 487.883 1034.05 487.677C1033.67 487.463 1033.24 487.356 1032.77 487.356C1032.21 487.356 1031.73 487.45 1031.35 487.637C1030.97 487.823 1030.69 488.104 1030.49 488.477C1030.3 488.851 1030.2 489.325 1030.2 489.899C1030.2 490.419 1030.31 490.88 1030.51 491.28C1030.71 491.674 1031 491.984 1031.37 492.211C1031.75 492.431 1032.19 492.542 1032.7 492.542L1032.7 494.393C1031.95 494.393 1031.28 494.207 1030.67 493.833C1030.07 493.459 1029.58 492.935 1029.22 492.261C1028.86 491.581 1028.68 490.793 1028.68 489.899C1028.68 489.018 1028.84 488.247 1029.15 487.587C1029.46 486.926 1029.92 486.412 1030.53 486.045C1031.14 485.678 1031.9 485.494 1032.81 485.494C1033.17 485.494 1033.57 485.581 1033.99 485.755C1034.4 485.922 1034.79 486.185 1035.15 486.545C1035.51 486.899 1035.81 487.36 1036.04 487.927C1036.27 488.494 1036.38 489.175 1036.38 489.969L1036.38 491.551L1035.26 491.551ZM1036.78 491.551L1035.67 491.551L1035.67 489.969C1035.67 489.041 1035.78 488.274 1036 487.667C1036.22 487.059 1036.51 486.582 1036.88 486.235C1037.25 485.881 1037.65 485.635 1038.09 485.494C1038.52 485.348 1038.96 485.274 1039.39 485.274C1040.07 485.274 1040.68 485.391 1041.2 485.625C1041.73 485.851 1042.18 486.175 1042.55 486.596C1042.91 487.009 1043.19 487.496 1043.38 488.057C1043.56 488.618 1043.66 489.228 1043.66 489.889C1043.66 490.523 1043.57 491.12 1043.39 491.681C1043.21 492.235 1042.95 492.725 1042.61 493.152C1042.26 493.579 1041.83 493.913 1041.33 494.153C1040.83 494.393 1040.25 494.514 1039.6 494.514L1039.6 492.662C1040.11 492.662 1040.55 492.552 1040.93 492.331C1041.31 492.104 1041.61 491.784 1041.82 491.37C1042.03 490.95 1042.14 490.456 1042.14 489.889C1042.14 489.322 1042.04 488.834 1041.84 488.427C1041.64 488.014 1041.34 487.697 1040.94 487.476C1040.54 487.25 1040.04 487.136 1039.43 487.136C1038.83 487.136 1038.33 487.263 1037.94 487.516C1037.55 487.77 1037.26 488.13 1037.07 488.598C1036.88 489.058 1036.78 489.602 1036.78 490.229L1036.78 491.551Z" fill="white"/>
<g filter="url(#filter1_b_583_4461)">
<rect x="1024.46" y="202.999" width="281.544" height="451.016" rx="27.3343" fill="url(#paint6_linear_583_4461)"/>
<rect x="1025.65" y="204.195" width="279.152" height="448.625" rx="26.1385" stroke="url(#paint7_radial_583_4461)" stroke-width="2.39175"/>
<rect x="1025.65" y="204.195" width="279.152" height="448.625" rx="26.1385" stroke="url(#paint8_radial_583_4461)" stroke-width="2.39175"/>
</g>
<path d="M1171.52 574.592L1174.63 574.592C1176.3 574.592 1177.71 574.741 1178.86 575.04C1180.01 575.339 1180.93 575.769 1181.63 576.33C1182.34 576.89 1182.84 577.567 1183.16 578.362C1183.47 579.146 1183.63 580.034 1183.63 581.024C1183.63 581.809 1183.53 582.533 1183.33 583.196C1183.13 583.86 1182.82 584.458 1182.39 584.99C1181.95 585.513 1181.38 585.962 1180.68 586.336C1179.98 586.709 1179.13 586.994 1178.13 587.191C1177.13 587.387 1175.96 587.485 1174.63 587.485L1171.52 587.485C1169.84 587.485 1168.44 587.335 1167.31 587.036C1166.18 586.728 1165.28 586.294 1164.59 585.733C1163.9 585.172 1163.41 584.5 1163.11 583.715C1162.81 582.921 1162.66 582.033 1162.66 581.052C1162.66 580.258 1162.76 579.529 1162.95 578.866C1163.14 578.193 1163.44 577.595 1163.87 577.072C1164.28 576.549 1164.83 576.105 1165.52 575.741C1166.2 575.367 1167.04 575.082 1168.03 574.886C1169.02 574.69 1170.18 574.592 1171.52 574.592ZM1175.05 577.198L1171.08 577.198C1170.17 577.198 1169.36 577.254 1168.67 577.367C1167.97 577.469 1167.37 577.623 1166.88 577.829C1166.38 578.035 1165.98 578.296 1165.67 578.614C1165.36 578.922 1165.14 579.282 1165 579.693C1164.85 580.095 1164.78 580.548 1164.78 581.052C1164.78 581.669 1164.89 582.215 1165.13 582.692C1165.35 583.168 1165.71 583.57 1166.21 583.897C1166.7 584.215 1167.35 584.458 1168.15 584.626C1168.96 584.794 1169.93 584.878 1171.08 584.878L1175.05 584.878C1175.96 584.878 1176.77 584.827 1177.47 584.724C1178.17 584.612 1178.78 584.448 1179.29 584.234C1179.8 584.019 1180.21 583.757 1180.54 583.449C1180.87 583.14 1181.11 582.785 1181.27 582.384C1181.42 581.973 1181.49 581.519 1181.49 581.024C1181.49 580.389 1181.37 579.833 1181.13 579.357C1180.89 578.88 1180.51 578.483 1180 578.165C1179.47 577.838 1178.8 577.595 1177.99 577.437C1177.17 577.278 1176.19 577.198 1175.05 577.198ZM1162.83 562.736L1183.34 562.736L1183.34 565.328L1166.07 565.328L1167.97 570.556L1165.63 570.556L1162.83 563.142L1162.83 562.736ZM1181.21 541.743L1183.34 541.743L1183.34 555.098L1181.48 555.098L1174.04 548.413C1173.12 547.591 1172.35 546.956 1171.71 546.507C1171.07 546.05 1170.49 545.732 1169.99 545.554C1169.48 545.368 1168.95 545.274 1168.42 545.274C1167.75 545.274 1167.14 545.414 1166.6 545.695C1166.05 545.965 1165.61 546.367 1165.28 546.9C1164.95 547.432 1164.79 548.077 1164.79 548.834C1164.79 549.74 1164.97 550.497 1165.32 551.104C1165.67 551.702 1166.15 552.15 1166.78 552.449C1167.41 552.748 1168.13 552.898 1168.94 552.898L1168.94 555.49C1167.79 555.49 1166.74 555.238 1165.78 554.734C1164.83 554.229 1164.08 553.482 1163.51 552.491C1162.94 551.501 1162.66 550.282 1162.66 548.834C1162.66 547.544 1162.89 546.442 1163.35 545.526C1163.79 544.611 1164.43 543.91 1165.25 543.424C1166.07 542.929 1167.02 542.681 1168.11 542.681C1168.71 542.681 1169.32 542.784 1169.93 542.99C1170.54 543.186 1171.15 543.462 1171.75 543.817C1172.36 544.162 1172.96 544.569 1173.55 545.036C1174.14 545.494 1174.72 545.984 1175.29 546.507L1181.21 551.973L1181.21 541.743ZM1171.87 535.184L1171.87 533.334C1171.87 532.428 1171.72 531.68 1171.42 531.092C1171.11 530.494 1170.69 530.05 1170.17 529.76C1169.64 529.461 1169.04 529.312 1168.38 529.312C1167.59 529.312 1166.93 529.443 1166.4 529.704C1165.87 529.966 1165.47 530.358 1165.2 530.882C1164.93 531.405 1164.79 532.068 1164.79 532.872C1164.79 533.6 1164.93 534.245 1165.22 534.805C1165.5 535.357 1165.91 535.791 1166.43 536.109C1166.95 536.417 1167.57 536.571 1168.28 536.571L1168.28 539.164C1167.24 539.164 1166.3 538.902 1165.45 538.379C1164.6 537.856 1163.92 537.123 1163.42 536.179C1162.91 535.226 1162.66 534.123 1162.66 532.872C1162.66 531.638 1162.88 530.559 1163.32 529.634C1163.75 528.709 1164.39 527.99 1165.25 527.476C1166.1 526.962 1167.16 526.705 1168.43 526.705C1168.95 526.705 1169.5 526.827 1170.09 527.07C1170.67 527.303 1171.21 527.672 1171.71 528.177C1172.22 528.672 1172.63 529.317 1172.96 530.111C1173.28 530.905 1173.44 531.858 1173.44 532.97L1173.44 535.184L1171.87 535.184ZM1174 535.184L1172.44 535.184L1172.44 532.97C1172.44 531.671 1172.6 530.597 1172.9 529.746C1173.21 528.896 1173.62 528.228 1174.14 527.742C1174.65 527.247 1175.22 526.901 1175.83 526.705C1176.44 526.5 1177.05 526.397 1177.65 526.397C1178.61 526.397 1179.45 526.56 1180.19 526.887C1180.93 527.205 1181.56 527.658 1182.07 528.247C1182.58 528.826 1182.97 529.508 1183.23 530.293C1183.49 531.078 1183.63 531.933 1183.63 532.858C1183.63 533.745 1183.5 534.581 1183.25 535.366C1182.99 536.142 1182.63 536.828 1182.15 537.426C1181.67 538.024 1181.07 538.491 1180.37 538.828C1179.66 539.164 1178.86 539.332 1177.95 539.332L1177.95 536.739C1178.66 536.739 1179.28 536.585 1179.81 536.277C1180.35 535.959 1180.76 535.511 1181.06 534.932C1181.35 534.343 1181.49 533.652 1181.49 532.858C1181.49 532.063 1181.36 531.381 1181.09 530.811C1180.81 530.232 1180.39 529.788 1179.83 529.48C1179.27 529.162 1178.56 529.004 1177.71 529.004C1176.86 529.004 1176.16 529.181 1175.62 529.536C1175.07 529.891 1174.67 530.396 1174.4 531.05C1174.13 531.694 1174 532.456 1174 533.334L1174 535.184ZM1176.48 487.676L1178.61 487.676L1178.61 502.419L1177.08 502.419L1162.94 493.281L1162.94 491.165L1167.03 493.436L1176.48 499.476L1176.48 487.676ZM1162.94 490.521L1183.34 490.521L1183.34 493.113L1162.94 493.113L1162.94 490.521ZM1173.63 482.042L1173.1 484.116L1162.94 483.093L1162.94 472.625L1165.34 472.625L1165.34 480.893L1170.89 481.51C1170.67 481.136 1170.47 480.664 1170.28 480.094C1170.1 479.515 1170 478.852 1170 478.104C1170 477.16 1170.17 476.315 1170.49 475.568C1170.81 474.82 1171.27 474.185 1171.87 473.662C1172.47 473.129 1173.18 472.723 1174.03 472.442C1174.87 472.162 1175.81 472.022 1176.84 472.022C1177.82 472.022 1178.72 472.157 1179.55 472.428C1180.37 472.69 1181.09 473.087 1181.71 473.62C1182.31 474.152 1182.78 474.825 1183.12 475.638C1183.46 476.441 1183.63 477.389 1183.63 478.482C1183.63 479.305 1183.51 480.085 1183.29 480.823C1183.06 481.552 1182.7 482.206 1182.24 482.785C1181.76 483.355 1181.17 483.822 1180.47 484.186C1179.76 484.541 1178.93 484.766 1177.98 484.859L1177.98 482.392C1178.74 482.28 1179.39 482.056 1179.91 481.72C1180.43 481.383 1180.83 480.944 1181.1 480.402C1181.36 479.851 1181.49 479.211 1181.49 478.482C1181.49 477.866 1181.39 477.319 1181.17 476.843C1180.96 476.366 1180.65 475.965 1180.25 475.638C1179.85 475.311 1179.36 475.063 1178.79 474.895C1178.22 474.717 1177.58 474.629 1176.87 474.629C1176.23 474.629 1175.63 474.717 1175.08 474.895C1174.53 475.072 1174.04 475.339 1173.63 475.694C1173.22 476.039 1172.9 476.464 1172.68 476.969C1172.45 477.473 1172.33 478.053 1172.33 478.707C1172.33 479.576 1172.45 480.234 1172.68 480.683C1172.91 481.122 1173.23 481.575 1173.63 482.042ZM1162.91 459.227L1162.91 459.003L1165.11 459.003L1165.11 459.227C1165.11 460.6 1165.34 461.75 1165.78 462.674C1166.22 463.599 1166.82 464.333 1167.56 464.875C1168.3 465.417 1169.13 465.809 1170.06 466.052C1170.98 466.285 1171.92 466.402 1172.88 466.402L1175.88 466.402C1176.78 466.402 1177.58 466.295 1178.29 466.08C1178.98 465.865 1179.56 465.571 1180.04 465.197C1180.51 464.823 1180.87 464.403 1181.12 463.936C1181.36 463.459 1181.48 462.964 1181.48 462.45C1181.48 461.852 1181.37 461.32 1181.14 460.853C1180.91 460.386 1180.59 459.993 1180.18 459.675C1179.76 459.348 1179.26 459.101 1178.69 458.933C1178.12 458.765 1177.5 458.68 1176.81 458.68C1176.21 458.68 1175.62 458.755 1175.06 458.905C1174.49 459.054 1173.99 459.283 1173.55 459.591C1173.1 459.9 1172.75 460.287 1172.5 460.755C1172.24 461.212 1172.11 461.759 1172.11 462.394C1172.11 463.114 1172.28 463.786 1172.64 464.412C1172.98 465.029 1173.44 465.538 1174.01 465.94C1174.57 466.332 1175.18 466.556 1175.85 466.612L1175.83 467.986C1174.79 467.855 1173.89 467.612 1173.16 467.257C1172.41 466.893 1171.8 466.444 1171.33 465.912C1170.86 465.37 1170.51 464.767 1170.3 464.104C1170.07 463.431 1169.96 462.721 1169.96 461.974C1169.96 460.955 1170.15 460.077 1170.54 459.339C1170.92 458.601 1171.43 457.994 1172.08 457.517C1172.71 457.041 1173.43 456.69 1174.24 456.466C1175.03 456.233 1175.85 456.116 1176.69 456.116C1177.65 456.116 1178.55 456.251 1179.39 456.522C1180.23 456.793 1180.97 457.2 1181.61 457.741C1182.24 458.274 1182.74 458.933 1183.09 459.717C1183.45 460.502 1183.63 461.413 1183.63 462.45C1183.63 463.553 1183.4 464.515 1182.95 465.337C1182.49 466.159 1181.89 466.841 1181.13 467.383C1180.37 467.925 1179.53 468.332 1178.61 468.602C1177.68 468.873 1176.74 469.009 1175.79 469.009L1174.57 469.009C1173.13 469.009 1171.72 468.864 1170.34 468.574C1168.96 468.285 1167.7 467.785 1166.58 467.075C1165.46 466.356 1164.57 465.361 1163.91 464.09C1163.24 462.819 1162.91 461.198 1162.91 459.227ZM1162.91 443.083L1162.91 442.858L1165.11 442.858L1165.11 443.083C1165.11 444.456 1165.34 445.605 1165.78 446.53C1166.22 447.455 1166.82 448.189 1167.56 448.73C1168.3 449.272 1169.13 449.665 1170.06 449.908C1170.98 450.141 1171.92 450.258 1172.88 450.258L1175.88 450.258C1176.78 450.258 1177.58 450.15 1178.29 449.936C1178.98 449.721 1179.56 449.426 1180.04 449.053C1180.51 448.679 1180.87 448.259 1181.12 447.791C1181.36 447.315 1181.48 446.82 1181.48 446.306C1181.48 445.708 1181.37 445.175 1181.14 444.708C1180.91 444.241 1180.59 443.849 1180.18 443.531C1179.76 443.204 1179.26 442.957 1178.69 442.788C1178.12 442.62 1177.5 442.536 1176.81 442.536C1176.21 442.536 1175.62 442.611 1175.06 442.76C1174.49 442.91 1173.99 443.139 1173.55 443.447C1173.1 443.755 1172.75 444.143 1172.5 444.61C1172.24 445.068 1172.11 445.615 1172.11 446.25C1172.11 446.969 1172.28 447.642 1172.64 448.268C1172.98 448.885 1173.44 449.394 1174.01 449.795C1174.57 450.188 1175.18 450.412 1175.85 450.468L1175.83 451.842C1174.79 451.711 1173.89 451.468 1173.16 451.113C1172.41 450.748 1171.8 450.3 1171.33 449.767C1170.86 449.226 1170.51 448.623 1170.3 447.96C1170.07 447.287 1169.96 446.577 1169.96 445.829C1169.96 444.811 1170.15 443.933 1170.54 443.195C1170.92 442.457 1171.43 441.849 1172.08 441.373C1172.71 440.896 1173.43 440.546 1174.24 440.322C1175.03 440.088 1175.85 439.972 1176.69 439.972C1177.65 439.972 1178.55 440.107 1179.39 440.378C1180.23 440.649 1180.97 441.055 1181.61 441.597C1182.24 442.13 1182.74 442.788 1183.09 443.573C1183.45 444.358 1183.63 445.269 1183.63 446.306C1183.63 447.408 1183.4 448.371 1182.95 449.193C1182.49 450.015 1181.89 450.697 1181.13 451.239C1180.37 451.781 1179.53 452.187 1178.61 452.458C1177.68 452.729 1176.74 452.865 1175.79 452.865L1174.57 452.865C1173.13 452.865 1171.72 452.72 1170.34 452.43C1168.96 452.141 1167.7 451.641 1166.58 450.931C1165.46 450.211 1164.57 449.216 1163.91 447.946C1163.24 446.675 1162.91 445.054 1162.91 443.083ZM1181.21 402.161L1183.34 402.161L1183.34 415.517L1181.48 415.517L1174.04 408.832C1173.12 408.01 1172.35 407.375 1171.71 406.926C1171.07 406.468 1170.49 406.151 1169.99 405.973C1169.48 405.786 1168.95 405.693 1168.42 405.693C1167.75 405.693 1167.14 405.833 1166.6 406.113C1166.05 406.384 1165.61 406.786 1165.28 407.318C1164.95 407.851 1164.79 408.496 1164.79 409.252C1164.79 410.159 1164.97 410.915 1165.32 411.523C1165.67 412.121 1166.15 412.569 1166.78 412.868C1167.41 413.167 1168.13 413.317 1168.94 413.317L1168.94 415.909C1167.79 415.909 1166.74 415.657 1165.78 415.152C1164.83 414.648 1164.08 413.9 1163.51 412.91C1162.94 411.92 1162.66 410.701 1162.66 409.252C1162.66 407.963 1162.89 406.861 1163.35 405.945C1163.79 405.029 1164.43 404.329 1165.25 403.843C1166.07 403.348 1167.02 403.1 1168.11 403.1C1168.71 403.1 1169.32 403.203 1169.93 403.409C1170.54 403.605 1171.15 403.88 1171.75 404.235C1172.36 404.581 1172.96 404.987 1173.55 405.455C1174.14 405.912 1174.72 406.403 1175.29 406.926L1181.21 412.392L1181.21 402.161ZM1181.21 386.017L1183.34 386.017L1183.34 399.372L1181.48 399.372L1174.04 392.688C1173.12 391.865 1172.35 391.23 1171.71 390.782C1171.07 390.324 1170.49 390.006 1169.99 389.829C1169.48 389.642 1168.95 389.548 1168.42 389.548C1167.75 389.548 1167.14 389.689 1166.6 389.969C1166.05 390.24 1165.61 390.642 1165.28 391.174C1164.95 391.707 1164.79 392.351 1164.79 393.108C1164.79 394.014 1164.97 394.771 1165.32 395.378C1165.67 395.976 1166.15 396.425 1166.78 396.724C1167.41 397.023 1168.13 397.172 1168.94 397.172L1168.94 399.765C1167.79 399.765 1166.74 399.513 1165.78 399.008C1164.83 398.504 1164.08 397.756 1163.51 396.766C1162.94 395.775 1162.66 394.556 1162.66 393.108C1162.66 391.819 1162.89 390.716 1163.35 389.801C1163.79 388.885 1164.43 388.184 1165.25 387.699C1166.07 387.203 1167.02 386.956 1168.11 386.956C1168.71 386.956 1169.32 387.059 1169.93 387.264C1170.54 387.46 1171.15 387.736 1171.75 388.091C1172.36 388.437 1172.96 388.843 1173.55 389.31C1174.14 389.768 1174.72 390.259 1175.29 390.782L1181.21 396.247L1181.21 386.017ZM1173.63 379.963L1173.1 382.037L1162.94 381.014L1162.94 370.545L1165.34 370.545L1165.34 378.814L1170.89 379.43C1170.67 379.057 1170.47 378.585 1170.28 378.015C1170.1 377.436 1170 376.772 1170 376.025C1170 375.081 1170.17 374.236 1170.49 373.488C1170.81 372.741 1171.27 372.105 1171.87 371.582C1172.47 371.05 1173.18 370.643 1174.03 370.363C1174.87 370.083 1175.81 369.943 1176.84 369.943C1177.82 369.943 1178.72 370.078 1179.55 370.349C1180.37 370.611 1181.09 371.008 1181.71 371.54C1182.31 372.073 1182.78 372.745 1183.12 373.558C1183.46 374.362 1183.63 375.31 1183.63 376.403C1183.63 377.225 1183.51 378.005 1183.29 378.744C1183.06 379.472 1182.7 380.126 1182.24 380.706C1181.76 381.275 1181.17 381.743 1180.47 382.107C1179.76 382.462 1178.93 382.686 1177.98 382.78L1177.98 380.313C1178.74 380.201 1179.39 379.977 1179.91 379.64C1180.43 379.304 1180.83 378.865 1181.1 378.323C1181.36 377.772 1181.49 377.132 1181.49 376.403C1181.49 375.787 1181.39 375.24 1181.17 374.764C1180.96 374.287 1180.65 373.885 1180.25 373.558C1179.85 373.231 1179.36 372.984 1178.79 372.816C1178.22 372.638 1177.58 372.549 1176.87 372.549C1176.23 372.549 1175.63 372.638 1175.08 372.816C1174.53 372.993 1174.04 373.259 1173.63 373.614C1173.22 373.96 1172.9 374.385 1172.68 374.89C1172.45 375.394 1172.33 375.973 1172.33 376.627C1172.33 377.496 1172.45 378.155 1172.68 378.603C1172.91 379.043 1173.23 379.496 1173.63 379.963ZM1162.83 358.577L1183.34 358.577L1183.34 361.17L1166.07 361.17L1167.97 366.397L1165.63 366.397L1162.83 358.984L1162.83 358.577ZM1177.82 316.731C1179.07 316.731 1180.12 317.02 1180.99 317.6C1181.85 318.17 1182.5 318.945 1182.95 319.926C1183.4 320.898 1183.62 321.995 1183.62 323.219C1183.62 324.443 1183.4 325.546 1182.95 326.527C1182.5 327.508 1181.85 328.283 1180.99 328.853C1180.12 329.423 1179.07 329.708 1177.82 329.708C1177.01 329.708 1176.27 329.554 1175.59 329.245C1174.91 328.928 1174.32 328.484 1173.82 327.914C1173.31 327.335 1172.92 326.653 1172.65 325.868C1172.37 325.074 1172.23 324.2 1172.23 323.247C1172.23 321.995 1172.47 320.879 1172.96 319.898C1173.44 318.917 1174.1 318.146 1174.94 317.586C1175.78 317.016 1176.74 316.731 1177.82 316.731ZM1177.77 319.337C1177.01 319.337 1176.34 319.501 1175.76 319.828C1175.17 320.155 1174.72 320.613 1174.39 321.201C1174.06 321.79 1173.9 322.472 1173.9 323.247C1173.9 324.042 1174.06 324.728 1174.39 325.307C1174.72 325.877 1175.17 326.321 1175.76 326.639C1176.34 326.956 1177.01 327.115 1177.77 327.115C1178.55 327.115 1179.22 326.961 1179.79 326.653C1180.34 326.335 1180.76 325.887 1181.06 325.307C1181.35 324.719 1181.49 324.023 1181.49 323.219C1181.49 322.416 1181.35 321.725 1181.06 321.145C1180.76 320.566 1180.34 320.122 1179.79 319.814C1179.22 319.496 1178.55 319.337 1177.77 319.337ZM1168.25 317.207C1169.24 317.207 1170.13 317.469 1170.93 317.992C1171.72 318.515 1172.35 319.23 1172.81 320.136C1173.26 321.042 1173.49 322.07 1173.49 323.219C1173.49 324.387 1173.26 325.429 1172.81 326.345C1172.35 327.251 1171.72 327.961 1170.93 328.475C1170.13 328.989 1169.24 329.245 1168.25 329.245C1167.06 329.245 1166.06 328.989 1165.22 328.475C1164.39 327.951 1163.76 327.237 1163.32 326.331C1162.88 325.424 1162.66 324.392 1162.66 323.233C1162.66 322.066 1162.88 321.028 1163.32 320.122C1163.76 319.216 1164.39 318.506 1165.22 317.992C1166.06 317.469 1167.06 317.207 1168.25 317.207ZM1168.29 319.8C1167.61 319.8 1167.01 319.945 1166.49 320.234C1165.96 320.524 1165.55 320.926 1165.25 321.44C1164.94 321.953 1164.79 322.551 1164.79 323.233C1164.79 323.915 1164.93 324.513 1165.22 325.027C1165.5 325.532 1165.91 325.929 1166.43 326.218C1166.95 326.499 1167.57 326.639 1168.29 326.639C1168.99 326.639 1169.61 326.499 1170.13 326.218C1170.65 325.929 1171.06 325.527 1171.35 325.013C1171.64 324.499 1171.78 323.901 1171.78 323.219C1171.78 322.537 1171.64 321.944 1171.35 321.44C1171.06 320.926 1170.65 320.524 1170.13 320.234C1169.61 319.945 1168.99 319.8 1168.29 319.8ZM1177.82 300.586C1179.07 300.586 1180.12 300.876 1180.99 301.455C1181.85 302.025 1182.5 302.801 1182.95 303.782C1183.4 304.753 1183.62 305.851 1183.62 307.075C1183.62 308.299 1183.4 309.401 1182.95 310.382C1182.5 311.363 1181.85 312.139 1180.99 312.709C1180.12 313.279 1179.07 313.564 1177.82 313.564C1177.01 313.564 1176.27 313.409 1175.59 313.101C1174.91 312.783 1174.32 312.34 1173.82 311.77C1173.31 311.191 1172.92 310.508 1172.65 309.724C1172.37 308.93 1172.23 308.056 1172.23 307.103C1172.23 305.851 1172.47 304.735 1172.96 303.754C1173.44 302.773 1174.1 302.002 1174.94 301.441C1175.78 300.871 1176.74 300.586 1177.82 300.586ZM1177.77 303.193C1177.01 303.193 1176.34 303.357 1175.76 303.684C1175.17 304.011 1174.72 304.468 1174.39 305.057C1174.06 305.646 1173.9 306.328 1173.9 307.103C1173.9 307.897 1174.06 308.584 1174.39 309.163C1174.72 309.733 1175.17 310.177 1175.76 310.494C1176.34 310.812 1177.01 310.971 1177.77 310.971C1178.55 310.971 1179.22 310.817 1179.79 310.508C1180.34 310.191 1180.76 309.742 1181.06 309.163C1181.35 308.575 1181.49 307.878 1181.49 307.075C1181.49 306.272 1181.35 305.58 1181.06 305.001C1180.76 304.422 1180.34 303.978 1179.79 303.67C1179.22 303.352 1178.55 303.193 1177.77 303.193ZM1168.25 301.063C1169.24 301.063 1170.13 301.325 1170.93 301.848C1171.72 302.371 1172.35 303.086 1172.81 303.992C1173.26 304.898 1173.49 305.926 1173.49 307.075C1173.49 308.243 1173.26 309.285 1172.81 310.2C1172.35 311.106 1171.72 311.816 1170.93 312.33C1170.13 312.844 1169.24 313.101 1168.25 313.101C1167.06 313.101 1166.06 312.844 1165.22 312.33C1164.39 311.807 1163.76 311.092 1163.32 310.186C1162.88 309.28 1162.66 308.248 1162.66 307.089C1162.66 305.921 1162.88 304.884 1163.32 303.978C1163.76 303.072 1164.39 302.362 1165.22 301.848C1166.06 301.325 1167.06 301.063 1168.25 301.063ZM1168.29 303.656C1167.61 303.656 1167.01 303.8 1166.49 304.09C1165.96 304.38 1165.55 304.781 1165.25 305.295C1164.94 305.809 1164.79 306.407 1164.79 307.089C1164.79 307.771 1164.93 308.369 1165.22 308.883C1165.5 309.387 1165.91 309.784 1166.43 310.074C1166.95 310.354 1167.57 310.494 1168.29 310.494C1168.99 310.494 1169.61 310.354 1170.13 310.074C1170.65 309.784 1171.06 309.383 1171.35 308.869C1171.64 308.355 1171.78 307.757 1171.78 307.075C1171.78 306.393 1171.64 305.8 1171.35 305.295C1171.06 304.781 1170.65 304.38 1170.13 304.09C1169.61 303.8 1168.99 303.656 1168.29 303.656ZM1176.48 283.517L1178.61 283.517L1178.61 298.26L1177.08 298.26L1162.94 289.123L1162.94 287.007L1167.03 289.277L1176.48 295.317L1176.48 283.517ZM1162.94 286.362L1183.34 286.362L1183.34 288.955L1162.94 288.955L1162.94 286.362ZM1181.17 278.584L1181.17 278.318C1181.17 276.823 1180.96 275.609 1180.54 274.674C1180.12 273.74 1179.56 273.021 1178.85 272.516C1178.14 272.012 1177.34 271.666 1176.45 271.479C1175.55 271.292 1174.63 271.199 1173.69 271.199L1170.56 271.199C1169.64 271.199 1168.82 271.306 1168.1 271.521C1167.38 271.727 1166.78 272.016 1166.29 272.39C1165.8 272.754 1165.43 273.17 1165.18 273.637C1164.93 274.104 1164.8 274.599 1164.8 275.123C1164.8 275.721 1164.93 276.258 1165.17 276.734C1165.4 277.201 1165.73 277.599 1166.16 277.926C1166.59 278.243 1167.1 278.486 1167.68 278.654C1168.26 278.822 1168.89 278.907 1169.57 278.907C1170.18 278.907 1170.76 278.832 1171.33 278.682C1171.9 278.533 1172.42 278.304 1172.88 277.996C1173.33 277.687 1173.7 277.304 1173.97 276.846C1174.23 276.379 1174.36 275.833 1174.36 275.207C1174.36 274.628 1174.25 274.086 1174.03 273.581C1173.79 273.067 1173.48 272.614 1173.09 272.222C1172.68 271.82 1172.23 271.502 1171.73 271.269C1171.22 271.026 1170.69 270.886 1170.14 270.848L1170.14 269.615C1170.92 269.615 1171.68 269.769 1172.44 270.078C1173.19 270.377 1173.87 270.797 1174.49 271.339C1175.1 271.881 1175.6 272.516 1175.97 273.245C1176.34 273.974 1176.52 274.768 1176.52 275.627C1176.52 276.636 1176.32 277.51 1175.93 278.248C1175.54 278.986 1175.02 279.593 1174.36 280.07C1173.71 280.537 1172.98 280.887 1172.18 281.121C1171.36 281.345 1170.54 281.457 1169.71 281.457C1168.74 281.457 1167.83 281.322 1166.98 281.051C1166.13 280.78 1165.38 280.378 1164.73 279.845C1164.08 279.313 1163.57 278.654 1163.21 277.869C1162.84 277.075 1162.66 276.16 1162.66 275.123C1162.66 273.955 1162.89 272.96 1163.36 272.138C1163.83 271.316 1164.45 270.647 1165.24 270.134C1166.02 269.61 1166.91 269.227 1167.89 268.984C1168.87 268.742 1169.88 268.62 1170.91 268.62L1171.85 268.62C1172.91 268.62 1173.98 268.69 1175.08 268.83C1176.16 268.961 1177.2 269.218 1178.19 269.601C1179.18 269.975 1180.07 270.521 1180.85 271.241C1181.63 271.96 1182.24 272.899 1182.7 274.058C1183.15 275.207 1183.37 276.627 1183.37 278.318L1183.37 278.584L1181.17 278.584Z" fill="white"/>
<path d="M1217.47 310.859L1219.69 310.859C1220.88 310.859 1221.89 310.966 1222.71 311.18C1223.53 311.393 1224.19 311.7 1224.69 312.101C1225.19 312.501 1225.56 312.985 1225.78 313.552C1226 314.113 1226.11 314.747 1226.11 315.454C1226.11 316.015 1226.04 316.532 1225.9 317.006C1225.76 317.48 1225.54 317.907 1225.23 318.287C1224.92 318.661 1224.51 318.981 1224.01 319.248C1223.51 319.515 1222.9 319.718 1222.19 319.859C1221.48 319.999 1220.64 320.069 1219.69 320.069L1217.47 320.069C1216.27 320.069 1215.27 319.962 1214.46 319.748C1213.65 319.528 1213.01 319.218 1212.52 318.818C1212.03 318.417 1211.67 317.937 1211.46 317.376C1211.25 316.809 1211.14 316.175 1211.14 315.474C1211.14 314.907 1211.21 314.386 1211.35 313.913C1211.48 313.432 1211.7 313.005 1212 312.631C1212.29 312.258 1212.69 311.941 1213.18 311.68C1213.67 311.413 1214.27 311.21 1214.97 311.07C1215.68 310.93 1216.51 310.859 1217.47 310.859ZM1219.99 312.721L1217.15 312.721C1216.5 312.721 1215.93 312.761 1215.43 312.841C1214.93 312.915 1214.51 313.025 1214.15 313.172C1213.8 313.319 1213.51 313.505 1213.29 313.732C1213.07 313.953 1212.91 314.21 1212.81 314.503C1212.7 314.79 1212.65 315.114 1212.65 315.474C1212.65 315.915 1212.73 316.305 1212.9 316.645C1213.06 316.986 1213.32 317.273 1213.67 317.506C1214.02 317.733 1214.49 317.907 1215.06 318.027C1215.64 318.147 1216.33 318.207 1217.15 318.207L1219.99 318.207C1220.64 318.207 1221.22 318.17 1221.72 318.097C1222.22 318.017 1222.65 317.9 1223.02 317.746C1223.38 317.593 1223.68 317.406 1223.91 317.186C1224.15 316.966 1224.32 316.712 1224.43 316.425C1224.54 316.131 1224.59 315.808 1224.59 315.454C1224.59 315 1224.51 314.603 1224.33 314.263C1224.16 313.923 1223.89 313.639 1223.52 313.412C1223.15 313.178 1222.67 313.005 1222.09 312.892C1221.5 312.778 1220.8 312.721 1219.99 312.721ZM1211.26 302.391L1225.91 302.391L1225.91 304.243L1213.57 304.243L1214.93 307.977L1213.26 307.977L1211.26 302.681L1211.26 302.391ZM1211.34 290.299L1227.16 296.375L1227.16 297.966L1211.34 291.88L1211.34 290.299ZM1224.39 278.927L1225.91 278.927L1225.91 288.467L1224.58 288.467L1219.27 283.692C1218.61 283.105 1218.06 282.651 1217.61 282.331C1217.14 282.004 1216.73 281.777 1216.37 281.65C1216.01 281.516 1215.63 281.45 1215.25 281.45C1214.77 281.45 1214.34 281.55 1213.95 281.75C1213.56 281.944 1213.24 282.231 1213.01 282.611C1212.78 282.991 1212.66 283.452 1212.66 283.992C1212.66 284.64 1212.79 285.18 1213.04 285.614C1213.29 286.041 1213.63 286.361 1214.08 286.575C1214.53 286.788 1215.04 286.895 1215.62 286.895L1215.62 288.747C1214.8 288.747 1214.05 288.567 1213.37 288.207C1212.69 287.846 1212.15 287.312 1211.75 286.605C1211.34 285.898 1211.14 285.027 1211.14 283.992C1211.14 283.071 1211.3 282.284 1211.63 281.63C1211.95 280.976 1212.4 280.475 1212.99 280.128C1213.57 279.775 1214.25 279.598 1215.03 279.598C1215.46 279.598 1215.89 279.671 1216.33 279.818C1216.77 279.958 1217.2 280.155 1217.64 280.409C1218.07 280.656 1218.5 280.946 1218.92 281.28C1219.34 281.607 1219.75 281.957 1220.16 282.331L1224.39 286.235L1224.39 278.927ZM1217.72 274.242L1217.72 272.921C1217.72 272.274 1217.61 271.74 1217.39 271.319C1217.17 270.892 1216.88 270.575 1216.5 270.369C1216.12 270.155 1215.7 270.048 1215.22 270.048C1214.66 270.048 1214.19 270.142 1213.81 270.328C1213.43 270.515 1213.14 270.796 1212.95 271.169C1212.76 271.543 1212.66 272.017 1212.66 272.591C1212.66 273.111 1212.76 273.572 1212.97 273.972C1213.17 274.366 1213.46 274.676 1213.83 274.903C1214.21 275.123 1214.65 275.233 1215.15 275.233L1215.15 277.085C1214.41 277.085 1213.74 276.898 1213.13 276.525C1212.52 276.151 1212.04 275.627 1211.68 274.953C1211.32 274.272 1211.14 273.485 1211.14 272.591C1211.14 271.71 1211.3 270.939 1211.61 270.278C1211.92 269.618 1212.38 269.104 1212.99 268.737C1213.6 268.37 1214.36 268.186 1215.26 268.186C1215.63 268.186 1216.02 268.273 1216.44 268.447C1216.86 268.613 1217.24 268.877 1217.61 269.237C1217.97 269.591 1218.26 270.052 1218.5 270.619C1218.72 271.186 1218.84 271.867 1218.84 272.661L1218.84 274.242L1217.72 274.242ZM1219.24 274.242L1218.13 274.242L1218.13 272.661C1218.13 271.733 1218.24 270.966 1218.46 270.358C1218.68 269.751 1218.97 269.274 1219.34 268.927C1219.7 268.573 1220.11 268.326 1220.55 268.186C1220.98 268.039 1221.42 267.966 1221.85 267.966C1222.53 267.966 1223.13 268.083 1223.66 268.316C1224.19 268.543 1224.64 268.867 1225 269.287C1225.37 269.701 1225.65 270.188 1225.83 270.749C1226.02 271.309 1226.11 271.92 1226.11 272.581C1226.11 273.215 1226.02 273.812 1225.84 274.373C1225.66 274.926 1225.4 275.417 1225.06 275.844C1224.72 276.271 1224.29 276.605 1223.79 276.845C1223.28 277.085 1222.71 277.205 1222.06 277.205L1222.06 275.354C1222.57 275.354 1223.01 275.243 1223.39 275.023C1223.77 274.796 1224.07 274.476 1224.28 274.062C1224.49 273.642 1224.59 273.148 1224.59 272.581C1224.59 272.014 1224.5 271.526 1224.3 271.119C1224.1 270.706 1223.8 270.389 1223.4 270.168C1223 269.941 1222.5 269.828 1221.89 269.828C1221.28 269.828 1220.79 269.955 1220.4 270.208C1220 270.462 1219.71 270.822 1219.53 271.289C1219.33 271.75 1219.24 272.294 1219.24 272.921L1219.24 274.242Z" fill="white"/>
<circle cx="1423.71" cy="341.965" r="3.66307" fill="url(#paint9_radial_583_4461)"/>
<circle cx="1252.77" cy="756.299" r="3.66307" fill="url(#paint10_radial_583_4461)"/>
<circle cx="1395.22" cy="677.34" r="3.66307" fill="url(#paint11_radial_583_4461)"/>
<circle cx="1355.33" cy="903.636" r="3.66307" fill="url(#paint12_radial_583_4461)"/>
<circle cx="1072.06" cy="876.774" r="3.66307" fill="url(#paint13_radial_583_4461)"/>
<circle cx="878.321" cy="805.954" r="3.66307" fill="url(#paint14_radial_583_4461)"/>
<circle cx="793.663" cy="944.337" r="3.66307" fill="url(#paint15_radial_583_4461)"/>
<circle cx="1352.08" cy="234.515" r="3.66307" fill="url(#paint16_radial_583_4461)"/>
<circle cx="1002.05" cy="185.674" r="3.66307" fill="url(#paint17_radial_583_4461)"/>
<circle cx="1050.89" cy="45.6631" r="3.66307" fill="url(#paint18_radial_583_4461)"/>
<circle cx="809.943" cy="98.5742" r="3.66307" fill="url(#paint19_radial_583_4461)"/>
<circle cx="1395.63" cy="112.006" r="9.76819" fill="url(#paint20_radial_583_4461)"/>
<circle cx="1146.54" cy="561.342" r="9.76819" fill="url(#paint21_radial_583_4461)"/>
<circle cx="929.197" cy="890.205" r="9.76819" fill="url(#paint22_radial_583_4461)"/>
<circle cx="1348.01" cy="518.606" r="15.8733" fill="url(#paint23_radial_583_4461)"/>
</g>
<defs>
<filter id="filter0_b_583_4461" x="813.299" y="391.606" width="338.946" height="508.418" filterUnits="userSpaceOnUse" color-interpolation-filters="sRGB">
<feFlood flood-opacity="0" result="BackgroundImageFix"/>
<feGaussianBlur in="BackgroundImageFix" stdDeviation="14.3505"/>
<feComposite in2="SourceAlpha" operator="in" result="effect1_backgroundBlur_583_4461"/>
<feBlend mode="normal" in="SourceGraphic" in2="effect1_backgroundBlur_583_4461" result="shape"/>
</filter>
<filter id="filter1_b_583_4461" x="995.756" y="174.298" width="338.946" height="508.418" filterUnits="userSpaceOnUse" color-interpolation-filters="sRGB">
<feFlood flood-opacity="0" result="BackgroundImageFix"/>
<feGaussianBlur in="BackgroundImageFix" stdDeviation="14.3505"/>
<feComposite in2="SourceAlpha" operator="in" result="effect1_backgroundBlur_583_4461"/>
<feBlend mode="normal" in="SourceGraphic" in2="effect1_backgroundBlur_583_4461" result="shape"/>
</filter>
<linearGradient id="paint0_linear_583_4461" x1="1443.57" y1="855.017" x2="217.963" y2="140.561" gradientUnits="userSpaceOnUse">
<stop stop-color="#574284"/>
<stop offset="0.552083" stop-color="#372857"/>
<stop offset="1" stop-color="#251E34"/>
</linearGradient>
<linearGradient id="paint1_linear_583_4461" x1="1443.57" y1="855.017" x2="33.6909" y2="67.5593" gradientUnits="userSpaceOnUse">
<stop stop-color="#1E8DCC"/>
<stop offset="0.501731" stop-color="#0D3B56"/>
<stop offset="1" stop-color="#2F2E6C"/>
</linearGradient>
<linearGradient id="paint2_linear_583_4461" x1="2075.64" y1="182.808" x2="198.454" y2="945.841" gradientUnits="userSpaceOnUse">
<stop offset="0.474153" stop-color="#F7F7F9" stop-opacity="0.01"/>
<stop offset="0.815998" stop-color="#E0E6F3"/>
</linearGradient>
<linearGradient id="paint3_linear_583_4461" x1="853.617" y1="431.924" x2="1135.84" y2="884.307" gradientUnits="userSpaceOnUse">
<stop stop-color="white" stop-opacity="0.4"/>
<stop offset="1" stop-color="white" stop-opacity="0"/>
</linearGradient>
<radialGradient id="paint4_radial_583_4461" cx="0" cy="0" r="1" gradientUnits="userSpaceOnUse" gradientTransform="translate(982.772 424.407) rotate(90) scale(391.564 244.431)">
<stop stop-color="white"/>
<stop offset="1" stop-color="white" stop-opacity="0"/>
</radialGradient>
<radialGradient id="paint5_radial_583_4461" cx="0" cy="0" r="1" gradientUnits="userSpaceOnUse" gradientTransform="translate(982.772 871.323) rotate(-90) scale(225.508 140.772)">
<stop stop-color="white"/>
<stop offset="1" stop-color="white" stop-opacity="0"/>
</radialGradient>
<linearGradient id="paint6_linear_583_4461" x1="1036.07" y1="214.616" x2="1318.3" y2="666.999" gradientUnits="userSpaceOnUse">
<stop stop-color="white" stop-opacity="0.4"/>
<stop offset="1" stop-color="white" stop-opacity="0"/>
</linearGradient>
<radialGradient id="paint7_radial_583_4461" cx="0" cy="0" r="1" gradientUnits="userSpaceOnUse" gradientTransform="translate(1165.23 207.099) rotate(90) scale(391.564 244.431)">
<stop stop-color="white"/>
<stop offset="1" stop-color="white" stop-opacity="0"/>
</radialGradient>
<radialGradient id="paint8_radial_583_4461" cx="0" cy="0" r="1" gradientUnits="userSpaceOnUse" gradientTransform="translate(1165.23 654.015) rotate(-90) scale(225.508 140.772)">
<stop stop-color="white"/>
<stop offset="1" stop-color="white" stop-opacity="0"/>
</radialGradient>
<radialGradient id="paint9_radial_583_4461" cx="0" cy="0" r="1" gradientUnits="userSpaceOnUse" gradientTransform="translate(1423.71 341.965) rotate(90) scale(3.66307)">
<stop stop-color="#C4C4C4"/>
<stop offset="1" stop-color="#C4C4C4" stop-opacity="0"/>
</radialGradient>
<radialGradient id="paint10_radial_583_4461" cx="0" cy="0" r="1" gradientUnits="userSpaceOnUse" gradientTransform="translate(1252.77 756.299) rotate(90) scale(3.66307)">
<stop stop-color="#C4C4C4"/>
<stop offset="1" stop-color="#C4C4C4" stop-opacity="0"/>
</radialGradient>
<radialGradient id="paint11_radial_583_4461" cx="0" cy="0" r="1" gradientUnits="userSpaceOnUse" gradientTransform="translate(1395.22 677.34) rotate(90) scale(3.66307)">
<stop stop-color="#C4C4C4"/>
<stop offset="1" stop-color="#C4C4C4" stop-opacity="0"/>
</radialGradient>
<radialGradient id="paint12_radial_583_4461" cx="0" cy="0" r="1" gradientUnits="userSpaceOnUse" gradientTransform="translate(1355.33 903.636) rotate(90) scale(3.66307)">
<stop stop-color="#C4C4C4"/>
<stop offset="1" stop-color="#C4C4C4" stop-opacity="0"/>
</radialGradient>
<radialGradient id="paint13_radial_583_4461" cx="0" cy="0" r="1" gradientUnits="userSpaceOnUse" gradientTransform="translate(1072.06 876.774) rotate(90) scale(3.66307)">
<stop stop-color="#C4C4C4"/>
<stop offset="1" stop-color="#C4C4C4" stop-opacity="0"/>
</radialGradient>
<radialGradient id="paint14_radial_583_4461" cx="0" cy="0" r="1" gradientUnits="userSpaceOnUse" gradientTransform="translate(878.321 805.954) rotate(90) scale(3.66307)">
<stop stop-color="#C4C4C4"/>
<stop offset="1" stop-color="#C4C4C4" stop-opacity="0"/>
</radialGradient>
<radialGradient id="paint15_radial_583_4461" cx="0" cy="0" r="1" gradientUnits="userSpaceOnUse" gradientTransform="translate(793.663 944.337) rotate(90) scale(3.66307)">
<stop stop-color="#C4C4C4"/>
<stop offset="1" stop-color="#C4C4C4" stop-opacity="0"/>
</radialGradient>
<radialGradient id="paint16_radial_583_4461" cx="0" cy="0" r="1" gradientUnits="userSpaceOnUse" gradientTransform="translate(1352.08 234.515) rotate(90) scale(3.66307)">
<stop stop-color="#C4C4C4"/>
<stop offset="1" stop-color="#C4C4C4" stop-opacity="0"/>
</radialGradient>
<radialGradient id="paint17_radial_583_4461" cx="0" cy="0" r="1" gradientUnits="userSpaceOnUse" gradientTransform="translate(1002.05 185.674) rotate(90) scale(3.66307)">
<stop stop-color="#C4C4C4"/>
<stop offset="1" stop-color="#C4C4C4" stop-opacity="0"/>
</radialGradient>
<radialGradient id="paint18_radial_583_4461" cx="0" cy="0" r="1" gradientUnits="userSpaceOnUse" gradientTransform="translate(1050.89 45.6631) rotate(90) scale(3.66307)">
<stop stop-color="#C4C4C4"/>
<stop offset="1" stop-color="#C4C4C4" stop-opacity="0"/>
</radialGradient>
<radialGradient id="paint19_radial_583_4461" cx="0" cy="0" r="1" gradientUnits="userSpaceOnUse" gradientTransform="translate(809.943 98.5742) rotate(90) scale(3.66307)">
<stop stop-color="#C4C4C4"/>
<stop offset="1" stop-color="#C4C4C4" stop-opacity="0"/>
</radialGradient>
<radialGradient id="paint20_radial_583_4461" cx="0" cy="0" r="1" gradientUnits="userSpaceOnUse" gradientTransform="translate(1395.63 112.005) rotate(90) scale(9.76819)">
<stop stop-color="#C4C4C4"/>
<stop offset="1" stop-color="#C4C4C4" stop-opacity="0"/>
</radialGradient>
<radialGradient id="paint21_radial_583_4461" cx="0" cy="0" r="1" gradientUnits="userSpaceOnUse" gradientTransform="translate(1146.54 561.342) rotate(90) scale(9.76819)">
<stop stop-color="#C4C4C4"/>
<stop offset="1" stop-color="#C4C4C4" stop-opacity="0"/>
</radialGradient>
<radialGradient id="paint22_radial_583_4461" cx="0" cy="0" r="1" gradientUnits="userSpaceOnUse" gradientTransform="translate(929.197 890.205) rotate(90) scale(9.76819)">
<stop stop-color="#C4C4C4"/>
<stop offset="1" stop-color="#C4C4C4" stop-opacity="0"/>
</radialGradient>
<radialGradient id="paint23_radial_583_4461" cx="0" cy="0" r="1" gradientUnits="userSpaceOnUse" gradientTransform="translate(1348.01 518.606) rotate(90) scale(15.8733)">
<stop stop-color="#C4C4C4"/>
<stop offset="1" stop-color="#C4C4C4" stop-opacity="0"/>
</radialGradient>
<clipPath id="clip0_583_4461">
<rect width="1512" height="982" fill="white"/>
</clipPath>
</defs>
</svg>
