<svg width="47" height="47" viewBox="0 0 47 47" fill="none" xmlns="http://www.w3.org/2000/svg">
<path fill-rule="evenodd" clip-rule="evenodd" d="M3.29297 23.0517C3.29297 11.9305 12.3085 2.91504 23.4297 2.91504C34.5509 2.91504 43.5664 11.9305 43.5664 23.0517C43.5664 34.1729 34.5509 43.1884 23.4297 43.1884C12.3085 43.1884 3.29297 34.1729 3.29297 23.0517ZM16.7756 14.3636C16.2139 13.8019 15.3032 13.8019 14.7415 14.3636C14.1798 14.9253 14.1798 15.836 14.7415 16.3977L21.3955 23.0517L14.7415 29.7058C14.1798 30.2675 14.1798 31.1782 14.7415 31.7399C15.3032 32.3016 16.2139 32.3016 16.7756 31.7399L23.4297 25.0858L30.0837 31.7399C30.6454 32.3016 31.5561 32.3016 32.1178 31.7399C32.6795 31.1782 32.6795 30.2675 32.1178 29.7058L25.4638 23.0517L32.1178 16.3977C32.6795 15.836 32.6795 14.9253 32.1178 14.3636C31.5561 13.8019 30.6454 13.8019 30.0837 14.3636L23.4297 21.0176L16.7756 14.3636Z" fill="#FF4D4D"/>
</svg>
