<svg width="47" height="47" viewBox="0 0 47 47" fill="none" xmlns="http://www.w3.org/2000/svg">
<path d="M23.4301 29.0794C26.6076 29.0794 29.1834 26.5036 29.1834 23.3261C29.1834 20.1486 26.6076 17.5728 23.4301 17.5728C20.2526 17.5728 17.6768 20.1486 17.6768 23.3261C17.6768 26.5036 20.2526 29.0794 23.4301 29.0794Z" stroke="#FFC04D" stroke-width="3" stroke-miterlimit="10" stroke-linecap="round" stroke-linejoin="round"/>
<path d="M4.25195 25.0135V21.6382C4.25195 19.6437 5.88207 17.9944 7.89574 17.9944C11.3669 17.9944 12.7861 15.5397 11.0409 12.5288C10.0436 10.8028 10.6382 8.55895 12.3833 7.56171L15.7011 5.6631C17.2161 4.76175 19.1723 5.29873 20.0736 6.81377L20.2846 7.17815C22.0106 10.1891 24.8489 10.1891 26.5941 7.17815L26.805 6.81377C27.7064 5.29873 29.6625 4.76175 31.1776 5.6631L34.4953 7.56171C36.2405 8.55895 36.835 10.8028 35.8378 12.5288C34.0926 15.5397 35.5118 17.9944 38.983 17.9944C40.9774 17.9944 42.6267 19.6245 42.6267 21.6382V25.0135C42.6267 27.008 40.9966 28.6573 38.983 28.6573C35.5118 28.6573 34.0926 31.112 35.8378 34.123C36.835 35.8681 36.2405 38.0928 34.4953 39.09L31.1776 40.9886C29.6625 41.89 27.7064 41.353 26.805 39.838L26.5941 39.4736C24.8681 36.4627 22.0298 36.4627 20.2846 39.4736L20.0736 39.838C19.1723 41.353 17.2161 41.89 15.7011 40.9886L12.3833 39.09C10.6382 38.0928 10.0436 35.849 11.0409 34.123C12.7861 31.112 11.3669 28.6573 7.89574 28.6573C5.88207 28.6573 4.25195 27.008 4.25195 25.0135Z" stroke="#FFC04D" stroke-width="3" stroke-miterlimit="10" stroke-linecap="round" stroke-linejoin="round"/>
</svg>
