<svg width="624" height="212" viewBox="0 0 624 212" fill="none" xmlns="http://www.w3.org/2000/svg">
<rect x="0.5" y="32.5" width="179" height="179" rx="89.5" fill="#323434"/>
<rect x="0.5" y="32.5" width="179" height="179" rx="89.5" stroke="url(#paint0_linear_1007_392)"/>
<path d="M60.112 125.784C58.4907 125.784 57.1253 125.229 56.016 124.12C54.9067 123.011 54.352 121.603 54.352 119.896C54.352 118.36 54.9067 117.08 56.016 116.056C57.1253 115.032 58.4907 114.52 60.112 114.52H100.432C102.053 114.52 103.419 115.075 104.528 116.184C105.637 117.293 106.192 118.659 106.192 120.28C106.192 121.901 105.637 123.224 104.528 124.248C103.419 125.272 102.053 125.784 100.432 125.784H60.112ZM77.52 152.024C81.104 152.024 84.6453 152.536 88.144 153.56C91.6427 154.584 95.056 155.608 98.384 156.632C101.797 157.656 104.997 158.168 107.984 158.168C109.691 158.168 111.483 157.869 113.36 157.272C115.237 156.589 116.731 155.864 117.84 155.096C118.608 154.669 119.376 154.328 120.144 154.072C120.997 153.816 121.765 153.688 122.448 153.688C124.24 153.688 125.563 154.285 126.416 155.48C127.269 156.589 127.696 157.912 127.696 159.448C127.696 161.24 127.013 162.819 125.648 164.184C124.368 165.464 122.405 166.573 119.76 167.512C117.968 168.365 115.963 168.963 113.744 169.304C111.611 169.645 109.648 169.773 107.856 169.688C105.637 169.603 103.077 169.261 100.176 168.664C97.2747 168.067 94.288 167.384 91.216 166.616C88.2293 165.763 85.3707 165.037 82.64 164.44C79.9093 163.843 77.648 163.544 75.856 163.544C74.4053 163.544 72.912 163.672 71.376 163.928C69.9253 164.099 68.56 164.312 67.28 164.568C66.0853 164.824 65.0613 165.08 64.208 165.336C62.8427 165.677 61.6907 166.147 60.752 166.744C59.8133 167.341 58.7893 167.64 57.68 167.64C56.3147 167.64 55.12 167.171 54.096 166.232C53.1573 165.208 52.688 163.885 52.688 162.264C52.688 160.643 53.1573 159.235 54.096 158.04C55.12 156.845 56.528 155.907 58.32 155.224C60.368 154.541 62.5013 153.944 64.72 153.432C66.9387 152.92 69.1573 152.579 71.376 152.408C73.5947 152.152 75.6427 152.024 77.52 152.024ZM74.192 159.832L64.336 157.144C65.4453 156.547 66.4693 155.523 67.408 154.072C68.432 152.536 69.2853 150.659 69.968 148.44C70.6507 146.221 70.992 143.704 70.992 140.888C70.992 137.645 70.5653 134.445 69.712 131.288C68.944 128.131 68.048 125.059 67.024 122.072C66 119.085 65.0613 116.141 64.208 113.24C63.44 110.339 63.056 107.437 63.056 104.536C63.056 98.904 64.208 93.9973 66.512 89.816C68.9013 85.5493 72.2293 82.2213 76.496 79.832C80.848 77.3573 86.0533 76.12 92.112 76.12C95.952 76.12 99.5787 76.632 102.992 77.656C106.491 78.68 109.435 80.1733 111.824 82.136C113.616 83.2453 115.024 84.44 116.048 85.72C117.157 86.9147 117.712 88.1947 117.712 89.56C117.712 91.352 117.029 92.888 115.664 94.168C114.384 95.448 112.891 96.088 111.184 96.088C110.245 96.088 109.349 95.9173 108.496 95.576C107.643 95.2347 106.96 94.808 106.448 94.296C104.656 92.4187 102.565 90.968 100.176 89.944C97.872 88.8347 95.184 88.28 92.112 88.28C88.784 88.28 85.9253 89.048 83.536 90.584C81.1467 92.12 79.3547 94.1253 78.16 96.6C76.9653 99.0747 76.368 101.805 76.368 104.792C76.368 107.267 76.752 109.912 77.52 112.728C78.3733 115.544 79.2693 118.445 80.208 121.432C81.232 124.333 82.128 127.192 82.896 130.008C83.7493 132.824 84.176 135.469 84.176 137.944C84.176 141.272 83.664 144.301 82.64 147.032C81.616 149.763 80.336 152.195 78.8 154.328C77.264 156.461 75.728 158.296 74.192 159.832Z" fill="#6E7071"/>
<rect x="148.5" y="32.5" width="179" height="179" rx="89.5" fill="#323434"/>
<rect x="148.5" y="32.5" width="179" height="179" rx="89.5" stroke="url(#paint1_linear_1007_392)"/>
<path d="M238.388 168.28C232.244 168.28 226.783 167.427 222.004 165.72C217.225 164.013 212.66 161.197 208.308 157.272C207.369 156.589 206.644 155.779 206.132 154.84C205.705 153.816 205.492 152.792 205.492 151.768C205.492 150.147 206.089 148.696 207.284 147.416C208.479 146.136 209.972 145.496 211.764 145.496C213.129 145.496 214.409 145.965 215.604 146.904C218.847 149.891 222.217 152.152 225.716 153.688C229.3 155.224 233.481 155.992 238.26 155.992C241.673 155.992 244.788 155.437 247.604 154.328C250.505 153.219 252.809 151.725 254.516 149.848C256.223 147.971 257.076 145.795 257.076 143.32C257.076 140.248 256.18 137.731 254.388 135.768C252.681 133.72 250.164 132.056 246.836 130.776C243.593 129.411 239.668 128.259 235.06 127.32C230.793 126.552 226.953 125.485 223.54 124.12C220.212 122.755 217.353 121.048 214.964 119C212.575 116.867 210.74 114.349 209.46 111.448C208.18 108.547 207.54 105.176 207.54 101.336C207.54 96.1307 208.905 91.6507 211.636 87.896C214.367 84.1413 218.079 81.24 222.772 79.192C227.465 77.144 232.756 76.12 238.644 76.12C244.02 76.12 249.055 76.9733 253.748 78.68C258.441 80.3013 262.239 82.52 265.14 85.336C267.188 87.128 268.212 89.048 268.212 91.096C268.212 92.632 267.572 94.0827 266.292 95.448C265.097 96.728 263.689 97.368 262.068 97.368C260.873 97.368 259.849 97.0267 258.996 96.344C257.631 94.8933 255.796 93.6133 253.492 92.504C251.188 91.3093 248.713 90.328 246.068 89.56C243.508 88.792 241.033 88.408 238.644 88.408C234.804 88.408 231.519 88.9627 228.788 90.072C226.057 91.096 223.967 92.5467 222.516 94.424C221.065 96.216 220.34 98.3493 220.34 100.824C220.34 103.725 221.151 106.115 222.772 107.992C224.479 109.869 226.825 111.405 229.812 112.6C232.799 113.709 236.212 114.733 240.052 115.672C244.745 116.696 248.927 117.848 252.596 119.128C256.351 120.408 259.508 122.072 262.068 124.12C264.628 126.083 266.591 128.557 267.956 131.544C269.321 134.531 270.004 138.243 270.004 142.68C270.004 147.8 268.553 152.28 265.652 156.12C262.751 159.96 258.911 162.947 254.132 165.08C249.439 167.213 244.191 168.28 238.388 168.28ZM245.812 177.624C245.812 179.416 245.172 180.952 243.892 182.232C242.697 183.512 241.161 184.152 239.284 184.152C237.492 184.152 235.999 183.512 234.804 182.232C233.609 180.952 233.012 179.416 233.012 177.624V70.36C233.012 68.4827 233.609 66.9467 234.804 65.752C236.084 64.472 237.663 63.832 239.54 63.832C241.332 63.832 242.825 64.472 244.02 65.752C245.215 66.9467 245.812 68.4827 245.812 70.36V177.624Z" fill="#6E7071"/>
<rect x="296.5" y="32.5" width="179" height="179" rx="89.5" fill="#323434"/>
<rect x="296.5" y="32.5" width="179" height="179" rx="89.5" stroke="url(#paint2_linear_1007_392)"/>
<path d="M351.156 138.712C349.279 138.712 347.7 138.115 346.42 136.92C345.225 135.725 344.628 134.232 344.628 132.44C344.628 130.648 345.225 129.197 346.42 128.088C347.7 126.979 349.279 126.424 351.156 126.424L391.092 126.552C392.969 126.552 394.505 127.107 395.7 128.216C396.98 129.325 397.62 130.776 397.62 132.568C397.62 134.36 396.98 135.853 395.7 137.048C394.505 138.243 392.969 138.84 391.092 138.84L351.156 138.712ZM351.156 119.896C349.279 119.896 347.7 119.341 346.42 118.232C345.225 117.037 344.628 115.544 344.628 113.752C344.628 111.96 345.225 110.509 346.42 109.4C347.7 108.205 349.279 107.608 351.156 107.608L391.092 107.736C392.969 107.736 394.505 108.333 395.7 109.528C396.98 110.637 397.62 112.088 397.62 113.88C397.62 115.672 396.98 117.165 395.7 118.36C394.505 119.469 392.969 120.024 391.092 120.024L351.156 119.896ZM399.028 168.28C393.225 168.28 387.721 167.256 382.516 165.208C377.311 163.16 372.703 160.173 368.692 156.248C364.681 152.323 361.524 147.501 359.22 141.784C356.916 136.067 355.764 129.539 355.764 122.2C355.764 115.629 356.831 109.571 358.964 104.024C361.183 98.392 364.212 93.5707 368.052 89.56C371.977 85.464 376.543 82.3067 381.748 80.088C387.039 77.784 392.799 76.632 399.028 76.632C402.612 76.632 406.153 77.144 409.652 78.168C413.151 79.192 416.351 80.6427 419.252 82.52C421.129 83.4587 422.196 84.9093 422.452 86.872C422.793 88.8347 422.281 90.6267 420.916 92.248C419.977 93.528 418.783 94.2533 417.332 94.424C415.881 94.5947 414.388 94.296 412.852 93.528C410.889 92.248 408.713 91.224 406.324 90.456C403.935 89.688 401.503 89.304 399.028 89.304C393.14 89.304 387.892 90.712 383.284 93.528C378.676 96.344 375.049 100.227 372.404 105.176C369.844 110.04 368.564 115.715 368.564 122.2C368.564 129.368 369.929 135.469 372.66 140.504C375.391 145.453 379.06 149.208 383.668 151.768C388.276 154.243 393.396 155.48 399.028 155.48C401.503 155.48 403.892 155.139 406.196 154.456C408.585 153.773 410.804 152.749 412.852 151.384C414.388 150.616 415.881 150.36 417.332 150.616C418.783 150.787 420.02 151.512 421.044 152.792C422.409 154.584 422.921 156.419 422.58 158.296C422.239 160.088 421.172 161.453 419.38 162.392C417.417 163.587 415.327 164.611 413.108 165.464C410.889 166.317 408.585 167 406.196 167.512C403.807 168.024 401.417 168.28 399.028 168.28Z" fill="#6E7071"/>
<rect x="444.5" y="32.5" width="179" height="179" rx="89.5" fill="#323434"/>
<rect x="444.5" y="32.5" width="179" height="179" rx="89.5" stroke="url(#paint3_linear_1007_392)"/>
<path d="M515.316 150.616C513.524 150.616 511.988 150.104 510.708 149.08C509.428 147.971 508.788 146.605 508.788 144.984C508.788 143.277 509.428 141.912 510.708 140.888C511.988 139.864 513.524 139.352 515.316 139.352L554.996 139.48C556.788 139.48 558.324 139.992 559.604 141.016C560.884 142.04 561.524 143.405 561.524 145.112C561.524 146.733 560.884 148.099 559.604 149.208C558.324 150.232 556.788 150.744 554.996 150.744L515.316 150.616ZM515.188 132.696C513.311 132.696 511.732 132.184 510.452 131.16C509.257 130.051 508.66 128.643 508.66 126.936C508.66 125.315 509.257 123.992 510.452 122.968C511.732 121.859 513.311 121.304 515.188 121.304L554.74 121.432C556.617 121.432 558.153 121.987 559.348 123.096C560.628 124.12 561.268 125.443 561.268 127.064C561.268 128.771 560.628 130.179 559.348 131.288C558.153 132.312 556.617 132.824 554.74 132.824L515.188 132.696ZM562.804 77.016C564.425 77.016 565.876 77.656 567.156 78.936C568.521 80.1307 569.204 81.6667 569.204 83.544C569.204 84.2267 569.076 84.9093 568.82 85.592C568.649 86.1893 568.351 86.8293 567.924 87.512L539.252 128.984L541.3 121.432V160.472C541.3 162.349 540.66 163.928 539.38 165.208C538.1 166.403 536.436 167 534.388 167C532.34 167 530.676 166.403 529.396 165.208C528.116 163.928 527.476 162.349 527.476 160.472V122.456L528.372 126.168L500.596 88.408C499.913 87.4693 499.444 86.616 499.188 85.848C498.932 84.9947 498.804 84.184 498.804 83.416C498.804 82.136 499.188 81.0267 499.956 80.088C500.809 79.064 501.791 78.296 502.9 77.784C504.095 77.272 505.204 77.016 506.228 77.016C508.361 77.016 510.111 77.9973 511.476 79.96L536.564 117.464L533.62 117.08L557.428 80.088C558.025 79.064 558.836 78.296 559.86 77.784C560.884 77.272 561.865 77.016 562.804 77.016Z" fill="#6E7071"/>
<defs>
<linearGradient id="paint0_linear_1007_392" x1="29.3293" y1="32" x2="150.671" y2="212" gradientUnits="userSpaceOnUse">
<stop stop-color="#9C9D9D"/>
<stop offset="1" stop-color="#9C9D9D" stop-opacity="0"/>
</linearGradient>
<linearGradient id="paint1_linear_1007_392" x1="177.329" y1="32" x2="298.671" y2="212" gradientUnits="userSpaceOnUse">
<stop stop-color="#9C9D9D"/>
<stop offset="1" stop-color="#9C9D9D" stop-opacity="0"/>
</linearGradient>
<linearGradient id="paint2_linear_1007_392" x1="325.329" y1="32" x2="446.671" y2="212" gradientUnits="userSpaceOnUse">
<stop stop-color="#9C9D9D"/>
<stop offset="1" stop-color="#9C9D9D" stop-opacity="0"/>
</linearGradient>
<linearGradient id="paint3_linear_1007_392" x1="473.329" y1="32" x2="594.671" y2="212" gradientUnits="userSpaceOnUse">
<stop stop-color="#9C9D9D"/>
<stop offset="1" stop-color="#9C9D9D" stop-opacity="0"/>
</linearGradient>
</defs>
</svg>
