<svg width="570" height="680" viewBox="0 0 570 680" fill="none" xmlns="http://www.w3.org/2000/svg">
<rect width="570" height="680" rx="12" fill="#1B80BA"/>
<path d="M124 347C124 258.082 196.082 186 285 186C373.918 186 446 258.082 446 347V679H124V347Z" fill="#1E8DCC"/>
<path d="M124 347C124 258.082 196.082 186 285 186C373.918 186 446 258.082 446 347V679H124V347Z" stroke="url(#paint0_linear_521_2502)" stroke-width="2"/>
<g filter="url(#filter0_dddd_521_2502)">
<rect x="147" y="209" width="276" height="276" rx="138" fill="#4BA4D6"/>
<rect x="148" y="210" width="274" height="274" rx="137" stroke="url(#paint1_linear_521_2502)" stroke-width="2"/>
<path d="M342.915 341.28C342.915 373.065 319.84 402.835 288.315 411.545C286.17 412.13 283.83 412.13 281.685 411.545C250.16 402.835 227.085 373.065 227.085 341.28V312.745C227.085 307.415 231.115 301.37 236.12 299.355L272.325 284.535C280.45 281.22 289.615 281.22 297.74 284.535L333.945 299.355C338.885 301.37 342.98 307.415 342.98 312.745L342.915 341.28Z" stroke="#E9F4FA" stroke-width="10" stroke-linecap="round" stroke-linejoin="round"/>
<path d="M285 350.25C292.18 350.25 298 344.43 298 337.25C298 330.07 292.18 324.25 285 324.25C277.82 324.25 272 330.07 272 337.25C272 344.43 277.82 350.25 285 350.25Z" stroke="#E9F4FA" stroke-width="10" stroke-miterlimit="10" stroke-linecap="round" stroke-linejoin="round"/>
<path d="M285 350.25V369.75" stroke="#E9F4FA" stroke-width="10" stroke-miterlimit="10" stroke-linecap="round" stroke-linejoin="round"/>
</g>
<defs>
<filter id="filter0_dddd_521_2502" x="142" y="203" width="346" height="340" filterUnits="userSpaceOnUse" color-interpolation-filters="sRGB">
<feFlood flood-opacity="0" result="BackgroundImageFix"/>
<feColorMatrix in="SourceAlpha" type="matrix" values="0 0 0 0 0 0 0 0 0 0 0 0 0 0 0 0 0 0 127 0" result="hardAlpha"/>
<feOffset dx="3" dy="2"/>
<feGaussianBlur stdDeviation="4"/>
<feColorMatrix type="matrix" values="0 0 0 0 0 0 0 0 0 0 0 0 0 0 0 0 0 0 0.1 0"/>
<feBlend mode="normal" in2="BackgroundImageFix" result="effect1_dropShadow_521_2502"/>
<feColorMatrix in="SourceAlpha" type="matrix" values="0 0 0 0 0 0 0 0 0 0 0 0 0 0 0 0 0 0 127 0" result="hardAlpha"/>
<feOffset dx="11" dy="9"/>
<feGaussianBlur stdDeviation="7"/>
<feColorMatrix type="matrix" values="0 0 0 0 0 0 0 0 0 0 0 0 0 0 0 0 0 0 0.09 0"/>
<feBlend mode="normal" in2="effect1_dropShadow_521_2502" result="effect2_dropShadow_521_2502"/>
<feColorMatrix in="SourceAlpha" type="matrix" values="0 0 0 0 0 0 0 0 0 0 0 0 0 0 0 0 0 0 127 0" result="hardAlpha"/>
<feOffset dx="24" dy="20"/>
<feGaussianBlur stdDeviation="9.5"/>
<feColorMatrix type="matrix" values="0 0 0 0 0 0 0 0 0 0 0 0 0 0 0 0 0 0 0.05 0"/>
<feBlend mode="normal" in2="effect2_dropShadow_521_2502" result="effect3_dropShadow_521_2502"/>
<feColorMatrix in="SourceAlpha" type="matrix" values="0 0 0 0 0 0 0 0 0 0 0 0 0 0 0 0 0 0 127 0" result="hardAlpha"/>
<feOffset dx="43" dy="36"/>
<feGaussianBlur stdDeviation="11"/>
<feColorMatrix type="matrix" values="0 0 0 0 0 0 0 0 0 0 0 0 0 0 0 0 0 0 0.01 0"/>
<feBlend mode="normal" in2="effect3_dropShadow_521_2502" result="effect4_dropShadow_521_2502"/>
<feBlend mode="normal" in="SourceGraphic" in2="effect4_dropShadow_521_2502" result="shape"/>
</filter>
<linearGradient id="paint0_linear_521_2502" x1="123" y1="271.923" x2="374.057" y2="642.495" gradientUnits="userSpaceOnUse">
<stop offset="0.25" stop-color="#68B3DD"/>
<stop offset="1" stop-color="#68B3DD" stop-opacity="0"/>
</linearGradient>
<linearGradient id="paint1_linear_521_2502" x1="154.99" y1="209" x2="233.519" y2="529.472" gradientUnits="userSpaceOnUse">
<stop offset="0.25" stop-color="#68B3DD"/>
<stop offset="1" stop-color="#68B3DD" stop-opacity="0"/>
</linearGradient>
</defs>
</svg>
